<svg data-cjk-paths="1" xmlns="http://www.w3.org/2000/svg" width="1200" height="640" viewBox="0 0 1200 640"><rect width="1200" height="640" fill="#eef2f7"/><path d="M49.77 33.89L57.95 33.89L57.95 36.35L49.77 36.35M44.40 40.78L44.40 50.44L47.73 50.44L47.73 49.40L60.41 49.40L60.41 50.41L63.91 50.41L63.91 40.78L54.70 40.78L55.65 39.04L61.28 39.04L61.28 31.20L46.61 31.20L46.61 39.04L51.68 39.04L51.03 40.78M47.73 46.52L47.73 43.66L60.41 43.66L60.41 46.52M51.26 24.93C51.51 25.43 51.76 25.99 51.98 26.55L41.96 26.55L41.96 33.58L45.26 33.58L45.26 29.58L62.65 29.58L62.65 33.58L66.10 33.58L66.10 26.55L55.96 26.55C55.62 25.68 55.15 24.70 54.70 23.92M74.55 44.02C74.10 45.68 73.32 47.47 72.40 48.70C73.10 49.06 74.27 49.82 74.80 50.30C75.73 48.90 76.74 46.71 77.32 44.72M73.18 38.06L74.64 38.06L74.64 40.66L73.01 40.66M78.53 32.66L78.53 35.46L76.93 35.46L76.93 32.66L74.64 32.66L74.64 35.46L73.24 35.46L73.24 34.90L73.24 32.18L82.50 32.18L82.50 25.12L70.32 25.12L70.32 34.92C70.32 38.93 70.21 44.44 68.42 48.22C69.12 48.50 70.38 49.37 70.91 49.88C71.81 48.03 72.37 45.70 72.73 43.30L82.95 43.30L82.95 40.66L80.88 40.66L80.88 38.06L82.20 38.06L82.20 35.46L80.88 35.46L80.88 32.66M76.93 38.06L78.53 38.06L78.53 40.66L76.93 40.66M73.24 27.67L79.48 27.67L79.48 29.63L73.24 29.63M84.10 25.24L84.10 29.27C84.10 30.81 83.88 32.24 81.86 33.33C82.36 33.83 83.20 35.29 83.48 36.02L82.64 36.02L82.64 39.01L84.69 39.01L83.32 39.35C84.04 41.59 85 43.55 86.20 45.23C85.16 46.04 84.02 46.71 82.78 47.24C82.25 46.15 81.44 44.81 80.63 43.77L78.16 44.75C79.09 46.10 80.10 47.94 80.49 49.15L82.17 48.36C82.62 49.04 83.06 49.85 83.32 50.44C85.16 49.71 86.84 48.76 88.30 47.55C89.70 48.81 91.35 49.79 93.31 50.46C93.70 49.65 94.60 48.36 95.27 47.72C93.45 47.19 91.86 46.35 90.54 45.28C92.30 43.07 93.62 40.22 94.35 36.58L92.42 35.90L91.88 36.02L83.54 36.02C86.34 34.48 86.96 31.73 86.96 29.38L86.96 28.15L89.59 28.15L89.59 31.26C89.59 33.86 90.09 34.98 92.56 34.98C92.92 34.98 93.42 34.98 93.76 34.98C94.26 34.98 94.82 34.95 95.19 34.78C95.10 34.06 95.02 32.94 94.99 32.18C94.66 32.29 94.07 32.35 93.73 32.35C93.51 32.35 93.09 32.35 92.89 32.35C92.56 32.35 92.53 32.07 92.53 31.31L92.53 25.24M90.62 39.01C90.06 40.55 89.28 41.90 88.36 43.07C87.43 41.87 86.68 40.52 86.14 39.01M102.22 24.20C101.10 26.05 98.91 28.40 96.98 29.83C97.51 30.42 98.32 31.59 98.74 32.26C100.98 30.53 103.53 27.84 105.18 25.38M105.83 37.78C106.44 37.56 107.23 37.42 110.22 37.16C109.69 38.12 109.05 39.01 108.32 39.82C108.04 39.40 107.79 38.96 107.54 38.51L104.82 39.40C105.27 40.27 105.77 41.11 106.30 41.87C105.66 42.43 104.99 42.93 104.29 43.38C104.93 43.94 106.02 45.20 106.47 45.82C107.09 45.37 107.70 44.86 108.29 44.33C108.88 44.92 109.50 45.48 110.14 45.98C108.21 46.82 106.05 47.44 103.76 47.80C104.32 48.50 105.04 49.82 105.32 50.63C108.12 50.04 110.76 49.18 113.08 47.94C115.29 49.15 117.84 50.04 120.75 50.60C121.17 49.74 122.07 48.39 122.77 47.69C120.33 47.33 118.12 46.71 116.16 45.90C118.18 44.28 119.80 42.18 120.84 39.57L118.74 38.62L118.20 38.73L112.88 38.73C113.22 38.14 113.56 37.53 113.86 36.91L119.07 36.58C119.58 37.39 120.02 38.17 120.33 38.82L123.10 37.25C122.21 35.62 120.28 33.02 118.88 31.14L116.30 32.46L117.42 34.06L111.60 34.36C114.62 32.71 117.67 30.67 120.42 28.34L117.31 26.66C116.38 27.56 115.35 28.43 114.28 29.27L110.64 29.32C112.21 28.26 113.81 27 115.15 25.71L111.79 24.26C110.25 26.08 107.98 27.73 107.26 28.23C106.53 28.68 105.94 29.04 105.35 29.16C105.74 30.05 106.25 31.65 106.42 32.32C106.92 32.15 107.65 32.01 110.56 31.87C109.44 32.57 108.52 33.10 108.01 33.38C106.67 34.14 105.80 34.59 104.85 34.73C105.18 35.57 105.69 37.16 105.83 37.78M110.34 42.23L111.01 41.42L116.30 41.42C115.46 42.54 114.40 43.52 113.14 44.39C112.10 43.74 111.18 43.02 110.34 42.23M102.72 30.25C101.35 32.99 99 35.71 96.73 37.47C97.32 38.20 98.21 39.88 98.52 40.58C99.11 40.08 99.70 39.52 100.28 38.93L100.28 50.55L103.48 50.55L103.48 34.98C104.32 33.78 105.07 32.54 105.69 31.31M137.24 31.65L141.84 31.65L141.84 33.94L137.24 33.94M134.11 29.44L134.11 36.16L145.17 36.16L145.17 29.44M133.97 39.66L136.12 39.66L136.12 42.71L133.97 42.71M131.25 37.39L131.25 44.98L139.01 44.98L139.01 37.39M143.01 39.66L145.31 39.66L145.31 42.71L143.01 42.71M140.27 37.39L140.27 44.98L148.22 44.98L148.22 37.39M125.57 25.21L125.57 28.15L126.69 28.15L126.69 42.79C126.69 47.97 129.01 49.51 134 49.51C135.23 49.51 143.15 49.51 145.08 49.51C147.35 49.51 149.84 49.46 150.91 49.18C150.74 48.39 150.54 46.85 150.43 46.04C149.26 46.26 147.02 46.40 145.22 46.40C143.21 46.40 135.37 46.40 133.69 46.40C130.83 46.40 129.96 45.45 129.96 43.02L129.96 28.15L149.51 28.15L149.51 25.21M164.49 35.54L166.62 35.54L166.62 38.98L164.49 38.98M162.02 32.96L162.02 41.56L169.22 41.56L169.22 32.96M152.73 43.77L153.99 47.13C156.28 45.90 159.03 44.36 161.55 42.88L160.57 39.91L158.64 40.92L158.64 34.08L160.76 34.08L160.76 30.89L158.64 30.89L158.64 24.59L155.50 24.59L155.50 30.89L152.98 30.89L152.98 34.08L155.50 34.08L155.50 42.48C154.46 42.99 153.51 43.44 152.73 43.77M175.46 32.96C175.07 34.81 174.57 36.55 173.92 38.17C173.70 36.02 173.53 33.61 173.42 31.12L178.85 31.12L178.85 28.06L177.62 28.06L178.82 26.94C178.18 26.13 176.81 24.98 175.74 24.23L173.84 25.85C174.65 26.50 175.58 27.34 176.25 28.06L173.34 28.06C173.31 26.78 173.31 25.52 173.34 24.23L170.12 24.23L170.17 28.06L161.21 28.06L161.21 31.12L170.28 31.12C170.45 35.46 170.82 39.60 171.46 42.93C171.10 43.49 170.70 44.02 170.28 44.50L170.03 42.26C166.48 43.07 162.78 43.88 160.34 44.36L161.13 47.50C163.59 46.85 166.70 46.04 169.67 45.23C168.60 46.38 167.40 47.36 166.08 48.20C166.78 48.67 168.04 49.76 168.49 50.32C169.95 49.29 171.26 48.03 172.44 46.63C173.31 49.04 174.48 50.49 176.05 50.49C178.18 50.49 178.99 49.43 179.47 45.68C178.77 45.31 177.84 44.61 177.20 43.83C177.12 46.32 176.89 47.36 176.50 47.36C175.83 47.36 175.21 45.84 174.71 43.35C176.36 40.52 177.59 37.22 178.46 33.50M182.63 27C184.45 27.78 186.78 29.13 187.84 30.14L189.83 27.39C188.65 26.38 186.27 25.18 184.45 24.51M180.98 34.76C182.80 35.51 185.12 36.80 186.22 37.78L188.09 34.98C186.89 34.03 184.54 32.85 182.72 32.21M181.96 47.92L184.82 50.18C186.50 47.44 188.26 44.25 189.74 41.31L187.28 39.07C185.60 42.32 183.44 45.82 181.96 47.92M198.76 41.42C200.64 44.30 203.18 48.22 204.33 50.52L207.33 48.78C206.07 46.52 203.38 42.74 201.50 39.99M201.73 36.77L198.42 36.77C198.48 35.85 198.51 34.90 198.51 33.97L198.51 31.68L201.73 31.68M195.18 24.23L195.18 28.51L190.22 28.51L190.22 31.68L195.18 31.68L195.18 33.97C195.18 34.90 195.15 35.85 195.09 36.77L188.85 36.77L188.85 39.91L194.59 39.91C193.78 43.04 191.90 45.93 187.67 48.14C188.54 48.64 189.86 49.82 190.47 50.52C195.37 47.75 197.30 43.97 198.06 39.91L207.13 39.91L207.13 36.77L205.03 36.77L205.03 28.51L198.51 28.51L198.51 24.23M226.90 29.46C227.91 30.25 229.17 31.40 229.78 32.15L232.02 30.19C231.58 29.69 230.82 29.04 230.06 28.46L234.94 28.46L234.94 25.91L227.21 25.91L227.68 24.73L224.60 23.95C223.93 25.96 222.64 27.95 221.10 29.24C221.61 29.52 222.36 30.11 222.95 30.61L220.52 30.61L220.52 32.15L217.55 32.15L219.56 30.33C219.12 29.80 218.39 29.10 217.66 28.48L221.66 28.48L221.66 25.91L215.50 25.91L215.98 24.82L213.01 23.95C212.14 26.19 210.60 28.40 208.95 29.86C209.60 30.39 210.72 31.54 211.19 32.12C212.17 31.17 213.18 29.88 214.05 28.48L215.73 28.48L214.66 29.41C215.59 30.22 216.76 31.34 217.35 32.15L209.76 32.15L209.76 35.04L220.52 35.04L220.52 36.38L211.56 36.38L211.56 44.19L215.14 44.19L215.14 39.24L220.52 39.24L220.52 41.20C218.11 43.88 213.74 46.04 209.06 46.94C209.76 47.64 210.72 48.92 211.16 49.76C214.66 48.81 217.97 47.16 220.52 44.92L220.52 50.52L224.13 50.52L224.13 45.03C226.45 46.91 229.64 48.70 233.23 49.57C233.68 48.70 234.66 47.33 235.36 46.60C232.56 46.12 229.95 45.20 227.80 44.11C229.34 44.11 230.60 44.08 231.55 43.66C232.56 43.27 232.84 42.57 232.84 41.17L232.84 36.38L224.13 36.38L224.13 35.04L234.26 35.04L234.26 32.15L224.13 32.15L224.13 30.67C224.72 30.02 225.30 29.27 225.84 28.46L228.10 28.46M224.13 39.24L229.39 39.24L229.39 41.17C229.39 41.48 229.25 41.56 228.94 41.56C228.61 41.56 227.46 41.59 226.56 41.50C226.93 42.18 227.40 43.21 227.63 44.02C226.23 43.30 225.05 42.51 224.13 41.70" fill="#2c2416" aria-label="宮殿後區域決策"/><rect x="40" y="100" width="360" height="400" rx="8" fill="#fff" stroke="#2f5d3a" stroke-width="2"/><path d="M60.40 149.06L61.50 151.52C63.88 150.58 66.96 149.34 69.80 148.14L69.38 146L68.26 146.40L68.26 133.34L65.76 133.34L65.76 137.76L61.12 137.76L61.12 140.14L65.76 140.14L65.76 147.28C63.70 148 61.78 148.64 60.40 149.06M70.90 133.34L70.90 147.56C70.90 150.34 71.56 151.18 73.78 151.18C74.18 151.18 75.74 151.18 76.18 151.18C78.44 151.18 79 149.60 79.22 145.42C78.56 145.26 77.50 144.78 76.92 144.30C76.80 147.92 76.68 148.84 75.92 148.84C75.62 148.84 74.44 148.84 74.14 148.84C73.48 148.84 73.40 148.66 73.40 147.58L73.40 140.12L78.64 140.12L78.64 137.72L73.40 137.72L73.40 133.34M89.72 141.82C90.70 143.30 91.68 145.28 91.98 146.56L94.14 145.48C93.80 144.18 92.74 142.30 91.70 140.86M95.02 133.02L95.02 137.10L89.56 137.10L89.56 139.38L95.02 139.38L95.02 148.82C95.02 149.18 94.88 149.30 94.48 149.30C94.08 149.32 92.80 149.32 91.56 149.26C91.92 149.96 92.30 151.10 92.40 151.80C94.20 151.80 95.52 151.72 96.34 151.32C97.18 150.94 97.46 150.26 97.46 148.84L97.46 139.38L99.52 139.38L99.52 137.10L97.46 137.10L97.46 133.02M84 133L84 137.14L80.92 137.14L80.92 139.40L83.74 139.40C83.04 141.82 81.78 144.50 80.36 146.10C80.74 146.70 81.32 147.70 81.56 148.40C82.48 147.30 83.30 145.66 84 143.88L84 151.78L86.34 151.78L86.34 143.52C86.92 144.38 87.52 145.32 87.86 145.98L89.32 143.98C88.88 143.42 86.98 141.18 86.34 140.54L86.34 139.40L89 139.40L89 137.14L86.34 137.14L86.34 133M109.32 142.06L109.32 137.54L111.24 137.54C113.14 137.54 114.18 138.08 114.18 139.68C114.18 141.26 113.14 142.06 111.24 142.06M114.42 150L117.72 150L114.26 143.94C115.96 143.28 117.08 141.90 117.08 139.68C117.08 136.28 114.62 135.18 111.50 135.18L106.36 135.18L106.36 150L109.32 150L109.32 144.40L111.38 144.40M124.40 150.28C125.78 150.28 127.20 149.80 128.30 149.04L127.30 147.24C126.48 147.74 125.70 148 124.80 148C123.12 148 121.92 147.06 121.68 145.24L128.58 145.24C128.66 144.96 128.72 144.42 128.72 143.88C128.72 140.76 127.12 138.52 124.04 138.52C121.38 138.52 118.82 140.78 118.82 144.40C118.82 148.10 121.26 150.28 124.40 150.28M121.62 143.26C121.86 141.64 122.90 140.80 124.08 140.80C125.54 140.80 126.20 141.76 126.20 143.26M135 150.28C135.98 150.28 136.76 150.04 137.38 149.86L136.88 147.72C136.58 147.84 136.14 147.96 135.78 147.96C134.78 147.96 134.24 147.36 134.24 146.08L134.24 141.12L137.02 141.12L137.02 138.80L134.24 138.80L134.24 135.78L131.82 135.78L131.48 138.80L129.74 138.94L129.74 141.12L131.32 141.12L131.32 146.10C131.32 148.58 132.34 150.28 135 150.28M141.60 150.28C142.90 150.28 144.02 149.66 144.98 148.80L145.08 148.80L145.28 150L147.68 150L147.68 143.46C147.68 140.22 146.22 138.52 143.38 138.52C141.62 138.52 140.02 139.20 138.72 140L139.76 141.96C140.80 141.34 141.80 140.88 142.84 140.88C144.22 140.88 144.70 141.72 144.74 142.82C140.24 143.30 138.30 144.56 138.30 146.94C138.30 148.86 139.60 150.28 141.60 150.28M142.58 147.98C141.72 147.98 141.10 147.60 141.10 146.72C141.10 145.70 142 144.96 144.74 144.64L144.74 146.88C144.04 147.58 143.42 147.98 142.58 147.98M150.68 150L153.62 150L153.62 138.80L150.68 138.80M152.16 136.98C153.16 136.98 153.86 136.36 153.86 135.38C153.86 134.42 153.16 133.78 152.16 133.78C151.12 133.78 150.46 134.42 150.46 135.38C150.46 136.36 151.12 136.98 152.16 136.98M156.76 150L159.70 150L159.70 142.30C160.52 141.48 161.12 141.04 162.02 141.04C163.12 141.04 163.60 141.64 163.60 143.38L163.60 150L166.54 150L166.54 143.02C166.54 140.20 165.50 138.52 163.08 138.52C161.56 138.52 160.42 139.32 159.44 140.28L159.38 140.28L159.16 138.80L156.76 138.80" fill="#2f5d3a" aria-label="北村 Retain"/><path d="M68.88 193.15L72.50 193.15L72.50 194.66L68.88 194.66M62.19 194.15L65.36 194.15L65.36 195.34L62.19 195.34M62.19 192.16L65.36 192.16L65.36 193.29L62.19 193.29M72.21 190.73L70.03 190.73L70.22 189.50L72.21 189.50M69.38 187.40L69.25 188.62L67.52 188.62L67.52 189.50L69.16 189.50L69 190.73L66.73 190.73L66.73 191.65L74.37 191.65L74.37 190.73L73.22 190.73L73.22 188.62L70.32 188.62L70.42 187.49M67.22 196.31L67.22 197.21L68.22 197.21C68.04 198.02 67.83 198.94 67.64 199.56L70.64 199.56L70.64 201.19L71.69 201.19L71.69 199.56L74.37 199.56L74.37 198.66L71.69 198.66L71.69 197.21L74.04 197.21L74.04 196.31L71.69 196.31L71.69 195.44L73.58 195.44L73.58 192.34L67.81 192.34L67.81 195.44L70.64 195.44L70.64 196.31M70.64 197.21L70.64 198.66L68.89 198.66L69.21 197.21M60.63 197.50L60.63 198.51L63.21 198.51L63.21 201.19L64.31 201.19L64.31 198.51L66.83 198.51L66.83 197.50L64.31 197.50L64.31 196.22L66.39 196.22L66.39 191.24L64.31 191.24L64.31 189.98L66.69 189.98L66.69 188.97L64.31 188.97L64.31 187.37L63.21 187.37L63.21 188.97L60.78 188.97L60.78 189.98L63.21 189.98L63.21 191.24L61.19 191.24L61.19 196.22L63.21 196.22L63.21 197.50M78.24 189.11L87.15 189.11L87.15 190.59L78.24 190.59M77.11 188.16L77.11 192.35C77.11 194.79 76.98 198.20 75.51 200.63C75.80 200.74 76.31 201 76.52 201.20C78.03 198.68 78.24 194.94 78.24 192.35L78.24 191.54L88.28 191.54L88.28 188.16M79.25 196.34C79.56 196.22 80.03 196.16 82.92 195.97L82.92 197.28L79.02 197.28L79.02 198.22L82.92 198.22L82.92 199.85L77.88 199.85L77.88 200.76L89.20 200.76L89.20 199.85L84.02 199.85L84.02 198.22L88.05 198.22L88.05 197.28L84.02 197.28L84.02 195.89L86.79 195.72C87.18 196.07 87.51 196.41 87.75 196.70L88.64 196.10C87.97 195.35 86.66 194.27 85.58 193.53L88.75 193.53L88.75 192.60L78.33 192.60L78.33 193.53L81.21 193.53C80.59 194.16 79.98 194.69 79.74 194.85C79.42 195.11 79.16 195.26 78.90 195.31C79.02 195.59 79.19 196.10 79.25 196.34M84.73 194.03C85.09 194.28 85.47 194.59 85.84 194.88L80.83 195.16C81.47 194.68 82.08 194.12 82.64 193.53L85.53 193.53M97.75 187.35C96.22 189.68 93.45 191.69 90.60 192.81C90.92 193.07 91.23 193.50 91.41 193.81C92.19 193.46 92.97 193.06 93.72 192.59L93.72 193.34L101.30 193.34L101.30 192.34C102.08 192.83 102.89 193.26 103.74 193.67C103.91 193.31 104.25 192.91 104.53 192.65C102.15 191.65 100.02 190.40 98.27 188.54L98.75 187.87M94.16 192.31C95.43 191.47 96.61 190.46 97.59 189.35C98.73 190.55 99.93 191.50 101.23 192.31M92.94 195.14L92.94 201.17L94.08 201.17L94.08 200.33L101.07 200.33L101.07 201.11L102.25 201.11L102.25 195.14M94.08 199.28L94.08 196.16L101.07 196.16L101.07 199.28M112.92 193.90L117.31 193.90L117.31 196.18L112.92 196.18M111.87 192.95L111.87 197.12L118.42 197.12L118.42 192.95M110.10 198.13C110.28 199.12 110.40 200.38 110.42 201.14L111.51 200.97C111.50 200.22 111.33 198.98 111.14 198.02M113.31 198.08C113.70 199.06 114.08 200.34 114.22 201.11L115.33 200.87C115.19 200.07 114.77 198.83 114.36 197.88M116.37 198C117.09 199 117.91 200.38 118.28 201.23L119.34 200.75C118.97 199.90 118.11 198.56 117.39 197.59M107.61 197.69C107.11 198.80 106.32 200.04 105.64 200.79L106.72 201.28C107.42 200.42 108.17 199.12 108.69 198M107.46 189.05L109.71 189.05L109.71 191.69L107.46 191.69M107.46 195.62L107.46 192.68L109.71 192.68L109.71 195.62M106.39 188.04L106.39 197.41L107.46 197.41L107.46 196.64L110.76 196.64L110.76 188.04M111.42 188.01L111.42 189.02L113.92 189.02C113.63 190.41 112.92 191.38 110.94 191.91C111.17 192.09 111.45 192.50 111.57 192.75C113.85 192.05 114.70 190.84 115.03 189.02L117.72 189.02C117.61 190.44 117.51 191.03 117.31 191.22C117.21 191.33 117.08 191.34 116.86 191.34C116.63 191.34 116.01 191.34 115.35 191.28C115.52 191.54 115.62 191.93 115.64 192.22C116.33 192.26 117 192.25 117.34 192.23C117.73 192.20 117.99 192.11 118.23 191.87C118.55 191.53 118.69 190.64 118.83 188.45C118.84 188.30 118.86 188.01 118.86 188.01M126.36 195.83L132.53 195.83L132.53 196.70L126.36 196.70M126.36 197.41L132.53 197.41L132.53 198.28L126.36 198.28M126.36 194.28L132.53 194.28L132.53 195.13L126.36 195.13M125.31 193.56L125.31 199L133.62 199L133.62 193.56M130.19 199.75C131.47 200.19 132.79 200.78 133.57 201.25L134.53 200.59C133.66 200.12 132.21 199.55 130.92 199.12M127.71 199.09C126.93 199.61 125.47 200.15 124.17 200.47C124.38 200.65 124.65 200.99 124.78 201.22C126.12 200.88 127.61 200.31 128.52 199.67M125 189.91L125 192.84L133.80 192.84L133.80 189.91L131.12 189.91L131.12 189.02L134.26 189.02L134.26 188.15L124.64 188.15L124.64 189.02L127.59 189.02L127.59 189.91M128.50 189.02L130.17 189.02L130.17 189.91L128.50 189.91M125.98 190.66L127.59 190.66L127.59 192.09L125.98 192.09M128.50 190.66L130.17 190.66L130.17 192.09L128.50 192.09M131.12 190.66L132.76 190.66L132.76 192.09L131.12 192.09M123.50 187.47C122.78 189.80 121.58 192.11 120.27 193.61C120.47 193.90 120.75 194.48 120.86 194.75C121.35 194.16 121.83 193.49 122.28 192.74L122.28 201.20L123.36 201.20L123.36 190.72C123.81 189.77 124.22 188.76 124.53 187.76M143.99 187.40C143.94 187.85 143.87 188.39 143.79 188.93L139.94 188.93L139.94 189.94L143.61 189.94C143.52 190.44 143.43 190.93 143.32 191.33L140.73 191.33L140.73 199.79L139.29 199.79L139.29 200.76L149.37 200.76L149.37 199.79L148.03 199.79L148.03 191.33L144.34 191.33C144.47 190.93 144.59 190.44 144.69 189.94L148.92 189.94L148.92 188.93L144.91 188.93L145.19 187.47M141.75 199.79L141.75 198.54L146.99 198.54L146.99 199.79M141.75 194.31L146.99 194.31L146.99 195.60L141.75 195.60M141.75 193.47L141.75 192.22L146.99 192.22L146.99 193.47M141.75 196.41L146.99 196.41L146.99 197.72L141.75 197.72M138.96 187.41C138.16 189.69 136.86 191.93 135.48 193.40C135.68 193.67 135.99 194.25 136.11 194.51C136.54 194.03 136.98 193.47 137.38 192.88L137.38 201.20L138.44 201.20L138.44 191.16C139.03 190.09 139.56 188.91 140 187.75M152.50 187.99L152.50 192.57L153.60 192.57L153.60 188.82L161.40 188.82L161.40 192.57L162.54 192.57L162.54 187.99M154.26 189.74L154.26 190.49L160.74 190.49L160.74 189.74M154.26 191.41L154.26 192.19L160.71 192.19L160.71 191.41M155.88 194.12L155.88 195.09L153.15 195.09L153.15 194.12M150.66 199.26L150.78 200.24C152.16 200.09 154.03 199.88 155.88 199.66L155.88 201.20L156.94 201.20L156.94 194.12L164.10 194.12L164.10 193.18L150.85 193.18L150.85 194.12L152.12 194.12L152.12 199.13M157.37 195.05L157.37 195.97L158.79 195.97L158.13 196.16C158.55 197.18 159.12 198.08 159.84 198.84C158.97 199.49 158 199.97 156.99 200.27C157.20 200.50 157.49 200.90 157.60 201.16C158.67 200.79 159.69 200.27 160.60 199.56C161.47 200.28 162.53 200.84 163.69 201.19C163.86 200.93 164.15 200.51 164.38 200.31C163.25 200.03 162.22 199.53 161.37 198.89C162.34 197.94 163.13 196.76 163.59 195.29L162.90 195L162.71 195.05M159.07 195.97L162.22 195.97C161.84 196.82 161.26 197.57 160.59 198.22C159.94 197.57 159.44 196.81 159.07 195.97M155.88 195.95L155.88 196.96L153.15 196.96L153.15 195.95M155.88 197.79L155.88 198.74L153.15 199.04L153.15 197.79M169.29 191.62L175.78 191.62L175.78 192.98L169.29 192.98M168.16 190.79L168.16 193.81L176.96 193.81L176.96 190.79M171.62 187.61L172.05 188.96L165.88 188.96L165.88 189.95L179.06 189.95L179.06 188.96L173.29 188.96C173.13 188.48 172.91 187.85 172.69 187.35M166.44 194.65L166.44 201.19L167.52 201.19L167.52 195.59L177.45 195.59L177.45 200.01C177.45 200.18 177.38 200.24 177.19 200.24C177.01 200.24 176.31 200.25 175.66 200.22C175.80 200.47 175.97 200.81 176.03 201.08C176.99 201.08 177.63 201.08 178.03 200.94C178.44 200.79 178.57 200.56 178.57 200L178.57 194.65M169.22 196.47L169.22 200.31L170.28 200.31L170.28 199.56L175.59 199.56L175.59 196.47M170.28 197.31L174.57 197.31L174.57 198.72L170.28 198.72" fill="#2c2416" aria-label="韓屋合照價值最高"/><path d="M65.86 222.40C65.69 223.04 65.46 223.71 65.20 224.35L60.95 224.35L60.95 225.40L64.72 225.40C63.78 227.34 62.40 229.13 60.65 230.34C60.87 230.56 61.22 230.95 61.38 231.21C62.30 230.56 63.10 229.76 63.81 228.90L63.81 231.12C63.81 232.53 63.67 234.21 62.43 235.41C62.64 235.57 63.08 236.03 63.21 236.28C64.11 235.45 64.55 234.32 64.75 233.22L71.22 233.22L71.22 234.78C71.22 235 71.14 235.09 70.89 235.09C70.61 235.10 69.69 235.12 68.70 235.07C68.85 235.39 69.02 235.85 69.08 236.16C70.36 236.16 71.19 236.16 71.69 235.99C72.18 235.79 72.33 235.45 72.33 234.79L72.33 227.14L65.03 227.14C65.37 226.59 65.67 226 65.95 225.40L74.08 225.40L74.08 224.35L66.41 224.35C66.63 223.79 66.83 223.22 67 222.67M71.22 230.66L71.22 232.24L64.89 232.24C64.92 231.85 64.94 231.47 64.94 231.13L64.94 230.66M71.22 229.71L64.94 229.71L64.94 228.16L71.22 228.16M80.97 224.62L80.97 228.52C80.97 230.63 80.75 233.40 78.83 235.33C79.06 235.47 79.50 235.84 79.68 236.06C81.51 234.21 81.96 231.47 82.03 229.28L82.20 229.28C82.74 230.89 83.52 232.27 84.54 233.41C83.55 234.25 82.41 234.88 81.22 235.27C81.47 235.50 81.75 235.91 81.89 236.19C83.11 235.72 84.28 235.06 85.29 234.18C86.27 235.04 87.42 235.72 88.75 236.16C88.92 235.87 89.23 235.44 89.47 235.21C88.17 234.84 87.03 234.22 86.07 233.43C87.24 232.16 88.16 230.54 88.66 228.50L87.96 228.25L87.77 228.29L85.50 228.29L85.50 225.67L87.97 225.67C87.80 226.38 87.58 227.08 87.41 227.57L88.39 227.80C88.71 227.05 89.07 225.82 89.37 224.77L88.56 224.57L88.36 224.62L85.50 224.62L85.50 222.40L84.41 222.40L84.41 224.62M84.41 225.67L84.41 228.29L82.05 228.29L82.05 225.67M87.33 229.28C86.88 230.62 86.17 231.75 85.29 232.69C84.41 231.73 83.72 230.59 83.23 229.28M75.51 232.56L75.96 233.66C77.23 233.09 78.90 232.34 80.46 231.63L80.20 230.63L78.63 231.31L78.63 227.08L80.28 227.08L80.28 226.01L78.63 226.01L78.63 222.58L77.56 222.58L77.56 226.01L75.70 226.01L75.70 227.08L77.56 227.08L77.56 231.75C76.78 232.06 76.08 232.34 75.51 232.56M98.66 231.47L99.67 230.62C98.75 229.51 97.38 228.16 96.31 227.29L95.34 228.15C96.41 229.01 97.68 230.29 98.66 231.47M114.77 231.94C114.22 232.68 113.55 233.25 112.69 233.71C111.64 233.49 110.56 233.29 109.48 233.11C109.75 232.75 110.04 232.36 110.34 231.94M107.69 233.71C108.89 233.91 110.06 234.12 111.18 234.34C109.74 234.82 107.95 235.07 105.77 235.21C105.94 235.48 106.13 235.88 106.20 236.20C109.05 235.97 111.27 235.54 112.97 234.73C114.94 235.19 116.66 235.69 117.91 236.17L118.95 235.36C117.69 234.93 116.03 234.46 114.16 234.04C114.96 233.47 115.61 232.78 116.11 231.94L119.20 231.94L119.20 230.98L116.59 230.98L116.82 230.40L115.72 230.09C115.62 230.41 115.50 230.69 115.35 230.98L110.97 230.98C111.24 230.53 111.51 230.08 111.72 229.65L110.59 229.39C110.36 229.88 110.04 230.44 109.69 230.98L105.81 230.98L105.81 231.94L109.06 231.94C108.60 232.60 108.12 233.22 107.69 233.71M106.78 225.32L106.78 229.21L118.32 229.21L118.32 225.32L114.70 225.32L114.70 224.05L118.95 224.05L118.95 223.04L106.03 223.04L106.03 224.05L110.13 224.05L110.13 225.32M111.19 224.05L113.64 224.05L113.64 225.32L111.19 225.32M107.85 226.25L110.13 226.25L110.13 228.29L107.85 228.29M111.19 226.25L113.64 226.25L113.64 228.29L111.19 228.29M114.70 226.25L117.21 226.25L117.21 228.29L114.70 228.29M126.27 222.61C126.53 223.07 126.81 223.65 127.02 224.13L121.39 224.13L121.39 227.17L122.52 227.17L122.52 225.19L132.44 225.19L132.44 227.17L133.62 227.17L133.62 224.13L128.41 224.13C128.19 223.60 127.80 222.87 127.47 222.31M129.65 229.53C129.27 230.68 128.75 231.61 128.03 232.36C126.90 231.91 125.76 231.49 124.68 231.15C125 230.66 125.34 230.11 125.67 229.53M122.88 231.66C124.22 232.07 125.67 232.60 127.08 233.19C125.67 234.19 123.72 234.78 121.13 235.12C121.36 235.41 121.74 235.94 121.84 236.23C124.68 235.75 126.80 235 128.32 233.72C130.19 234.55 131.88 235.42 132.97 236.19L133.83 235.21C132.68 234.46 131.03 233.62 129.21 232.85C129.97 231.97 130.56 230.88 130.98 229.53L134.03 229.53L134.03 228.44L131.26 228.44C131.37 228.01 131.46 227.56 131.53 227.08L130.20 226.96C130.13 227.49 130.05 227.98 129.94 228.44L126.27 228.44C126.70 227.63 127.11 226.81 127.41 226.04L126.14 225.81C125.82 226.63 125.39 227.54 124.91 228.44L121.03 228.44L121.03 229.53L124.29 229.53C123.83 230.32 123.33 231.07 122.88 231.66M148.20 222.56C146.79 223.03 144.21 223.42 142.02 223.65C142.14 223.87 142.28 224.23 142.32 224.46C144.57 224.26 147.25 223.88 149 223.34M142.46 225.04C142.83 225.66 143.19 226.48 143.32 227.02L144.19 226.66C144.03 226.13 143.67 225.31 143.26 224.72M144.56 224.65C144.82 225.31 145.08 226.18 145.16 226.74L146.09 226.51C145.98 225.97 145.72 225.10 145.43 224.46M147.88 224.19C147.65 224.86 147.16 225.85 146.82 226.45L147.65 226.74C148.02 226.15 148.46 225.26 148.83 224.47M142.69 227.09L142.69 228.03L144.85 228.03L144.85 229.33L142 229.33L142 230.32L144.85 230.32L144.85 231.73L142.65 231.73L142.65 232.66L144.85 232.66L144.85 234.94C144.85 235.12 144.79 235.16 144.63 235.16C144.44 235.18 143.85 235.18 143.22 235.15C143.35 235.44 143.50 235.87 143.55 236.16C144.42 236.16 145.02 236.13 145.40 235.97C145.78 235.81 145.91 235.53 145.91 234.96L145.91 232.66L148.50 232.66L148.50 230.32L149.49 230.32L149.49 229.33L148.50 229.33L148.50 227.09M145.91 230.32L147.54 230.32L147.54 231.73L145.91 231.73M145.91 229.33L145.91 228.03L147.54 228.03L147.54 229.33M138.41 222.40L138.41 223.74L135.97 223.74L135.97 224.59L138.41 224.59L138.41 225.49L136.38 225.49L136.38 226.30L138.41 226.30L138.41 227.28L135.72 227.28L135.72 228.13L141.99 228.13L141.99 227.28L139.47 227.28L139.47 226.30L141.39 226.30L141.39 225.49L139.47 225.49L139.47 224.59L141.78 224.59L141.78 223.74L139.47 223.74L139.47 222.40M140.34 231.73L140.34 232.81L137.40 232.81L137.41 232.30L137.41 231.73M140.34 230.92L137.41 230.92L137.41 229.87L140.34 229.87M136.44 229L136.44 232.27C136.44 233.35 136.37 234.59 135.69 235.53C135.88 235.68 136.28 236.06 136.40 236.28C136.98 235.54 137.24 234.56 137.34 233.62L140.34 233.62L140.34 235.06C140.34 235.24 140.28 235.28 140.10 235.30C139.92 235.30 139.31 235.31 138.62 235.28C138.75 235.54 138.91 235.91 138.96 236.16C139.91 236.16 140.47 236.16 140.84 235.99C141.21 235.85 141.31 235.57 141.31 235.07L141.31 229" fill="#2c2416" aria-label="有坡、要安靜"/><path d="M65.66 270.19C67.08 270.19 68.16 269.63 69.03 268.62L68.27 267.74C67.56 268.51 66.77 268.98 65.72 268.98C63.62 268.98 62.30 267.24 62.30 264.46C62.30 261.72 63.69 260.02 65.76 260.02C66.70 260.02 67.42 260.44 68.01 261.06L68.76 260.16C68.13 259.45 67.08 258.81 65.75 258.81C62.95 258.81 60.87 260.95 60.87 264.51C60.87 268.08 62.91 270.19 65.66 270.19M74.11 270.19C76.11 270.19 77.88 268.63 77.88 265.94C77.88 263.22 76.11 261.64 74.11 261.64C72.12 261.64 70.35 263.22 70.35 265.94C70.35 268.63 72.12 270.19 74.11 270.19M74.11 269.06C72.70 269.06 71.76 267.81 71.76 265.94C71.76 264.06 72.70 262.80 74.11 262.80C75.52 262.80 76.48 264.06 76.48 265.94C76.48 267.81 75.52 269.06 74.11 269.06M80.04 270L81.42 270L81.42 264.76C81.96 263.38 82.78 262.88 83.46 262.88C83.80 262.88 83.98 262.92 84.25 263.01L84.51 261.82C84.25 261.69 84 261.64 83.64 261.64C82.74 261.64 81.90 262.31 81.33 263.34L81.30 263.34L81.16 261.86L80.04 261.86M88.99 270.19C90.09 270.19 90.96 269.83 91.66 269.37L91.18 268.45C90.57 268.86 89.94 269.10 89.14 269.10C87.60 269.10 86.53 267.99 86.44 266.25L91.93 266.25C91.96 266.04 91.99 265.77 91.99 265.47C91.99 263.14 90.82 261.64 88.74 261.64C86.88 261.64 85.09 263.28 85.09 265.94C85.09 268.62 86.82 270.19 88.99 270.19M86.43 265.27C86.59 263.65 87.61 262.74 88.77 262.74C90.04 262.74 90.79 263.63 90.79 265.27M96.82 258.46L96.82 259.59L107.19 259.59L107.19 269.56C107.19 269.88 107.08 269.97 106.75 270C106.39 270 105.16 270.01 103.96 269.95C104.14 270.29 104.35 270.84 104.43 271.17C105.91 271.17 106.96 271.17 107.56 270.98C108.15 270.78 108.36 270.39 108.36 269.58L108.36 259.59L110.20 259.59L110.20 258.46M99.45 262.88L103.39 262.88L103.39 266.32L99.45 266.32M98.35 261.80L98.35 268.61L99.45 268.61L99.45 267.40L104.50 267.40L104.50 261.80M113.71 267.17C113.89 268.19 114.06 269.50 114.09 270.39L114.91 270.18C114.87 269.31 114.70 268 114.52 266.99M112.15 267.05C112.02 268.26 111.81 269.61 111.46 270.52C111.69 270.60 112.09 270.75 112.29 270.86C112.59 269.91 112.86 268.50 113.02 267.21M115.33 266.85C115.65 267.78 116.02 269 116.17 269.79L116.95 269.50C116.79 268.73 116.41 267.54 116.07 266.61M118.53 260.82C118.20 262.35 117.55 264.25 116.62 265.61C116.47 264.92 116.10 263.85 115.71 263.02L114.94 263.30C115.14 263.76 115.35 264.31 115.51 264.82L113.14 265.17C114.33 263.73 115.48 261.93 116.43 260.16L115.57 259.62C115.24 260.34 114.85 261.06 114.46 261.72L112.90 261.86C113.71 260.71 114.51 259.25 115.14 257.82L114.21 257.42C113.62 259.05 112.62 260.77 112.29 261.21C111.99 261.68 111.75 261.98 111.51 262.04C111.61 262.31 111.78 262.80 111.82 263.01C112.02 262.92 112.33 262.85 113.89 262.65C113.37 263.49 112.89 264.13 112.66 264.40C112.23 264.96 111.90 265.35 111.60 265.43C111.72 265.69 111.87 266.19 111.91 266.40C112.18 266.25 112.63 266.14 115.74 265.63L115.83 266.04L116.53 265.75L116.35 266C116.55 266.18 116.82 266.54 116.95 266.75C117.22 266.42 117.46 266.06 117.70 265.67L117.70 271.19L118.65 271.19L118.65 263.75C119.02 262.85 119.31 261.92 119.53 261.06M119.83 263.94L119.83 271.19L120.81 271.19L120.81 270.48L123.90 270.48L123.90 271.11L124.90 271.11L124.90 263.94L122.47 263.94L122.89 262.43L125.19 262.43L125.19 261.50L119.52 261.50L119.52 262.43L121.75 262.43C121.68 262.92 121.56 263.48 121.45 263.94M120 257.73C120.22 258.06 120.43 258.48 120.60 258.86L116.80 258.86L116.80 261.33L117.84 261.33L117.84 259.80L124.08 259.80L124.08 261.12L125.13 261.12L125.13 258.86L121.74 258.86C121.56 258.39 121.23 257.79 120.88 257.32M120.81 267.60L123.90 267.60L123.90 269.56L120.81 269.56M120.81 266.69L120.81 264.87L123.90 264.87L123.90 266.69M132.66 258.06L132.66 259.10L140.22 259.10L140.22 258.06M133.56 266.31C133.99 267.29 134.43 268.59 134.58 269.43L135.58 269.16C135.43 268.32 134.97 267.03 134.49 266.06M134.19 261.72L138.54 261.72L138.54 264.44L134.19 264.44M133.14 260.70L133.14 265.45L139.63 265.45L139.63 260.70M138.09 265.95C137.79 267.09 137.22 268.63 136.72 269.69L132.03 269.69L132.03 270.74L140.37 270.74L140.37 269.69L137.80 269.69C138.28 268.69 138.79 267.35 139.23 266.20M127.96 257.42C127.72 259.21 127.29 261.01 126.57 262.19C126.82 262.32 127.27 262.62 127.45 262.79C127.83 262.14 128.14 261.33 128.40 260.44L129.22 260.44L129.22 262.77L129.21 263.37L126.63 263.37L126.63 264.39L129.16 264.39C128.98 266.34 128.40 268.53 126.54 270.18C126.75 270.33 127.17 270.72 127.32 270.94C128.62 269.77 129.37 268.27 129.79 266.77C130.38 267.62 131.16 268.79 131.50 269.40L132.25 268.47C131.94 268.02 130.60 266.20 130.06 265.55C130.12 265.15 130.17 264.76 130.20 264.39L132.33 264.39L132.33 263.37L130.26 263.37L130.27 262.79L130.27 260.44L132.13 260.44L132.13 259.43L128.67 259.43C128.80 258.82 128.91 258.21 129 257.60" fill="#2c2416" aria-label="Core 可縮短"/><rect x="420" y="100" width="360" height="400" rx="8" fill="#fff" stroke="#2c2416" stroke-width="2"/><path d="M448.04 136.22L448.04 138.76L458.58 138.76L458.58 136.22M446.94 148.02L446.94 150.58L459.38 150.58L459.38 148.02M445.32 133.08C444.20 136.06 442.32 138.98 440.32 140.84C440.76 141.44 441.48 142.76 441.74 143.36C442.28 142.82 442.82 142.22 443.34 141.56L443.34 151.76L445.74 151.76L445.74 137.94C446.50 136.62 447.16 135.22 447.70 133.86M468.64 132.96L468.64 135.12L460.88 135.12L460.88 137.40L468.64 137.40L468.64 139.18L462.48 139.18L462.48 141.46L477.48 141.46L477.48 139.18L471.16 139.18L471.16 137.40L479.16 137.40L479.16 135.12L471.16 135.12L471.16 132.96M463.60 146.70C464.50 147.78 465.74 149.30 466.30 150.20L468.38 148.90C467.78 148.08 466.60 146.76 465.72 145.76L472.20 145.76L472.20 148.98C472.20 149.26 472.08 149.32 471.72 149.34C471.36 149.34 469.98 149.34 468.86 149.30C469.20 149.96 469.56 150.98 469.66 151.66C471.36 151.66 472.62 151.66 473.52 151.30C474.44 150.94 474.70 150.30 474.70 149.04L474.70 145.76L478.70 145.76L478.70 143.48L474.70 143.48L474.70 142.10L472.20 142.10L472.20 143.48L461.34 143.48L461.34 145.76L465.24 145.76M489.42 137.26L489.42 139.22L495.64 139.22L495.64 137.26M480.50 140.44C481.70 141 483.38 141.90 484.16 142.50L485.46 140.50C484.60 139.90 482.90 139.08 481.72 138.62M481 149.86L483.14 151.48C484.22 149.54 485.34 147.34 486.24 145.28L484.38 143.68C483.32 145.94 481.98 148.38 481 149.86M486.32 133.74L486.32 151.80L488.58 151.80L488.58 135.90L496.44 135.90L496.44 149.02C496.44 149.34 496.34 149.44 496.06 149.44C495.72 149.44 494.76 149.46 493.84 149.40C494.16 150.04 494.48 151.16 494.54 151.80C496.08 151.80 497.10 151.76 497.82 151.34C498.54 150.96 498.74 150.26 498.74 149.06L498.74 133.74M481.44 135.06C482.58 135.64 484.18 136.56 484.94 137.18L486.32 135.24C485.52 134.64 483.86 133.80 482.76 133.28M489.74 140.54L489.74 148.52L491.58 148.52L491.58 147.34L495.28 147.34L495.28 140.54M491.58 142.52L493.38 142.52L493.38 145.36L491.58 145.36M512.24 150.28C516.16 150.28 518.86 147.34 518.86 142.52C518.86 137.72 516.16 134.92 512.24 134.92C508.32 134.92 505.62 137.72 505.62 142.52C505.62 147.34 508.32 150.28 512.24 150.28M512.24 147.72C510.04 147.72 508.66 145.68 508.66 142.52C508.66 139.36 510.04 137.46 512.24 137.46C514.44 137.46 515.84 139.36 515.84 142.52C515.84 145.68 514.44 147.72 512.24 147.72M521.52 154.30L524.46 154.30L524.46 150.88L524.36 149.06C525.20 149.84 526.16 150.28 527.14 150.28C529.60 150.28 531.90 148.06 531.90 144.22C531.90 140.78 530.24 138.52 527.50 138.52C526.28 138.52 525.14 139.16 524.20 139.96L524.14 139.96L523.92 138.80L521.52 138.80M526.50 147.86C525.88 147.86 525.18 147.64 524.46 147.02L524.46 142.08C525.22 141.32 525.90 140.94 526.66 140.94C528.20 140.94 528.88 142.12 528.88 144.26C528.88 146.70 527.82 147.86 526.50 147.86M537.94 150.28C538.92 150.28 539.70 150.04 540.32 149.86L539.82 147.72C539.52 147.84 539.08 147.96 538.72 147.96C537.72 147.96 537.18 147.36 537.18 146.08L537.18 141.12L539.96 141.12L539.96 138.80L537.18 138.80L537.18 135.78L534.76 135.78L534.42 138.80L532.68 138.94L532.68 141.12L534.26 141.12L534.26 146.10C534.26 148.58 535.28 150.28 537.94 150.28M542.26 150L545.20 150L545.20 138.80L542.26 138.80M543.74 136.98C544.74 136.98 545.44 136.36 545.44 135.38C545.44 134.42 544.74 133.78 543.74 133.78C542.70 133.78 542.04 134.42 542.04 135.38C542.04 136.36 542.70 136.98 543.74 136.98M553.02 150.28C555.82 150.28 558.40 148.12 558.40 144.40C558.40 140.68 555.82 138.52 553.02 138.52C550.20 138.52 547.64 140.68 547.64 144.40C547.64 148.12 550.20 150.28 553.02 150.28M553.02 147.88C551.48 147.88 550.64 146.52 550.64 144.40C550.64 142.30 551.48 140.92 553.02 140.92C554.54 140.92 555.40 142.30 555.40 144.40C555.40 146.52 554.54 147.88 553.02 147.88M560.86 150L563.80 150L563.80 142.30C564.62 141.48 565.22 141.04 566.12 141.04C567.22 141.04 567.70 141.64 567.70 143.38L567.70 150L570.64 150L570.64 143.02C570.64 140.20 569.60 138.52 567.18 138.52C565.66 138.52 564.52 139.32 563.54 140.28L563.48 140.28L563.26 138.80L560.86 138.80M576.42 150.28C577.72 150.28 578.84 149.66 579.80 148.80L579.90 148.80L580.10 150L582.50 150L582.50 143.46C582.50 140.22 581.04 138.52 578.20 138.52C576.44 138.52 574.84 139.20 573.54 140L574.58 141.96C575.62 141.34 576.62 140.88 577.66 140.88C579.04 140.88 579.52 141.72 579.56 142.82C575.06 143.30 573.12 144.56 573.12 146.94C573.12 148.86 574.42 150.28 576.42 150.28M577.40 147.98C576.54 147.98 575.92 147.60 575.92 146.72C575.92 145.70 576.82 144.96 579.56 144.64L579.56 146.88C578.86 147.58 578.24 147.98 577.40 147.98M588.28 150.28C588.96 150.28 589.44 150.16 589.78 150.02L589.42 147.84C589.22 147.88 589.14 147.88 589.02 147.88C588.74 147.88 588.44 147.66 588.44 146.98L588.44 134.04L585.50 134.04L585.50 146.86C585.50 148.94 586.22 150.28 588.28 150.28" fill="#2c2416" aria-label="仁寺洞 Optional"/><path d="M446.35 187.66C446.80 188.39 447.27 189.40 447.45 190.01L448.70 189.60C448.49 188.99 447.96 188.01 447.51 187.29M440.75 190.04L440.75 191.15L443.09 191.15C443.98 193.43 445.16 195.40 446.70 197C445.06 198.38 443.03 199.40 440.54 200.10C440.76 200.38 441.13 200.90 441.25 201.17C443.75 200.36 445.83 199.28 447.53 197.81C449.23 199.31 451.26 200.42 453.73 201.09C453.92 200.78 454.25 200.30 454.50 200.06C452.11 199.46 450.06 198.40 448.40 196.99C449.92 195.44 451.07 193.52 451.94 191.15L454.31 191.15L454.31 190.04M447.56 196.21C446.15 194.78 445.04 193.07 444.26 191.15L450.67 191.15C449.92 193.18 448.88 194.84 447.56 196.21M464.72 189.06L464.72 197.34L465.79 197.34L465.79 189.06M467.56 187.47L467.56 199.70C467.56 199.97 467.45 200.04 467.19 200.06C466.95 200.06 466.14 200.06 465.23 200.04C465.39 200.36 465.55 200.87 465.61 201.16C466.85 201.16 467.58 201.13 468.04 200.94C468.47 200.75 468.65 200.42 468.65 199.72L468.65 187.47M458.50 190.55L458.50 191.28L461.66 191.28L461.66 190.55M457.91 194.60L461.96 194.60L461.96 195.62L457.85 195.62M457.91 193.84L457.91 192.89L461.96 192.89L461.96 193.84M457.76 197.16L457.76 201.09L458.72 201.09L458.72 200.48L462.37 200.48L462.37 201.06L463.37 201.06L463.37 197.16M458.72 199.58L458.72 197.99L462.37 197.99L462.37 199.58M456.85 192.05L456.85 194.07C456.85 195.77 456.69 198.26 455.51 200.09C455.78 200.18 456.26 200.41 456.47 200.57C457.22 199.38 457.60 197.88 457.77 196.46L463.01 196.46L463.01 192.05M459.77 187.50C458.87 189.02 457.20 190.29 455.52 191.09C455.74 191.34 456.05 191.88 456.15 192.14C457.52 191.39 458.92 190.32 459.96 189.06C461.15 189.81 462.55 190.76 463.28 191.38L463.89 190.44C463.14 189.86 461.75 188.99 460.56 188.27L460.81 187.90M484.04 187.31L470.51 200.84L470.96 201.29L484.49 187.76M489.23 197.24C488.50 198.25 487.18 199.19 485.90 199.79C486.19 199.97 486.63 200.33 486.85 200.54C488.07 199.85 489.50 198.74 490.34 197.57M494.39 197.75C495.68 198.57 497.21 199.81 497.96 200.62L498.85 199.93C498.08 199.10 496.50 197.94 495.25 197.15M491.90 193.64L491.90 195.56L487.34 195.56L487.34 196.59L491.90 196.59L491.90 201.20L493.07 201.20L493.07 196.59L497.56 196.59L497.56 195.56L493.07 195.56L493.07 193.64M492.41 190.55C491.18 192.28 488.57 193.63 485.64 194.48C485.87 194.69 486.20 195.11 486.35 195.38C488.81 194.60 491 193.50 492.51 192.02C494.18 193.40 496.69 194.66 498.73 195.29C498.89 195.03 499.22 194.59 499.46 194.36C497.30 193.81 494.66 192.57 493.16 191.34L493.46 190.96M488.96 187.40L488.96 188.94L485.81 188.94L485.81 189.97L488.96 189.97L488.96 191.44L490.10 191.44L490.10 189.97L492.02 189.97L492.02 188.94L490.10 188.94L490.10 187.40M492.88 188.93L492.88 189.97L495.05 189.97L495.05 191.44L496.18 191.44L496.18 189.97L499.10 189.97L499.10 188.93L496.18 188.93L496.18 187.40L495.05 187.40L495.05 188.93M502.54 190.22L502.54 191.03L505.08 191.03L505.08 190.22M507.41 191.42L507.41 201.17L508.40 201.17L508.40 200.51L512.57 200.51L512.57 201.11L513.58 201.11L513.58 196.46L508.40 196.46L508.40 195.20L512.90 195.20L512.90 191.42M508.40 199.53L508.40 197.42L512.57 197.42L512.57 199.53M508.40 192.35L511.94 192.35L511.94 194.27L508.40 194.27M509.36 187.72C509.58 188.15 509.84 188.69 510 189.13L506.45 189.13L506.45 191.57L507.38 191.57L507.38 190.07L513.22 190.07L513.22 191.57L514.16 191.57L514.16 189.13L510.68 189.13L511.12 188.91C510.95 188.48 510.62 187.82 510.33 187.32M504.79 194.84L504.79 196.15L502.46 196.15L502.46 194.84M504.79 194L502.46 194L502.46 192.80L504.79 192.80M501.32 201.19C501.57 200.97 502.01 200.76 504.96 199.55C505.19 200 505.37 200.42 505.50 200.74L506.33 200.31C506.01 199.56 505.32 198.28 504.77 197.31L503.99 197.63L504.59 198.77L502.46 199.58L502.46 197.01L505.79 197.01L505.79 191.94L501.47 191.94L501.47 199.37C501.47 199.93 501.15 200.12 500.93 200.22C501.10 200.47 501.26 200.93 501.32 201.19M503.60 187.28C502.91 188.56 501.68 189.74 500.48 190.49C500.64 190.73 500.92 191.27 500.99 191.48C501.95 190.84 502.93 189.91 503.69 188.88C504.47 189.38 505.38 190.01 505.87 190.40L506.39 189.53C505.88 189.17 504.98 188.59 504.21 188.12L504.51 187.61M521.78 188.13L521.78 189.11L529.24 189.11L529.24 188.13M522.98 189.60C522.68 190.34 522.07 191.50 521.52 192.41C522.23 193.47 522.86 194.66 523.17 195.46L524.09 195.06C523.79 194.38 523.17 193.29 522.56 192.40C523.02 191.62 523.55 190.64 523.92 189.84M525.42 189.60C525.11 190.34 524.50 191.48 523.92 192.40C524.67 193.46 525.37 194.63 525.68 195.43L526.60 195.03C526.28 194.34 525.62 193.28 524.98 192.38C525.44 191.60 526.01 190.64 526.38 189.84M527.99 189.60C527.64 190.34 527 191.50 526.38 192.41C527.20 193.47 527.93 194.66 528.29 195.46L529.19 195.05C528.85 194.36 528.14 193.28 527.47 192.40C527.96 191.62 528.54 190.66 528.97 189.86M521.21 199.85L521.21 200.82L529.43 200.82L529.43 199.85L525.95 199.85L525.95 196.91L528.95 196.91L528.95 195.94L522.05 195.94L522.05 196.91L524.83 196.91L524.83 199.85M516.05 191.13L516.05 196.35L518.12 196.35L518.12 197.59L515.57 197.59L515.57 198.57L518.12 198.57L518.12 201.22L519.08 201.22L519.08 198.57L521.52 198.57L521.52 197.59L519.08 197.59L519.08 196.35L521.20 196.35L521.20 191.13L519.07 191.13L519.07 190.03L521.39 190.03L521.39 189.03L519.07 189.03L519.07 187.40L518.11 187.40L518.11 189.03L515.78 189.03L515.78 190.03L518.11 190.03L518.11 191.13M516.89 194.13L518.20 194.13L518.20 195.51L516.89 195.51M518.99 194.13L520.33 194.13L520.33 195.51L518.99 195.51M516.89 191.97L518.20 191.97L518.20 193.32L516.89 193.32M518.99 191.97L520.33 191.97L520.33 193.32L518.99 193.32M533.28 194.24C533.06 196.44 532.34 199.10 530.51 200.50C530.76 200.68 531.15 201.02 531.35 201.23C532.41 200.39 533.13 199.16 533.63 197.81C535.13 200.44 537.58 201 540.80 201L544.04 201C544.10 200.69 544.29 200.18 544.46 199.91C543.80 199.93 541.34 199.93 540.85 199.93C539.84 199.93 538.89 199.87 538.04 199.69L538.04 196.73L543.07 196.73L543.07 195.71L538.04 195.71L538.04 193.32L544.04 193.32L544.04 192.28L538.04 192.28L538.04 190.21L542.95 190.21L542.95 189.16L538.04 189.16L538.04 187.41L536.88 187.41L536.88 189.16L532.25 189.16L532.25 190.21L536.88 190.21L536.88 192.28L530.95 192.28L530.95 193.32L536.88 193.32L536.88 199.34C535.65 198.84 534.70 197.96 534.05 196.44C534.23 195.75 534.37 195.06 534.46 194.39" fill="#2c2416" aria-label="文創／茶館輕走"/><path d="M446.75 228.91L446.75 229.76L454.26 229.76L454.26 228.91M448.48 231.25L452.48 231.25L452.48 232.51L448.48 232.51M447.47 230.49L447.47 233.28L453.53 233.28L453.53 230.49M442.58 230.81C443.13 231.19 443.84 231.78 444.17 232.13L444.74 231.52C444.38 231.18 443.69 230.66 443.09 230.28M448.22 233.60C448.40 234.04 448.61 234.58 448.75 235.03L446.57 235.03L446.57 235.90L454.40 235.90L454.40 235.03L452.12 235.03L452.87 233.60L451.85 233.31C451.70 233.78 451.43 234.50 451.19 235.03L449.74 235.03C449.60 234.55 449.33 233.88 449.09 233.35M447.06 223.56L447.06 228.12L453.88 228.12L453.88 223.56L451.88 223.56L451.88 222.40L450.95 222.40L450.95 223.56L449.86 223.56L449.86 222.40L448.94 222.40L448.94 223.56M447.95 226.21L449.09 226.21L449.09 227.31L447.95 227.31M449.86 226.21L451 226.21L451 227.31L449.86 227.31M451.76 226.21L452.96 226.21L452.96 227.31L451.76 227.31M447.95 224.37L449.09 224.37L449.09 225.44L447.95 225.44M449.86 224.37L451 224.37L451 225.44L449.86 225.44M451.76 224.37L452.96 224.37L452.96 225.44L451.76 225.44M442.42 233.49L442.83 234.29L444.86 233.06L444.86 235.03C444.86 235.19 444.80 235.24 444.65 235.24C444.49 235.25 443.98 235.25 443.38 235.24C443.50 235.48 443.64 235.85 443.69 236.11C444.53 236.11 445.06 236.09 445.38 235.94C445.73 235.79 445.82 235.53 445.82 235.04L445.82 229.27L446.51 229.27L446.51 227.09L445.87 227.09L445.87 222.93L441.41 222.93L441.41 227.09L440.80 227.09L440.80 229.27L441.53 229.27L441.53 231.73C441.53 232.94 441.44 234.49 440.64 235.65C440.88 235.76 441.27 236.06 441.44 236.25C442.32 234.97 442.48 233.11 442.48 231.75L442.48 229.72L444.86 229.72L444.86 232.28C443.93 232.76 443.05 233.22 442.42 233.49M445.43 228.93L441.65 228.93L441.65 227.92L445.61 227.92L445.61 228.93M443.25 224.75L443.25 227.09L442.32 227.09L442.32 223.78L444.90 223.78L444.90 224.75M444.90 227.09L443.93 227.09L443.93 225.47L444.90 225.47M461.15 222.43L461.15 225.03L461.15 225.67L456.25 225.67L456.25 226.82L461.09 226.82C460.87 229.65 459.88 232.94 455.80 235.38C456.08 235.57 456.49 235.99 456.67 236.26C461.03 233.60 462.05 229.94 462.26 226.82L467.40 226.82C467.11 232.12 466.77 234.25 466.24 234.76C466.06 234.96 465.86 235 465.55 235C465.17 235 464.21 234.99 463.18 234.90C463.40 235.22 463.54 235.72 463.56 236.05C464.50 236.09 465.45 236.13 465.96 236.08C466.55 236.02 466.89 235.91 467.25 235.47C467.93 234.73 468.23 232.48 468.57 226.27C468.59 226.10 468.61 225.67 468.61 225.67L462.32 225.67L462.32 225.03L462.32 222.43M478.99 222.44C478.46 224.40 477.56 226.30 476.40 227.53C476.66 227.69 477.11 228.06 477.29 228.22C477.89 227.51 478.44 226.63 478.93 225.63L482.93 225.63C482.80 232 482.66 234.29 482.29 234.78C482.15 234.99 482.01 235.03 481.77 235.03C481.48 235.03 480.81 235.03 480.06 234.97C480.26 235.25 480.38 235.74 480.41 236.06C481.08 236.09 481.79 236.11 482.23 236.06C482.68 236 482.99 235.87 483.27 235.44C483.77 234.76 483.89 232.44 484.01 225.22C484.01 225.06 484.01 224.63 484.01 224.63L479.38 224.63C479.63 224 479.86 223.34 480.05 222.69M478.18 227.31L478.18 233.75L479.12 233.75L479.12 232.60L481.73 232.60L481.73 227.31M479.12 228.24L480.79 228.24L480.79 231.69L479.12 231.69M473.18 224.78L475.55 224.78C475.22 225.46 474.80 226.07 474.31 226.62C473.87 226.21 473.24 225.73 472.67 225.35M473.60 222.38C473.09 223.53 472.06 224.92 470.56 225.94C470.78 226.07 471.11 226.38 471.27 226.59C471.55 226.39 471.79 226.19 472.02 225.99C472.60 226.41 473.19 226.91 473.60 227.32C472.76 228.06 471.80 228.63 470.81 228.99C471.02 229.18 471.29 229.53 471.43 229.76C472.44 229.34 473.45 228.76 474.32 227.98C473.70 229.24 472.46 230.69 470.60 231.73C470.82 231.87 471.14 232.21 471.29 232.44C471.68 232.19 472.04 231.96 472.38 231.69C473.01 232.19 473.66 232.81 474.08 233.31C473.07 234.24 471.88 234.90 470.62 235.28C470.84 235.50 471.10 235.88 471.23 236.14C474.05 235.15 476.51 233.11 477.45 229.51L476.78 229.21L476.57 229.25L474.71 229.25C474.96 228.88 475.19 228.52 475.38 228.15L474.35 227.97C475.46 226.99 476.38 225.72 476.92 224.13L476.24 223.79L476.05 223.84L473.88 223.84C474.17 223.42 474.41 222.99 474.62 222.56M473.96 230.23L476.13 230.23C475.81 231.12 475.36 231.88 474.79 232.56C474.33 232.07 473.70 231.52 473.12 231.09C473.42 230.80 473.70 230.51 473.96 230.23M487.37 225.84L487.37 231.52L485.60 231.52L485.60 232.57L487.37 232.57L487.37 236.23L488.48 236.23L488.48 232.57L496.50 232.57L496.50 234.81C496.50 235.06 496.42 235.13 496.13 235.15C495.88 235.16 494.90 235.18 493.91 235.13C494.09 235.44 494.25 235.91 494.33 236.22C495.62 236.22 496.46 236.20 496.95 236.02C497.45 235.84 497.62 235.51 497.62 234.82L497.62 232.57L499.43 232.57L499.43 231.52L497.62 231.52L497.62 225.84L493.01 225.84L493.01 224.37L498.88 224.37L498.88 223.31L486.15 223.31L486.15 224.37L491.87 224.37L491.87 225.84M496.50 231.52L493.01 231.52L493.01 229.66L496.50 229.66M488.48 231.52L488.48 229.66L491.87 229.66L491.87 231.52M496.50 228.67L493.01 228.67L493.01 226.87L496.50 226.87M488.48 228.67L488.48 226.87L491.87 226.87L491.87 228.67M508.58 224.26L508.58 235.97L509.66 235.97L509.66 234.87L512.57 234.87L512.57 235.85L513.70 235.85L513.70 224.26M509.66 233.78L509.66 225.35L512.57 225.35L512.57 233.78M502.93 222.59L502.91 225.25L500.80 225.25L500.80 226.34L502.88 226.34C502.77 230.13 502.31 233.46 500.42 235.44C500.70 235.62 501.11 235.96 501.29 236.22C503.31 234.01 503.84 230.41 503.98 226.34L506.25 226.34C506.13 232.12 506 234.18 505.69 234.61C505.55 234.81 505.40 234.87 505.18 234.85C504.90 234.85 504.26 234.85 503.56 234.79C503.75 235.10 503.86 235.59 503.88 235.91C504.56 235.96 505.25 235.97 505.67 235.91C506.11 235.85 506.39 235.72 506.66 235.33C507.13 234.69 507.23 232.50 507.35 225.82C507.35 225.66 507.35 225.25 507.35 225.25L504 225.25L504.04 222.59" fill="#2c2416" aria-label="體力夠再加"/><rect x="800" y="100" width="360" height="400" rx="8" fill="#fff" stroke="#8a3b2a" stroke-width="2"/><path d="M831.56 140.74C833.56 141.48 836.38 142.70 837.74 143.46L839.10 141.58C837.62 140.82 834.76 139.70 832.84 139.06M826.84 139.08C825.50 140.02 822.88 141.20 820.98 141.76C821.46 142.26 822.04 143.16 822.36 143.74L823.14 143.38L823.14 149.06L820.84 149.06L820.84 151.16L839.16 151.16L839.16 149.06L836.90 149.06L836.90 143.22L823.46 143.22C825.22 142.36 827.24 141.22 828.50 140.26M825.28 149.06L825.28 145.24L826.94 145.24L826.94 149.06M829.12 149.06L829.12 145.24L830.78 145.24L830.78 149.06M832.96 149.06L832.96 145.24L834.66 145.24L834.66 149.06M833.68 133C833.26 134.04 832.46 135.48 831.82 136.40L832.94 136.78L827.12 136.78L828.22 136.22C827.80 135.32 826.94 134 826.14 133L824.08 133.90C824.70 134.76 825.40 135.90 825.84 136.78L821.10 136.78L821.10 138.90L838.90 138.90L838.90 136.78L834.08 136.78C834.70 135.96 835.44 134.82 836.12 133.72M843.62 146.16L843.62 151.80L845.98 151.80L845.98 151.18L853.98 151.18L853.98 151.72L856.46 151.72L856.46 146.16M845.98 149.34L845.98 147.98L853.98 147.98L853.98 149.34M852.94 132.96C852.74 133.60 852.36 134.44 851.98 135.12L846.64 135.12L847.88 134.70C847.70 134.18 847.26 133.42 846.82 132.90L844.66 133.52C844.98 133.98 845.32 134.62 845.52 135.12L842.12 135.12L842.12 136.86L848.70 136.86L848.70 137.62L843.42 137.62L843.42 139.32L848.70 139.32L848.70 140.10L841.56 140.10L841.56 141.86L845.26 141.86L843.72 142.18C843.98 142.58 844.24 143.12 844.40 143.56L840.90 143.56L840.90 145.40L859.12 145.40L859.12 143.56L855.74 143.56L856.44 142.10L854.80 141.86L858.50 141.86L858.50 140.10L851.18 140.10L851.18 139.32L856.60 139.32L856.60 137.62L851.18 137.62L851.18 136.86L857.90 136.86L857.90 135.12L854.48 135.12C854.80 134.60 855.16 134 855.50 133.36M846.04 141.86L853.94 141.86C853.80 142.36 853.54 143.02 853.28 143.56L846 143.56L846.82 143.36C846.68 142.92 846.38 142.32 846.04 141.86M869.42 137.26L869.42 139.22L875.64 139.22L875.64 137.26M860.50 140.44C861.70 141 863.38 141.90 864.16 142.50L865.46 140.50C864.60 139.90 862.90 139.08 861.72 138.62M861 149.86L863.14 151.48C864.22 149.54 865.34 147.34 866.24 145.28L864.38 143.68C863.32 145.94 861.98 148.38 861 149.86M866.32 133.74L866.32 151.80L868.58 151.80L868.58 135.90L876.44 135.90L876.44 149.02C876.44 149.34 876.34 149.44 876.06 149.44C875.72 149.44 874.76 149.46 873.84 149.40C874.16 150.04 874.48 151.16 874.54 151.80C876.08 151.80 877.10 151.76 877.82 151.34C878.54 150.96 878.74 150.26 878.74 149.06L878.74 133.74M861.44 135.06C862.58 135.64 864.18 136.56 864.94 137.18L866.32 135.24C865.52 134.64 863.86 133.80 862.76 133.28M869.74 140.54L869.74 148.52L871.58 148.52L871.58 147.34L875.28 147.34L875.28 140.54M871.58 142.52L873.38 142.52L873.38 145.36L871.58 145.36M892.24 150.28C896.16 150.28 898.86 147.34 898.86 142.52C898.86 137.72 896.16 134.92 892.24 134.92C888.32 134.92 885.62 137.72 885.62 142.52C885.62 147.34 888.32 150.28 892.24 150.28M892.24 147.72C890.04 147.72 888.66 145.68 888.66 142.52C888.66 139.36 890.04 137.46 892.24 137.46C894.44 137.46 895.84 139.36 895.84 142.52C895.84 145.68 894.44 147.72 892.24 147.72M901.52 154.30L904.46 154.30L904.46 150.88L904.36 149.06C905.20 149.84 906.16 150.28 907.14 150.28C909.60 150.28 911.90 148.06 911.90 144.22C911.90 140.78 910.24 138.52 907.50 138.52C906.28 138.52 905.14 139.16 904.20 139.96L904.14 139.96L903.92 138.80L901.52 138.80M906.50 147.86C905.88 147.86 905.18 147.64 904.46 147.02L904.46 142.08C905.22 141.32 905.90 140.94 906.66 140.94C908.20 140.94 908.88 142.12 908.88 144.26C908.88 146.70 907.82 147.86 906.50 147.86M917.94 150.28C918.92 150.28 919.70 150.04 920.32 149.86L919.82 147.72C919.52 147.84 919.08 147.96 918.72 147.96C917.72 147.96 917.18 147.36 917.18 146.08L917.18 141.12L919.96 141.12L919.96 138.80L917.18 138.80L917.18 135.78L914.76 135.78L914.42 138.80L912.68 138.94L912.68 141.12L914.26 141.12L914.26 146.10C914.26 148.58 915.28 150.28 917.94 150.28M922.26 150L925.20 150L925.20 138.80L922.26 138.80M923.74 136.98C924.74 136.98 925.44 136.36 925.44 135.38C925.44 134.42 924.74 133.78 923.74 133.78C922.70 133.78 922.04 134.42 922.04 135.38C922.04 136.36 922.70 136.98 923.74 136.98M933.02 150.28C935.82 150.28 938.40 148.12 938.40 144.40C938.40 140.68 935.82 138.52 933.02 138.52C930.20 138.52 927.64 140.68 927.64 144.40C927.64 148.12 930.20 150.28 933.02 150.28M933.02 147.88C931.48 147.88 930.64 146.52 930.64 144.40C930.64 142.30 931.48 140.92 933.02 140.92C934.54 140.92 935.40 142.30 935.40 144.40C935.40 146.52 934.54 147.88 933.02 147.88M940.86 150L943.80 150L943.80 142.30C944.62 141.48 945.22 141.04 946.12 141.04C947.22 141.04 947.70 141.64 947.70 143.38L947.70 150L950.64 150L950.64 143.02C950.64 140.20 949.60 138.52 947.18 138.52C945.66 138.52 944.52 139.32 943.54 140.28L943.48 140.28L943.26 138.80L940.86 138.80M956.42 150.28C957.72 150.28 958.84 149.66 959.80 148.80L959.90 148.80L960.10 150L962.50 150L962.50 143.46C962.50 140.22 961.04 138.52 958.20 138.52C956.44 138.52 954.84 139.20 953.54 140L954.58 141.96C955.62 141.34 956.62 140.88 957.66 140.88C959.04 140.88 959.52 141.72 959.56 142.82C955.06 143.30 953.12 144.56 953.12 146.94C953.12 148.86 954.42 150.28 956.42 150.28M957.40 147.98C956.54 147.98 955.92 147.60 955.92 146.72C955.92 145.70 956.82 144.96 959.56 144.64L959.56 146.88C958.86 147.58 958.24 147.98 957.40 147.98M968.28 150.28C968.96 150.28 969.44 150.16 969.78 150.02L969.42 147.84C969.22 147.88 969.14 147.88 969.02 147.88C968.74 147.88 968.44 147.66 968.44 146.98L968.44 134.04L965.50 134.04L965.50 146.86C965.50 148.94 966.22 150.28 968.28 150.28" fill="#8a3b2a" aria-label="益善洞 Optional"/><path d="M826.32 187.44L826.30 190.43L825.02 190.43L825.02 191.44L826.28 191.44C826.18 195.43 825.75 198.60 823.83 200.54C824.08 200.69 824.44 201 824.61 201.25C826.66 199.12 827.14 195.71 827.26 191.44L828.57 191.44C828.38 197.22 828.21 199.24 827.88 199.70C827.75 199.90 827.63 199.94 827.44 199.94C827.22 199.94 826.79 199.93 826.28 199.90C826.45 200.18 826.54 200.62 826.55 200.91C827.07 200.94 827.54 200.94 827.89 200.90C828.26 200.85 828.52 200.74 828.76 200.36C829.21 199.73 829.38 197.60 829.55 190.97C829.57 190.82 829.57 190.43 829.57 190.43L827.27 190.43L827.30 187.44M830.15 189.16L830.15 200.65L831.10 200.65L831.10 199.38L832.96 199.38L832.96 200.53L833.93 200.53L833.93 189.16M831.10 198.38L831.10 190.18L832.96 190.18L832.96 198.38M821.14 188.50L821.14 198.91L822.04 198.91L822.04 197.42L824.49 197.42L824.49 188.50M822.04 189.44L823.57 189.44L823.57 196.49L822.04 196.49M845.49 187.49L845.49 201.19L846.60 201.19L846.60 197.25L849.45 197.25L849.45 196.22L846.60 196.22L846.60 194.09L849.14 194.09L849.14 193.07L846.60 193.07L846.60 190.97L849.28 190.97L849.28 189.94L846.60 189.94L846.60 187.49M842.95 187.52L842.95 189.94L840.49 189.94L840.49 190.97L842.95 190.97L842.95 193.07L840.60 193.07L840.60 194.09L842.95 194.09L842.95 194.24C842.95 194.85 842.93 195.46 842.86 196.06C841.74 196.37 840.64 196.69 839.86 196.87L840.31 197.90L842.66 197.07C842.34 198.43 841.62 199.64 840.12 200.56C840.38 200.74 840.77 201.08 840.96 201.29C843.64 199.63 844.04 197.01 844.04 194.24L844.04 187.52M836.11 188.69L836.11 198.08L837.09 198.08L837.09 196.76L840.05 196.76L840.05 188.69M837.09 189.72L839.08 189.72L839.08 195.71L837.09 195.71M852.67 187.40L852.67 190.43L850.71 190.43L850.71 191.53L852.67 191.53L852.67 194.76C851.86 194.99 851.11 195.19 850.48 195.34L850.78 196.49L852.67 195.94L852.67 199.84C852.67 200.06 852.58 200.12 852.38 200.13C852.19 200.13 851.56 200.13 850.88 200.12C851.02 200.44 851.18 200.90 851.22 201.19C852.25 201.20 852.87 201.17 853.25 200.97C853.66 200.79 853.81 200.50 853.81 199.85L853.81 195.59L855.68 195.02L855.55 193.96L853.81 194.45L853.81 191.53L855.55 191.53L855.55 190.43L853.81 190.43L853.81 187.40M857.46 195.71L862.50 195.71L862.50 199.26L857.46 199.26M857.46 194.65L857.46 191.16L862.50 191.16L862.50 194.65M859.51 187.41C859.39 188.19 859.13 189.28 858.87 190.10L856.33 190.10L856.33 201.16L857.46 201.16L857.46 200.34L862.50 200.34L862.50 201.06L863.65 201.06L863.65 190.10L859.99 190.10C860.26 189.35 860.56 188.42 860.82 187.59M872.92 193.90L877.32 193.90L877.32 196.18L872.92 196.18M871.87 192.95L871.87 197.12L878.42 197.12L878.42 192.95M870.10 198.13C870.28 199.12 870.40 200.38 870.41 201.14L871.51 200.97C871.50 200.22 871.33 198.98 871.13 198.02M873.31 198.08C873.70 199.06 874.08 200.34 874.23 201.11L875.34 200.87C875.18 200.07 874.76 198.83 874.36 197.88M876.37 198C877.09 199 877.91 200.38 878.27 201.23L879.34 200.75C878.97 199.90 878.11 198.56 877.39 197.59M867.61 197.69C867.12 198.80 866.32 200.04 865.64 200.79L866.73 201.28C867.41 200.42 868.16 199.12 868.69 198M867.46 189.05L869.71 189.05L869.71 191.69L867.46 191.69M867.46 195.62L867.46 192.68L869.71 192.68L869.71 195.62M866.39 188.04L866.39 197.41L867.46 197.41L867.46 196.64L870.76 196.64L870.76 188.04M871.42 188.01L871.42 189.02L873.92 189.02C873.63 190.41 872.92 191.38 870.94 191.91C871.16 192.09 871.45 192.50 871.57 192.75C873.85 192.05 874.71 190.84 875.03 189.02L877.72 189.02C877.62 190.44 877.51 191.03 877.32 191.22C877.21 191.33 877.08 191.34 876.87 191.34C876.63 191.34 876.01 191.34 875.35 191.28C875.51 191.54 875.62 191.93 875.63 192.22C876.33 192.26 877 192.25 877.35 192.23C877.74 192.20 877.99 192.11 878.23 191.87C878.54 191.53 878.70 190.64 878.83 188.45C878.85 188.30 878.86 188.01 878.86 188.01" fill="#2c2416" aria-label="咖啡拍照"/><path d="M827.03 234.88L827.03 235.84L831.05 235.84L831.05 234.88M823.98 222.46C823.13 224.74 821.74 226.99 820.25 228.44C820.45 228.70 820.78 229.28 820.88 229.56C821.41 229.01 821.92 228.40 822.40 227.71L822.40 236.17L823.48 236.17L823.48 226.03C824.08 225 824.61 223.88 825.04 222.78M825.43 234.97C825.73 234.78 826.20 234.61 829.51 233.66C829.48 233.44 829.47 233 829.50 232.72L826.72 233.43L826.72 229.21L830.22 229.21C830.66 233.28 831.50 236.06 833.10 236.09C833.66 236.09 834.17 235.44 834.46 233.17C834.26 233.09 833.85 232.84 833.66 232.63C833.56 234.04 833.37 234.84 833.08 234.82C832.27 234.79 831.63 232.51 831.25 229.21L834.13 229.21L834.13 228.16L831.14 228.16C831.02 226.85 830.93 225.41 830.89 223.93C831.88 223.71 832.81 223.45 833.59 223.16L832.69 222.32C831.07 222.96 828.19 223.56 825.65 223.94L825.65 233.08C825.65 233.66 825.26 233.94 824.98 234.04C825.16 234.26 825.36 234.72 825.43 234.97M830.11 228.16L826.72 228.16L826.72 224.72C827.75 224.56 828.84 224.37 829.87 224.16C829.93 225.56 830 226.91 830.11 228.16M841.75 228.91L841.75 229.76L849.26 229.76L849.26 228.91M843.48 231.25L847.48 231.25L847.48 232.51L843.48 232.51M842.47 230.49L842.47 233.28L848.53 233.28L848.53 230.49M837.58 230.81C838.13 231.19 838.84 231.78 839.17 232.13L839.74 231.52C839.38 231.18 838.69 230.66 838.09 230.28M843.22 233.60C843.40 234.04 843.61 234.58 843.75 235.03L841.57 235.03L841.57 235.90L849.40 235.90L849.40 235.03L847.12 235.03L847.87 233.60L846.85 233.31C846.70 233.78 846.43 234.50 846.19 235.03L844.74 235.03C844.60 234.55 844.33 233.88 844.09 233.35M842.07 223.56L842.07 228.12L848.88 228.12L848.88 223.56L846.88 223.56L846.88 222.40L845.95 222.40L845.95 223.56L844.86 223.56L844.86 222.40L843.94 222.40L843.94 223.56M842.95 226.21L844.09 226.21L844.09 227.31L842.95 227.31M844.86 226.21L846 226.21L846 227.31L844.86 227.31M846.76 226.21L847.96 226.21L847.96 227.31L846.76 227.31M842.95 224.37L844.09 224.37L844.09 225.44L842.95 225.44M844.86 224.37L846 224.37L846 225.44L844.86 225.44M846.76 224.37L847.96 224.37L847.96 225.44L846.76 225.44M837.41 233.49L837.84 234.29L839.86 233.06L839.86 235.03C839.86 235.19 839.80 235.24 839.65 235.24C839.49 235.25 838.98 235.25 838.38 235.24C838.50 235.48 838.64 235.85 838.69 236.11C839.53 236.11 840.05 236.09 840.38 235.94C840.73 235.79 840.82 235.53 840.82 235.04L840.82 229.27L841.51 229.27L841.51 227.09L840.87 227.09L840.87 222.93L836.41 222.93L836.41 227.09L835.79 227.09L835.79 229.27L836.53 229.27L836.53 231.73C836.53 232.94 836.44 234.49 835.64 235.65C835.88 235.76 836.27 236.06 836.44 236.25C837.33 234.97 837.48 233.11 837.48 231.75L837.48 229.72L839.86 229.72L839.86 232.28C838.93 232.76 838.04 233.22 837.41 233.49M840.43 228.93L836.65 228.93L836.65 227.92L840.61 227.92L840.61 228.93M838.25 224.75L838.25 227.09L837.33 227.09L837.33 223.78L839.90 223.78L839.90 224.75M839.90 227.09L838.93 227.09L838.93 225.47L839.90 225.47M856.15 222.43L856.15 225.03L856.15 225.67L851.25 225.67L851.25 226.82L856.09 226.82C855.87 229.65 854.88 232.94 850.79 235.38C851.08 235.57 851.49 235.99 851.66 236.26C856.03 233.60 857.05 229.94 857.26 226.82L862.40 226.82C862.11 232.12 861.77 234.25 861.24 234.76C861.05 234.96 860.86 235 860.54 235C860.17 235 859.21 234.99 858.17 234.90C858.40 235.22 858.53 235.72 858.57 236.05C859.50 236.09 860.46 236.13 860.97 236.08C861.55 236.02 861.89 235.91 862.25 235.47C862.93 234.73 863.23 232.48 863.58 226.27C863.59 226.10 863.61 225.67 863.61 225.67L857.32 225.67L857.32 225.03L857.32 222.43M865.84 223.47L865.84 224.59L876.21 224.59L876.21 234.56C876.21 234.88 876.10 234.97 875.77 235C875.41 235 874.18 235.01 872.98 234.96C873.16 235.28 873.37 235.84 873.45 236.17C874.93 236.17 875.98 236.17 876.58 235.97C877.16 235.78 877.38 235.39 877.38 234.58L877.38 224.59L879.22 224.59L879.22 223.47M868.47 227.88L872.41 227.88L872.41 231.32L868.47 231.32M867.37 226.79L867.37 233.60L868.47 233.60L868.47 232.41L873.52 232.41L873.52 226.79M882.25 224.13L884.66 224.13L884.66 226.79L882.25 226.79M885.85 224.78C886.47 225.79 887 227.13 887.17 228.03L888.13 227.59C887.93 226.71 887.38 225.38 886.72 224.40M880.52 234.22L880.78 235.27C882.24 234.88 884.20 234.37 886.06 233.88L885.92 232.90L884.08 233.37L884.08 230.65L885.70 230.65L885.70 229.65L884.08 229.65L884.08 227.75L885.64 227.75L885.64 223.16L881.30 223.16L881.30 227.75L883.13 227.75L883.13 233.60L882.17 233.83L882.17 228.94L881.34 228.94L881.34 234.04M893.25 224.28C892.87 225.32 892.13 226.78 891.58 227.68L892.39 228.10C892.99 227.25 893.71 225.90 894.29 224.80M890.51 222.38L890.51 234.28C890.51 235.63 890.80 235.97 891.82 235.97C892.03 235.97 893.03 235.97 893.26 235.97C894.17 235.97 894.43 235.36 894.53 233.66C894.24 233.60 893.83 233.41 893.59 233.22C893.54 234.56 893.49 234.94 893.20 234.94C892.98 234.94 892.15 234.94 891.99 234.94C891.64 234.94 891.58 234.85 891.58 234.28L891.58 230.26C892.40 230.95 893.30 231.78 893.77 232.33L894.52 231.53C893.95 230.89 892.74 229.87 891.80 229.15L891.58 229.38L891.58 222.38M888.19 222.38L888.19 228.75L888.17 229.72C887.14 230.40 886.11 231.07 885.38 231.46L886.01 232.48L888.10 230.88C887.90 232.66 887.27 234.44 885.29 235.41C885.52 235.62 885.87 236 886.01 236.23C888.96 234.59 889.23 231.43 889.23 228.75L889.23 222.38M896.25 222.90C896.86 223.65 897.64 224.68 898.01 225.32L898.90 224.74C898.52 224.11 897.76 223.15 897.10 222.40M901.32 222.93L901.32 227.56L900.17 227.56L900.17 234.09L901.18 234.09L901.18 228.46L907.66 228.46L907.66 232.96C907.66 233.13 907.60 233.17 907.43 233.17C907.27 233.19 906.72 233.19 906.09 233.16C906.21 233.43 906.34 233.81 906.38 234.09C907.27 234.09 907.87 234.07 908.23 233.92C908.61 233.75 908.70 233.49 908.70 232.96L908.70 227.56L907.51 227.56L907.51 222.93M903.79 225.03L903.79 227.56L902.32 227.56L902.32 223.79L906.48 223.79L906.48 225.03M906.48 227.56L904.66 227.56L904.66 225.82L906.48 225.82M902.46 229.42L902.46 233.20L903.33 233.20L903.33 232.60L906.37 232.60L906.37 229.42M903.33 230.22L905.49 230.22L905.49 231.82L903.33 231.82M895.91 230.74C896.03 230.62 896.42 230.51 896.80 230.51L898.25 230.51C897.79 232.85 896.80 234.50 895.45 235.45C895.67 235.60 896.05 235.99 896.22 236.22C896.93 235.68 897.58 234.93 898.11 233.95C899.29 235.66 901.20 235.96 904.24 235.96C905.89 235.96 907.79 235.93 909.21 235.84C909.26 235.54 909.40 235.01 909.58 234.78C908.03 234.93 905.83 234.99 904.25 234.99C901.42 234.97 899.51 234.75 898.54 233.05C898.91 232.12 899.22 231.03 899.39 229.78L898.88 229.59L898.69 229.60L897.13 229.60C897.97 228.58 899.07 227.02 899.66 226.13L898.93 225.79L898.76 225.87L895.69 225.87L895.69 226.81L898.04 226.81C897.41 227.74 896.56 228.93 896.22 229.27C895.96 229.56 895.72 229.66 895.50 229.72C895.62 229.94 895.84 230.47 895.91 230.74" fill="#2c2416" aria-label="低體力可跳過"/><path d="M46.03 560.21C47.55 560.21 48.70 559.60 49.63 558.53L48.82 557.58C48.06 558.42 47.22 558.91 46.10 558.91C43.86 558.91 42.45 557.06 42.45 554.10C42.45 551.17 43.94 549.36 46.14 549.36C47.15 549.36 47.92 549.81 48.54 550.46L49.34 549.50C48.67 548.75 47.55 548.06 46.13 548.06C43.15 548.06 40.93 550.35 40.93 554.14C40.93 557.95 43.10 560.21 46.03 560.21M55.06 560.21C57.18 560.21 59.07 558.54 59.07 555.66C59.07 552.77 57.18 551.09 55.06 551.09C52.93 551.09 51.04 552.77 51.04 555.66C51.04 558.54 52.93 560.21 55.06 560.21M55.06 558.99C53.55 558.99 52.54 557.66 52.54 555.66C52.54 553.66 53.55 552.32 55.06 552.32C56.56 552.32 57.58 553.66 57.58 555.66C57.58 557.66 56.56 558.99 55.06 558.99M61.38 560L62.85 560L62.85 554.42C63.42 552.94 64.30 552.40 65.02 552.40C65.39 552.40 65.58 552.45 65.87 552.54L66.14 551.28C65.87 551.14 65.60 551.09 65.22 551.09C64.26 551.09 63.36 551.79 62.75 552.90L62.72 552.90L62.58 551.31L61.38 551.31M70.93 560.21C72.10 560.21 73.02 559.82 73.78 559.33L73.26 558.35C72.61 558.78 71.94 559.04 71.09 559.04C69.44 559.04 68.30 557.86 68.21 556L74.06 556C74.10 555.78 74.13 555.49 74.13 555.17C74.13 552.69 72.88 551.09 70.66 551.09C68.67 551.09 66.77 552.83 66.77 555.66C66.77 558.53 68.61 560.21 70.93 560.21M68.19 554.96C68.37 553.23 69.46 552.26 70.69 552.26C72.05 552.26 72.85 553.20 72.85 554.96M82.80 551.30C83.44 551.30 84.02 550.83 84.02 550.10C84.02 549.36 83.44 548.90 82.80 548.90C82.16 548.90 81.58 549.36 81.58 550.10C81.58 550.83 82.16 551.30 82.80 551.30M82.80 559.14C83.44 559.14 84.02 558.66 84.02 557.94C84.02 557.20 83.44 556.72 82.80 556.72C82.16 556.72 81.58 557.20 81.58 557.94C81.58 558.66 82.16 559.14 82.80 559.14M100.27 552.69L104.13 552.69L104.13 554.30L100.27 554.30M93.14 553.76L96.51 553.76L96.51 555.02L93.14 555.02M93.14 551.63L96.51 551.63L96.51 552.85L93.14 552.85M103.82 550.11L101.50 550.11L101.70 548.80L103.82 548.80M100.80 546.56L100.67 547.86L98.82 547.86L98.82 548.80L100.58 548.80L100.40 550.11L97.98 550.11L97.98 551.09L106.13 551.09L106.13 550.11L104.90 550.11L104.90 547.86L101.81 547.86L101.92 546.66M98.50 556.06L98.50 557.02L99.57 557.02C99.38 557.89 99.15 558.86 98.94 559.54L102.14 559.54L102.14 561.26L103.26 561.26L103.26 559.54L106.13 559.54L106.13 558.58L103.26 558.58L103.26 557.02L105.78 557.02L105.78 556.06L103.26 556.06L103.26 555.14L105.28 555.14L105.28 551.82L99.14 551.82L99.14 555.14L102.14 555.14L102.14 556.06M102.14 557.02L102.14 558.58L100.29 558.58L100.62 557.02M91.47 557.33L91.47 558.42L94.22 558.42L94.22 561.26L95.39 561.26L95.39 558.42L98.08 558.42L98.08 557.33L95.39 557.33L95.39 555.97L97.62 555.97L97.62 550.66L95.39 550.66L95.39 549.31L97.94 549.31L97.94 548.24L95.39 548.24L95.39 546.53L94.22 546.53L94.22 548.24L91.63 548.24L91.63 549.31L94.22 549.31L94.22 550.66L92.06 550.66L92.06 555.97L94.22 555.97L94.22 557.33M108.53 547.15L108.53 552.90C108.53 555.26 108.43 558.48 107.34 560.74C107.63 560.83 108.11 561.10 108.32 561.30C109.06 559.78 109.38 557.76 109.52 555.86L112.06 555.86L112.06 559.82C112.06 560.06 111.97 560.13 111.76 560.13C111.55 560.14 110.88 560.14 110.14 560.13C110.30 560.45 110.45 560.98 110.48 561.28C111.57 561.28 112.21 561.26 112.62 561.06C113.04 560.86 113.18 560.50 113.18 559.84L113.18 547.15M109.62 548.27L112.06 548.27L112.06 550.90L109.62 550.90M109.62 552.02L112.06 552.02L112.06 554.72L109.58 554.72C109.60 554.08 109.62 553.46 109.62 552.90M120.53 553.74C120.18 555.09 119.62 556.30 118.93 557.34C118.18 556.27 117.60 555.06 117.17 553.74M114.59 547.20L114.59 561.28L115.73 561.28L115.73 553.74L116.13 553.74C116.64 555.41 117.34 556.94 118.26 558.24C117.52 559.14 116.67 559.82 115.79 560.30C116.05 560.51 116.37 560.91 116.50 561.18C117.38 560.67 118.21 559.98 118.94 559.14C119.70 560.03 120.56 560.77 121.54 561.30C121.73 561.01 122.06 560.59 122.32 560.37C121.31 559.89 120.42 559.15 119.63 558.26C120.64 556.83 121.42 555.02 121.86 552.85L121.15 552.59L120.94 552.64L115.73 552.64L115.73 548.32L120.22 548.32L120.22 550.29C120.22 550.48 120.18 550.53 119.92 550.54C119.66 550.56 118.82 550.56 117.84 550.53C118 550.82 118.18 551.23 118.22 551.55C119.44 551.55 120.26 551.55 120.75 551.39C121.26 551.22 121.39 550.90 121.39 550.30L121.39 547.20M139.36 553.38L127.02 553.38L127.02 554.46L139.36 554.46C138.54 555.09 137.49 556.10 136.77 557.09L137.73 557.65C138.80 556.24 140.40 554.83 141.82 553.92C140.40 553.01 138.80 551.60 137.73 550.19L136.77 550.75C137.49 551.74 138.54 552.75 139.36 553.38M149.84 549.76L158.05 549.76L158.05 550.78L149.84 550.78M149.84 547.95L158.05 547.95L158.05 548.96L149.84 548.96M150.21 555.36L157.74 555.36L157.74 556.88L150.21 556.88M155.94 558.94C157.41 559.50 159.25 560.42 160.18 561.06L160.99 560.27CNaN 559.62 158.14 558.75 156.70 558.24M150.62 558.18C149.66 558.94 148.08 559.68 146.67 560.14C146.94 560.34 147.36 560.77 147.57 561.01C148.93 560.45 150.64 559.54 151.71 558.62M152.90 551.90C153.06 552.11 153.22 552.37 153.36 552.62L146.86 552.62L146.86 553.62L161.02 553.62L161.02 552.62L154.66 552.62C154.50 552.29 154.26 551.92 NaN 551.62L159.25 551.62L159.25 547.14L148.69 547.14L148.69 551.62L153.76 551.62M149.06 554.46L149.06 557.76L153.36 557.76L153.36 560.10C153.36 560.27 153.31 560.32 153.09 560.34C152.86 560.35 152.08 560.35 151.25 560.32C151.41 560.59 151.57 560.98 151.62 561.28C152.75 561.28 153.49 561.28 153.95 561.12C154.43 560.98 154.58 560.72 154.58 560.13L154.58 557.76L158.94 557.76L158.94 554.46M164.10 547.06C164.53 547.79 165.07 548.78 165.33 549.41L166.30 548.93C166.06 548.32 165.50 547.39 165.06 546.66M170.50 550.43L175.07 550.43L175.07 552.19L170.50 552.19M169.42 549.46L169.42 553.17L176.19 553.17L176.19 549.46M168.51 547.34L168.51 548.38L177.04 548.38L177.04 547.34M172.13 555.20L172.13 556.86L169.70 556.86L169.70 555.20M173.22 555.20L175.78 555.20L175.78 556.86L173.22 556.86M172.13 557.81L172.13 559.52L169.70 559.52L169.70 557.81M173.22 557.81L175.78 557.81L175.78 559.52L173.22 559.52M162.85 549.57L162.85 550.66L166.90 550.66C165.89 552.78 164.03 554.80 162.27 555.95C162.46 556.16 162.77 556.72 162.90 557.04C163.62 556.53 164.34 555.89 165.04 555.15L165.04 561.25L166.21 561.25L166.21 554.34C166.80 554.94 167.57 555.76 167.90 556.19L168.58 555.26L168.58 561.28L169.70 561.28L169.70 560.53L175.78 560.53L175.78 561.23L176.93 561.23L176.93 554.21L168.58 554.21L168.58 555.18C168.24 554.85 167.09 553.81 166.53 553.34C167.28 552.30 167.94 551.15 168.38 549.95L167.73 549.52L167.50 549.57M182.98 551.55L188.91 551.55L188.91 553.66L182.98 553.66M180.69 556.08L180.69 561.23L181.89 561.23L181.89 560.58L190.21 560.58L190.21 561.17L191.44 561.17L191.44 556.08L185.78 556.08L186.48 554.66L190.11 554.66L190.11 550.56L181.84 550.56L181.84 554.66L185.07 554.66C184.91 555.12 184.72 555.63 184.51 556.08M181.89 559.52L181.89 557.14L190.21 557.14L190.21 559.52M184.75 546.82C184.98 547.20 185.22 547.66 185.39 548.10L179.28 548.10L179.28 551.71L180.45 551.71L180.45 549.20L191.50 549.20L191.50 551.71L192.72 551.71L192.72 548.10L186.82 548.10C186.59 547.58 186.27 546.94 185.97 546.46M210.53 553.38L198.19 553.38L198.19 554.46L210.53 554.46C209.71 555.09 208.66 556.10 207.94 557.09L208.90 557.65C209.97 556.24 211.57 554.83 212.99 553.92C211.57 553.01 209.97 551.60 208.90 550.19L207.94 550.75C208.66 551.74 209.71 552.75 210.53 553.38M217.68 559.92L218.24 561.12C220.08 560.37 222.58 559.34 224.90 558.35L224.69 557.30L223.47 557.76L223.47 546.85L222.24 546.85L222.24 550.62L218.16 550.62L218.16 551.82L222.24 551.82L222.24 558.24C220.50 558.90 218.85 559.52 217.68 559.92M226.18 546.86L226.18 558.50C226.18 560.18 226.59 560.64 NaN 560.64C228.30 560.64 229.86 560.64 230.16 560.64C231.71 560.64 NaN 559.50 232.13 556.19C231.79 556.11 231.30 555.87 230.98 555.60C230.88 558.69 230.78 559.46 230.06 559.46C229.73 559.46 228.43 559.46 228.14 559.46C227.54 559.46 227.42 559.31 227.42 558.51L227.42 551.81L231.92 551.81L231.92 550.61L227.42 550.61L227.42 546.86M241.20 553.25C242.05 554.48 242.91 556.11 243.23 557.15L244.32 556.59C243.98 555.55 243.09 553.97 242.19 552.78M245.65 546.58L245.65 549.97L240.86 549.97L240.86 551.12L245.65 551.12L245.65 559.63C245.65 559.94 245.54 560.02 245.25 560.03C244.93 560.03 243.92 560.05 242.83 560.02C243.02 560.37 243.22 560.93 243.28 561.28C244.66 561.28 245.58 561.25 246.11 561.04C246.64 560.85 246.86 560.48 246.86 559.63L246.86 551.12L248.59 551.12L248.59 549.97L246.86 549.97L246.86 546.58M236.82 546.56L236.82 549.98L233.97 549.98L233.97 551.14L236.64 551.14C236.03 553.36 234.80 555.84 233.58 557.20C233.81 557.49 234.11 557.98 234.26 558.32C235.20 557.20 236.13 555.36 236.82 553.46L236.82 561.26L237.97 561.26L237.97 553.98C238.59 554.75 239.36 555.74 239.70 556.29L240.46 555.28C240.11 554.83 238.50 553.09 237.97 552.59L237.97 551.14L240.38 551.14L240.38 549.98L237.97 549.98L237.97 546.56M256.26 547.26L256.26 548.37L264.32 548.37L264.32 547.26M257.22 556.06C257.68 557.10 258.14 558.50 258.30 559.39L259.38 559.10C259.22 558.21 258.72 556.83 258.21 555.79M257.89 551.17L262.53 551.17L262.53 554.06L257.89 554.06M256.77 550.08L256.77 555.15L263.70 555.15L263.70 550.08M262.05 555.68C261.73 556.90 261.12 558.54 260.59 559.66L255.58 559.66L255.58 560.78L264.48 560.78L264.48 559.66L261.74 559.66C262.26 558.61 262.80 557.17 263.26 555.95M251.25 546.58C250.99 548.50 250.53 550.42 249.76 551.66C250.03 551.81 250.51 552.13 250.70 552.30C251.10 551.62 251.44 550.75 251.71 549.81L252.59 549.81L252.59 552.29L252.58 552.93L249.82 552.93L249.82 554.02L252.53 554.02C252.34 556.10 251.71 558.43 249.73 560.19C249.95 560.35 250.40 560.77 250.56 561.01C251.95 559.76 252.75 558.16 253.20 556.56C253.82 557.46 254.66 558.70 255.02 559.36L255.82 558.37C255.49 557.89 254.06 555.95 253.49 555.25C253.55 554.83 253.60 554.42 253.63 554.02L255.90 554.02L255.90 552.93L253.70 552.93L253.71 552.30L253.71 549.81L255.70 549.81L255.70 548.72LNaN 548.72C252.14 548.08 252.26 547.42 252.35 546.77M268.64 553.86C268.40 556.21 267.63 559.04 265.68 560.53C265.95 560.72 266.37 561.09 266.58 561.31C267.71 560.42 268.48 559.10 269.01 557.66C270.61 560.46 273.22 561.07 276.66 561.07L280.11 561.07C280.18 560.74 280.38 560.19 280.56 559.90C279.86 559.92 277.23 559.92 276.70 559.92C275.63 559.92 274.62 559.86 273.71 559.66L273.71 556.51L279.07 556.51L279.07 555.42L273.71 555.42L273.71 552.88L280.11 552.88L280.11 551.76L273.71 551.76L273.71 549.55L278.94 549.55L278.94 548.43L273.71 548.43L273.71 546.58L272.48 546.58L272.48 548.43L267.54 548.43L267.54 549.55L272.48 549.55L272.48 551.76L266.14 551.76L266.14 552.88L272.48 552.88L272.48 559.30C271.17 558.77 270.14 557.82 269.46 556.21C269.65 555.47 269.79 554.74 269.89 554.02M297.70 553.38L285.36 553.38L285.36 554.46L297.70 554.46C296.88 555.09 295.82 556.10 295.10 557.09L296.06 557.65C297.14 556.24 298.74 554.83 300.16 553.92C298.74 553.01 297.14 551.60 296.06 550.19L295.10 550.75C295.82 551.74 296.88 552.75 297.70 553.38M309.20 550.64L309.20 551.81L313.09 551.81C312.08 554.43 310.37 557.02 308.62 558.38C308.91 558.61 309.31 559.02 309.52 559.33C311.12 557.94 312.64 555.66 313.71 553.15L313.71 561.28L314.90 561.28L314.90 552.77C315.95 555.33 317.49 557.81 319.06 559.23C319.26 558.91 319.68 558.50 319.97 558.29C318.30 556.93 316.62 554.35 315.62 551.81L319.55 551.81L319.55 550.64L314.90 550.64L314.90 546.78L313.71 546.78L313.71 550.64M309.01 546.66C308.03 549.18 306.38 551.58 304.62 553.12C304.85 553.41 305.22 554.05 305.36 554.34C306.02 553.73 306.64 553.01 307.25 552.22L307.25 561.25L308.43 561.25L308.43 550.50C309.12 549.39 309.71 548.22 310.19 547.02M324.56 551.20L331.98 551.20L331.98 552.48L324.56 552.48M324.56 553.41L331.98 553.41L331.98 554.70L324.56 554.70M324.56 549.01L331.98 549.01L331.98 550.29L324.56 550.29M324.50 556.77L324.50 559.38C324.50 560.66 324.99 560.99 326.85 560.99C327.23 560.99 330.13 560.99 330.53 560.99C332.08 560.99 332.48 560.51 332.64 558.46C332.30 558.40 331.79 558.22 331.52 558.03C331.44 559.66 331.31 559.89 330.45 559.89C329.81 559.89 327.39 559.89 326.91 559.89C325.89 559.89 325.70 559.81 325.70 559.36L325.70 556.77M332.51 556.93C333.25 557.94 334.02 559.31 334.29 560.19L335.42 559.68C335.12 558.80 334.34 557.46 333.58 556.48M322.67 556.74C322.29 557.74 321.66 559.12 321.02 560L322.13 560.53C322.72 559.60 323.30 558.19 323.70 557.18M327.01 556.16C327.82 556.91 328.75 557.98 329.15 558.70L330.13 558.10C329.70 557.41 328.78 556.38 327.95 555.66L333.18 555.66L333.18 548.05L328.40 548.05C328.64 547.63 328.91 547.14 329.15 546.64L327.74 546.40C327.62 546.86 327.36 547.52 327.15 548.05L323.41 548.05L323.41 555.66L327.87 555.66M344.35 551.50C343.02 551.50 341.92 552.59 341.92 553.94C341.92 555.28 343.02 556.37 344.35 556.37C345.70 556.37 346.78 555.28 346.78 553.94C346.78 552.59 345.70 551.50 344.35 551.50M344.35 555.55C343.47 555.55 342.74 554.83 342.74 553.94C342.74 553.04 343.47 552.32 344.35 552.32C345.25 552.32 345.97 553.04 345.97 553.94C345.97 554.83 345.25 555.55 344.35 555.55M361.25 552.35C363.15 553.63 365.55 555.52 366.69 556.75L367.66 555.82C366.46 554.59 364.03 552.80 362.14 551.58M353.41 547.68L353.41 548.91L360.53 548.91C358.94 551.65 356.19 554.35 353.01 555.92C353.26 556.19 353.63 556.67 353.82 556.98C356.05 555.81 358.03 554.16 359.65 552.30L359.65 561.25L360.94 561.25L360.94 550.66C361.36 550.10 361.73 549.50 362.06 548.91L367.20 548.91L367.20 547.68M377.18 553.25L381.87 553.25L381.87 554.82L377.18 554.82M377.18 555.71L381.87 555.71L381.87 557.30L377.18 557.30M377.18 550.82L381.87 550.82L381.87 552.35L377.18 552.35M377.66 558.51C376.98 559.23 375.52 560.06 374.24 560.53C374.50 560.72 374.86 561.10 375.06 561.33C376.34 560.85 377.84 559.98 378.70 559.14M380.14 559.22C381.12 559.82 382.35 560.74 382.94 561.33L383.90 560.64C383.26 560.03 382.02 559.17 381.04 558.59M369.71 550.13C370.83 550.74 372.16 551.65 372.99 552.42L368.91 552.42L368.91 553.50L371.55 553.50L371.55 559.84C371.55 560.05 371.49 560.10 371.25 560.11C371.02 560.11 370.29 560.11 369.46 560.10C369.63 560.43 369.79 560.91 369.84 561.25C370.94 561.25 371.66 561.23 372.11 561.04C372.58 560.85 372.70 560.51 372.70 559.87L372.70 553.50L374.40 553.50C374.13 554.37 373.81 555.25 373.52 555.84L374.43 556.08C374.86 555.22 375.36 553.81 375.78 552.58L375.02 552.37L374.85 552.42L373.70 552.42L374.08 551.92C373.76 551.60 373.33 551.23 372.82 550.86C373.71 550.02 374.67 548.86 375.33 547.79L374.58 547.26L374.35 547.33L369.25 547.33L369.25 548.40L373.57 548.40C373.10 549.06 372.53 549.76 371.97 550.29C371.42 549.94 370.86 549.62 370.35 549.34M376.06 549.87L376.06 558.22L383.02 558.22L383.02 549.87L379.68 549.87L380.14 548.35L383.57 548.35L383.57 547.31L375.44 547.31L375.44 548.35L378.80 548.35C378.72 548.85 378.61 549.39 378.50 549.87M385.73 551.39L385.73 552.35L390.48 552.35L390.48 551.39M385.73 553.50L385.73 554.45L390.50 554.45L390.50 553.50M385.06 549.28L385.06 550.27L391.15 550.27L391.15 549.28M386.80 546.98C387.23 547.62 387.76 548.54 NaN 549.12L388.98 548.56C388.72 547.98 388.21 547.14 387.74 546.50M390.98 553.63L390.98 554.75L392.35 554.75L391.65 554.99C392.26 556.37 393.07 557.57 394.08 558.56C392.99 559.31 391.76 559.86 390.48 560.18L390.48 555.63L385.73 555.63L385.73 561.07L386.78 561.07L386.78 560.30L390.45 560.30C390.67 560.58 390.91 561.01 391.02 561.28C392.45 560.86 393.81 560.22 395.01 559.34C396.14 560.21 397.47 560.86 398.99 561.25C399.15 560.93 399.49 560.42 399.76 560.16C398.32 559.84 397.04 559.30 395.95 558.56C397.22 557.38 398.22 555.86 398.80 553.90L398.05 553.58L397.84 553.63M386.78 556.64L389.41 556.64L389.41 559.30L386.78 559.30M392.53 547.14L392.53 548.90C392.53 550.05 392.26 551.36 390.53 552.35C390.75 552.53 391.17 552.99 391.31 553.23C393.22 552.10 393.65 550.37 393.65 548.93L393.65 548.26L396.30 548.26L396.30 550.83C396.30 552.05 396.53 552.50 397.58 552.50C397.78 552.50 398.43 552.50 398.64 552.50C398.94 552.50 399.25 552.48 399.44 552.42C399.39 552.14 399.36 551.68 399.34 551.38C399.14 551.42 398.83 551.46 398.64 551.46C398.46 551.46 397.84 551.46 397.66 551.46C397.46 551.46 397.44 551.31 397.44 550.85L397.44 547.14M397.26 554.75C396.74 555.97 395.95 556.99 395.01 557.82C394.03 556.98 393.26 555.94 392.74 554.75M402.27 548.11L402.27 549.33L414.37 549.33L414.37 548.11M403.30 553.34L403.30 554.54L413.12 554.54L413.12 553.34M401.34 558.90L401.34 560.11L415.25 560.11L415.25 558.90M423.23 550.27L426.90 550.27L426.90 552.13L423.23 552.13M422.10 549.41L422.10 552.99L428.08 552.99L428.08 549.41M421.36 554.96L423.50 554.96L423.50 557.33L421.36 557.33M420.35 554.06L420.35 558.19L424.54 558.19L424.54 554.06M426.67 554.96L428.90 554.96L428.90 557.33L426.67 557.33M425.63 554.06L425.63 558.19L429.97 558.19L429.97 554.06M417.25 547.30L417.25 548.38L417.90 548.38L417.90 557.39C417.90 559.74 419.09 560.53 421.55 560.53C422.14 560.53 427.50 560.53 428.66 560.53C429.89 560.53 431.10 560.51 431.55 560.40C431.49 560.13 431.39 559.57 431.36 559.23C430.77 559.36 429.55 559.41 428.67 559.41C427.54 559.41 422.48 559.41 421.44 559.41C419.71 559.41 419.07 558.85 419.07 557.47L419.07 548.38L430.75 548.38L430.75 547.30M433.52 559.74L433.52 560.83L447.17 560.83L447.17 559.74L440.88 559.74L440.88 557.06L445.46 557.06L445.46 556L440.88 556L440.88 553.54L444.82 553.54L444.82 552.46L435.82 552.46L435.82 553.54L439.63 553.54L439.63 556L435.12 556L435.12 557.06L439.63 557.06L439.63 559.74M436.03 546.99L436.03 548.13L438.88 548.13C437.28 549.89 434.91 551.70 432.90 552.66C433.18 552.90 433.49 553.31 433.66 553.62C435.92 552.42 438.64 550.18 440.29 548.13C441.95 550.27 444.50 552.35 446.93 553.50C447.12 553.18 447.50 552.70 447.76 552.45C445.20 551.39 442.43 549.22 440.94 546.99M450.74 548.29L453.46 548.29L453.46 551.10L450.74 551.10M448.86 559.39L449.15 560.53C450.75 560.08 452.90 559.49 454.93 558.91L454.78 557.86L452.82 558.38L452.82 555.44L454.56 555.44L454.56 554.38L452.82 554.38L452.82 552.14L454.56 552.14L454.56 547.25L449.68 547.25L449.68 552.14L451.74 552.14L451.74 558.67L450.67 558.94L450.67 553.66L449.68 553.66L449.68 559.20M456.90 546.59C456.42 548.32 455.58 550.03 454.56 551.15C454.80 551.34 455.20 551.78 455.36 551.98L455.73 551.52L455.73 559.20C455.73 560.69 456.22 561.06 457.95 561.06C458.34 561.06 461.30 561.06 461.70 561.06C463.20 561.06 463.55 560.48 463.71 558.53C463.41 558.46 462.96 558.27 462.69 558.10C462.61 559.71 462.46 560.03 461.65 560.03C461.02 560.03 458.48 560.03 NaN 560.03C456.98 560.03 456.80 559.89 456.80 559.20L456.80 556.08L460.16 556.08L460.16 551.22L455.95 551.22C456.30 550.69 456.66 550.10 456.96 549.46L461.63 549.46C461.62 554.14 461.57 555.78 461.33 556.13C461.23 556.30 461.09 556.34 460.86 556.34C460.61 556.34 459.98 556.34 459.31 556.27C459.49 556.58 459.63 557.04 459.63 557.34C460.32 557.38 460.98 557.39 461.38 557.34C461.82 557.28 462.10 557.17 462.35 556.82C462.70 556.27 462.74 554.48 462.75 548.96C462.75 548.78 462.75 548.38 462.75 548.38L457.44 548.38C457.63 547.89 457.81 547.38 457.97 546.86M456.80 552.21L459.14 552.21L459.14 555.07L456.80 555.07M472.35 551.50C471.02 551.50 469.92 552.59 469.92 553.94C469.92 555.28 471.02 556.37 472.35 556.37C473.70 556.37 474.78 555.28 474.78 553.94C474.78 552.59 473.70 551.50 472.35 551.50M472.35 555.55C471.47 555.55 470.74 554.83 470.74 553.94C470.74 553.04 471.47 552.32 472.35 552.32C473.25 552.32 473.97 553.04 473.97 553.94C473.97 554.83 473.25 555.55 472.35 555.55" fill="#2c2416" aria-label="Core：韓服 → 景福宮 → 北村短走 → 休息。不預設三區全跑。"/></svg>