<svg data-cjk-paths="1" xmlns="http://www.w3.org/2000/svg" width="1200" height="640" viewBox="0 0 1200 640"><rect width="1200" height="640" fill="#eef2f7"/><path d="M49.77 33.89L57.95 33.89L57.95 36.35L49.77 36.35M44.40 40.78L44.40 50.44L47.73 50.44L47.73 49.40L60.41 49.40L60.41 50.41L63.91 50.41L63.91 40.78L54.70 40.78L55.65 39.04L61.28 39.04L61.28 31.20L46.61 31.20L46.61 39.04L51.68 39.04L51.03 40.78M47.73 46.52L47.73 43.66L60.41 43.66L60.41 46.52M51.26 24.93C51.51 25.43 51.76 25.99 51.98 26.55L41.96 26.55L41.96 33.58L45.26 33.58L45.26 29.58L62.65 29.58L62.65 33.58L66.10 33.58L66.10 26.55L55.96 26.55C55.62 25.68 55.15 24.70 54.70 23.92M74.55 44.02C74.10 45.68 73.32 47.47 72.40 48.70C73.10 49.06 74.27 49.82 74.80 50.30C75.73 48.90 76.74 46.71 77.32 44.72M73.18 38.06L74.64 38.06L74.64 40.66L73.01 40.66M78.53 32.66L78.53 35.46L76.93 35.46L76.93 32.66L74.64 32.66L74.64 35.46L73.24 35.46L73.24 34.90L73.24 32.18L82.50 32.18L82.50 25.12L70.32 25.12L70.32 34.92C70.32 38.93 70.21 44.44 68.42 48.22C69.12 48.50 70.38 49.37 70.91 49.88C71.81 48.03 72.37 45.70 72.73 43.30L82.95 43.30L82.95 40.66L80.88 40.66L80.88 38.06L82.20 38.06L82.20 35.46L80.88 35.46L80.88 32.66M76.93 38.06L78.53 38.06L78.53 40.66L76.93 40.66M73.24 27.67L79.48 27.67L79.48 29.63L73.24 29.63M84.10 25.24L84.10 29.27C84.10 30.81 83.88 32.24 81.86 33.33C82.36 33.83 83.20 35.29 83.48 36.02L82.64 36.02L82.64 39.01L84.69 39.01L83.32 39.35C84.04 41.59 85 43.55 86.20 45.23C85.16 46.04 84.02 46.71 82.78 47.24C82.25 46.15 81.44 44.81 80.63 43.77L78.16 44.75C79.09 46.10 80.10 47.94 80.49 49.15L82.17 48.36C82.62 49.04 83.06 49.85 83.32 50.44C85.16 49.71 86.84 48.76 88.30 47.55C89.70 48.81 91.35 49.79 93.31 50.46C93.70 49.65 94.60 48.36 95.27 47.72C93.45 47.19 91.86 46.35 90.54 45.28C92.30 43.07 93.62 40.22 94.35 36.58L92.42 35.90L91.88 36.02L83.54 36.02C86.34 34.48 86.96 31.73 86.96 29.38L86.96 28.15L89.59 28.15L89.59 31.26C89.59 33.86 90.09 34.98 92.56 34.98C92.92 34.98 93.42 34.98 93.76 34.98C94.26 34.98 94.82 34.95 95.19 34.78C95.10 34.06 95.02 32.94 94.99 32.18C94.66 32.29 94.07 32.35 93.73 32.35C93.51 32.35 93.09 32.35 92.89 32.35C92.56 32.35 92.53 32.07 92.53 31.31L92.53 25.24M90.62 39.01C90.06 40.55 89.28 41.90 88.36 43.07C87.43 41.87 86.68 40.52 86.14 39.01M102.22 24.20C101.10 26.05 98.91 28.40 96.98 29.83C97.51 30.42 98.32 31.59 98.74 32.26C100.98 30.53 103.53 27.84 105.18 25.38M105.83 37.78C106.44 37.56 107.23 37.42 110.22 37.16C109.69 38.12 109.05 39.01 108.32 39.82C108.04 39.40 107.79 38.96 107.54 38.51L104.82 39.40C105.27 40.27 105.77 41.11 106.30 41.87C105.66 42.43 104.99 42.93 104.29 43.38C104.93 43.94 106.02 45.20 106.47 45.82C107.09 45.37 107.70 44.86 108.29 44.33C108.88 44.92 109.50 45.48 110.14 45.98C108.21 46.82 106.05 47.44 103.76 47.80C104.32 48.50 105.04 49.82 105.32 50.63C108.12 50.04 110.76 49.18 113.08 47.94C115.29 49.15 117.84 50.04 120.75 50.60C121.17 49.74 122.07 48.39 122.77 47.69C120.33 47.33 118.12 46.71 116.16 45.90C118.18 44.28 119.80 42.18 120.84 39.57L118.74 38.62L118.20 38.73L112.88 38.73C113.22 38.14 113.56 37.53 113.86 36.91L119.07 36.58C119.58 37.39 120.02 38.17 120.33 38.82L123.10 37.25C122.21 35.62 120.28 33.02 118.88 31.14L116.30 32.46L117.42 34.06L111.60 34.36C114.62 32.71 117.67 30.67 120.42 28.34L117.31 26.66C116.38 27.56 115.35 28.43 114.28 29.27L110.64 29.32C112.21 28.26 113.81 27 115.15 25.71L111.79 24.26C110.25 26.08 107.98 27.73 107.26 28.23C106.53 28.68 105.94 29.04 105.35 29.16C105.74 30.05 106.25 31.65 106.42 32.32C106.92 32.15 107.65 32.01 110.56 31.87C109.44 32.57 108.52 33.10 108.01 33.38C106.67 34.14 105.80 34.59 104.85 34.73C105.18 35.57 105.69 37.16 105.83 37.78M110.34 42.23L111.01 41.42L116.30 41.42C115.46 42.54 114.40 43.52 113.14 44.39C112.10 43.74 111.18 43.02 110.34 42.23M102.72 30.25C101.35 32.99 99 35.71 96.73 37.47C97.32 38.20 98.21 39.88 98.52 40.58C99.11 40.08 99.70 39.52 100.28 38.93L100.28 50.55L103.48 50.55L103.48 34.98C104.32 33.78 105.07 32.54 105.69 31.31M137.24 31.65L141.84 31.65L141.84 33.94L137.24 33.94M134.11 29.44L134.11 36.16L145.17 36.16L145.17 29.44M133.97 39.66L136.12 39.66L136.12 42.71L133.97 42.71M131.25 37.39L131.25 44.98L139.01 44.98L139.01 37.39M143.01 39.66L145.31 39.66L145.31 42.71L143.01 42.71M140.27 37.39L140.27 44.98L148.22 44.98L148.22 37.39M125.57 25.21L125.57 28.15L126.69 28.15L126.69 42.79C126.69 47.97 129.01 49.51 134 49.51C135.23 49.51 143.15 49.51 145.08 49.51C147.35 49.51 149.84 49.46 150.91 49.18C150.74 48.39 150.54 46.85 150.43 46.04C149.26 46.26 147.02 46.40 145.22 46.40C143.21 46.40 135.37 46.40 133.69 46.40C130.83 46.40 129.96 45.45 129.96 43.02L129.96 28.15L149.51 28.15L149.51 25.21M164.49 35.54L166.62 35.54L166.62 38.98L164.49 38.98M162.02 32.96L162.02 41.56L169.22 41.56L169.22 32.96M152.73 43.77L153.99 47.13C156.28 45.90 159.03 44.36 161.55 42.88L160.57 39.91L158.64 40.92L158.64 34.08L160.76 34.08L160.76 30.89L158.64 30.89L158.64 24.59L155.50 24.59L155.50 30.89L152.98 30.89L152.98 34.08L155.50 34.08L155.50 42.48C154.46 42.99 153.51 43.44 152.73 43.77M175.46 32.96C175.07 34.81 174.57 36.55 173.92 38.17C173.70 36.02 173.53 33.61 173.42 31.12L178.85 31.12L178.85 28.06L177.62 28.06L178.82 26.94C178.18 26.13 176.81 24.98 175.74 24.23L173.84 25.85C174.65 26.50 175.58 27.34 176.25 28.06L173.34 28.06C173.31 26.78 173.31 25.52 173.34 24.23L170.12 24.23L170.17 28.06L161.21 28.06L161.21 31.12L170.28 31.12C170.45 35.46 170.82 39.60 171.46 42.93C171.10 43.49 170.70 44.02 170.28 44.50L170.03 42.26C166.48 43.07 162.78 43.88 160.34 44.36L161.13 47.50C163.59 46.85 166.70 46.04 169.67 45.23C168.60 46.38 167.40 47.36 166.08 48.20C166.78 48.67 168.04 49.76 168.49 50.32C169.95 49.29 171.26 48.03 172.44 46.63C173.31 49.04 174.48 50.49 176.05 50.49C178.18 50.49 178.99 49.43 179.47 45.68C178.77 45.31 177.84 44.61 177.20 43.83C177.12 46.32 176.89 47.36 176.50 47.36C175.83 47.36 175.21 45.84 174.71 43.35C176.36 40.52 177.59 37.22 178.46 33.50M182.63 27C184.45 27.78 186.78 29.13 187.84 30.14L189.83 27.39C188.65 26.38 186.27 25.18 184.45 24.51M180.98 34.76C182.80 35.51 185.12 36.80 186.22 37.78L188.09 34.98C186.89 34.03 184.54 32.85 182.72 32.21M181.96 47.92L184.82 50.18C186.50 47.44 188.26 44.25 189.74 41.31L187.28 39.07C185.60 42.32 183.44 45.82 181.96 47.92M198.76 41.42C200.64 44.30 203.18 48.22 204.33 50.52L207.33 48.78C206.07 46.52 203.38 42.74 201.50 39.99M201.73 36.77L198.42 36.77C198.48 35.85 198.51 34.90 198.51 33.97L198.51 31.68L201.73 31.68M195.18 24.23L195.18 28.51L190.22 28.51L190.22 31.68L195.18 31.68L195.18 33.97C195.18 34.90 195.15 35.85 195.09 36.77L188.85 36.77L188.85 39.91L194.59 39.91C193.78 43.04 191.90 45.93 187.67 48.14C188.54 48.64 189.86 49.82 190.47 50.52C195.37 47.75 197.30 43.97 198.06 39.91L207.13 39.91L207.13 36.77L205.03 36.77L205.03 28.51L198.51 28.51L198.51 24.23M226.90 29.46C227.91 30.25 229.17 31.40 229.78 32.15L232.02 30.19C231.58 29.69 230.82 29.04 230.06 28.46L234.94 28.46L234.94 25.91L227.21 25.91L227.68 24.73L224.60 23.95C223.93 25.96 222.64 27.95 221.10 29.24C221.61 29.52 222.36 30.11 222.95 30.61L220.52 30.61L220.52 32.15L217.55 32.15L219.56 30.33C219.12 29.80 218.39 29.10 217.66 28.48L221.66 28.48L221.66 25.91L215.50 25.91L215.98 24.82L213.01 23.95C212.14 26.19 210.60 28.40 208.95 29.86C209.60 30.39 210.72 31.54 211.19 32.12C212.17 31.17 213.18 29.88 214.05 28.48L215.73 28.48L214.66 29.41C215.59 30.22 216.76 31.34 217.35 32.15L209.76 32.15L209.76 35.04L220.52 35.04L220.52 36.38L211.56 36.38L211.56 44.19L215.14 44.19L215.14 39.24L220.52 39.24L220.52 41.20C218.11 43.88 213.74 46.04 209.06 46.94C209.76 47.64 210.72 48.92 211.16 49.76C214.66 48.81 217.97 47.16 220.52 44.92L220.52 50.52L224.13 50.52L224.13 45.03C226.45 46.91 229.64 48.70 233.23 49.57C233.68 48.70 234.66 47.33 235.36 46.60C232.56 46.12 229.95 45.20 227.80 44.11C229.34 44.11 230.60 44.08 231.55 43.66C232.56 43.27 232.84 42.57 232.84 41.17L232.84 36.38L224.13 36.38L224.13 35.04L234.26 35.04L234.26 32.15L224.13 32.15L224.13 30.67C224.72 30.02 225.30 29.27 225.84 28.46L228.10 28.46M224.13 39.24L229.39 39.24L229.39 41.17C229.39 41.48 229.25 41.56 228.94 41.56C228.61 41.56 227.46 41.59 226.56 41.50C226.93 42.18 227.40 43.21 227.63 44.02C226.23 43.30 225.05 42.51 224.13 41.70" fill="#2c2416" aria-label="宮殿後區域決策"/><rect x="40" y="100" width="360" height="400" rx="8" fill="#fff" stroke="#2f5d3a" stroke-width="2"/><path d="M60.40 149.06L61.50 151.52C63.88 150.58 66.96 149.34 69.80 148.14L69.38 146L68.26 146.40L68.26 133.34L65.76 133.34L65.76 137.76L61.12 137.76L61.12 140.14L65.76 140.14L65.76 147.28C63.70 148 61.78 148.64 60.40 149.06M70.90 133.34L70.90 147.56C70.90 150.34 71.56 151.18 73.78 151.18C74.18 151.18 75.74 151.18 76.18 151.18C78.44 151.18 79 149.60 79.22 145.42C78.56 145.26 77.50 144.78 76.92 144.30C76.80 147.92 76.68 148.84 75.92 148.84C75.62 148.84 74.44 148.84 74.14 148.84C73.48 148.84 73.40 148.66 73.40 147.58L73.40 140.12L78.64 140.12L78.64 137.72L73.40 137.72L73.40 133.34M89.72 141.82C90.70 143.30 91.68 145.28 91.98 146.56L94.14 145.48C93.80 144.18 92.74 142.30 91.70 140.86M95.02 133.02L95.02 137.10L89.56 137.10L89.56 139.38L95.02 139.38L95.02 148.82C95.02 149.18 94.88 149.30 94.48 149.30C94.08 149.32 92.80 149.32 91.56 149.26C91.92 149.96 92.30 151.10 92.40 151.80C94.20 151.80 95.52 151.72 96.34 151.32C97.18 150.94 97.46 150.26 97.46 148.84L97.46 139.38L99.52 139.38L99.52 137.10L97.46 137.10L97.46 133.02M84 133L84 137.14L80.92 137.14L80.92 139.40L83.74 139.40C83.04 141.82 81.78 144.50 80.36 146.10C80.74 146.70 81.32 147.70 81.56 148.40C82.48 147.30 83.30 145.66 84 143.88L84 151.78L86.34 151.78L86.34 143.52C86.92 144.38 87.52 145.32 87.86 145.98L89.32 143.98C88.88 143.42 86.98 141.18 86.34 140.54L86.34 139.40L89 139.40L89 137.14L86.34 137.14L86.34 133M109.32 142.06L109.32 137.54L111.24 137.54C113.14 137.54 114.18 138.08 114.18 139.68C114.18 141.26 113.14 142.06 111.24 142.06M114.42 150L117.72 150L114.26 143.94C115.96 143.28 117.08 141.90 117.08 139.68C117.08 136.28 114.62 135.18 111.50 135.18L106.36 135.18L106.36 150L109.32 150L109.32 144.40L111.38 144.40M124.40 150.28C125.78 150.28 127.20 149.80 128.30 149.04L127.30 147.24C126.48 147.74 125.70 148 124.80 148C123.12 148 121.92 147.06 121.68 145.24L128.58 145.24C128.66 144.96 128.72 144.42 128.72 143.88C128.72 140.76 127.12 138.52 124.04 138.52C121.38 138.52 118.82 140.78 118.82 144.40C118.82 148.10 121.26 150.28 124.40 150.28M121.62 143.26C121.86 141.64 122.90 140.80 124.08 140.80C125.54 140.80 126.20 141.76 126.20 143.26M135 150.28C135.98 150.28 136.76 150.04 137.38 149.86L136.88 147.72C136.58 147.84 136.14 147.96 135.78 147.96C134.78 147.96 134.24 147.36 134.24 146.08L134.24 141.12L137.02 141.12L137.02 138.80L134.24 138.80L134.24 135.78L131.82 135.78L131.48 138.80L129.74 138.94L129.74 141.12L131.32 141.12L131.32 146.10C131.32 148.58 132.34 150.28 135 150.28M141.60 150.28C142.90 150.28 144.02 149.66 144.98 148.80L145.08 148.80L145.28 150L147.68 150L147.68 143.46C147.68 140.22 146.22 138.52 143.38 138.52C141.62 138.52 140.02 139.20 138.72 140L139.76 141.96C140.80 141.34 141.80 140.88 142.84 140.88C144.22 140.88 144.70 141.72 144.74 142.82C140.24 143.30 138.30 144.56 138.30 146.94C138.30 148.86 139.60 150.28 141.60 150.28M142.58 147.98C141.72 147.98 141.10 147.60 141.10 146.72C141.10 145.70 142 144.96 144.74 144.64L144.74 146.88C144.04 147.58 143.42 147.98 142.58 147.98M150.68 150L153.62 150L153.62 138.80L150.68 138.80M152.16 136.98C153.16 136.98 153.86 136.36 153.86 135.38C153.86 134.42 153.16 133.78 152.16 133.78C151.12 133.78 150.46 134.42 150.46 135.38C150.46 136.36 151.12 136.98 152.16 136.98M156.76 150L159.70 150L159.70 142.30C160.52 141.48 161.12 141.04 162.02 141.04C163.12 141.04 163.60 141.64 163.60 143.38L163.60 150L166.54 150L166.54 143.02C166.54 140.20 165.50 138.52 163.08 138.52C161.56 138.52 160.42 139.32 159.44 140.28L159.38 140.28L159.16 138.80L156.76 138.80" fill="#2f5d3a" aria-label="北村 Retain"/><path d="M68.88 193.15L72.50 193.15L72.50 194.66L68.88 194.66M62.19 194.15L65.36 194.15L65.36 195.34L62.19 195.34M62.19 192.16L65.36 192.16L65.36 193.29L62.19 193.29M72.21 190.73L70.03 190.73L70.22 189.50L72.21 189.50M69.38 187.40L69.25 188.62L67.52 188.62L67.52 189.50L69.16 189.50L69 190.73L66.73 190.73L66.73 191.65L74.37 191.65L74.37 190.73L73.22 190.73L73.22 188.62L70.32 188.62L70.42 187.49M67.22 196.31L67.22 197.21L68.22 197.21C68.04 198.02 67.83 198.94 67.64 199.56L70.64 199.56L70.64 201.19L71.69 201.19L71.69 199.56L74.37 199.56L74.37 198.66L71.69 198.66L71.69 197.21L74.04 197.21L74.04 196.31L71.69 196.31L71.69 195.44L73.58 195.44L73.58 192.34L67.81 192.34L67.81 195.44L70.64 195.44L70.64 196.31M70.64 197.21L70.64 198.66L68.89 198.66L69.21 197.21M60.63 197.50L60.63 198.51L63.21 198.51L63.21 201.19L64.31 201.19L64.31 198.51L66.83 198.51L66.83 197.50L64.31 197.50L64.31 196.22L66.39 196.22L66.39 191.24L64.31 191.24L64.31 189.98L66.69 189.98L66.69 188.97L64.31 188.97L64.31 187.37L63.21 187.37L63.21 188.97L60.78 188.97L60.78 189.98L63.21 189.98L63.21 191.24L61.19 191.24L61.19 196.22L63.21 196.22L63.21 197.50M78.24 189.11L87.15 189.11L87.15 190.59L78.24 190.59M77.11 188.16L77.11 192.35C77.11 194.79 76.98 198.20 75.51 200.63C75.80 200.74 76.31 201 76.52 201.20C78.03 198.68 78.24 194.94 78.24 192.35L78.24 191.54L88.28 191.54L88.28 188.16M79.25 196.34C79.56 196.22 80.03 196.16 82.92 195.97L82.92 197.28L79.02 197.28L79.02 198.22L82.92 198.22L82.92 199.85L77.88 199.85L77.88 200.76L89.20 200.76L89.20 199.85L84.02 199.85L84.02 198.22L88.05 198.22L88.05 197.28L84.02 197.28L84.02 195.89L86.79 195.72C87.18 196.07 87.51 196.41 87.75 196.70L88.64 196.10C87.97 195.35 86.66 194.27 85.58 193.53L88.75 193.53L88.75 192.60L78.33 192.60L78.33 193.53L81.21 193.53C80.59 194.16 79.98 194.69 79.74 194.85C79.42 195.11 79.16 195.26 78.90 195.31C79.02 195.59 79.19 196.10 79.25 196.34M84.73 194.03C85.09 194.28 85.47 194.59 85.84 194.88L80.83 195.16C81.47 194.68 82.08 194.12 82.64 193.53L85.53 193.53M97.75 187.35C96.22 189.68 93.45 191.69 90.60 192.81C90.92 193.07 91.23 193.50 91.41 193.81C92.19 193.46 92.97 193.06 93.72 192.59L93.72 193.34L101.30 193.34L101.30 192.34C102.08 192.83 102.89 193.26 103.74 193.67C103.91 193.31 104.25 192.91 104.53 192.65C102.15 191.65 100.02 190.40 98.27 188.54L98.75 187.87M94.16 192.31C95.43 191.47 96.61 190.46 97.59 189.35C98.73 190.55 99.93 191.50 101.23 192.31M92.94 195.14L92.94 201.17L94.08 201.17L94.08 200.33L101.07 200.33L101.07 201.11L102.25 201.11L102.25 195.14M94.08 199.28L94.08 196.16L101.07 196.16L101.07 199.28M112.92 193.90L117.31 193.90L117.31 196.18L112.92 196.18M111.87 192.95L111.87 197.12L118.42 197.12L118.42 192.95M110.10 198.13C110.28 199.12 110.40 200.38 110.42 201.14L111.51 200.97C111.50 200.22 111.33 198.98 111.14 198.02M113.31 198.08C113.70 199.06 114.08 200.34 114.22 201.11L115.33 200.87C115.19 200.07 114.77 198.83 114.36 197.88M116.37 198C117.09 199 117.91 200.38 118.28 201.23L119.34 200.75C118.97 199.90 118.11 198.56 117.39 197.59M107.61 197.69C107.11 198.80 106.32 200.04 105.64 200.79L106.72 201.28C107.42 200.42 108.17 199.12 108.69 198M107.46 189.05L109.71 189.05L109.71 191.69L107.46 191.69M107.46 195.62L107.46 192.68L109.71 192.68L109.71 195.62M106.39 188.04L106.39 197.41L107.46 197.41L107.46 196.64L110.76 196.64L110.76 188.04M111.42 188.01L111.42 189.02L113.92 189.02C113.63 190.41 112.92 191.38 110.94 191.91C111.17 192.09 111.45 192.50 111.57 192.75C113.85 192.05 114.70 190.84 115.03 189.02L117.72 189.02C117.61 190.44 117.51 191.03 117.31 191.22C117.21 191.33 117.08 191.34 116.86 191.34C116.63 191.34 116.01 191.34 115.35 191.28C115.52 191.54 115.62 191.93 115.64 192.22C116.33 192.26 117 192.25 117.34 192.23C117.73 192.20 117.99 192.11 118.23 191.87C118.55 191.53 118.69 190.64 118.83 188.45C118.84 188.30 118.86 188.01 118.86 188.01M126.36 195.83L132.53 195.83L132.53 196.70L126.36 196.70M126.36 197.41L132.53 197.41L132.53 198.28L126.36 198.28M126.36 194.28L132.53 194.28L132.53 195.13L126.36 195.13M125.31 193.56L125.31 199L133.62 199L133.62 193.56M130.19 199.75C131.47 200.19 132.79 200.78 133.57 201.25L134.53 200.59C133.66 200.12 132.21 199.55 130.92 199.12M127.71 199.09C126.93 199.61 125.47 200.15 124.17 200.47C124.38 200.65 124.65 200.99 124.78 201.22C126.12 200.88 127.61 200.31 128.52 199.67M125 189.91L125 192.84L133.80 192.84L133.80 189.91L131.12 189.91L131.12 189.02L134.26 189.02L134.26 188.15L124.64 188.15L124.64 189.02L127.59 189.02L127.59 189.91M128.50 189.02L130.17 189.02L130.17 189.91L128.50 189.91M125.98 190.66L127.59 190.66L127.59 192.09L125.98 192.09M128.50 190.66L130.17 190.66L130.17 192.09L128.50 192.09M131.12 190.66L132.76 190.66L132.76 192.09L131.12 192.09M123.50 187.47C122.78 189.80 121.58 192.11 120.27 193.61C120.47 193.90 120.75 194.48 120.86 194.75C121.35 194.16 121.83 193.49 122.28 192.74L122.28 201.20L123.36 201.20L123.36 190.72C123.81 189.77 124.22 188.76 124.53 187.76M143.99 187.40C143.94 187.85 143.87 188.39 143.79 188.93L139.94 188.93L139.94 189.94L143.61 189.94C143.52 190.44 143.43 190.93 143.32 191.33L140.73 191.33L140.73 199.79L139.29 199.79L139.29 200.76L149.37 200.76L149.37 199.79L148.03 199.79L148.03 191.33L144.34 191.33C144.47 190.93 144.59 190.44 144.69 189.94L148.92 189.94L148.92 188.93L144.91 188.93L145.19 187.47M141.75 199.79L141.75 198.54L146.99 198.54L146.99 199.79M141.75 194.31L146.99 194.31L146.99 195.60L141.75 195.60M141.75 193.47L141.75 192.22L146.99 192.22L146.99 193.47M141.75 196.41L146.99 196.41L146.99 197.72L141.75 197.72M138.96 187.41C138.16 189.69 136.86 191.93 135.48 193.40C135.68 193.67 135.99 194.25 136.11 194.51C136.54 194.03 136.98 193.47 137.38 192.88L137.38 201.20L138.44 201.20L138.44 191.16C139.03 190.09 139.56 188.91 140 187.75M152.50 187.99L152.50 192.57L153.60 192.57L153.60 188.82L161.40 188.82L161.40 192.57L162.54 192.57L162.54 187.99M154.26 189.74L154.26 190.49L160.74 190.49L160.74 189.74M154.26 191.41L154.26 192.19L160.71 192.19L160.71 191.41M155.88 194.12L155.88 195.09L153.15 195.09L153.15 194.12M150.66 199.26L150.78 200.24C152.16 200.09 154.03 199.88 155.88 199.66L155.88 201.20L156.94 201.20L156.94 194.12L164.10 194.12L164.10 193.18L150.85 193.18L150.85 194.12L152.12 194.12L152.12 199.13M157.37 195.05L157.37 195.97L158.79 195.97L158.13 196.16C158.55 197.18 159.12 198.08 159.84 198.84C158.97 199.49 158 199.97 156.99 200.27C157.20 200.50 157.49 200.90 157.60 201.16C158.67 200.79 159.69 200.27 160.60 199.56C161.47 200.28 162.53 200.84 163.69 201.19C163.86 200.93 164.15 200.51 164.38 200.31C163.25 200.03 162.22 199.53 161.37 198.89C162.34 197.94 163.13 196.76 163.59 195.29L162.90 195L162.71 195.05M159.07 195.97L162.22 195.97C161.84 196.82 161.26 197.57 160.59 198.22C159.94 197.57 159.44 196.81 159.07 195.97M155.88 195.95L155.88 196.96L153.15 196.96L153.15 195.95M155.88 197.79L155.88 198.74L153.15 199.04L153.15 197.79M169.29 191.62L175.78 191.62L175.78 192.98L169.29 192.98M168.16 190.79L168.16 193.81L176.96 193.81L176.96 190.79M171.62 187.61L172.05 188.96L165.88 188.96L165.88 189.95L179.06 189.95L179.06 188.96L173.29 188.96C173.13 188.48 172.91 187.85 172.69 187.35M166.44 194.65L166.44 201.19L167.52 201.19L167.52 195.59L177.45 195.59L177.45 200.01C177.45 200.18 177.38 200.24 177.19 200.24C177.01 200.24 176.31 200.25 175.66 200.22C175.80 200.47 175.97 200.81 176.03 201.08C176.99 201.08 177.63 201.08 178.03 200.94C178.44 200.79 178.57 200.56 178.57 200L178.57 194.65M169.22 196.47L169.22 200.31L170.28 200.31L170.28 199.56L175.59 199.56L175.59 196.47M170.28 197.31L174.57 197.31L174.57 198.72L170.28 198.72" fill="#2c2416" aria-label="韓屋合照價值最高"/><path d="M65.86 222.40C65.69 223.04 65.46 223.71 65.20 224.35L60.95 224.35L60.95 225.40L64.72 225.40C63.78 227.34 62.40 229.13 60.65 230.34C60.87 230.56 61.22 230.95 61.38 231.21C62.30 230.56 63.10 229.76 63.81 228.90L63.81 231.12C63.81 232.53 63.67 234.21 62.43 235.41C62.64 235.57 63.08 236.03 63.21 236.28C64.11 235.45 64.55 234.32 64.75 233.22L71.22 233.22L71.22 234.78C71.22 235 71.14 235.09 70.89 235.09C70.61 235.10 69.69 235.12 68.70 235.07C68.85 235.39 69.02 235.85 69.08 236.16C70.36 236.16 71.19 236.16 71.69 235.99C72.18 235.79 72.33 235.45 72.33 234.79L72.33 227.14L65.03 227.14C65.37 226.59 65.67 226 65.95 225.40L74.08 225.40L74.08 224.35L66.41 224.35C66.63 223.79 66.83 223.22 67 222.67M71.22 230.66L71.22 232.24L64.89 232.24C64.92 231.85 64.94 231.47 64.94 231.13L64.94 230.66M71.22 229.71L64.94 229.71L64.94 228.16L71.22 228.16M80.97 224.62L80.97 228.52C80.97 230.63 80.75 233.40 78.83 235.33C79.06 235.47 79.50 235.84 79.68 236.06C81.51 234.21 81.96 231.47 82.03 229.28L82.20 229.28C82.74 230.89 83.52 232.27 84.54 233.41C83.55 234.25 82.41 234.88 81.22 235.27C81.47 235.50 81.75 235.91 81.89 236.19C83.11 235.72 84.28 235.06 85.29 234.18C86.27 235.04 87.42 235.72 88.75 236.16C88.92 235.87 89.23 235.44 89.47 235.21C88.17 234.84 87.03 234.22 86.07 233.43C87.24 232.16 88.16 230.54 88.66 228.50L87.96 228.25L87.77 228.29L85.50 228.29L85.50 225.67L87.97 225.67C87.80 226.38 87.58 227.08 87.41 227.57L88.39 227.80C88.71 227.05 89.07 225.82 89.37 224.77L88.56 224.57L88.36 224.62L85.50 224.62L85.50 222.40L84.41 222.40L84.41 224.62M84.41 225.67L84.41 228.29L82.05 228.29L82.05 225.67M87.33 229.28C86.88 230.62 86.17 231.75 85.29 232.69C84.41 231.73 83.72 230.59 83.23 229.28M75.51 232.56L75.96 233.66C77.23 233.09 78.90 232.34 80.46 231.63L80.20 230.63L78.63 231.31L78.63 227.08L80.28 227.08L80.28 226.01L78.63 226.01L78.63 222.58L77.56 222.58L77.56 226.01L75.70 226.01L75.70 227.08L77.56 227.08L77.56 231.75C76.78 232.06 76.08 232.34 75.51 232.56M98.66 231.47L99.67 230.62C98.75 229.51 97.38 228.16 96.31 227.29L95.34 228.15C96.41 229.01 97.68 230.29 98.66 231.47M114.77 231.94C114.22 232.68 113.55 233.25 112.69 233.71C111.64 233.49 110.56 233.29 109.48 233.11C109.75 232.75 110.04 232.36 110.34 231.94M107.69 233.71C108.89 233.91 110.06 234.12 111.18 234.34C109.74 234.82 107.95 235.07 105.77 235.21C105.94 235.48 106.13 235.88 106.20 236.20C109.05 235.97 111.27 235.54 112.97 234.73C114.94 235.19 116.66 235.69 117.91 236.17L118.95 235.36C117.69 234.93 116.03 234.46 114.16 234.04C114.96 233.47 115.61 232.78 116.11 231.94L119.20 231.94L119.20 230.98L116.59 230.98L116.82 230.40L115.72 230.09C115.62 230.41 115.50 230.69 115.35 230.98L110.97 230.98C111.24 230.53 111.51 230.08 111.72 229.65L110.59 229.39C110.36 229.88 110.04 230.44 109.69 230.98L105.81 230.98L105.81 231.94L109.06 231.94C108.60 232.60 108.12 233.22 107.69 233.71M106.78 225.32L106.78 229.21L118.32 229.21L118.32 225.32L114.70 225.32L114.70 224.05L118.95 224.05L118.95 223.04L106.03 223.04L106.03 224.05L110.13 224.05L110.13 225.32M111.19 224.05L113.64 224.05L113.64 225.32L111.19 225.32M107.85 226.25L110.13 226.25L110.13 228.29L107.85 228.29M111.19 226.25L113.64 226.25L113.64 228.29L111.19 228.29M114.70 226.25L117.21 226.25L117.21 228.29L114.70 228.29M126.27 222.61C126.53 223.07 126.81 223.65 127.02 224.13L121.39 224.13L121.39 227.17L122.52 227.17L122.52 225.19L132.44 225.19L132.44 227.17L133.62 227.17L133.62 224.13L128.41 224.13C128.19 223.60 127.80 222.87 127.47 222.31M129.65 229.53C129.27 230.68 128.75 231.61 128.03 232.36C126.90 231.91 125.76 231.49 124.68 231.15C125 230.66 125.34 230.11 125.67 229.53M122.88 231.66C124.22 232.07 125.67 232.60 127.08 233.19C125.67 234.19 123.72 234.78 121.13 235.12C121.36 235.41 121.74 235.94 121.84 236.23C124.68 235.75 126.80 235 128.32 233.72C130.19 234.55 131.88 235.42 132.97 236.19L133.83 235.21C132.68 234.46 131.03 233.62 129.21 232.85C129.97 231.97 130.56 230.88 130.98 229.53L134.03 229.53L134.03 228.44L131.26 228.44C131.37 228.01 131.46 227.56 131.53 227.08L130.20 226.96C130.13 227.49 130.05 227.98 129.94 228.44L126.27 228.44C126.70 227.63 127.11 226.81 127.41 226.04L126.14 225.81C125.82 226.63 125.39 227.54 124.91 228.44L121.03 228.44L121.03 229.53L124.29 229.53C123.83 230.32 123.33 231.07 122.88 231.66M148.20 222.56C146.79 223.03 144.21 223.42 142.02 223.65C142.14 223.87 142.28 224.23 142.32 224.46C144.57 224.26 147.25 223.88 149 223.34M142.46 225.04C142.83 225.66 143.19 226.48 143.32 227.02L144.19 226.66C144.03 226.13 143.67 225.31 143.26 224.72M144.56 224.65C144.82 225.31 145.08 226.18 145.16 226.74L146.09 226.51C145.98 225.97 145.72 225.10 145.43 224.46M147.88 224.19C147.65 224.86 147.16 225.85 146.82 226.45L147.65 226.74C148.02 226.15 148.46 225.26 148.83 224.47M142.69 227.09L142.69 228.03L144.85 228.03L144.85 229.33L142 229.33L142 230.32L144.85 230.32L144.85 231.73L142.65 231.73L142.65 232.66L144.85 232.66L144.85 234.94C144.85 235.12 144.79 235.16 144.63 235.16C144.44 235.18 143.85 235.18 143.22 235.15C143.35 235.44 143.50 235.87 143.55 236.16C144.42 236.16 145.02 236.13 145.40 235.97C145.78 235.81 145.91 235.53 145.91 234.96L145.91 232.66L148.50 232.66L148.50 230.32L149.49 230.32L149.49 229.33L148.50 229.33L148.50 227.09M145.91 230.32L147.54 230.32L147.54 231.73L145.91 231.73M145.91 229.33L145.91 228.03L147.54 228.03L147.54 229.33M138.41 222.40L138.41 223.74L135.97 223.74L135.97 224.59L138.41 224.59L138.41 225.49L136.38 225.49L136.38 226.30L138.41 226.30L138.41 227.28L135.72 227.28L135.72 228.13L141.99 228.13L141.99 227.28L139.47 227.28L139.47 226.30L141.39 226.30L141.39 225.49L139.47 225.49L139.47 224.59L141.78 224.59L141.78 223.74L139.47 223.74L139.47 222.40M140.34 231.73L140.34 232.81L137.40 232.81L137.41 232.30L137.41 231.73M140.34 230.92L137.41 230.92L137.41 229.87L140.34 229.87M136.44 229L136.44 232.27C136.44 233.35 136.37 234.59 135.69 235.53C135.88 235.68 136.28 236.06 136.40 236.28C136.98 235.54 137.24 234.56 137.34 233.62L140.34 233.62L140.34 235.06C140.34 235.24 140.28 235.28 140.10 235.30C139.92 235.30 139.31 235.31 138.62 235.28C138.75 235.54 138.91 235.91 138.96 236.16C139.91 236.16 140.47 236.16 140.84 235.99C141.21 235.85 141.31 235.57 141.31 235.07L141.31 229" fill="#2c2416" aria-label="有坡、要安靜"/><path d="M65.61 258.07C66.53 258.75 67.58 259.71 68.17 260.40L61.55 260.40L61.55 261.50L66.89 261.50L66.89 264.80L62.23 264.80L62.23 265.89L66.89 265.89L66.89 269.60L60.84 269.60L60.84 270.69L74.22 270.69L74.22 269.60L68.10 269.60L68.10 265.89L72.84 265.89L72.84 264.80L68.10 264.80L68.10 261.50L73.45 261.50L73.45 260.40L68.58 260.40L69.30 259.88C68.70 259.17 67.48 258.15 66.53 257.46M84.77 266.94C84.22 267.68 83.55 268.25 82.69 268.71C81.64 268.49 80.56 268.29 79.48 268.11C79.75 267.75 80.04 267.36 80.34 266.94M77.69 268.71C78.89 268.90 80.06 269.12 81.18 269.34C79.74 269.82 77.95 270.07 75.77 270.21C75.94 270.48 76.13 270.88 76.20 271.20C79.05 270.98 81.27 270.54 82.97 269.73C84.94 270.19 86.66 270.69 87.91 271.17L88.95 270.36C87.69 269.93 86.03 269.46 84.16 269.04C84.96 268.47 85.61 267.78 86.11 266.94L89.20 266.94L89.20 265.98L86.59 265.98L86.82 265.39L85.72 265.10C85.62 265.41 85.50 265.69 85.35 265.98L80.97 265.98C81.24 265.53 81.51 265.08 81.72 264.64L80.59 264.39C80.36 264.88 80.04 265.44 79.69 265.98L75.81 265.98L75.81 266.94L79.06 266.94C78.60 267.60 78.12 268.21 77.69 268.71M76.78 260.32L76.78 264.21L88.32 264.21L88.32 260.32L84.70 260.32L84.70 259.05L88.95 259.05L88.95 258.05L76.03 258.05L76.03 259.05L80.13 259.05L80.13 260.32M81.19 259.05L83.64 259.05L83.64 260.32L81.19 260.32M77.85 261.25L80.13 261.25L80.13 263.30L77.85 263.30M81.19 261.25L83.64 261.25L83.64 263.30L81.19 263.30M84.70 261.25L87.21 261.25L87.21 263.30L84.70 263.30M96.53 258.30L96.53 259.38L103.91 259.38L103.91 258.30M94 257.38C93.24 258.48 91.78 259.81 90.53 260.67C90.72 260.88 91.03 261.31 91.19 261.57C92.53 260.61 94.08 259.14 95.08 257.83M95.86 262.44L95.86 263.52L100.92 263.52L100.92 269.75C100.92 269.99 100.81 270.06 100.53 270.07C100.26 270.09 99.24 270.09 98.17 270.05C98.34 270.38 98.50 270.84 98.55 271.15C100.02 271.15 100.88 271.15 101.39 270.99C101.88 270.80 102.06 270.45 102.06 269.76L102.06 263.52L104.33 263.52L104.33 262.44M94.61 260.61C93.57 262.32 91.92 264.06 90.38 265.17C90.60 265.39 91 265.89 91.17 266.12C91.72 265.67 92.31 265.13 92.88 264.54L92.88 271.25L93.99 271.25L93.99 263.31C94.62 262.56 95.19 261.78 95.67 261M112.83 259.14L117.45 259.14L117.45 261.96L112.83 261.96M111.78 258.17L111.78 262.94L118.53 262.94L118.53 258.17M118.05 263.49C116.50 263.94 113.66 264.23 111.30 264.38C111.42 264.62 111.54 265 111.57 265.25C112.52 265.20 113.55 265.14 114.56 265.04L114.56 266.82L111.61 266.82L111.61 267.80L114.56 267.80L114.56 269.82L110.79 269.82L110.79 270.82L119.34 270.82L119.34 269.82L115.66 269.82L115.66 267.80L118.71 267.80L118.71 266.82L115.66 266.82L115.66 264.90C116.83 264.76 117.93 264.57 118.80 264.33M110.46 257.61C109.35 258.12 107.36 258.56 105.64 258.84C105.77 259.08 105.93 259.45 105.97 259.69C106.68 259.61 107.43 259.49 108.18 259.33L108.18 261.63L105.73 261.63L105.73 262.68L108.03 262.68C107.43 264.40 106.39 266.36 105.42 267.42C105.61 267.69 105.89 268.14 106 268.45C106.77 267.52 107.56 266.04 108.18 264.52L108.18 271.17L109.29 271.17L109.29 264.70C109.80 265.33 110.40 266.14 110.66 266.56L111.33 265.68C111.03 265.33 109.72 263.99 109.29 263.61L109.29 262.68L111.17 262.68L111.17 261.63L109.29 261.63L109.29 259.10C110.01 258.92 110.69 258.70 111.25 258.48M124.20 258.46L124.20 259.59L134.56 259.59L134.56 269.56C134.56 269.88 134.46 269.97 134.13 270C133.77 270 132.54 270.01 131.34 269.95C131.52 270.29 131.73 270.84 131.81 271.17C133.29 271.17 134.34 271.17 134.94 270.98C135.53 270.78 135.74 270.39 135.74 269.58L135.74 259.59L137.58 259.59L137.58 258.46M126.83 262.88L130.77 262.88L130.77 266.32L126.83 266.32M125.73 261.80L125.73 268.61L126.83 268.61L126.83 267.40L131.88 267.40L131.88 261.80M141.09 267.17C141.27 268.19 141.44 269.50 141.47 270.39L142.29 270.18C142.25 269.31 142.08 268 141.90 266.99M139.53 267.05C139.40 268.26 139.19 269.61 138.84 270.52C139.07 270.60 139.47 270.75 139.67 270.86C139.97 269.91 140.24 268.50 140.40 267.21M142.71 266.85C143.03 267.78 143.40 269 143.55 269.79L144.33 269.50C144.17 268.73 143.79 267.54 143.45 266.61M145.91 260.82C145.58 262.35 144.93 264.25 144 265.61C143.85 264.92 143.48 263.85 143.09 263.02L142.32 263.30C142.52 263.76 142.73 264.31 142.89 264.82L140.52 265.17C141.71 263.73 142.86 261.93 143.81 260.16L142.95 259.62C142.62 260.34 142.23 261.06 141.84 261.72L140.28 261.86C141.09 260.71 141.89 259.25 142.52 257.82L141.59 257.42C141 259.05 140 260.77 139.67 261.21C139.37 261.68 139.13 261.98 138.89 262.04C138.99 262.31 139.16 262.80 139.20 263.01C139.40 262.92 139.71 262.85 141.27 262.65C140.75 263.49 140.27 264.13 140.04 264.40C139.61 264.96 139.28 265.35 138.98 265.43C139.10 265.69 139.25 266.19 139.29 266.40C139.56 266.25 140.01 266.14 143.12 265.63L143.21 266.04L143.91 265.75L143.73 266C143.93 266.18 144.20 266.54 144.33 266.75C144.60 266.42 144.84 266.06 145.08 265.67L145.08 271.19L146.03 271.19L146.03 263.75C146.40 262.85 146.69 261.92 146.91 261.06M147.21 263.94L147.21 271.19L148.19 271.19L148.19 270.48L151.28 270.48L151.28 271.11L152.28 271.11L152.28 263.94L149.85 263.94L150.27 262.43L152.57 262.43L152.57 261.50L146.90 261.50L146.90 262.43L149.13 262.43C149.06 262.92 148.94 263.48 148.83 263.94M147.38 257.73C147.60 258.06 147.81 258.48 147.98 258.86L144.18 258.86L144.18 261.33L145.22 261.33L145.22 259.80L151.46 259.80L151.46 261.12L152.51 261.12L152.51 258.86L149.12 258.86C148.94 258.39 148.61 257.79 148.26 257.32M148.19 267.60L151.28 267.60L151.28 269.56L148.19 269.56M148.19 266.69L148.19 264.87L151.28 264.87L151.28 266.69M160.04 258.06L160.04 259.10L167.60 259.10L167.60 258.06M160.94 266.31C161.37 267.29 161.81 268.59 161.96 269.43L162.96 269.16C162.81 268.32 162.35 267.03 161.87 266.06M161.57 261.72L165.92 261.72L165.92 264.44L161.57 264.44M160.52 260.70L160.52 265.45L167.01 265.45L167.01 260.70M165.47 265.95C165.17 267.09 164.60 268.63 164.10 269.69L159.41 269.69L159.41 270.74L167.75 270.74L167.75 269.69L165.18 269.69C165.66 268.69 166.17 267.35 166.61 266.20M155.34 257.42C155.10 259.21 154.67 261.01 153.95 262.19C154.20 262.32 154.65 262.62 154.83 262.79C155.21 262.14 155.52 261.33 155.78 260.44L156.60 260.44L156.60 262.77L156.59 263.37L154.01 263.37L154.01 264.39L156.54 264.39C156.36 266.34 155.78 268.53 153.92 270.18C154.13 270.33 154.55 270.72 154.70 270.94C156 269.77 156.75 268.27 157.17 266.77C157.76 267.62 158.54 268.79 158.88 269.40L159.63 268.47C159.32 268.02 157.98 266.20 157.44 265.55C157.50 265.15 157.55 264.76 157.58 264.39L159.71 264.39L159.71 263.37L157.64 263.37L157.65 262.79L157.65 260.44L159.51 260.44L159.51 259.43L156.05 259.43C156.18 258.82 156.29 258.21 156.38 257.60" fill="#2c2416" aria-label="主要行程 可縮短"/><rect x="420" y="100" width="360" height="400" rx="8" fill="#fff" stroke="#2c2416" stroke-width="2"/><path d="M448.04 136.22L448.04 138.76L458.58 138.76L458.58 136.22M446.94 148.02L446.94 150.58L459.38 150.58L459.38 148.02M445.32 133.08C444.20 136.06 442.32 138.98 440.32 140.84C440.76 141.44 441.48 142.76 441.74 143.36C442.28 142.82 442.82 142.22 443.34 141.56L443.34 151.76L445.74 151.76L445.74 137.94C446.50 136.62 447.16 135.22 447.70 133.86M468.64 132.96L468.64 135.12L460.88 135.12L460.88 137.40L468.64 137.40L468.64 139.18L462.48 139.18L462.48 141.46L477.48 141.46L477.48 139.18L471.16 139.18L471.16 137.40L479.16 137.40L479.16 135.12L471.16 135.12L471.16 132.96M463.60 146.70C464.50 147.78 465.74 149.30 466.30 150.20L468.38 148.90C467.78 148.08 466.60 146.76 465.72 145.76L472.20 145.76L472.20 148.98C472.20 149.26 472.08 149.32 471.72 149.34C471.36 149.34 469.98 149.34 468.86 149.30C469.20 149.96 469.56 150.98 469.66 151.66C471.36 151.66 472.62 151.66 473.52 151.30C474.44 150.94 474.70 150.30 474.70 149.04L474.70 145.76L478.70 145.76L478.70 143.48L474.70 143.48L474.70 142.10L472.20 142.10L472.20 143.48L461.34 143.48L461.34 145.76L465.24 145.76M489.42 137.26L489.42 139.22L495.64 139.22L495.64 137.26M480.50 140.44C481.70 141 483.38 141.90 484.16 142.50L485.46 140.50C484.60 139.90 482.90 139.08 481.72 138.62M481 149.86L483.14 151.48C484.22 149.54 485.34 147.34 486.24 145.28L484.38 143.68C483.32 145.94 481.98 148.38 481 149.86M486.32 133.74L486.32 151.80L488.58 151.80L488.58 135.90L496.44 135.90L496.44 149.02C496.44 149.34 496.34 149.44 496.06 149.44C495.72 149.44 494.76 149.46 493.84 149.40C494.16 150.04 494.48 151.16 494.54 151.80C496.08 151.80 497.10 151.76 497.82 151.34C498.54 150.96 498.74 150.26 498.74 149.06L498.74 133.74M481.44 135.06C482.58 135.64 484.18 136.56 484.94 137.18L486.32 135.24C485.52 134.64 483.86 133.80 482.76 133.28M489.74 140.54L489.74 148.52L491.58 148.52L491.58 147.34L495.28 147.34L495.28 140.54M491.58 142.52L493.38 142.52L493.38 145.36L491.58 145.36M505.50 134.34L505.50 136.78L518.78 136.78L518.78 148.72C518.78 149.14 518.62 149.28 518.16 149.28C517.68 149.28 515.92 149.30 514.48 149.22C514.86 149.88 515.36 151.06 515.50 151.76C517.56 151.76 519.02 151.72 520 151.32C520.96 150.92 521.30 150.20 521.30 148.76L521.30 136.78L523.62 136.78L523.62 134.34M509.68 141.30L513.52 141.30L513.52 144.52L509.68 144.52M507.36 139.02L507.36 148.32L509.68 148.32L509.68 146.80L515.88 146.80L515.88 139.02M525.58 134.14C526.50 135.14 527.66 136.52 528.22 137.38L530.04 136.04C529.44 135.24 528.32 134 527.36 133.04M537.88 146.88C539.08 147.50 540.38 148.36 541.08 148.96L543.22 147.98C542.42 147.44 541.12 146.68 539.92 146.08L543.60 146.08L543.60 144.32L540.42 144.32L540.42 143.08L542.88 143.08L542.88 141.34L540.42 141.34L540.42 140.30L538.20 140.30L538.20 141.34L536.02 141.34L536.02 140.30L533.82 140.30L533.82 141.34L531.38 141.34L531.38 143.08L533.82 143.08L533.82 144.32L530.64 144.32L530.64 146.08L534.28 146.08C533.46 146.68 532.14 147.26 530.90 147.62C531.42 147.94 532.24 148.64 532.66 149.06C534 148.50 535.62 147.58 536.62 146.64L534.98 146.08L539.08 146.08M536.02 143.08L538.20 143.08L538.20 144.32L536.02 144.32M531.28 140.60C531.66 140.40 532.34 140.26 536.42 139.60C536.46 139.20 536.62 138.44 536.76 137.96L533.02 138.48L533.02 137.50L536.74 137.50L536.74 133.68L531.16 133.68L531.16 137.52C531.16 138.30 530.82 138.66 530.50 138.82C530.80 139.24 531.16 140.12 531.28 140.60M533.02 135.14L534.74 135.14L534.74 136.04L533.02 136.04M537.50 133.70L537.50 137.58C537.50 139.34 537.92 140.02 539.76 140.02C540.10 140.02 541.60 140.02 542 140.02C542.56 140.02 543.16 139.98 543.50 139.88C543.44 139.44 543.38 138.74 543.34 138.26C543 138.34 542.36 138.38 541.96 138.38C541.60 138.38 540.22 138.38 539.88 138.38C539.46 138.38 539.38 138.18 539.38 137.62L539.38 137.52L543.20 137.52L543.20 133.70M539.38 135.16L541.18 135.16L541.18 136.06L539.38 136.06M525.84 144.70C526.02 144.54 526.60 144.40 527.02 144.40L528.32 144.40C527.74 147.08 526.58 149.06 524.94 150.20C525.38 150.52 526.16 151.34 526.48 151.80C527.40 151.12 528.20 150.18 528.84 148.98C530.38 151.08 532.72 151.46 536.44 151.46C538.78 151.46 541.34 151.42 543.44 151.28C543.56 150.64 543.86 149.54 544.20 149.06C541.92 149.28 538.62 149.40 536.48 149.40C533.14 149.38 530.88 149.12 529.72 147C530.14 145.80 530.46 144.42 530.66 142.88L529.52 142.48L529.16 142.54L528.02 142.54C528.94 141.18 530.02 139.26 530.68 138.16L529.22 137.60L528.90 137.72L525.40 137.72L525.40 139.62L527.66 139.62C527.04 140.68 526.34 141.80 526.04 142.14C525.72 142.54 525.40 142.68 525.08 142.78C525.30 143.20 525.72 144.20 525.84 144.70M563.30 132.96L545.10 151.16L545.78 151.84L563.98 133.64M571.84 133C571.62 133.80 571.36 134.60 571.04 135.42L565.64 135.42L565.64 137.68L570.02 137.68C568.84 139.90 567.22 141.92 565.18 143.28C565.64 143.74 566.40 144.58 566.76 145.14C567.68 144.50 568.50 143.76 569.26 142.92L569.26 144.56C569.26 146.44 569.10 148.60 567.38 150.10C567.86 150.42 568.80 151.44 569.10 151.94C570.34 150.92 571 149.46 571.34 147.94L578.88 147.94L578.88 149.16C578.88 149.42 578.78 149.52 578.44 149.54C578.10 149.54 576.92 149.54 575.90 149.48C576.22 150.12 576.54 151.14 576.62 151.80C578.26 151.80 579.40 151.78 580.20 151.40C581.02 151.04 581.24 150.38 581.24 149.20L581.24 139.26L571.88 139.26C572.18 138.74 572.46 138.22 572.72 137.68L583.48 137.68L583.48 135.42L573.68 135.42C573.92 134.80 574.12 134.18 574.32 133.56M578.88 144.64L578.88 145.94L571.64 145.94C571.66 145.50 571.68 145.06 571.68 144.64M578.88 142.64L571.68 142.64L571.68 141.36L578.88 141.36M593.54 141.60L593.54 143.32L603.78 143.32L603.78 141.60M596.38 145.42L600.74 145.42L600.74 146.46L596.38 146.46M599.36 149.74L597.76 149.74C597.58 149.20 597.30 148.48 597.04 147.90L600.02 147.90C599.86 148.46 599.60 149.16 599.36 149.74M595.16 148.28C595.34 148.72 595.54 149.26 595.70 149.74L593.32 149.74L593.32 151.48L603.94 151.48L603.94 149.74L601.32 149.74L602.22 148.32L600.72 147.90L602.96 147.90L602.96 143.96L594.30 143.96L594.30 147.90L596.42 147.90M593.84 134.46L593.84 140.90L603.40 140.90L603.40 134.46L600.82 134.46L600.82 133.02L598.94 133.02L598.94 134.46L598.08 134.46L598.08 133.02L596.22 133.02L596.22 134.46M595.62 138.40L596.64 138.40L596.64 139.34L595.62 139.34M598.10 138.40L599.04 138.40L599.04 139.34L598.10 139.34M600.50 138.40L601.54 138.40L601.54 139.34L600.50 139.34M595.62 136.02L596.64 136.02L596.64 136.94L595.62 136.94M598.10 136.02L599.04 136.02L599.04 136.94L598.10 136.94M600.50 136.02L601.54 136.02L601.54 136.94L600.50 136.94M590.60 143.34L590.60 145C590.16 144.64 589.52 144.18 588.94 143.80L588.26 144.48L588.26 143.34M591.66 141.78L587.04 141.78L587.04 140.96L591.66 140.96M585.32 139.34L585.32 142.48L586.32 142.48L586.32 145.56C586.32 147.16 586.24 149.20 585.24 150.70C585.70 150.92 586.58 151.50 586.92 151.86C587.62 150.80 587.98 149.38 588.14 148L588.66 149.12L590.60 147.88L590.60 149.70C590.60 149.88 590.54 149.96 590.34 149.96C590.16 149.96 589.56 149.96 588.98 149.94C589.22 150.42 589.48 151.20 589.54 151.70C590.60 151.70 591.32 151.68 591.88 151.38C592.44 151.08 592.58 150.58 592.58 149.72L592.58 142.48L593.46 142.48L593.46 139.34L592.64 139.34L592.64 133.64L586.10 133.64L586.10 139.34M590.60 146.34C589.70 146.76 588.88 147.16 588.18 147.44C588.24 146.78 588.26 146.16 588.26 145.60L588.26 145C588.84 145.44 589.46 145.98 589.80 146.34L590.60 145.44M588.72 136.16L588.72 139.34L587.96 139.34L587.96 135.34L590.68 135.34L590.68 136.16M590.68 139.34L589.94 139.34L589.94 137.50L590.68 137.50M612.18 133.04L612.18 137.18L606.04 137.18L606.04 139.64L612.08 139.64C611.74 143.14 610.40 147.24 605.42 149.94C606 150.38 606.90 151.30 607.30 151.90C612.92 148.72 614.34 143.80 614.66 139.64L620.28 139.64C619.98 145.62 619.58 148.26 618.94 148.88C618.68 149.14 618.44 149.20 618.02 149.20C617.48 149.20 616.30 149.20 615.04 149.10C615.50 149.78 615.84 150.86 615.86 151.58C617.08 151.62 618.34 151.64 619.08 151.52C619.96 151.42 620.54 151.20 621.14 150.44C622.04 149.36 622.42 146.34 622.84 138.32C622.86 138 622.88 137.18 622.88 137.18L614.74 137.18L614.74 133.04M627.44 137.62L627.44 144.98L625.14 144.98L625.14 147.20L627.44 147.20L627.44 151.82L629.80 151.82L629.80 147.20L639.26 147.20L639.26 149.16C639.26 149.50 639.14 149.60 638.76 149.60C638.42 149.60 637.12 149.62 636.02 149.56C636.36 150.16 636.72 151.18 636.86 151.82C638.54 151.82 639.74 151.80 640.56 151.42C641.38 151.06 641.66 150.40 641.66 149.20L641.66 147.20L643.94 147.20L643.94 144.98L641.66 144.98L641.66 137.62L635.66 137.62L635.66 136.30L643.14 136.30L643.14 134.08L625.96 134.08L625.96 136.30L633.26 136.30L633.26 137.62M639.26 144.98L635.66 144.98L635.66 143.36L639.26 143.36M629.80 144.98L629.80 143.36L633.26 143.36L633.26 144.98M639.26 141.32L635.66 141.32L635.66 139.78L639.26 139.78M629.80 141.32L629.80 139.78L633.26 139.78L633.26 141.32M647.32 151.28C648.36 150.90 649.74 150.84 659.86 150.04C660.22 150.64 660.50 151.22 660.72 151.70L663.08 150.50C662.18 148.68 660.34 146 658.58 144L656.38 144.98C657.08 145.84 657.82 146.86 658.50 147.86L650.42 148.34C651.72 146.92 653.02 145.20 654.14 143.44L663.72 143.44L663.72 141.02L655.80 141.02L655.80 138.18L662.28 138.18L662.28 135.76L655.80 135.76L655.80 133L653.26 133L653.26 135.76L646.98 135.76L646.98 138.18L653.26 138.18L653.26 141.02L645.44 141.02L645.44 143.44L651.08 143.44C649.96 145.42 648.56 147.22 648.04 147.72C647.44 148.38 647.02 148.80 646.52 148.92C646.80 149.58 647.20 150.80 647.32 151.28" fill="#2c2416" aria-label="仁寺洞 可選／有體力再去"/><path d="M446.35 187.66C446.80 188.39 447.27 189.40 447.45 190.01L448.70 189.60C448.49 188.99 447.96 188.01 447.51 187.29M440.75 190.04L440.75 191.15L443.09 191.15C443.98 193.43 445.16 195.40 446.70 197C445.06 198.38 443.03 199.40 440.54 200.10C440.76 200.38 441.13 200.90 441.25 201.17C443.75 200.36 445.83 199.28 447.53 197.81C449.23 199.31 451.26 200.42 453.73 201.09C453.92 200.78 454.25 200.30 454.50 200.06C452.11 199.46 450.06 198.40 448.40 196.99C449.92 195.44 451.07 193.52 451.94 191.15L454.31 191.15L454.31 190.04M447.56 196.21C446.15 194.78 445.04 193.07 444.26 191.15L450.67 191.15C449.92 193.18 448.88 194.84 447.56 196.21M464.72 189.06L464.72 197.34L465.79 197.34L465.79 189.06M467.56 187.47L467.56 199.70C467.56 199.97 467.45 200.04 467.19 200.06C466.95 200.06 466.14 200.06 465.23 200.04C465.39 200.36 465.55 200.87 465.61 201.16C466.85 201.16 467.58 201.13 468.04 200.94C468.47 200.75 468.65 200.42 468.65 199.72L468.65 187.47M458.50 190.55L458.50 191.28L461.66 191.28L461.66 190.55M457.91 194.60L461.96 194.60L461.96 195.62L457.85 195.62M457.91 193.84L457.91 192.89L461.96 192.89L461.96 193.84M457.76 197.16L457.76 201.09L458.72 201.09L458.72 200.48L462.37 200.48L462.37 201.06L463.37 201.06L463.37 197.16M458.72 199.58L458.72 197.99L462.37 197.99L462.37 199.58M456.85 192.05L456.85 194.07C456.85 195.77 456.69 198.26 455.51 200.09C455.78 200.18 456.26 200.41 456.47 200.57C457.22 199.38 457.60 197.88 457.77 196.46L463.01 196.46L463.01 192.05M459.77 187.50C458.87 189.02 457.20 190.29 455.52 191.09C455.74 191.34 456.05 191.88 456.15 192.14C457.52 191.39 458.92 190.32 459.96 189.06C461.15 189.81 462.55 190.76 463.28 191.38L463.89 190.44C463.14 189.86 461.75 188.99 460.56 188.27L460.81 187.90M484.04 187.31L470.51 200.84L470.96 201.29L484.49 187.76M489.23 197.24C488.50 198.25 487.18 199.19 485.90 199.79C486.19 199.97 486.63 200.33 486.85 200.54C488.07 199.85 489.50 198.74 490.34 197.57M494.39 197.75C495.68 198.57 497.21 199.81 497.96 200.62L498.85 199.93C498.08 199.10 496.50 197.94 495.25 197.15M491.90 193.64L491.90 195.56L487.34 195.56L487.34 196.59L491.90 196.59L491.90 201.20L493.07 201.20L493.07 196.59L497.56 196.59L497.56 195.56L493.07 195.56L493.07 193.64M492.41 190.55C491.18 192.28 488.57 193.63 485.64 194.48C485.87 194.69 486.20 195.11 486.35 195.38C488.81 194.60 491 193.50 492.51 192.02C494.18 193.40 496.69 194.66 498.73 195.29C498.89 195.03 499.22 194.59 499.46 194.36C497.30 193.81 494.66 192.57 493.16 191.34L493.46 190.96M488.96 187.40L488.96 188.94L485.81 188.94L485.81 189.97L488.96 189.97L488.96 191.44L490.10 191.44L490.10 189.97L492.02 189.97L492.02 188.94L490.10 188.94L490.10 187.40M492.88 188.93L492.88 189.97L495.05 189.97L495.05 191.44L496.18 191.44L496.18 189.97L499.10 189.97L499.10 188.93L496.18 188.93L496.18 187.40L495.05 187.40L495.05 188.93M502.54 190.22L502.54 191.03L505.08 191.03L505.08 190.22M507.41 191.42L507.41 201.17L508.40 201.17L508.40 200.51L512.57 200.51L512.57 201.11L513.58 201.11L513.58 196.46L508.40 196.46L508.40 195.20L512.90 195.20L512.90 191.42M508.40 199.53L508.40 197.42L512.57 197.42L512.57 199.53M508.40 192.35L511.94 192.35L511.94 194.27L508.40 194.27M509.36 187.72C509.58 188.15 509.84 188.69 510 189.13L506.45 189.13L506.45 191.57L507.38 191.57L507.38 190.07L513.22 190.07L513.22 191.57L514.16 191.57L514.16 189.13L510.68 189.13L511.12 188.91C510.95 188.48 510.62 187.82 510.33 187.32M504.79 194.84L504.79 196.15L502.46 196.15L502.46 194.84M504.79 194L502.46 194L502.46 192.80L504.79 192.80M501.32 201.19C501.57 200.97 502.01 200.76 504.96 199.55C505.19 200 505.37 200.42 505.50 200.74L506.33 200.31C506.01 199.56 505.32 198.28 504.77 197.31L503.99 197.63L504.59 198.77L502.46 199.58L502.46 197.01L505.79 197.01L505.79 191.94L501.47 191.94L501.47 199.37C501.47 199.93 501.15 200.12 500.93 200.22C501.10 200.47 501.26 200.93 501.32 201.19M503.60 187.28C502.91 188.56 501.68 189.74 500.48 190.49C500.64 190.73 500.92 191.27 500.99 191.48C501.95 190.84 502.93 189.91 503.69 188.88C504.47 189.38 505.38 190.01 505.87 190.40L506.39 189.53C505.88 189.17 504.98 188.59 504.21 188.12L504.51 187.61M521.78 188.13L521.78 189.11L529.24 189.11L529.24 188.13M522.98 189.60C522.68 190.34 522.07 191.50 521.52 192.41C522.23 193.47 522.86 194.66 523.17 195.46L524.09 195.06C523.79 194.38 523.17 193.29 522.56 192.40C523.02 191.62 523.55 190.64 523.92 189.84M525.42 189.60C525.11 190.34 524.50 191.48 523.92 192.40C524.67 193.46 525.37 194.63 525.68 195.43L526.60 195.03C526.28 194.34 525.62 193.28 524.98 192.38C525.44 191.60 526.01 190.64 526.38 189.84M527.99 189.60C527.64 190.34 527 191.50 526.38 192.41C527.20 193.47 527.93 194.66 528.29 195.46L529.19 195.05C528.85 194.36 528.14 193.28 527.47 192.40C527.96 191.62 528.54 190.66 528.97 189.86M521.21 199.85L521.21 200.82L529.43 200.82L529.43 199.85L525.95 199.85L525.95 196.91L528.95 196.91L528.95 195.94L522.05 195.94L522.05 196.91L524.83 196.91L524.83 199.85M516.05 191.13L516.05 196.35L518.12 196.35L518.12 197.59L515.57 197.59L515.57 198.57L518.12 198.57L518.12 201.22L519.08 201.22L519.08 198.57L521.52 198.57L521.52 197.59L519.08 197.59L519.08 196.35L521.20 196.35L521.20 191.13L519.07 191.13L519.07 190.03L521.39 190.03L521.39 189.03L519.07 189.03L519.07 187.40L518.11 187.40L518.11 189.03L515.78 189.03L515.78 190.03L518.11 190.03L518.11 191.13M516.89 194.13L518.20 194.13L518.20 195.51L516.89 195.51M518.99 194.13L520.33 194.13L520.33 195.51L518.99 195.51M516.89 191.97L518.20 191.97L518.20 193.32L516.89 193.32M518.99 191.97L520.33 191.97L520.33 193.32L518.99 193.32M533.28 194.24C533.06 196.44 532.34 199.10 530.51 200.50C530.76 200.68 531.15 201.02 531.35 201.23C532.41 200.39 533.13 199.16 533.63 197.81C535.13 200.44 537.58 201 540.80 201L544.04 201C544.10 200.69 544.29 200.18 544.46 199.91C543.80 199.93 541.34 199.93 540.85 199.93C539.84 199.93 538.89 199.87 538.04 199.69L538.04 196.73L543.07 196.73L543.07 195.71L538.04 195.71L538.04 193.32L544.04 193.32L544.04 192.28L538.04 192.28L538.04 190.21L542.95 190.21L542.95 189.16L538.04 189.16L538.04 187.41L536.88 187.41L536.88 189.16L532.25 189.16L532.25 190.21L536.88 190.21L536.88 192.28L530.95 192.28L530.95 193.32L536.88 193.32L536.88 199.34C535.65 198.84 534.70 197.96 534.05 196.44C534.23 195.75 534.37 195.06 534.46 194.39" fill="#2c2416" aria-label="文創／茶館輕走"/><path d="M446.75 228.91L446.75 229.76L454.26 229.76L454.26 228.91M448.48 231.25L452.48 231.25L452.48 232.51L448.48 232.51M447.47 230.49L447.47 233.28L453.53 233.28L453.53 230.49M442.58 230.81C443.13 231.19 443.84 231.78 444.17 232.13L444.74 231.52C444.38 231.18 443.69 230.66 443.09 230.28M448.22 233.60C448.40 234.04 448.61 234.58 448.75 235.03L446.57 235.03L446.57 235.90L454.40 235.90L454.40 235.03L452.12 235.03L452.87 233.60L451.85 233.31C451.70 233.78 451.43 234.50 451.19 235.03L449.74 235.03C449.60 234.55 449.33 233.88 449.09 233.35M447.06 223.56L447.06 228.12L453.88 228.12L453.88 223.56L451.88 223.56L451.88 222.40L450.95 222.40L450.95 223.56L449.86 223.56L449.86 222.40L448.94 222.40L448.94 223.56M447.95 226.21L449.09 226.21L449.09 227.31L447.95 227.31M449.86 226.21L451 226.21L451 227.31L449.86 227.31M451.76 226.21L452.96 226.21L452.96 227.31L451.76 227.31M447.95 224.37L449.09 224.37L449.09 225.44L447.95 225.44M449.86 224.37L451 224.37L451 225.44L449.86 225.44M451.76 224.37L452.96 224.37L452.96 225.44L451.76 225.44M442.42 233.49L442.83 234.29L444.86 233.06L444.86 235.03C444.86 235.19 444.80 235.24 444.65 235.24C444.49 235.25 443.98 235.25 443.38 235.24C443.50 235.48 443.64 235.85 443.69 236.11C444.53 236.11 445.06 236.09 445.38 235.94C445.73 235.79 445.82 235.53 445.82 235.04L445.82 229.27L446.51 229.27L446.51 227.09L445.87 227.09L445.87 222.93L441.41 222.93L441.41 227.09L440.80 227.09L440.80 229.27L441.53 229.27L441.53 231.73C441.53 232.94 441.44 234.49 440.64 235.65C440.88 235.76 441.27 236.06 441.44 236.25C442.32 234.97 442.48 233.11 442.48 231.75L442.48 229.72L444.86 229.72L444.86 232.28C443.93 232.76 443.05 233.22 442.42 233.49M445.43 228.93L441.65 228.93L441.65 227.92L445.61 227.92L445.61 228.93M443.25 224.75L443.25 227.09L442.32 227.09L442.32 223.78L444.90 223.78L444.90 224.75M444.90 227.09L443.93 227.09L443.93 225.47L444.90 225.47M461.15 222.43L461.15 225.03L461.15 225.67L456.25 225.67L456.25 226.82L461.09 226.82C460.87 229.65 459.88 232.94 455.80 235.38C456.08 235.57 456.49 235.99 456.67 236.26C461.03 233.60 462.05 229.94 462.26 226.82L467.40 226.82C467.11 232.12 466.77 234.25 466.24 234.76C466.06 234.96 465.86 235 465.55 235C465.17 235 464.21 234.99 463.18 234.90C463.40 235.22 463.54 235.72 463.56 236.05C464.50 236.09 465.45 236.13 465.96 236.08C466.55 236.02 466.89 235.91 467.25 235.47C467.93 234.73 468.23 232.48 468.57 226.27C468.59 226.10 468.61 225.67 468.61 225.67L462.32 225.67L462.32 225.03L462.32 222.43M478.99 222.44C478.46 224.40 477.56 226.30 476.40 227.53C476.66 227.69 477.11 228.06 477.29 228.22C477.89 227.51 478.44 226.63 478.93 225.63L482.93 225.63C482.80 232 482.66 234.29 482.29 234.78C482.15 234.99 482.01 235.03 481.77 235.03C481.48 235.03 480.81 235.03 480.06 234.97C480.26 235.25 480.38 235.74 480.41 236.06C481.08 236.09 481.79 236.11 482.23 236.06C482.68 236 482.99 235.87 483.27 235.44C483.77 234.76 483.89 232.44 484.01 225.22C484.01 225.06 484.01 224.63 484.01 224.63L479.38 224.63C479.63 224 479.86 223.34 480.05 222.69M478.18 227.31L478.18 233.75L479.12 233.75L479.12 232.60L481.73 232.60L481.73 227.31M479.12 228.24L480.79 228.24L480.79 231.69L479.12 231.69M473.18 224.78L475.55 224.78C475.22 225.46 474.80 226.07 474.31 226.62C473.87 226.21 473.24 225.73 472.67 225.35M473.60 222.38C473.09 223.53 472.06 224.92 470.56 225.94C470.78 226.07 471.11 226.38 471.27 226.59C471.55 226.39 471.79 226.19 472.02 225.99C472.60 226.41 473.19 226.91 473.60 227.32C472.76 228.06 471.80 228.63 470.81 228.99C471.02 229.18 471.29 229.53 471.43 229.76C472.44 229.34 473.45 228.76 474.32 227.98C473.70 229.24 472.46 230.69 470.60 231.73C470.82 231.87 471.14 232.21 471.29 232.44C471.68 232.19 472.04 231.96 472.38 231.69C473.01 232.19 473.66 232.81 474.08 233.31C473.07 234.24 471.88 234.90 470.62 235.28C470.84 235.50 471.10 235.88 471.23 236.14C474.05 235.15 476.51 233.11 477.45 229.51L476.78 229.21L476.57 229.25L474.71 229.25C474.96 228.88 475.19 228.52 475.38 228.15L474.35 227.97C475.46 226.99 476.38 225.72 476.92 224.13L476.24 223.79L476.05 223.84L473.88 223.84C474.17 223.42 474.41 222.99 474.62 222.56M473.96 230.23L476.13 230.23C475.81 231.12 475.36 231.88 474.79 232.56C474.33 232.07 473.70 231.52 473.12 231.09C473.42 230.80 473.70 230.51 473.96 230.23M487.37 225.84L487.37 231.52L485.60 231.52L485.60 232.57L487.37 232.57L487.37 236.23L488.48 236.23L488.48 232.57L496.50 232.57L496.50 234.81C496.50 235.06 496.42 235.13 496.13 235.15C495.88 235.16 494.90 235.18 493.91 235.13C494.09 235.44 494.25 235.91 494.33 236.22C495.62 236.22 496.46 236.20 496.95 236.02C497.45 235.84 497.62 235.51 497.62 234.82L497.62 232.57L499.43 232.57L499.43 231.52L497.62 231.52L497.62 225.84L493.01 225.84L493.01 224.37L498.88 224.37L498.88 223.31L486.15 223.31L486.15 224.37L491.87 224.37L491.87 225.84M496.50 231.52L493.01 231.52L493.01 229.66L496.50 229.66M488.48 231.52L488.48 229.66L491.87 229.66L491.87 231.52M496.50 228.67L493.01 228.67L493.01 226.87L496.50 226.87M488.48 228.67L488.48 226.87L491.87 226.87L491.87 228.67M508.58 224.26L508.58 235.97L509.66 235.97L509.66 234.87L512.57 234.87L512.57 235.85L513.70 235.85L513.70 224.26M509.66 233.78L509.66 225.35L512.57 225.35L512.57 233.78M502.93 222.59L502.91 225.25L500.80 225.25L500.80 226.34L502.88 226.34C502.77 230.13 502.31 233.46 500.42 235.44C500.70 235.62 501.11 235.96 501.29 236.22C503.31 234.01 503.84 230.41 503.98 226.34L506.25 226.34C506.13 232.12 506 234.18 505.69 234.61C505.55 234.81 505.40 234.87 505.18 234.85C504.90 234.85 504.26 234.85 503.56 234.79C503.75 235.10 503.86 235.59 503.88 235.91C504.56 235.96 505.25 235.97 505.67 235.91C506.11 235.85 506.39 235.72 506.66 235.33C507.13 234.69 507.23 232.50 507.35 225.82C507.35 225.66 507.35 225.25 507.35 225.25L504 225.25L504.04 222.59" fill="#2c2416" aria-label="體力夠再加"/><rect x="800" y="100" width="360" height="400" rx="8" fill="#fff" stroke="#8a3b2a" stroke-width="2"/><path d="M831.56 140.74C833.56 141.48 836.38 142.70 837.74 143.46L839.10 141.58C837.62 140.82 834.76 139.70 832.84 139.06M826.84 139.08C825.50 140.02 822.88 141.20 820.98 141.76C821.46 142.26 822.04 143.16 822.36 143.74L823.14 143.38L823.14 149.06L820.84 149.06L820.84 151.16L839.16 151.16L839.16 149.06L836.90 149.06L836.90 143.22L823.46 143.22C825.22 142.36 827.24 141.22 828.50 140.26M825.28 149.06L825.28 145.24L826.94 145.24L826.94 149.06M829.12 149.06L829.12 145.24L830.78 145.24L830.78 149.06M832.96 149.06L832.96 145.24L834.66 145.24L834.66 149.06M833.68 133C833.26 134.04 832.46 135.48 831.82 136.40L832.94 136.78L827.12 136.78L828.22 136.22C827.80 135.32 826.94 134 826.14 133L824.08 133.90C824.70 134.76 825.40 135.90 825.84 136.78L821.10 136.78L821.10 138.90L838.90 138.90L838.90 136.78L834.08 136.78C834.70 135.96 835.44 134.82 836.12 133.72M843.62 146.16L843.62 151.80L845.98 151.80L845.98 151.18L853.98 151.18L853.98 151.72L856.46 151.72L856.46 146.16M845.98 149.34L845.98 147.98L853.98 147.98L853.98 149.34M852.94 132.96C852.74 133.60 852.36 134.44 851.98 135.12L846.64 135.12L847.88 134.70C847.70 134.18 847.26 133.42 846.82 132.90L844.66 133.52C844.98 133.98 845.32 134.62 845.52 135.12L842.12 135.12L842.12 136.86L848.70 136.86L848.70 137.62L843.42 137.62L843.42 139.32L848.70 139.32L848.70 140.10L841.56 140.10L841.56 141.86L845.26 141.86L843.72 142.18C843.98 142.58 844.24 143.12 844.40 143.56L840.90 143.56L840.90 145.40L859.12 145.40L859.12 143.56L855.74 143.56L856.44 142.10L854.80 141.86L858.50 141.86L858.50 140.10L851.18 140.10L851.18 139.32L856.60 139.32L856.60 137.62L851.18 137.62L851.18 136.86L857.90 136.86L857.90 135.12L854.48 135.12C854.80 134.60 855.16 134 855.50 133.36M846.04 141.86L853.94 141.86C853.80 142.36 853.54 143.02 853.28 143.56L846 143.56L846.82 143.36C846.68 142.92 846.38 142.32 846.04 141.86M869.42 137.26L869.42 139.22L875.64 139.22L875.64 137.26M860.50 140.44C861.70 141 863.38 141.90 864.16 142.50L865.46 140.50C864.60 139.90 862.90 139.08 861.72 138.62M861 149.86L863.14 151.48C864.22 149.54 865.34 147.34 866.24 145.28L864.38 143.68C863.32 145.94 861.98 148.38 861 149.86M866.32 133.74L866.32 151.80L868.58 151.80L868.58 135.90L876.44 135.90L876.44 149.02C876.44 149.34 876.34 149.44 876.06 149.44C875.72 149.44 874.76 149.46 873.84 149.40C874.16 150.04 874.48 151.16 874.54 151.80C876.08 151.80 877.10 151.76 877.82 151.34C878.54 150.96 878.74 150.26 878.74 149.06L878.74 133.74M861.44 135.06C862.58 135.64 864.18 136.56 864.94 137.18L866.32 135.24C865.52 134.64 863.86 133.80 862.76 133.28M869.74 140.54L869.74 148.52L871.58 148.52L871.58 147.34L875.28 147.34L875.28 140.54M871.58 142.52L873.38 142.52L873.38 145.36L871.58 145.36M885.50 134.34L885.50 136.78L898.78 136.78L898.78 148.72C898.78 149.14 898.62 149.28 898.16 149.28C897.68 149.28 895.92 149.30 894.48 149.22C894.86 149.88 895.36 151.06 895.50 151.76C897.56 151.76 899.02 151.72 900 151.32C900.96 150.92 901.30 150.20 901.30 148.76L901.30 136.78L903.62 136.78L903.62 134.34M889.68 141.30L893.52 141.30L893.52 144.52L889.68 144.52M887.36 139.02L887.36 148.32L889.68 148.32L889.68 146.80L895.88 146.80L895.88 139.02M905.58 134.14C906.50 135.14 907.66 136.52 908.22 137.38L910.04 136.04C909.44 135.24 908.32 134 907.36 133.04M917.88 146.88C919.08 147.50 920.38 148.36 921.08 148.96L923.22 147.98C922.42 147.44 921.12 146.68 919.92 146.08L923.60 146.08L923.60 144.32L920.42 144.32L920.42 143.08L922.88 143.08L922.88 141.34L920.42 141.34L920.42 140.30L918.20 140.30L918.20 141.34L916.02 141.34L916.02 140.30L913.82 140.30L913.82 141.34L911.38 141.34L911.38 143.08L913.82 143.08L913.82 144.32L910.64 144.32L910.64 146.08L914.28 146.08C913.46 146.68 912.14 147.26 910.90 147.62C911.42 147.94 912.24 148.64 912.66 149.06C914 148.50 915.62 147.58 916.62 146.64L914.98 146.08L919.08 146.08M916.02 143.08L918.20 143.08L918.20 144.32L916.02 144.32M911.28 140.60C911.66 140.40 912.34 140.26 916.42 139.60C916.46 139.20 916.62 138.44 916.76 137.96L913.02 138.48L913.02 137.50L916.74 137.50L916.74 133.68L911.16 133.68L911.16 137.52C911.16 138.30 910.82 138.66 910.50 138.82C910.80 139.24 911.16 140.12 911.28 140.60M913.02 135.14L914.74 135.14L914.74 136.04L913.02 136.04M917.50 133.70L917.50 137.58C917.50 139.34 917.92 140.02 919.76 140.02C920.10 140.02 921.60 140.02 922 140.02C922.56 140.02 923.16 139.98 923.50 139.88C923.44 139.44 923.38 138.74 923.34 138.26C923 138.34 922.36 138.38 921.96 138.38C921.60 138.38 920.22 138.38 919.88 138.38C919.46 138.38 919.38 138.18 919.38 137.62L919.38 137.52L923.20 137.52L923.20 133.70M919.38 135.16L921.18 135.16L921.18 136.06L919.38 136.06M905.84 144.70C906.02 144.54 906.60 144.40 907.02 144.40L908.32 144.40C907.74 147.08 906.58 149.06 904.94 150.20C905.38 150.52 906.16 151.34 906.48 151.80C907.40 151.12 908.20 150.18 908.84 148.98C910.38 151.08 912.72 151.46 916.44 151.46C918.78 151.46 921.34 151.42 923.44 151.28C923.56 150.64 923.86 149.54 924.20 149.06C921.92 149.28 918.62 149.40 916.48 149.40C913.14 149.38 910.88 149.12 909.72 147C910.14 145.80 910.46 144.42 910.66 142.88L909.52 142.48L909.16 142.54L908.02 142.54C908.94 141.18 910.02 139.26 910.68 138.16L909.22 137.60L908.90 137.72L905.40 137.72L905.40 139.62L907.66 139.62C907.04 140.68 906.34 141.80 906.04 142.14C905.72 142.54 905.40 142.68 905.08 142.78C905.30 143.20 905.72 144.20 905.84 144.70M943.30 132.96L925.10 151.16L925.78 151.84L943.98 133.64M951.84 133C951.62 133.80 951.36 134.60 951.04 135.42L945.64 135.42L945.64 137.68L950.02 137.68C948.84 139.90 947.22 141.92 945.18 143.28C945.64 143.74 946.40 144.58 946.76 145.14C947.68 144.50 948.50 143.76 949.26 142.92L949.26 144.56C949.26 146.44 949.10 148.60 947.38 150.10C947.86 150.42 948.80 151.44 949.10 151.94C950.34 150.92 951 149.46 951.34 147.94L958.88 147.94L958.88 149.16C958.88 149.42 958.78 149.52 958.44 149.54C958.10 149.54 956.92 149.54 955.90 149.48C956.22 150.12 956.54 151.14 956.62 151.80C958.26 151.80 959.40 151.78 960.20 151.40C961.02 151.04 961.24 150.38 961.24 149.20L961.24 139.26L951.88 139.26C952.18 138.74 952.46 138.22 952.72 137.68L963.48 137.68L963.48 135.42L953.68 135.42C953.92 134.80 954.12 134.18 954.32 133.56M958.88 144.64L958.88 145.94L951.64 145.94C951.66 145.50 951.68 145.06 951.68 144.64M958.88 142.64L951.68 142.64L951.68 141.36L958.88 141.36M973.54 141.60L973.54 143.32L983.78 143.32L983.78 141.60M976.38 145.42L980.74 145.42L980.74 146.46L976.38 146.46M979.36 149.74L977.76 149.74C977.58 149.20 977.30 148.48 977.04 147.90L980.02 147.90C979.86 148.46 979.60 149.16 979.36 149.74M975.16 148.28C975.34 148.72 975.54 149.26 975.70 149.74L973.32 149.74L973.32 151.48L983.94 151.48L983.94 149.74L981.32 149.74L982.22 148.32L980.72 147.90L982.96 147.90L982.96 143.96L974.30 143.96L974.30 147.90L976.42 147.90M973.84 134.46L973.84 140.90L983.40 140.90L983.40 134.46L980.82 134.46L980.82 133.02L978.94 133.02L978.94 134.46L978.08 134.46L978.08 133.02L976.22 133.02L976.22 134.46M975.62 138.40L976.64 138.40L976.64 139.34L975.62 139.34M978.10 138.40L979.04 138.40L979.04 139.34L978.10 139.34M980.50 138.40L981.54 138.40L981.54 139.34L980.50 139.34M975.62 136.02L976.64 136.02L976.64 136.94L975.62 136.94M978.10 136.02L979.04 136.02L979.04 136.94L978.10 136.94M980.50 136.02L981.54 136.02L981.54 136.94L980.50 136.94M970.60 143.34L970.60 145C970.16 144.64 969.52 144.18 968.94 143.80L968.26 144.48L968.26 143.34M971.66 141.78L967.04 141.78L967.04 140.96L971.66 140.96M965.32 139.34L965.32 142.48L966.32 142.48L966.32 145.56C966.32 147.16 966.24 149.20 965.24 150.70C965.70 150.92 966.58 151.50 966.92 151.86C967.62 150.80 967.98 149.38 968.14 148L968.66 149.12L970.60 147.88L970.60 149.70C970.60 149.88 970.54 149.96 970.34 149.96C970.16 149.96 969.56 149.96 968.98 149.94C969.22 150.42 969.48 151.20 969.54 151.70C970.60 151.70 971.32 151.68 971.88 151.38C972.44 151.08 972.58 150.58 972.58 149.72L972.58 142.48L973.46 142.48L973.46 139.34L972.64 139.34L972.64 133.64L966.10 133.64L966.10 139.34M970.60 146.34C969.70 146.76 968.88 147.16 968.18 147.44C968.24 146.78 968.26 146.16 968.26 145.60L968.26 145C968.84 145.44 969.46 145.98 969.80 146.34L970.60 145.44M968.72 136.16L968.72 139.34L967.96 139.34L967.96 135.34L970.68 135.34L970.68 136.16M970.68 139.34L969.94 139.34L969.94 137.50L970.68 137.50M992.18 133.04L992.18 137.18L986.04 137.18L986.04 139.64L992.08 139.64C991.74 143.14 990.40 147.24 985.42 149.94C986 150.38 986.90 151.30 987.30 151.90C992.92 148.72 994.34 143.80 994.66 139.64L1000.28 139.64C999.98 145.62 999.58 148.26 998.94 148.88C998.68 149.14 998.44 149.20 998.02 149.20C997.48 149.20 996.30 149.20 995.04 149.10C995.50 149.78 995.84 150.86 995.86 151.58C997.08 151.62 998.34 151.64 999.08 151.52C999.96 151.42 1000.54 151.20 1001.14 150.44C1002.04 149.36 1002.42 146.34 1002.84 138.32C1002.86 138 1002.88 137.18 1002.88 137.18L994.74 137.18L994.74 133.04M1007.44 137.62L1007.44 144.98L1005.14 144.98L1005.14 147.20L1007.44 147.20L1007.44 151.82L1009.80 151.82L1009.80 147.20L1019.26 147.20L1019.26 149.16C1019.26 149.50 1019.14 149.60 1018.76 149.60C1018.42 149.60 1017.12 149.62 1016.02 149.56C1016.36 150.16 1016.72 151.18 1016.86 151.82C1018.54 151.82 1019.74 151.80 1020.56 151.42C1021.38 151.06 1021.66 150.40 1021.66 149.20L1021.66 147.20L1023.94 147.20L1023.94 144.98L1021.66 144.98L1021.66 137.62L1015.66 137.62L1015.66 136.30L1023.14 136.30L1023.14 134.08L1005.96 134.08L1005.96 136.30L1013.26 136.30L1013.26 137.62M1019.26 144.98L1015.66 144.98L1015.66 143.36L1019.26 143.36M1009.80 144.98L1009.80 143.36L1013.26 143.36L1013.26 144.98M1019.26 141.32L1015.66 141.32L1015.66 139.78L1019.26 139.78M1009.80 141.32L1009.80 139.78L1013.26 139.78L1013.26 141.32M1027.32 151.28C1028.36 150.90 1029.74 150.84 1039.86 150.04C1040.22 150.64 1040.50 151.22 1040.72 151.70L1043.08 150.50C1042.18 148.68 1040.34 146 1038.58 144L1036.38 144.98C1037.08 145.84 1037.82 146.86 1038.50 147.86L1030.42 148.34C1031.72 146.92 1033.02 145.20 1034.14 143.44L1043.72 143.44L1043.72 141.02L1035.80 141.02L1035.80 138.18L1042.28 138.18L1042.28 135.76L1035.80 135.76L1035.80 133L1033.26 133L1033.26 135.76L1026.98 135.76L1026.98 138.18L1033.26 138.18L1033.26 141.02L1025.44 141.02L1025.44 143.44L1031.08 143.44C1029.96 145.42 1028.56 147.22 1028.04 147.72C1027.44 148.38 1027.02 148.80 1026.52 148.92C1026.80 149.58 1027.20 150.80 1027.32 151.28" fill="#8a3b2a" aria-label="益善洞 可選／有體力再去"/><path d="M826.32 187.44L826.30 190.43L825.02 190.43L825.02 191.44L826.28 191.44C826.18 195.43 825.75 198.60 823.83 200.54C824.08 200.69 824.44 201 824.61 201.25C826.66 199.12 827.14 195.71 827.26 191.44L828.57 191.44C828.38 197.22 828.21 199.24 827.88 199.70C827.75 199.90 827.63 199.94 827.44 199.94C827.22 199.94 826.79 199.93 826.28 199.90C826.45 200.18 826.54 200.62 826.55 200.91C827.07 200.94 827.54 200.94 827.89 200.90C828.26 200.85 828.52 200.74 828.76 200.36C829.21 199.73 829.38 197.60 829.55 190.97C829.57 190.82 829.57 190.43 829.57 190.43L827.27 190.43L827.30 187.44M830.15 189.16L830.15 200.65L831.10 200.65L831.10 199.38L832.96 199.38L832.96 200.53L833.93 200.53L833.93 189.16M831.10 198.38L831.10 190.18L832.96 190.18L832.96 198.38M821.14 188.50L821.14 198.91L822.04 198.91L822.04 197.42L824.49 197.42L824.49 188.50M822.04 189.44L823.57 189.44L823.57 196.49L822.04 196.49M845.49 187.49L845.49 201.19L846.60 201.19L846.60 197.25L849.45 197.25L849.45 196.22L846.60 196.22L846.60 194.09L849.14 194.09L849.14 193.07L846.60 193.07L846.60 190.97L849.28 190.97L849.28 189.94L846.60 189.94L846.60 187.49M842.95 187.52L842.95 189.94L840.49 189.94L840.49 190.97L842.95 190.97L842.95 193.07L840.60 193.07L840.60 194.09L842.95 194.09L842.95 194.24C842.95 194.85 842.93 195.46 842.86 196.06C841.74 196.37 840.64 196.69 839.86 196.87L840.31 197.90L842.66 197.07C842.34 198.43 841.62 199.64 840.12 200.56C840.38 200.74 840.77 201.08 840.96 201.29C843.64 199.63 844.04 197.01 844.04 194.24L844.04 187.52M836.11 188.69L836.11 198.08L837.09 198.08L837.09 196.76L840.05 196.76L840.05 188.69M837.09 189.72L839.08 189.72L839.08 195.71L837.09 195.71M852.67 187.40L852.67 190.43L850.71 190.43L850.71 191.53L852.67 191.53L852.67 194.76C851.86 194.99 851.11 195.19 850.48 195.34L850.78 196.49L852.67 195.94L852.67 199.84C852.67 200.06 852.58 200.12 852.38 200.13C852.19 200.13 851.56 200.13 850.88 200.12C851.02 200.44 851.18 200.90 851.22 201.19C852.25 201.20 852.87 201.17 853.25 200.97C853.66 200.79 853.81 200.50 853.81 199.85L853.81 195.59L855.68 195.02L855.55 193.96L853.81 194.45L853.81 191.53L855.55 191.53L855.55 190.43L853.81 190.43L853.81 187.40M857.46 195.71L862.50 195.71L862.50 199.26L857.46 199.26M857.46 194.65L857.46 191.16L862.50 191.16L862.50 194.65M859.51 187.41C859.39 188.19 859.13 189.28 858.87 190.10L856.33 190.10L856.33 201.16L857.46 201.16L857.46 200.34L862.50 200.34L862.50 201.06L863.65 201.06L863.65 190.10L859.99 190.10C860.26 189.35 860.56 188.42 860.82 187.59M872.92 193.90L877.32 193.90L877.32 196.18L872.92 196.18M871.87 192.95L871.87 197.12L878.42 197.12L878.42 192.95M870.10 198.13C870.28 199.12 870.40 200.38 870.41 201.14L871.51 200.97C871.50 200.22 871.33 198.98 871.13 198.02M873.31 198.08C873.70 199.06 874.08 200.34 874.23 201.11L875.34 200.87C875.18 200.07 874.76 198.83 874.36 197.88M876.37 198C877.09 199 877.91 200.38 878.27 201.23L879.34 200.75C878.97 199.90 878.11 198.56 877.39 197.59M867.61 197.69C867.12 198.80 866.32 200.04 865.64 200.79L866.73 201.28C867.41 200.42 868.16 199.12 868.69 198M867.46 189.05L869.71 189.05L869.71 191.69L867.46 191.69M867.46 195.62L867.46 192.68L869.71 192.68L869.71 195.62M866.39 188.04L866.39 197.41L867.46 197.41L867.46 196.64L870.76 196.64L870.76 188.04M871.42 188.01L871.42 189.02L873.92 189.02C873.63 190.41 872.92 191.38 870.94 191.91C871.16 192.09 871.45 192.50 871.57 192.75C873.85 192.05 874.71 190.84 875.03 189.02L877.72 189.02C877.62 190.44 877.51 191.03 877.32 191.22C877.21 191.33 877.08 191.34 876.87 191.34C876.63 191.34 876.01 191.34 875.35 191.28C875.51 191.54 875.62 191.93 875.63 192.22C876.33 192.26 877 192.25 877.35 192.23C877.74 192.20 877.99 192.11 878.23 191.87C878.54 191.53 878.70 190.64 878.83 188.45C878.85 188.30 878.86 188.01 878.86 188.01" fill="#2c2416" aria-label="咖啡拍照"/><path d="M827.03 234.88L827.03 235.84L831.05 235.84L831.05 234.88M823.98 222.46C823.13 224.74 821.74 226.99 820.25 228.44C820.45 228.70 820.78 229.28 820.88 229.56C821.41 229.01 821.92 228.40 822.40 227.71L822.40 236.17L823.48 236.17L823.48 226.03C824.08 225 824.61 223.88 825.04 222.78M825.43 234.97C825.73 234.78 826.20 234.61 829.51 233.66C829.48 233.44 829.47 233 829.50 232.72L826.72 233.43L826.72 229.21L830.22 229.21C830.66 233.28 831.50 236.06 833.10 236.09C833.66 236.09 834.17 235.44 834.46 233.17C834.26 233.09 833.85 232.84 833.66 232.63C833.56 234.04 833.37 234.84 833.08 234.82C832.27 234.79 831.63 232.51 831.25 229.21L834.13 229.21L834.13 228.16L831.14 228.16C831.02 226.85 830.93 225.41 830.89 223.93C831.88 223.71 832.81 223.45 833.59 223.16L832.69 222.32C831.07 222.96 828.19 223.56 825.65 223.94L825.65 233.08C825.65 233.66 825.26 233.94 824.98 234.04C825.16 234.26 825.36 234.72 825.43 234.97M830.11 228.16L826.72 228.16L826.72 224.72C827.75 224.56 828.84 224.37 829.87 224.16C829.93 225.56 830 226.91 830.11 228.16M841.75 228.91L841.75 229.76L849.26 229.76L849.26 228.91M843.48 231.25L847.48 231.25L847.48 232.51L843.48 232.51M842.47 230.49L842.47 233.28L848.53 233.28L848.53 230.49M837.58 230.81C838.13 231.19 838.84 231.78 839.17 232.13L839.74 231.52C839.38 231.18 838.69 230.66 838.09 230.28M843.22 233.60C843.40 234.04 843.61 234.58 843.75 235.03L841.57 235.03L841.57 235.90L849.40 235.90L849.40 235.03L847.12 235.03L847.87 233.60L846.85 233.31C846.70 233.78 846.43 234.50 846.19 235.03L844.74 235.03C844.60 234.55 844.33 233.88 844.09 233.35M842.07 223.56L842.07 228.12L848.88 228.12L848.88 223.56L846.88 223.56L846.88 222.40L845.95 222.40L845.95 223.56L844.86 223.56L844.86 222.40L843.94 222.40L843.94 223.56M842.95 226.21L844.09 226.21L844.09 227.31L842.95 227.31M844.86 226.21L846 226.21L846 227.31L844.86 227.31M846.76 226.21L847.96 226.21L847.96 227.31L846.76 227.31M842.95 224.37L844.09 224.37L844.09 225.44L842.95 225.44M844.86 224.37L846 224.37L846 225.44L844.86 225.44M846.76 224.37L847.96 224.37L847.96 225.44L846.76 225.44M837.41 233.49L837.84 234.29L839.86 233.06L839.86 235.03C839.86 235.19 839.80 235.24 839.65 235.24C839.49 235.25 838.98 235.25 838.38 235.24C838.50 235.48 838.64 235.85 838.69 236.11C839.53 236.11 840.05 236.09 840.38 235.94C840.73 235.79 840.82 235.53 840.82 235.04L840.82 229.27L841.51 229.27L841.51 227.09L840.87 227.09L840.87 222.93L836.41 222.93L836.41 227.09L835.79 227.09L835.79 229.27L836.53 229.27L836.53 231.73C836.53 232.94 836.44 234.49 835.64 235.65C835.88 235.76 836.27 236.06 836.44 236.25C837.33 234.97 837.48 233.11 837.48 231.75L837.48 229.72L839.86 229.72L839.86 232.28C838.93 232.76 838.04 233.22 837.41 233.49M840.43 228.93L836.65 228.93L836.65 227.92L840.61 227.92L840.61 228.93M838.25 224.75L838.25 227.09L837.33 227.09L837.33 223.78L839.90 223.78L839.90 224.75M839.90 227.09L838.93 227.09L838.93 225.47L839.90 225.47M856.15 222.43L856.15 225.03L856.15 225.67L851.25 225.67L851.25 226.82L856.09 226.82C855.87 229.65 854.88 232.94 850.79 235.38C851.08 235.57 851.49 235.99 851.66 236.26C856.03 233.60 857.05 229.94 857.26 226.82L862.40 226.82C862.11 232.12 861.77 234.25 861.24 234.76C861.05 234.96 860.86 235 860.54 235C860.17 235 859.21 234.99 858.17 234.90C858.40 235.22 858.53 235.72 858.57 236.05C859.50 236.09 860.46 236.13 860.97 236.08C861.55 236.02 861.89 235.91 862.25 235.47C862.93 234.73 863.23 232.48 863.58 226.27C863.59 226.10 863.61 225.67 863.61 225.67L857.32 225.67L857.32 225.03L857.32 222.43M865.84 223.47L865.84 224.59L876.21 224.59L876.21 234.56C876.21 234.88 876.10 234.97 875.77 235C875.41 235 874.18 235.01 872.98 234.96C873.16 235.28 873.37 235.84 873.45 236.17C874.93 236.17 875.98 236.17 876.58 235.97C877.16 235.78 877.38 235.39 877.38 234.58L877.38 224.59L879.22 224.59L879.22 223.47M868.47 227.88L872.41 227.88L872.41 231.32L868.47 231.32M867.37 226.79L867.37 233.60L868.47 233.60L868.47 232.41L873.52 232.41L873.52 226.79M882.25 224.13L884.66 224.13L884.66 226.79L882.25 226.79M885.85 224.78C886.47 225.79 887 227.13 887.17 228.03L888.13 227.59C887.93 226.71 887.38 225.38 886.72 224.40M880.52 234.22L880.78 235.27C882.24 234.88 884.20 234.37 886.06 233.88L885.92 232.90L884.08 233.37L884.08 230.65L885.70 230.65L885.70 229.65L884.08 229.65L884.08 227.75L885.64 227.75L885.64 223.16L881.30 223.16L881.30 227.75L883.13 227.75L883.13 233.60L882.17 233.83L882.17 228.94L881.34 228.94L881.34 234.04M893.25 224.28C892.87 225.32 892.13 226.78 891.58 227.68L892.39 228.10C892.99 227.25 893.71 225.90 894.29 224.80M890.51 222.38L890.51 234.28C890.51 235.63 890.80 235.97 891.82 235.97C892.03 235.97 893.03 235.97 893.26 235.97C894.17 235.97 894.43 235.36 894.53 233.66C894.24 233.60 893.83 233.41 893.59 233.22C893.54 234.56 893.49 234.94 893.20 234.94C892.98 234.94 892.15 234.94 891.99 234.94C891.64 234.94 891.58 234.85 891.58 234.28L891.58 230.26C892.40 230.95 893.30 231.78 893.77 232.33L894.52 231.53C893.95 230.89 892.74 229.87 891.80 229.15L891.58 229.38L891.58 222.38M888.19 222.38L888.19 228.75L888.17 229.72C887.14 230.40 886.11 231.07 885.38 231.46L886.01 232.48L888.10 230.88C887.90 232.66 887.27 234.44 885.29 235.41C885.52 235.62 885.87 236 886.01 236.23C888.96 234.59 889.23 231.43 889.23 228.75L889.23 222.38M896.25 222.90C896.86 223.65 897.64 224.68 898.01 225.32L898.90 224.74C898.52 224.11 897.76 223.15 897.10 222.40M901.32 222.93L901.32 227.56L900.17 227.56L900.17 234.09L901.18 234.09L901.18 228.46L907.66 228.46L907.66 232.96C907.66 233.13 907.60 233.17 907.43 233.17C907.27 233.19 906.72 233.19 906.09 233.16C906.21 233.43 906.34 233.81 906.38 234.09C907.27 234.09 907.87 234.07 908.23 233.92C908.61 233.75 908.70 233.49 908.70 232.96L908.70 227.56L907.51 227.56L907.51 222.93M903.79 225.03L903.79 227.56L902.32 227.56L902.32 223.79L906.48 223.79L906.48 225.03M906.48 227.56L904.66 227.56L904.66 225.82L906.48 225.82M902.46 229.42L902.46 233.20L903.33 233.20L903.33 232.60L906.37 232.60L906.37 229.42M903.33 230.22L905.49 230.22L905.49 231.82L903.33 231.82M895.91 230.74C896.03 230.62 896.42 230.51 896.80 230.51L898.25 230.51C897.79 232.85 896.80 234.50 895.45 235.45C895.67 235.60 896.05 235.99 896.22 236.22C896.93 235.68 897.58 234.93 898.11 233.95C899.29 235.66 901.20 235.96 904.24 235.96C905.89 235.96 907.79 235.93 909.21 235.84C909.26 235.54 909.40 235.01 909.58 234.78C908.03 234.93 905.83 234.99 904.25 234.99C901.42 234.97 899.51 234.75 898.54 233.05C898.91 232.12 899.22 231.03 899.39 229.78L898.88 229.59L898.69 229.60L897.13 229.60C897.97 228.58 899.07 227.02 899.66 226.13L898.93 225.79L898.76 225.87L895.69 225.87L895.69 226.81L898.04 226.81C897.41 227.74 896.56 228.93 896.22 229.27C895.96 229.56 895.72 229.66 895.50 229.72C895.62 229.94 895.84 230.47 895.91 230.74" fill="#2c2416" aria-label="低體力可跳過"/><path d="M45.98 547.28C46.96 548 48.08 549.02 48.72 549.76L41.65 549.76L41.65 550.93L47.34 550.93L47.34 554.45L42.38 554.45L42.38 555.62L47.34 555.62L47.34 559.57L40.90 559.57L40.90 560.74L55.17 560.74L55.17 559.57L48.64 559.57L48.64 555.62L53.70 555.62L53.70 554.45L48.64 554.45L48.64 550.93L54.35 550.93L54.35 549.76L49.15 549.76L49.92 549.20C49.28 548.45 47.98 547.36 46.96 546.62M66.42 556.74C65.84 557.52 65.12 558.13 64.21 558.62C63.09 558.38 61.94 558.18 60.78 557.98C61.07 557.60 61.38 557.18 61.70 556.74M58.86 558.62C60.14 558.83 61.39 559.06 62.59 559.30C61.06 559.81 59.15 560.08 56.82 560.22C57.01 560.51 57.20 560.94 57.28 561.28C60.32 561.04 62.69 560.58 64.50 559.71C66.61 560.21 68.43 560.74 69.78 561.25L70.88 560.38C69.54 559.92 67.76 559.42 65.78 558.98C66.62 558.37 67.31 557.63 67.86 556.74L71.15 556.74L71.15 555.71L68.37 555.71L68.61 555.09L67.44 554.77C67.33 555.10 67.20 555.41 67.04 555.71L62.37 555.71C62.66 555.23 62.94 554.75 63.17 554.29L61.97 554.02C61.71 554.54 61.38 555.14 61.01 555.71L56.86 555.71L56.86 556.74L60.34 556.74C59.84 557.44 59.33 558.10 58.86 558.62M57.90 549.68L57.90 553.82L70.21 553.82L70.21 549.68L66.35 549.68L66.35 548.32L70.88 548.32L70.88 547.25L57.10 547.25L57.10 548.32L61.47 548.32L61.47 549.68M62.61 548.32L65.22 548.32L65.22 549.68L62.61 549.68M59.04 550.67L61.47 550.67L61.47 552.85L59.04 552.85M62.61 550.67L65.22 550.67L65.22 552.85L62.61 552.85M66.35 550.67L69.02 550.67L69.02 552.85L66.35 552.85M78.96 547.52L78.96 548.67L86.83 548.67L86.83 547.52M76.27 546.54C75.46 547.71 73.90 549.14 72.56 550.05C72.77 550.27 73.10 550.74 73.26 551.01C74.70 549.98 76.35 548.42 77.42 547.02M78.26 551.94L78.26 553.09L83.65 553.09L83.65 559.73C83.65 559.98 83.54 560.06 83.23 560.08C82.94 560.10 81.86 560.10 80.72 560.05C80.90 560.40 81.07 560.90 81.12 561.23C82.69 561.23 83.60 561.23 84.14 561.06C84.67 560.85 84.86 560.48 84.86 559.74L84.86 553.09L87.28 553.09L87.28 551.94M76.91 549.98C75.81 551.81 74.05 553.66 72.40 554.85C72.64 555.09 73.07 555.62 73.25 555.86C73.84 555.38 74.46 554.80 75.07 554.18L75.07 561.33L76.26 561.33L76.26 552.86C76.93 552.06 77.54 551.23 78.05 550.40M96.35 548.42L101.28 548.42L101.28 551.42L96.35 551.42M95.23 547.38L95.23 552.46L102.43 552.46L102.43 547.38M101.92 553.06C100.27 553.54 97.23 553.84 94.72 554C94.85 554.26 94.98 554.67 95.01 554.93C96.02 554.88 97.12 554.82 98.19 554.70L98.19 556.61L95.06 556.61L95.06 557.65L98.19 557.65L98.19 559.81L94.18 559.81L94.18 560.88L103.30 560.88L103.30 559.81L99.38 559.81L99.38 557.65L102.62 557.65L102.62 556.61L99.38 556.61L99.38 554.56C100.62 554.42 101.79 554.21 102.72 553.95M93.82 546.78C92.64 547.33 90.51 547.79 88.69 548.10C88.82 548.35 88.99 548.75 89.04 549.01C89.79 548.91 90.59 548.78 91.39 548.62L91.39 551.07L88.78 551.07L88.78 552.19L91.23 552.19C90.59 554.03 89.49 556.11 88.45 557.25C88.66 557.54 88.94 558.02 89.07 558.35C89.89 557.36 90.74 555.78 91.39 554.16L91.39 561.25L92.58 561.25L92.58 554.35C93.12 555.02 93.76 555.89 94.03 556.34L94.75 555.39C94.43 555.02 93.04 553.58 92.58 553.18L92.58 552.19L94.58 552.19L94.58 551.07L92.58 551.07L92.58 548.37C93.34 548.18 94.06 547.95 94.67 547.71M112 551.30C112.64 551.30 113.22 550.83 113.22 550.10C113.22 549.36 112.64 548.90 112 548.90C111.36 548.90 110.78 549.36 110.78 550.10C110.78 550.83 111.36 551.30 112 551.30M112 559.14C112.64 559.14 113.22 558.66 113.22 557.94C113.22 557.20 112.64 556.72 112 556.72C111.36 556.72 110.78 557.20 110.78 557.94C110.78 558.66 111.36 559.14 112 559.14M129.47 552.69L133.33 552.69L133.33 554.30L129.47 554.30M122.34 553.76L125.71 553.76L125.71 555.02L122.34 555.02M122.34 551.63L125.71 551.63L125.71 552.85L122.34 552.85M133.02 550.11L130.70 550.11L130.90 548.80L133.02 548.80M130 546.56L129.87 547.86L128.02 547.86L128.02 548.80L129.78 548.80L129.60 550.11L127.18 550.11L127.18 551.09L135.33 551.09L135.33 550.11L134.10 550.11L134.10 547.86L131.01 547.86L131.12 546.66M127.70 556.06L127.70 557.02L128.77 557.02C128.58 557.89 128.35 558.86 128.14 559.54L131.34 559.54L131.34 561.26L132.46 561.26L132.46 559.54L135.33 559.54L135.33 558.58L132.46 558.58L132.46 557.02L134.98 557.02L134.98 556.06L132.46 556.06L132.46 555.14L134.48 555.14L134.48 551.82L128.34 551.82L128.34 555.14L131.34 555.14L131.34 556.06M131.34 557.02L131.34 558.58L129.49 558.58L129.82 557.02M120.67 557.33L120.67 558.42L123.42 558.42L123.42 561.26L124.59 561.26L124.59 558.42L127.28 558.42L127.28 557.33L124.59 557.33L124.59 555.97L126.82 555.97L126.82 550.66L124.59 550.66L124.59 549.31L127.14 549.31L127.14 548.24L124.59 548.24L124.59 546.53L123.42 546.53L123.42 548.24L120.83 548.24L120.83 549.31L123.42 549.31L123.42 550.66L121.26 550.66L121.26 555.97L123.42 555.97L123.42 557.33M137.73 547.15L137.73 552.90C137.73 555.26 137.63 558.48 136.54 560.74C136.83 560.83 137.31 561.10 137.52 561.30C138.26 559.78 138.58 557.76 138.72 555.86L141.26 555.86L141.26 559.82C141.26 560.06 141.17 560.13 140.96 560.13C140.75 560.14 140.08 560.14 139.34 560.13C139.50 560.45 139.65 560.98 139.68 561.28C140.77 561.28 141.41 561.26 141.82 561.06C142.24 560.86 142.38 560.50 142.38 559.84L142.38 547.15M138.82 548.27L141.26 548.27L141.26 550.90L138.82 550.90M138.82 552.02L141.26 552.02L141.26 554.72L138.78 554.72C138.80 554.08 138.82 553.46 138.82 552.90M149.73 553.74C149.38 555.09 148.82 556.30 148.13 557.34C147.38 556.27 146.80 555.06 146.37 553.74M143.79 547.20L143.79 561.28L144.93 561.28L144.93 553.74L145.33 553.74C145.84 555.41 146.54 556.94 147.46 558.24C146.72 559.14 145.87 559.82 144.99 560.30C145.25 560.51 145.57 560.91 145.70 561.18C146.58 560.67 147.41 559.98 148.14 559.14C148.90 560.03 149.76 560.77 150.74 561.30C150.93 561.01 151.26 560.59 151.52 560.37C150.51 559.89 149.62 559.15 148.83 558.26C149.84 556.83 150.62 555.02 151.06 552.85L150.35 552.59L150.14 552.64L144.93 552.64L144.93 548.32L149.42 548.32L149.42 550.29C149.42 550.48 149.38 550.53 149.12 550.54C148.86 550.56 148.02 550.56 147.04 550.53C147.20 550.82 147.38 551.23 147.42 551.55C148.64 551.55 149.46 551.55 149.95 551.39C150.46 551.22 150.59 550.90 150.59 550.30L150.59 547.20M168.56 553.38L156.22 553.38L156.22 554.46L168.56 554.46C167.74 555.09 166.69 556.10 165.97 557.09L166.93 557.65C168 556.24 169.60 554.83 171.02 553.92C169.60 553.01 168 551.60 166.93 550.19L165.97 550.75C166.69 551.74 167.74 552.75 168.56 553.38M179.04 549.76L187.25 549.76L187.25 550.78L179.04 550.78M179.04 547.95L187.25 547.95L187.25 548.96L179.04 548.96M179.41 555.36L186.94 555.36L186.94 556.88L179.41 556.88M185.14 558.94C186.61 559.50 188.45 560.42 189.38 561.06L190.19 560.27C189.20 559.62 187.34 558.75 185.90 558.24M179.82 558.18C178.86 558.94 177.28 559.68 175.87 560.14C176.14 560.34 176.56 560.77 176.77 561.01C178.13 560.45 179.84 559.54 180.91 558.62M182.10 551.90C182.26 552.11 182.42 552.37 182.56 552.62L176.06 552.62L176.06 553.62L190.22 553.62L190.22 552.62L183.86 552.62C183.70 552.29 183.46 551.92 183.20 551.62L188.45 551.62L188.45 547.14L177.89 547.14L177.89 551.62L182.96 551.62M178.26 554.46L178.26 557.76L182.56 557.76L182.56 560.10C182.56 560.27 182.51 560.32 182.29 560.34C182.06 560.35 181.28 560.35 180.45 560.32C180.61 560.59 180.77 560.98 180.82 561.28C181.95 561.28 182.69 561.28 183.15 561.12C183.63 560.98 183.78 560.72 183.78 560.13L183.78 557.76L188.14 557.76L188.14 554.46M193.30 547.06C193.73 547.79 194.27 548.78 194.53 549.41L195.50 548.93C195.26 548.32 194.70 547.39 194.26 546.66M199.70 550.43L204.27 550.43L204.27 552.19L199.70 552.19M198.62 549.46L198.62 553.17L205.39 553.17L205.39 549.46M197.71 547.34L197.71 548.38L206.24 548.38L206.24 547.34M201.33 555.20L201.33 556.86L198.90 556.86L198.90 555.20M202.42 555.20L204.98 555.20L204.98 556.86L202.42 556.86M201.33 557.81L201.33 559.52L198.90 559.52L198.90 557.81M202.42 557.81L204.98 557.81L204.98 559.52L202.42 559.52M192.05 549.57L192.05 550.66L196.10 550.66C195.09 552.78 193.23 554.80 191.47 555.95C191.66 556.16 191.97 556.72 192.10 557.04C192.82 556.53 193.54 555.89 194.24 555.15L194.24 561.25L195.41 561.25L195.41 554.34C196 554.94 196.77 555.76 197.10 556.19L197.78 555.26L197.78 561.28L198.90 561.28L198.90 560.53L204.98 560.53L204.98 561.23L206.13 561.23L206.13 554.21L197.78 554.21L197.78 555.18C197.44 554.85 196.29 553.81 195.73 553.34C196.48 552.30 197.14 551.15 197.58 549.95L196.93 549.52L196.70 549.57M212.18 551.55L218.11 551.55L218.11 553.66L212.18 553.66M209.89 556.08L209.89 561.23L211.09 561.23L211.09 560.58L219.41 560.58L219.41 561.17L220.64 561.17L220.64 556.08L214.98 556.08L215.68 554.66L219.31 554.66L219.31 550.56L211.04 550.56L211.04 554.66L214.27 554.66C214.11 555.12 213.92 555.63 213.71 556.08M211.09 559.52L211.09 557.14L219.41 557.14L219.41 559.52M213.95 546.82C214.18 547.20 214.42 547.66 214.59 548.10L208.48 548.10L208.48 551.71L209.65 551.71L209.65 549.20L220.70 549.20L220.70 551.71L221.92 551.71L221.92 548.10L216.02 548.10C215.79 547.58 215.47 546.94 215.17 546.46M239.73 553.38L227.39 553.38L227.39 554.46L239.73 554.46C238.91 555.09 237.86 556.10 237.14 557.09L238.10 557.65C239.17 556.24 240.77 554.83 242.19 553.92C240.77 553.01 239.17 551.60 238.10 550.19L237.14 550.75C237.86 551.74 238.91 552.75 239.73 553.38M246.88 559.92L247.44 561.12C249.28 560.37 251.78 559.34 254.10 558.35L253.89 557.30L252.67 557.76L252.67 546.85L251.44 546.85L251.44 550.62L247.36 550.62L247.36 551.82L251.44 551.82L251.44 558.24C249.70 558.90 248.05 559.52 246.88 559.92M255.38 546.86L255.38 558.50C255.38 560.18 255.79 560.64 257.20 560.64C257.50 560.64 259.06 560.64 259.36 560.64C260.91 560.64 261.20 559.50 261.33 556.19C260.99 556.11 260.50 555.87 260.18 555.60C260.08 558.69 259.98 559.46 259.26 559.46C258.93 559.46 257.63 559.46 257.34 559.46C256.74 559.46 256.62 559.31 256.62 558.51L256.62 551.81L261.12 551.81L261.12 550.61L256.62 550.61L256.62 546.86M270.40 553.25C271.25 554.48 272.11 556.11 272.43 557.15L273.52 556.59C273.18 555.55 272.29 553.97 271.39 552.78M274.85 546.58L274.85 549.97L270.06 549.97L270.06 551.12L274.85 551.12L274.85 559.63C274.85 559.94 274.74 560.02 274.45 560.03C274.13 560.03 273.12 560.05 272.03 560.02C272.22 560.37 272.42 560.93 272.48 561.28C273.86 561.28 274.78 561.25 275.31 561.04C275.84 560.85 276.06 560.48 276.06 559.63L276.06 551.12L277.79 551.12L277.79 549.97L276.06 549.97L276.06 546.58M266.02 546.56L266.02 549.98L263.17 549.98L263.17 551.14L265.84 551.14C265.23 553.36 264 555.84 262.78 557.20C263.01 557.49 263.31 557.98 263.46 558.32C264.40 557.20 265.33 555.36 266.02 553.46L266.02 561.26L267.17 561.26L267.17 553.98C267.79 554.75 268.56 555.74 268.90 556.29L269.66 555.28C269.31 554.83 267.70 553.09 267.17 552.59L267.17 551.14L269.58 551.14L269.58 549.98L267.17 549.98L267.17 546.56M285.46 547.26L285.46 548.37L293.52 548.37L293.52 547.26M286.42 556.06C286.88 557.10 287.34 558.50 287.50 559.39L288.58 559.10C288.42 558.21 287.92 556.83 287.41 555.79M287.09 551.17L291.73 551.17L291.73 554.06L287.09 554.06M285.97 550.08L285.97 555.15L292.90 555.15L292.90 550.08M291.25 555.68C290.93 556.90 290.32 558.54 289.79 559.66L284.78 559.66L284.78 560.78L293.68 560.78L293.68 559.66L290.94 559.66C291.46 558.61 292 557.17 292.46 555.95M280.45 546.58C280.19 548.50 279.73 550.42 278.96 551.66C279.23 551.81 279.71 552.13 279.90 552.30C280.30 551.62 280.64 550.75 280.91 549.81L281.79 549.81L281.79 552.29L281.78 552.93L279.02 552.93L279.02 554.02L281.73 554.02C281.54 556.10 280.91 558.43 278.93 560.19C279.15 560.35 279.60 560.77 279.76 561.01C281.15 559.76 281.95 558.16 282.40 556.56C283.02 557.46 283.86 558.70 284.22 559.36L285.02 558.37C284.69 557.89 283.26 555.95 282.69 555.25C282.75 554.83 282.80 554.42 282.83 554.02L285.10 554.02L285.10 552.93L282.90 552.93L282.91 552.30L282.91 549.81L284.90 549.81L284.90 548.72L281.20 548.72C281.34 548.08 281.46 547.42 281.55 546.77M297.84 553.86C297.60 556.21 296.83 559.04 294.88 560.53C295.15 560.72 295.57 561.09 295.78 561.31C296.91 560.42 297.68 559.10 298.21 557.66C299.81 560.46 302.42 561.07 305.86 561.07L309.31 561.07C309.38 560.74 309.58 560.19 309.76 559.90C309.06 559.92 306.43 559.92 305.90 559.92C304.83 559.92 303.82 559.86 302.91 559.66L302.91 556.51L308.27 556.51L308.27 555.42L302.91 555.42L302.91 552.88L309.31 552.88L309.31 551.76L302.91 551.76L302.91 549.55L308.14 549.55L308.14 548.43L302.91 548.43L302.91 546.58L301.68 546.58L301.68 548.43L296.74 548.43L296.74 549.55L301.68 549.55L301.68 551.76L295.34 551.76L295.34 552.88L301.68 552.88L301.68 559.30C300.37 558.77 299.34 557.82 298.66 556.21C298.85 555.47 298.99 554.74 299.09 554.02M326.90 553.38L314.56 553.38L314.56 554.46L326.90 554.46C326.08 555.09 325.02 556.10 324.30 557.09L325.26 557.65C326.34 556.24 327.94 554.83 329.36 553.92C327.94 553.01 326.34 551.60 325.26 550.19L324.30 550.75C325.02 551.74 326.08 552.75 326.90 553.38M338.40 550.64L338.40 551.81L342.29 551.81C341.28 554.43 339.57 557.02 337.82 558.38C338.11 558.61 338.51 559.02 338.72 559.33C340.32 557.94 341.84 555.66 342.91 553.15L342.91 561.28L344.10 561.28L344.10 552.77C345.15 555.33 346.69 557.81 348.26 559.23C348.46 558.91 348.88 558.50 349.17 558.29C347.50 556.93 345.82 554.35 344.82 551.81L348.75 551.81L348.75 550.64L344.10 550.64L344.10 546.78L342.91 546.78L342.91 550.64M338.21 546.66C337.23 549.18 335.58 551.58 333.82 553.12C334.05 553.41 334.42 554.05 334.56 554.34C335.22 553.73 335.84 553.01 336.45 552.22L336.45 561.25L337.63 561.25L337.63 550.50C338.32 549.39 338.91 548.22 339.39 547.02M353.76 551.20L361.18 551.20L361.18 552.48L353.76 552.48M353.76 553.41L361.18 553.41L361.18 554.70L353.76 554.70M353.76 549.01L361.18 549.01L361.18 550.29L353.76 550.29M353.70 556.77L353.70 559.38C353.70 560.66 354.19 560.99 356.05 560.99C356.43 560.99 359.33 560.99 359.73 560.99C361.28 560.99 361.68 560.51 361.84 558.46C361.50 558.40 360.99 558.22 360.72 558.03C360.64 559.66 360.51 559.89 359.65 559.89C359.01 559.89 356.59 559.89 356.11 559.89C355.09 559.89 354.90 559.81 354.90 559.36L354.90 556.77M361.71 556.93C362.45 557.94 363.22 559.31 363.49 560.19L364.62 559.68C364.32 558.80 363.54 557.46 362.78 556.48M351.87 556.74C351.49 557.74 350.86 559.12 350.22 560L351.33 560.53C351.92 559.60 352.50 558.19 352.90 557.18M356.21 556.16C357.02 556.91 357.95 557.98 358.35 558.70L359.33 558.10C358.90 557.41 357.98 556.38 357.15 555.66L362.38 555.66L362.38 548.05L357.60 548.05C357.84 547.63 358.11 547.14 358.35 546.64L356.94 546.40C356.82 546.86 356.56 547.52 356.35 548.05L352.61 548.05L352.61 555.66L357.07 555.66M373.55 551.50C372.22 551.50 371.12 552.59 371.12 553.94C371.12 555.28 372.22 556.37 373.55 556.37C374.90 556.37 375.98 555.28 375.98 553.94C375.98 552.59 374.90 551.50 373.55 551.50M373.55 555.55C372.67 555.55 371.94 554.83 371.94 553.94C371.94 553.04 372.67 552.32 373.55 552.32C374.45 552.32 375.17 553.04 375.17 553.94C375.17 554.83 374.45 555.55 373.55 555.55M390.45 552.35C392.35 553.63 394.75 555.52 395.89 556.75L396.86 555.82C395.66 554.59 393.23 552.80 391.34 551.58M382.61 547.68L382.61 548.91L389.73 548.91C388.14 551.65 385.39 554.35 382.21 555.92C382.46 556.19 382.83 556.67 383.02 556.98C385.25 555.81 387.23 554.16 388.85 552.30L388.85 561.25L390.14 561.25L390.14 550.66C390.56 550.10 390.93 549.50 391.26 548.91L396.40 548.91L396.40 547.68M406.38 553.25L411.07 553.25L411.07 554.82L406.38 554.82M406.38 555.71L411.07 555.71L411.07 557.30L406.38 557.30M406.38 550.82L411.07 550.82L411.07 552.35L406.38 552.35M406.86 558.51C406.18 559.23 404.72 560.06 403.44 560.53C403.70 560.72 404.06 561.10 404.26 561.33C405.54 560.85 407.04 559.98 407.90 559.14M409.34 559.22C410.32 559.82 411.55 560.74 412.14 561.33L413.10 560.64C412.46 560.03 411.22 559.17 410.24 558.59M398.91 550.13C400.03 550.74 401.36 551.65 402.19 552.42L398.11 552.42L398.11 553.50L400.75 553.50L400.75 559.84C400.75 560.05 400.69 560.10 400.45 560.11C400.22 560.11 399.49 560.11 398.66 560.10C398.83 560.43 398.99 560.91 399.04 561.25C400.14 561.25 400.86 561.23 401.31 561.04C401.78 560.85 401.90 560.51 401.90 559.87L401.90 553.50L403.60 553.50C403.33 554.37 403.01 555.25 402.72 555.84L403.63 556.08C404.06 555.22 404.56 553.81 404.98 552.58L404.22 552.37L404.05 552.42L402.90 552.42L403.28 551.92C402.96 551.60 402.53 551.23 402.02 550.86C402.91 550.02 403.87 548.86 404.53 547.79L403.78 547.26L403.55 547.33L398.45 547.33L398.45 548.40L402.77 548.40C402.30 549.06 401.73 549.76 401.17 550.29C400.62 549.94 400.06 549.62 399.55 549.34M405.26 549.87L405.26 558.22L412.22 558.22L412.22 549.87L408.88 549.87L409.34 548.35L412.77 548.35L412.77 547.31L404.64 547.31L404.64 548.35L408 548.35C407.92 548.85 407.81 549.39 407.70 549.87M414.93 551.39L414.93 552.35L419.68 552.35L419.68 551.39M414.93 553.50L414.93 554.45L419.70 554.45L419.70 553.50M414.26 549.28L414.26 550.27L420.35 550.27L420.35 549.28M416 546.98C416.43 547.62 416.96 548.54 417.20 549.12L418.18 548.56C417.92 547.98 417.41 547.14 416.94 546.50M420.18 553.63L420.18 554.75L421.55 554.75L420.85 554.99C421.46 556.37 422.27 557.57 423.28 558.56C422.19 559.31 420.96 559.86 419.68 560.18L419.68 555.63L414.93 555.63L414.93 561.07L415.98 561.07L415.98 560.30L419.65 560.30C419.87 560.58 420.11 561.01 420.22 561.28C421.65 560.86 423.01 560.22 424.21 559.34C425.34 560.21 426.67 560.86 428.19 561.25C428.35 560.93 428.69 560.42 428.96 560.16C427.52 559.84 426.24 559.30 425.15 558.56C426.42 557.38 427.42 555.86 428 553.90L427.25 553.58L427.04 553.63M415.98 556.64L418.61 556.64L418.61 559.30L415.98 559.30M421.73 547.14L421.73 548.90C421.73 550.05 421.46 551.36 419.73 552.35C419.95 552.53 420.37 552.99 420.51 553.23C422.42 552.10 422.85 550.37 422.85 548.93L422.85 548.26L425.50 548.26L425.50 550.83C425.50 552.05 425.73 552.50 426.78 552.50C426.98 552.50 427.63 552.50 427.84 552.50C428.14 552.50 428.45 552.48 428.64 552.42C428.59 552.14 428.56 551.68 428.54 551.38C428.34 551.42 428.03 551.46 427.84 551.46C427.66 551.46 427.04 551.46 426.86 551.46C426.66 551.46 426.64 551.31 426.64 550.85L426.64 547.14M426.46 554.75C425.94 555.97 425.15 556.99 424.21 557.82C423.23 556.98 422.46 555.94 421.94 554.75M431.47 548.11L431.47 549.33L443.57 549.33L443.57 548.11M432.50 553.34L432.50 554.54L442.32 554.54L442.32 553.34M430.54 558.90L430.54 560.11L444.45 560.11L444.45 558.90M452.43 550.27L456.10 550.27L456.10 552.13L452.43 552.13M451.30 549.41L451.30 552.99L457.28 552.99L457.28 549.41M450.56 554.96L452.70 554.96L452.70 557.33L450.56 557.33M449.55 554.06L449.55 558.19L453.74 558.19L453.74 554.06M455.87 554.96L458.10 554.96L458.10 557.33L455.87 557.33M454.83 554.06L454.83 558.19L459.17 558.19L459.17 554.06M446.45 547.30L446.45 548.38L447.10 548.38L447.10 557.39C447.10 559.74 448.29 560.53 450.75 560.53C451.34 560.53 456.70 560.53 457.86 560.53C459.09 560.53 460.30 560.51 460.75 560.40C460.69 560.13 460.59 559.57 460.56 559.23C459.97 559.36 458.75 559.41 457.87 559.41C456.74 559.41 451.68 559.41 450.64 559.41C448.91 559.41 448.27 558.85 448.27 557.47L448.27 548.38L459.95 548.38L459.95 547.30M462.72 559.74L462.72 560.83L476.37 560.83L476.37 559.74L470.08 559.74L470.08 557.06L474.66 557.06L474.66 556L470.08 556L470.08 553.54L474.02 553.54L474.02 552.46L465.02 552.46L465.02 553.54L468.83 553.54L468.83 556L464.32 556L464.32 557.06L468.83 557.06L468.83 559.74M465.23 546.99L465.23 548.13L468.08 548.13C466.48 549.89 464.11 551.70 462.10 552.66C462.38 552.90 462.69 553.31 462.86 553.62C465.12 552.42 467.84 550.18 469.49 548.13C471.15 550.27 473.70 552.35 476.13 553.50C476.32 553.18 476.70 552.70 476.96 552.45C474.40 551.39 471.63 549.22 470.14 546.99M479.94 548.29L482.66 548.29L482.66 551.10L479.94 551.10M478.06 559.39L478.35 560.53C479.95 560.08 482.10 559.49 484.13 558.91L483.98 557.86L482.02 558.38L482.02 555.44L483.76 555.44L483.76 554.38L482.02 554.38L482.02 552.14L483.76 552.14L483.76 547.25L478.88 547.25L478.88 552.14L480.94 552.14L480.94 558.67L479.87 558.94L479.87 553.66L478.88 553.66L478.88 559.20M486.10 546.59C485.62 548.32 484.78 550.03 483.76 551.15C484 551.34 484.40 551.78 484.56 551.98L484.93 551.52L484.93 559.20C484.93 560.69 485.42 561.06 487.15 561.06C487.54 561.06 490.50 561.06 490.90 561.06C492.40 561.06 492.75 560.48 492.91 558.53C492.61 558.46 492.16 558.27 491.89 558.10C491.81 559.71 491.66 560.03 490.85 560.03C490.22 560.03 487.68 560.03 487.20 560.03C486.18 560.03 486 559.89 486 559.20L486 556.08L489.36 556.08L489.36 551.22L485.15 551.22C485.50 550.69 485.86 550.10 486.16 549.46L490.83 549.46C490.82 554.14 490.77 555.78 490.53 556.13C490.43 556.30 490.29 556.34 490.06 556.34C489.81 556.34 489.18 556.34 488.51 556.27C488.69 556.58 488.83 557.04 488.83 557.34C489.52 557.38 490.18 557.39 490.58 557.34C491.02 557.28 491.30 557.17 491.55 556.82C491.90 556.27 491.94 554.48 491.95 548.96C491.95 548.78 491.95 548.38 491.95 548.38L486.64 548.38C486.83 547.89 487.01 547.38 487.17 546.86M486 552.21L488.34 552.21L488.34 555.07L486 555.07M501.55 551.50C500.22 551.50 499.12 552.59 499.12 553.94C499.12 555.28 500.22 556.37 501.55 556.37C502.90 556.37 503.98 555.28 503.98 553.94C503.98 552.59 502.90 551.50 501.55 551.50M501.55 555.55C500.67 555.55 499.94 554.83 499.94 553.94C499.94 553.04 500.67 552.32 501.55 552.32C502.45 552.32 503.17 553.04 503.17 553.94C503.17 554.83 502.45 555.55 501.55 555.55" fill="#2c2416" aria-label="主要行程：韓服 → 景福宮 → 北村短走 → 休息。不預設三區全跑。"/></svg>