<?xml version="1.0" encoding="UTF-8"?>
<svg data-cjk-paths="1" xmlns="http://www.w3.org/2000/svg" width="1200" height="640" viewBox="0 0 1200 640" role="img" aria-labelledby="title desc">
  <title id="title">March 2027 layering</title>
  <desc id="desc">March Korea layering principles; live forecast at T-7.</desc>
  <defs><style>
      .bg { fill: #f7f4ed; }
      .card { fill: #fffdf8; stroke: #2c2416; stroke-width: 2; }
      .card-ok { fill: #f3f7f2; stroke: #2f5d3a; }
      .card-warn { fill: #fff8e8; stroke: #8a6a2a; }
      .title { font-family: "Noto Sans TC", "Noto Sans KR", "DejaVu Sans", sans-serif; font-size: 30px; font-weight: 700; fill: #2c2416; }
      .h { font-family: "Noto Sans TC", "Noto Sans KR", "DejaVu Sans", sans-serif; font-size: 18px; font-weight: 700; fill: #2c2416; }
      .t { font-family: "Noto Sans TC", "Noto Sans KR", "DejaVu Sans", sans-serif; font-size: 14px; fill: #3a3124; }
      .muted { font-family: "Noto Sans TC", "Noto Sans KR", "DejaVu Sans", sans-serif; font-size: 12px; fill: #6a5d4a; }
      .tag { font-family: "Noto Sans TC", "DejaVu Sans", sans-serif; font-size: 12px; font-weight: 700; fill: #fffdf8; }
</style></defs>
  <rect class="bg" width="1200" height="640"/>
  <path d="M49.20 52L63.09 52L63.09 48.53L58.61 48.53C57.63 48.53 56.26 48.64 55.20 48.78C58.98 45.06 62.11 41.02 62.11 37.27C62.11 33.41 59.51 30.89 55.59 30.89C52.76 30.89 50.91 31.98 48.98 34.05L51.28 36.26C52.31 35.12 53.54 34.14 55.06 34.14C57.04 34.14 58.16 35.42 58.16 37.47C58.16 40.69 54.86 44.58 49.20 49.62M72.78 52.39C77.01 52.39 79.81 48.70 79.81 41.53C79.81 34.42 77.01 30.89 72.78 30.89C68.55 30.89 65.75 34.39 65.75 41.53C65.75 48.70 68.55 52.39 72.78 52.39M72.78 49.17C70.99 49.17 69.64 47.38 69.64 41.53C69.64 35.76 70.99 34.05 72.78 34.05C74.57 34.05 75.89 35.76 75.89 41.53C75.89 47.38 74.57 49.17 72.78 49.17M82.24 52L96.13 52L96.13 48.53L91.65 48.53C90.67 48.53 89.30 48.64 88.24 48.78C92.02 45.06 95.15 41.02 95.15 37.27C95.15 33.41 92.55 30.89 88.63 30.89C85.80 30.89 83.95 31.98 82.02 34.05L84.32 36.26C85.35 35.12 86.58 34.14 88.10 34.14C90.08 34.14 91.20 35.42 91.20 37.47C91.20 40.69 87.90 44.58 82.24 49.62M102.77 52L106.91 52C107.28 43.91 107.92 39.65 112.74 33.77L112.74 31.25L98.96 31.25L98.96 34.72L108.28 34.72C104.34 40.21 103.13 44.80 102.77 52M121.56 45.28L121.56 48.50L134.24 48.50L134.24 54.52L137.71 54.52L137.71 48.50L147.32 48.50L147.32 45.28L137.71 45.28L137.71 41.05L145.13 41.05L145.13 37.92L137.71 37.92L137.71 34.53L145.80 34.53L145.80 31.28L129.90 31.28C130.24 30.52 130.54 29.77 130.82 28.98L127.38 28.09C126.18 31.76 123.99 35.34 121.47 37.50C122.31 38 123.74 39.09 124.38 39.68C125.73 38.34 127.04 36.54 128.22 34.53L134.24 34.53L134.24 37.92L126.01 37.92L126.01 45.28M129.37 45.28L129.37 41.05L134.24 41.05L134.24 45.28M162.44 52.39C166.41 52.39 169.74 50.21 169.74 46.40C169.74 43.66 167.95 41.92 165.63 41.28L165.63 41.14C167.81 40.27 169.07 38.64 169.07 36.40C169.07 32.85 166.36 30.89 162.35 30.89C159.92 30.89 157.93 31.87 156.14 33.41L158.26 35.96C159.47 34.81 160.67 34.14 162.16 34.14C163.92 34.14 164.93 35.09 164.93 36.71C164.93 38.59 163.70 39.88 159.92 39.88L159.92 42.84C164.40 42.84 165.60 44.10 165.60 46.15C165.60 48 164.17 49.03 162.07 49.03C160.17 49.03 158.68 48.11 157.45 46.90L155.52 49.51C156.98 51.16 159.19 52.39 162.44 52.39M182.90 29.54L182.90 38.78C182.90 43.07 182.54 48.47 178.26 52.08C179.01 52.56 180.36 53.82 180.86 54.52C183.49 52.34 184.89 49.26 185.62 46.12L197.63 46.12L197.63 50.18C197.63 50.77 197.44 50.99 196.76 50.99C196.12 50.99 193.80 51.02 191.81 50.91C192.34 51.83 193.01 53.46 193.21 54.44C196.12 54.44 198.08 54.38 199.42 53.79C200.71 53.23 201.22 52.25 201.22 50.24L201.22 29.54M186.38 32.82L197.63 32.82L197.63 36.24L186.38 36.24M186.38 39.43L197.63 39.43L197.63 42.84L186.18 42.84C186.29 41.67 186.35 40.49 186.38 39.43M209.59 39.54L209.59 42.12L211.38 42.12C210.99 43.99 210.43 46.09 209.98 47.52L217.90 47.52C214.85 49.09 210.71 50.29 206.79 50.91C207.43 51.58 208.33 52.81 208.78 53.62C213.79 52.59 219.05 50.43 222.44 47.52L222.50 47.52L222.50 50.99C222.50 51.36 222.36 51.44 221.94 51.47C221.49 51.47 219.98 51.47 218.63 51.41C219.11 52.28 219.64 53.60 219.81 54.49C221.82 54.49 223.31 54.44 224.40 53.96C225.52 53.48 225.83 52.64 225.83 51.05L225.83 47.52L231.99 47.52L231.99 44.66L225.83 44.66L225.83 42.12L231.12 42.12L231.12 39.54M222.50 44.66L214.07 44.66L214.77 42.12L222.50 42.12M217.62 28.87C217.85 29.46 218.13 30.19 218.32 30.86L207.63 30.86L207.63 35.93L210.93 35.93L210.93 33.69L215.02 33.69C214.52 35.65 213.06 36.54 207.60 36.96C208.16 37.58 208.89 38.78 209.08 39.51C215.89 38.76 217.71 37.02 218.30 33.69L220.76 33.69L220.76 35.40C220.76 37.66 221.32 38.84 224.12 38.84C224.82 38.84 227.17 38.84 227.93 38.84C228.82 38.84 229.97 38.78 230.48 38.62C230.34 37.80 230.28 37.02 230.22 36.10C229.72 36.26 228.43 36.35 227.73 36.35C227.20 36.35 225.44 36.35 224.93 36.35C224.23 36.35 224.12 36.04 224.12 35.40L224.12 33.69L228.35 33.69L228.35 35.90L231.79 35.90L231.79 30.86L222.19 30.86C221.94 29.99 221.46 28.84 221.01 27.95M257.44 34.39C256.38 35.51 255.14 36.52 253.77 37.47L253.77 35.12L247.56 35.12L247.56 33.55L244.25 33.55L244.25 35.12L237.48 35.12L237.48 37.86L244.25 37.86L244.25 39.43L235.18 39.43L235.18 42.31L243.80 42.31C240.75 43.35 237.56 44.19 234.34 44.78C234.82 45.39 235.52 46.76 235.82 47.44C237.36 47.07 238.93 46.68 240.47 46.23L240.47 54.46L243.75 54.46L243.75 53.74L254.50 53.74L254.50 54.46L257.92 54.46L257.92 43.80L247.50 43.80C248.62 43.32 249.71 42.84 250.78 42.31L260.32 42.31L260.32 39.43L255.73 39.43C257.27 38.36 258.70 37.22 259.93 35.96M247.56 39.43L247.56 37.86L253.18 37.86C252.34 38.42 251.45 38.92 250.52 39.43M243.75 49.82L254.50 49.82L254.50 51.22L243.75 51.22M243.75 47.72L243.75 46.34L254.50 46.34L254.50 47.72M240.22 28.20L240.22 29.74L235.12 29.74L235.12 32.62L240.22 32.62L240.22 34.30L243.55 34.30L243.55 32.62L247.16 32.62L247.16 29.74L243.55 29.74L243.55 28.20M248.17 29.74L248.17 32.62L251.98 32.62L251.98 34.30L255.31 34.30L255.31 32.62L260.18 32.62L260.18 29.74L255.31 29.74L255.31 28.20L251.98 28.20L251.98 29.74M273.23 41.16L282.92 41.16L282.92 43.01L273.23 43.01M273.23 37.02L282.92 37.02L282.92 38.84L273.23 38.84M281.07 47.72C282.58 49.56 284.71 52.08 285.66 53.60L288.55 51.94C287.46 50.46 285.24 48.02 283.76 46.32M271.66 46.34C270.57 48.19 268.84 50.32 267.24 51.66C268.05 52.08 269.40 52.95 270.07 53.48C271.55 51.97 273.51 49.51 274.86 47.38M264.78 29.46L264.78 37.58C264.78 41.92 264.58 48.02 262.26 52.22C263.10 52.53 264.58 53.37 265.22 53.90C267.72 49.37 268.08 42.31 268.08 37.58L268.08 32.48L288.30 32.48L288.30 29.46M275.81 32.51C275.61 33.10 275.30 33.80 274.97 34.50L269.96 34.50L269.96 45.53L276.48 45.53L276.48 51.13C276.48 51.47 276.37 51.55 275.95 51.55C275.56 51.55 274.18 51.55 272.98 51.52C273.34 52.36 273.79 53.60 273.90 54.49C275.89 54.49 277.35 54.46 278.41 54.02C279.48 53.57 279.73 52.73 279.73 51.22L279.73 45.53L286.36 45.53L286.36 34.50L278.83 34.50L279.84 33.02M305.71 31.62L305.71 47.46L308.99 47.46L308.99 31.62M312.32 28.79L312.32 50.43C312.32 50.96 312.12 51.13 311.59 51.13C310.98 51.13 309.18 51.13 307.34 51.08C307.81 52.03 308.34 53.57 308.51 54.52C311.09 54.55 312.94 54.44 314.11 53.90C315.26 53.34 315.65 52.42 315.65 50.43L315.65 28.79M293.92 47.72C293.17 49.51 291.77 51.38 290.31 52.59C291.10 53.01 292.50 53.99 293.11 54.58C294.62 53.15 296.25 50.85 297.23 48.64M298.49 48.95C299.72 50.52 300.98 52.64 301.48 54.07L304.56 52.62C303.98 51.22 302.69 49.23 301.43 47.74M295.27 37.22L300.25 37.22L300.25 39.54L295.27 39.54M295.27 42.17L300.25 42.17L300.25 44.50L295.27 44.50M295.27 32.29L300.25 32.29L300.25 34.56L295.27 34.56M292.10 29.29L292.10 47.49L303.58 47.49L303.58 29.29" fill="#2c2416" aria-label="2027 年 3 月穿著原則"/>
  <path d="M50.84 78.16C52.56 78.16 53.27 76.94 53.27 75.42L53.27 69.20L52.15 69.20L52.15 75.31C52.15 76.64 51.68 77.18 50.74 77.18C50.10 77.18 49.61 76.90 49.21 76.19L48.42 76.76C48.94 77.68 49.73 78.16 50.84 78.16M58.16 78.16C59.04 78.16 59.74 77.87 60.30 77.50L59.92 76.76C59.42 77.09 58.92 77.28 58.28 77.28C57.05 77.28 56.20 76.39 56.12 75L60.52 75C60.54 74.83 60.56 74.62 60.56 74.38C60.56 72.52 59.63 71.32 57.96 71.32C56.47 71.32 55.04 72.62 55.04 74.75C55.04 76.90 56.42 78.16 58.16 78.16M56.11 74.22C56.24 72.92 57.06 72.19 57.98 72.19C59 72.19 59.60 72.90 59.60 74.22M62.17 78L63.28 78L63.28 73.81C63.71 72.71 64.37 72.30 64.91 72.30C65.18 72.30 65.33 72.34 65.54 72.41L65.75 71.46C65.54 71.35 65.34 71.32 65.05 71.32C64.33 71.32 63.66 71.84 63.20 72.67L63.18 72.67L63.07 71.48L62.17 71.48M66.83 78L67.93 78L67.93 73.81C68.36 72.71 69.02 72.30 69.56 72.30C69.84 72.30 69.98 72.34 70.20 72.41L70.40 71.46C70.20 71.35 70 71.32 69.71 71.32C68.99 71.32 68.32 71.84 67.86 72.67L67.84 72.67L67.73 71.48L66.83 71.48M71.94 80.81C73.24 80.81 73.92 79.82 74.38 78.55L76.82 71.48L75.76 71.48L74.58 75.10C74.41 75.68 74.22 76.34 74.05 76.94L73.99 76.94C73.76 76.33 73.55 75.67 73.34 75.10L72.02 71.48L70.88 71.48L73.50 78.01L73.36 78.50C73.08 79.31 72.62 79.91 71.89 79.91C71.71 79.91 71.52 79.85 71.39 79.80L71.17 80.68C71.38 80.76 71.64 80.81 71.94 80.81M82.78 78.16C83.81 78.16 84.64 77.76 85.31 77.15C86.03 77.65 86.71 78 87.34 78.16L87.62 77.24C87.13 77.11 86.57 76.82 85.98 76.40C86.68 75.49 87.18 74.42 87.52 73.26L86.50 73.26C86.22 74.27 85.80 75.13 85.26 75.85C84.43 75.17 83.60 74.29 83.03 73.38C84.01 72.67 85.01 71.93 85.01 70.78C85.01 69.76 84.37 69.05 83.28 69.05C82.07 69.05 81.26 69.95 81.26 71.11C81.26 71.75 81.48 72.46 81.84 73.18C80.93 73.80 80.10 74.53 80.10 75.72C80.10 77.14 81.19 78.16 82.78 78.16M84.59 76.57C84.08 77 83.51 77.28 82.91 77.28C81.92 77.28 81.17 76.64 81.17 75.66C81.17 74.98 81.66 74.44 82.28 73.94C82.90 74.89 83.72 75.82 84.59 76.57M82.62 72.66C82.36 72.12 82.20 71.58 82.20 71.10C82.20 70.38 82.62 69.82 83.29 69.82C83.88 69.82 84.12 70.28 84.12 70.80C84.12 71.58 83.42 72.11 82.62 72.66M91.73 78L92.77 78L92.77 73.38C92.77 72.46 92.69 71.52 92.64 70.63L92.69 70.63L93.64 72.44L96.84 78L97.98 78L97.98 69.20L96.92 69.20L96.92 73.78C96.92 74.69 97.01 75.68 97.08 76.56L97.02 76.56L96.07 74.75L92.86 69.20L91.73 69.20M100.30 78L101.40 78L101.40 71.48L100.30 71.48M100.85 70.14C101.28 70.14 101.58 69.85 101.58 69.41C101.58 68.99 101.28 68.70 100.85 68.70C100.42 68.70 100.13 68.99 100.13 69.41C100.13 69.85 100.42 70.14 100.85 70.14M103.60 78L104.68 78L104.68 76.28L105.90 74.86L107.81 78L109 78L106.54 74.11L108.71 71.48L107.48 71.48L104.72 74.92L104.68 74.92L104.68 68.45L103.60 68.45M110.22 78L111.32 78L111.32 71.48L110.22 71.48M110.77 70.14C111.20 70.14 111.50 69.85 111.50 69.41C111.50 68.99 111.20 68.70 110.77 68.70C110.34 68.70 110.05 68.99 110.05 69.41C110.05 69.85 110.34 70.14 110.77 70.14M115.56 78.16C115.97 78.16 116.40 78.04 116.77 77.92L116.56 77.09C116.34 77.18 116.05 77.27 115.81 77.27C115.06 77.27 114.80 76.81 114.80 76.02L114.80 72.37L116.58 72.37L116.58 71.48L114.80 71.48L114.80 69.65L113.89 69.65L113.77 71.48L112.74 71.54L112.74 72.37L113.71 72.37L113.71 75.98C113.71 77.29 114.18 78.16 115.56 78.16M119.26 78.16C120.06 78.16 120.79 77.74 121.42 77.22L121.45 77.22L121.55 78L122.45 78L122.45 73.99C122.45 72.37 121.79 71.32 120.19 71.32C119.14 71.32 118.22 71.78 117.64 72.17L118.06 72.92C118.57 72.58 119.26 72.23 120.01 72.23C121.08 72.23 121.36 73.03 121.36 73.87C118.58 74.18 117.36 74.89 117.36 76.31C117.36 77.48 118.16 78.16 119.26 78.16M119.57 77.27C118.92 77.27 118.42 76.98 118.42 76.24C118.42 75.40 119.16 74.86 121.36 74.60L121.36 76.42C120.72 76.98 120.19 77.27 119.57 77.27M132.10 72.17C131.39 72.17 130.82 72.73 130.82 73.44C130.82 74.15 131.39 74.71 132.10 74.71C132.80 74.71 133.37 74.15 133.37 73.44C133.37 72.73 132.80 72.17 132.10 72.17M143.75 70.50L143.75 71.21L150.94 71.21L150.94 70.50M142.55 73.38C142.94 73.85 143.33 74.50 143.47 74.92L144.20 74.60C144.05 74.17 143.64 73.55 143.23 73.09M147.58 73.10C147.32 73.60 146.84 74.30 146.47 74.75L147.06 75.01C147.44 74.59 147.95 73.97 148.38 73.40M143.95 76.16C143.44 76.99 142.44 77.84 141.55 78.25C141.74 78.41 142 78.71 142.13 78.90C143.04 78.40 144.07 77.39 144.64 76.44M146.32 76.67C147.10 77.27 148.08 78.12 148.55 78.68L149.11 78.12C148.63 77.58 147.64 76.75 146.84 76.18M143.96 67.91C143.39 69.29 142.39 70.58 141.28 71.41C141.47 71.58 141.80 71.94 141.94 72.11C142.68 71.51 143.40 70.68 144 69.74L151.85 69.74L151.85 69.04L144.42 69.04C144.58 68.75 144.72 68.46 144.85 68.16M142.51 71.99L142.51 72.71L149.41 72.71C149.44 76.61 149.62 78.95 151.30 78.95C152.05 78.95 152.23 78.42 152.32 76.85C152.12 76.73 151.86 76.51 151.69 76.31C151.66 77.35 151.60 78.07 151.36 78.07C150.40 78.07 150.29 75.72 150.31 71.99M144.97 72.97L144.97 75.07L141.73 75.07L141.73 75.79L144.97 75.79L144.97 78.95L145.82 78.95L145.82 75.79L148.98 75.79L148.98 75.07L145.82 75.07L145.82 72.97M156.35 70.56L156.35 76.62L157.15 76.62L157.15 70.56M161.28 76.49C162.12 77.26 163.22 78.29 163.76 78.91L164.42 78.36C163.85 77.76 162.73 76.75 161.92 76.03M157.64 75.04L157.64 75.82L160.33 75.82C160.08 76.69 159.34 77.64 157.25 78.31C157.45 78.49 157.70 78.79 157.82 78.98C160.18 78.12 160.99 76.93 161.24 75.82L164.26 75.82L164.26 75.04L161.35 75.04L161.35 74.80L161.35 73.46L163.86 73.46L163.86 72.70L159.53 72.70C159.65 72.38 159.77 72.07 159.86 71.75L159.05 71.56C158.74 72.60 158.21 73.63 157.55 74.32C157.75 74.42 158.10 74.65 158.27 74.78C158.58 74.42 158.89 73.97 159.16 73.46L160.46 73.46L160.46 74.78L160.46 75.04M158.29 68.50L158.29 69.26L162.20 69.26C162.13 69.71 162.06 70.24 161.96 70.70L157.62 70.70L157.62 71.48L164.26 71.48L164.26 70.70L162.84 70.70C162.96 70.02 163.07 69.23 163.15 68.53L162.53 68.46L162.38 68.50M155.54 67.99C155.02 69.84 154.16 71.68 153.18 72.90C153.34 73.12 153.59 73.60 153.66 73.81C153.96 73.44 154.25 73.01 154.52 72.54L154.52 78.97L155.38 78.97L155.38 70.91C155.77 70.04 156.11 69.13 156.38 68.22M172.36 67.92C172.02 69.91 171.41 71.83 170.48 73.09L170.05 72.78L169.88 72.83L168.12 72.83C168.42 72.55 168.71 72.25 168.97 71.94L171.08 71.94L171.08 71.15L169.61 71.15C170.21 70.33 170.72 69.43 171.13 68.45L170.30 68.20C170.05 68.80 169.76 69.37 169.43 69.91L169.43 69.18L168.19 69.18L168.19 67.92L167.35 67.92L167.35 69.18L165.77 69.18L165.77 69.96L167.35 69.96L167.35 71.15L165.26 71.15L165.26 71.94L167.82 71.94C167.04 72.71 166.15 73.36 165.18 73.86C165.37 74.03 165.70 74.38 165.83 74.54C166.33 74.26 166.81 73.92 167.28 73.56L169.18 73.56C168.77 73.96 168.25 74.36 167.80 74.64L167.80 75.46L165.28 75.77L165.40 76.60L167.80 76.27L167.80 77.99C167.80 78.13 167.76 78.17 167.59 78.17C167.42 78.18 166.92 78.19 166.32 78.17C166.45 78.40 166.57 78.72 166.61 78.95C167.38 78.95 167.90 78.95 168.23 78.82C168.55 78.68 168.65 78.46 168.65 78.01L168.65 76.15L171.04 75.82L171.02 75.04L168.65 75.35L168.65 74.86C169.28 74.42 169.97 73.85 170.48 73.27C170.69 73.42 171 73.69 171.13 73.82C171.43 73.42 171.71 72.94 171.95 72.42C172.22 73.66 172.57 74.78 173.04 75.77C172.36 76.80 171.43 77.60 170.17 78.19C170.34 78.38 170.62 78.78 170.71 79C171.89 78.38 172.81 77.62 173.52 76.66C174.11 77.62 174.84 78.40 175.76 78.94C175.91 78.70 176.20 78.35 176.41 78.17C175.44 77.65 174.67 76.84 174.07 75.80C174.79 74.51 175.25 72.92 175.55 70.99L176.32 70.99L176.32 70.15L172.78 70.15C172.97 69.48 173.14 68.78 173.27 68.06M168.19 69.96L169.40 69.96C169.14 70.38 168.85 70.78 168.54 71.15L168.19 71.15M172.52 70.99L174.61 70.99C174.40 72.48 174.07 73.74 173.58 74.81C173.09 73.68 172.75 72.38 172.52 70.99M182.46 75.32L182.46 75.84L177.42 75.84L177.42 76.61L182.46 76.61L182.46 77.98C182.46 78.13 182.41 78.18 182.22 78.18C182.03 78.19 181.34 78.19 180.60 78.17C180.72 78.40 180.86 78.70 180.91 78.92C181.87 78.92 182.47 78.94 182.86 78.82C183.24 78.68 183.34 78.47 183.34 78L183.34 76.61L188.16 76.61L188.16 75.84L183.34 75.84L183.34 75.64C184.30 75.25 185.32 74.71 186.05 74.15L185.52 73.68L185.33 73.73L179.65 73.73L179.65 74.41L184.37 74.41C183.79 74.76 183.08 75.10 182.46 75.32M178.40 68.62L178.64 72.22L177.68 72.22L177.68 74.41L178.55 74.41L178.55 72.91L187.03 72.91L187.03 74.41L187.93 74.41L187.93 72.22L186.98 72.22C187.09 71.15 187.20 69.59 187.26 68.38L184.45 68.38L184.45 69L186.37 69L186.34 69.65L184.51 69.65L184.51 70.27L186.29 70.27L186.24 70.93L184.45 70.93L184.45 71.54L186.19 71.54L186.12 72.22L179.48 72.22L179.45 71.54L181.13 71.54L181.13 70.93L179.41 70.93L179.36 70.27L181.07 70.27L181.07 69.65L179.33 69.65L179.29 69.04C179.92 68.93 180.62 68.78 181.15 68.58L180.74 68.03C180.13 68.21 179.10 68.50 178.40 68.62M181.42 70.58C181.70 70.73 182 70.90 182.29 71.08C181.93 71.33 181.54 71.56 181.15 71.74C181.30 71.84 181.55 72.10 181.66 72.22C182.05 72 182.46 71.74 182.84 71.42C183.19 71.68 183.50 71.92 183.72 72.12L184.20 71.68C183.98 71.47 183.67 71.24 183.32 71.02C183.60 70.76 183.84 70.51 184.03 70.25L183.40 70.06C183.23 70.27 183.02 70.49 182.80 70.68C182.48 70.50 182.16 70.33 181.87 70.20M181.45 68.58C181.73 68.70 182.02 68.86 182.30 69.01C181.97 69.25 181.60 69.47 181.24 69.65C181.39 69.74 181.64 69.97 181.75 70.08C182.11 69.89 182.50 69.64 182.86 69.35C183.19 69.56 183.49 69.78 183.70 69.97L184.16 69.53C183.95 69.35 183.66 69.14 183.34 68.94C183.59 68.71 183.82 68.46 184 68.21L183.36 68.03C183.20 68.23 183.01 68.44 182.80 68.63C182.50 68.46 182.18 68.30 181.91 68.17M195.04 67.44L194.53 67.44L194.53 79.44L195.04 79.44M202.34 73.50C202.13 74.58 201.61 75.91 201.11 76.61C201.25 76.85 201.44 77.23 201.53 77.50C202.15 76.66 202.68 75 202.94 73.70M204.52 73.51L204.02 73.86C204.28 74.32 204.91 75.76 205.10 76.34L205.74 75.67C205.56 75.31 204.74 73.84 204.52 73.51M201.37 68.87C201.62 69.68 201.90 70.75 202.01 71.44L202.70 71.26C202.58 70.57 202.31 69.53 202.02 68.71M204.90 68.71C204.72 69.48 204.37 70.61 204.07 71.29L204.67 71.51C204.97 70.87 205.37 69.83 205.68 68.98M201.30 71.95L201.30 72.79L203.08 72.79L203.08 78.96L203.88 78.96L203.88 72.79L205.37 72.79L205.37 71.95L203.88 71.95L203.88 67.93L203.08 67.93L203.08 71.95M208.46 67.92L208.46 68.89L205.74 68.89L205.74 69.59L208.46 69.59L208.46 70.33L206.04 70.33L206.04 70.99L208.46 70.99L208.46 71.80L205.60 71.80L205.60 72.49L212.30 72.49L212.30 71.80L209.33 71.80L209.33 70.99L211.97 70.99L211.97 70.33L209.33 70.33L209.33 69.59L212.20 69.59L212.20 68.89L209.33 68.89L209.33 67.92M210.77 75.46L210.77 76.36L207.10 76.36C207.12 76.04 207.13 75.73 207.13 75.46M210.77 74.81L207.13 74.81L207.13 73.92L210.77 73.92M206.30 73.21L206.30 75.42C206.30 76.39 206.23 77.60 205.51 78.52C205.69 78.61 206.02 78.94 206.14 79.10C206.63 78.52 206.88 77.75 207.01 76.99L210.77 76.99L210.77 78.02C210.77 78.16 210.73 78.20 210.58 78.20C210.42 78.20 209.93 78.20 209.38 78.19C209.50 78.41 209.60 78.72 209.64 78.94C210.40 78.94 210.89 78.94 211.21 78.80C211.52 78.68 211.61 78.46 211.61 78.02L211.61 73.21M221.15 74.42L221.15 75.70L219.36 75.70L219.36 74.42M213.42 68.76L213.42 69.59L214.85 69.59C214.54 71.58 214 73.44 213.11 74.66C213.28 74.86 213.55 75.26 213.64 75.46C213.86 75.14 214.07 74.80 214.26 74.42L214.26 78.36L215.04 78.36L215.04 77.38L217.16 77.38L217.16 73.18C217.34 73.37 217.58 73.72 217.68 73.88C217.97 73.67 218.24 73.44 218.51 73.19L218.51 78.96L219.36 78.96L219.36 78.43L224.23 78.43L224.23 77.66L221.99 77.66L221.99 76.40L223.74 76.40L223.74 75.70L221.99 75.70L221.99 74.42L223.74 74.42L223.74 73.73L221.99 73.73L221.99 72.50L223.88 72.50L223.88 71.72L222.22 71.72C222.06 71.32 221.80 70.75 221.53 70.32L220.79 70.63C220.97 70.96 221.15 71.36 221.30 71.72L219.76 71.72C220.14 71.17 220.48 70.57 220.76 69.92L223.16 69.92L223.16 71.18L223.99 71.18L223.99 69.14L221.10 69.14C221.23 68.80 221.35 68.45 221.46 68.08L220.61 67.90C220.49 68.33 220.34 68.75 220.18 69.14L217.63 69.14L217.63 71.21L218.41 71.21L218.41 69.92L219.82 69.92C219.16 71.24 218.27 72.35 217.16 73.12L217.16 72.26L215.10 72.26C215.35 71.42 215.54 70.52 215.71 69.59L217.36 69.59L217.36 68.76M221.15 73.73L219.36 73.73L219.36 72.50L221.15 72.50M221.15 76.40L221.15 77.66L219.36 77.66L219.36 76.40M215.04 73.07L216.37 73.07L216.37 76.58L215.04 76.58M231.44 72.94L234.96 72.94L234.96 74.11L231.44 74.11M231.44 74.78L234.96 74.78L234.96 75.97L231.44 75.97M231.44 71.11L234.96 71.11L234.96 72.26L231.44 72.26M231.80 76.88C231.29 77.42 230.20 78.05 229.24 78.40C229.43 78.54 229.70 78.83 229.85 79C230.81 78.64 231.94 77.99 232.58 77.35M233.66 77.41C234.40 77.87 235.32 78.55 235.76 79L236.48 78.48C236 78.02 235.07 77.38 234.34 76.94M225.84 70.60C226.68 71.05 227.68 71.74 228.30 72.31L225.24 72.31L225.24 73.13L227.22 73.13L227.22 77.88C227.22 78.04 227.17 78.07 226.99 78.08C226.82 78.08 226.27 78.08 225.65 78.07C225.78 78.32 225.90 78.68 225.94 78.94C226.76 78.94 227.30 78.92 227.64 78.78C227.99 78.64 228.08 78.38 228.08 77.90L228.08 73.13L229.36 73.13C229.15 73.78 228.91 74.44 228.70 74.88L229.38 75.06C229.70 74.41 230.08 73.36 230.39 72.43L229.82 72.28L229.69 72.31L228.83 72.31L229.12 71.94C228.88 71.70 228.55 71.42 228.17 71.15C228.84 70.51 229.56 69.65 230.05 68.84L229.49 68.45L229.32 68.50L225.49 68.50L225.49 69.30L228.73 69.30C228.38 69.79 227.95 70.32 227.53 70.72C227.12 70.45 226.70 70.21 226.32 70.01M230.60 70.40L230.60 76.67L235.82 76.67L235.82 70.40L233.32 70.40L233.66 69.26L236.23 69.26L236.23 68.48L230.14 68.48L230.14 69.26L232.66 69.26C232.60 69.64 232.51 70.04 232.43 70.40M243.86 73.30L243.96 73.30C244.33 74.52 244.84 75.67 245.48 76.63C245.03 77.26 244.49 77.81 243.86 78.23M243.02 68.47L243.02 78.94L243.86 78.94L243.86 78.55C244.01 78.68 244.16 78.85 244.26 78.98C244.93 78.55 245.52 77.99 246.02 77.35C246.54 77.98 247.14 78.50 247.81 78.89C247.96 78.65 248.23 78.32 248.44 78.14C247.72 77.80 247.08 77.27 246.53 76.62C247.24 75.48 247.73 74.14 247.99 72.72L247.43 72.52L247.27 72.55L243.86 72.55L243.86 69.29L246.86 69.29L246.86 70.79C246.86 70.92 246.83 70.96 246.62 70.97C246.44 70.98 245.82 70.98 245.06 70.96C245.18 71.20 245.30 71.51 245.34 71.75C246.28 71.75 246.88 71.75 247.25 71.62C247.62 71.48 247.70 71.23 247.70 70.79L247.70 68.47M244.73 73.30L247.01 73.30C246.79 74.20 246.44 75.08 245.98 75.89C245.45 75.12 245.03 74.23 244.73 73.30M239.60 67.93L239.60 69.16L237.71 69.16L237.71 69.92L239.60 69.92L239.60 71.14L237.35 71.14L237.35 71.92L242.57 71.92L242.57 71.14L240.44 71.14L240.44 69.92L242.27 69.92L242.27 69.16L240.44 69.16L240.44 67.93M238.16 72.17C238.40 72.62 238.64 73.22 238.73 73.62L237.61 73.62L237.61 74.40L239.60 74.40L239.60 75.72L237.35 75.72L237.35 76.50L239.60 76.50L239.60 78.91L240.44 78.91L240.44 76.50L242.59 76.50L242.59 75.72L240.44 75.72L240.44 74.40L242.35 74.40L242.35 73.62L241.15 73.62C241.42 73.16 241.69 72.64 241.96 72.13L241.18 71.92C240.98 72.41 240.65 73.10 240.35 73.62L238.85 73.62L239.45 73.42C239.36 73.02 239.10 72.42 238.82 71.96M253.16 69.80C253.92 70.69 254.70 71.93 255.01 72.76L255.88 72.30C255.54 71.47 254.76 70.30 253.97 69.42M250.67 68.57L250.87 76.04C250.25 76.31 249.68 76.54 249.22 76.72L249.54 77.65C250.86 77.08 252.70 76.27 254.36 75.52L254.16 74.64L251.78 75.66L251.59 68.53M258.07 68.53C257.54 73.76 256.27 76.69 252.12 78.22C252.34 78.41 252.71 78.79 252.84 79C254.72 78.20 256.04 77.16 256.98 75.73C258 76.81 259.12 78.08 259.67 78.92L260.44 78.22C259.81 77.33 258.54 75.98 257.47 74.89C258.30 73.27 258.77 71.22 259.06 68.63M266.51 78L267.62 78L267.62 70.14L270.29 70.14L270.29 69.20L263.84 69.20L263.84 70.14L266.51 70.14M270.24 75.06L273.31 75.06L273.31 74.22L270.24 74.22M276.23 78L277.37 78C277.51 74.56 277.88 72.50 279.95 69.86L279.95 69.20L274.44 69.20L274.44 70.14L278.71 70.14C276.98 72.54 276.38 74.66 276.23 78M290.86 75.76C291.22 76.25 291.59 76.94 291.73 77.39L292.39 77.11C292.25 76.68 291.86 76 291.48 75.52M285.66 68.28C286.13 68.78 286.63 69.48 286.85 69.95L287.68 69.56C287.44 69.11 286.91 68.42 286.45 67.96M287.29 76.04C287.51 76.82 287.64 77.82 287.60 78.47L288.40 78.35C288.40 77.70 288.28 76.72 288.04 75.95M289.07 75.94C289.36 76.61 289.64 77.48 289.73 78.05L290.48 77.84C290.38 77.29 290.09 76.43 289.76 75.78M285.76 75.78C285.53 76.70 285.06 77.77 284.40 78.41L285.10 78.89C285.82 78.17 286.24 77.02 286.51 76.02M289.30 67.91C289.09 68.60 288.84 69.30 288.54 69.97L284.18 69.97L284.18 70.80L288.14 70.80C287.11 72.82 285.60 74.63 283.56 75.79C283.72 75.98 283.94 76.33 284.05 76.55C284.76 76.13 285.41 75.65 286 75.11L293.46 75.11C293.27 77.02 293.08 77.82 292.81 78.06C292.70 78.17 292.58 78.18 292.37 78.18C292.14 78.19 291.56 78.18 290.95 78.12C291.10 78.36 291.20 78.71 291.22 78.95C291.84 78.98 292.43 78.98 292.74 78.96C293.10 78.94 293.33 78.86 293.56 78.62C293.94 78.24 294.16 77.23 294.38 74.70C294.40 74.58 294.42 74.32 294.42 74.32L293.11 74.32C293.27 73.69 293.44 72.85 293.57 72.14L292.20 72.14C292.36 71.52 292.54 70.69 292.67 69.97L289.52 69.97C289.78 69.37 290 68.76 290.21 68.14M286.79 74.32C287.18 73.88 287.56 73.42 287.89 72.94L292.58 72.94C292.50 73.42 292.38 73.91 292.27 74.32M289.14 70.80L291.67 70.80C291.58 71.28 291.47 71.76 291.36 72.14L288.41 72.14C288.67 71.71 288.91 71.26 289.14 70.80M296.58 68.60C297.23 68.87 298.07 69.29 298.50 69.60L298.97 68.89C298.54 68.60 297.70 68.21 297.04 67.98M295.68 70.64C296.33 70.88 297.17 71.29 297.59 71.57L298.04 70.87C297.61 70.60 296.76 70.24 296.12 70.02M296 74.46L296.63 75.16C297.37 74.38 298.18 73.44 298.86 72.60L298.37 72C297.60 72.90 296.65 73.88 296 74.46M300.71 74.92L300.71 75.78L295.84 75.78L295.84 76.61L300.71 76.61L300.71 78.97L301.63 78.97L301.63 76.61L306.61 76.61L306.61 75.78L301.63 75.78L301.63 74.92M302.17 68.21C302.33 68.51 302.51 68.88 302.64 69.20L300.71 69.20C300.92 68.84 301.13 68.48 301.30 68.11L300.44 67.85C299.92 69.05 299.03 70.22 298.07 70.99C298.28 71.11 298.64 71.40 298.79 71.56C299.03 71.34 299.27 71.10 299.50 70.84L299.50 75.12L300.37 75.12L300.37 74.59L306.28 74.59L306.28 73.85L303.41 73.85L303.41 72.94L305.72 72.94L305.72 72.31L303.41 72.31L303.41 71.42L305.70 71.42L305.70 70.81L303.41 70.81L303.41 69.92L306.08 69.92L306.08 69.20L303.65 69.20C303.49 68.84 303.25 68.35 303.04 67.98M302.56 73.85L300.37 73.85L300.37 72.94L302.56 72.94M302.56 71.42L302.56 72.31L300.37 72.31L300.37 71.42M302.56 70.81L300.37 70.81L300.37 69.92" fill="#2c2416" aria-label="Jerry &amp; Nikita · 氣候教學｜精確預報以 T-7 為準"/>
  <rect class="card" x="60" y="120" width="340" height="420" rx="8"/>
  <path d="M100.58 161.86L100.58 165.86C99.04 165.01 98.10 163.62 97.54 161.86M92.43 157.06L92.43 158.74L95.14 158.74L95.26 159.98L89.57 159.98L89.57 171.44L91.52 171.44L91.52 166.64C91.86 167.01 92.21 167.47 92.38 167.79C94.19 166.83 95.33 165.34 96.05 163.34C96.72 165.18 97.81 166.69 99.49 167.68C99.73 167.28 100.19 166.70 100.58 166.30L100.58 169.18C100.58 169.42 100.48 169.52 100.19 169.52C99.89 169.52 98.82 169.52 97.92 169.49C98.19 170 98.50 170.88 98.58 171.42C99.97 171.42 100.96 171.41 101.66 171.10C102.34 170.78 102.54 170.24 102.54 169.20L102.54 159.98L97.10 159.98C96.94 159.07 96.85 158.08 96.82 157.06M91.52 166.03L91.52 161.86L94.62 161.86C94.08 163.73 93.09 165.15 91.52 166.03M110.26 163.33C110.62 163.79 110.99 164.43 111.14 164.85L112.32 164.19C112.16 163.78 111.76 163.17 111.38 162.74M115.25 162.70C115.02 163.15 114.58 163.84 114.26 164.24L115.31 164.83C115.65 164.46 116.06 163.90 116.45 163.33M108.02 158.50L116.51 158.50L116.51 159.34L108.02 159.34M108.37 161.63L108.37 165.95L118.45 165.95L118.45 161.63L116.54 161.63L117.02 161.07L115.97 160.80L118.45 160.80L118.45 157.02L106.08 157.02L106.08 161.74C106.08 164.30 105.97 167.90 104.38 170.35C104.88 170.54 105.73 171.02 106.10 171.34C107.76 168.70 108.02 164.54 108.02 161.74L108.02 160.80L110.78 160.80L109.95 161.07C110.08 161.23 110.22 161.44 110.34 161.63M111.58 160.80L115.26 160.80C115.12 161.06 114.91 161.36 114.72 161.63L112.13 161.63C112 161.36 111.81 161.06 111.58 160.80M110.88 169.22L115.95 169.22L115.95 169.82L110.88 169.82M110.88 168.19L110.88 167.62L115.95 167.62L115.95 168.19M109.04 166.45L109.04 171.44L110.88 171.44L110.88 170.98L115.95 170.98L115.95 171.44L117.90 171.44L117.90 166.45M110.14 162.67L112.46 162.67L112.46 164.91L110.14 164.91M114.22 162.67L116.58 162.67L116.58 164.91L114.22 164.91" fill="#2c2416" aria-label="內層"/>
  <path d="M89.08 199.51C89.61 200.16 90.29 201.06 90.61 201.62L91.38 201.11C91.06 200.56 90.39 199.73 89.82 199.08M99.06 199.29C97.57 199.63 94.80 199.85 92.50 199.95C92.59 200.13 92.69 200.44 92.72 200.65C93.68 200.63 94.73 200.56 95.76 200.48L95.76 201.49L92.16 201.49L92.16 202.25L95.14 202.25C94.31 203.10 93 203.88 91.85 204.25C92.06 204.42 92.32 204.74 92.45 204.96C93.60 204.50 94.89 203.63 95.76 202.68L95.76 204.45L96.70 204.45L96.70 202.25L100.26 202.25L100.26 201.49L96.70 201.49L96.70 200.39C97.83 200.29 98.88 200.13 99.71 199.95M96.88 202.82C98 203.46 99.19 204.25 99.91 204.88L100.53 204.27C99.78 203.66 98.54 202.88 97.39 202.25M93.27 204.76L93.27 205.51L94.63 205.51C94.42 206.88 93.88 207.89 92.26 208.45C92.45 208.62 92.71 208.96 92.80 209.18C94.66 208.48 95.29 207.22 95.54 205.51L97.13 205.51C97.02 205.93 96.92 206.35 96.80 206.69L98.92 206.69C98.80 207.66 98.69 208.09 98.52 208.25C98.43 208.34 98.31 208.35 98.09 208.35C97.87 208.35 97.26 208.34 96.63 208.28C96.76 208.50 96.85 208.82 96.87 209.04C97.52 209.09 98.14 209.09 98.45 209.06C98.80 209.05 99.05 208.99 99.26 208.78C99.54 208.50 99.70 207.84 99.86 206.32C99.87 206.19 99.88 205.96 99.88 205.96L97.87 205.96L98.14 204.76M88.79 206.31C88.90 206.20 89.23 206.11 89.56 206.11L90.82 206.11C90.42 208.14 89.56 209.57 88.39 210.39C88.58 210.52 88.91 210.86 89.05 211.05C89.68 210.59 90.24 209.94 90.69 209.09C91.72 210.57 93.37 210.83 96.01 210.83C97.44 210.83 99.09 210.81 100.31 210.73C100.36 210.47 100.48 210.01 100.64 209.81C99.30 209.94 97.39 209.99 96.02 209.99C93.56 209.97 91.91 209.78 91.07 208.31C91.39 207.50 91.65 206.56 91.81 205.48L91.37 205.31L91.20 205.32L89.85 205.32C90.57 204.44 91.52 203.08 92.04 202.32L91.41 202.02L91.26 202.08L88.60 202.08L88.60 202.90L90.64 202.90C90.09 203.71 89.35 204.74 89.05 205.03C88.83 205.28 88.62 205.37 88.43 205.42C88.53 205.62 88.73 206.07 88.79 206.31M104.21 201.88L104.21 202.64L112 202.64L112 201.88M102.91 205C103.34 205.50 103.76 206.20 103.91 206.66L104.70 206.32C104.54 205.85 104.09 205.18 103.65 204.68M108.36 204.70C108.09 205.23 107.56 206 107.16 206.48L107.80 206.76C108.22 206.31 108.76 205.63 109.23 205.02M104.43 208.01C103.87 208.91 102.79 209.83 101.83 210.27C102.04 210.44 102.31 210.77 102.46 210.97C103.44 210.43 104.56 209.34 105.17 208.31M106.99 208.56C107.84 209.21 108.90 210.13 109.41 210.74L110.02 210.13C109.50 209.54 108.42 208.65 107.56 208.02M104.44 199.07C103.82 200.56 102.74 201.97 101.53 202.86C101.74 203.04 102.11 203.44 102.25 203.62C103.05 202.97 103.83 202.07 104.48 201.06L112.99 201.06L112.99 200.29L104.94 200.29C105.11 199.98 105.26 199.66 105.41 199.34M102.87 203.49L102.87 204.27L110.35 204.27C110.37 208.49 110.57 211.03 112.39 211.03C113.21 211.03 113.40 210.46 113.49 208.75C113.28 208.62 113 208.39 112.82 208.17C112.78 209.30 112.71 210.08 112.45 210.08C111.41 210.08 111.30 207.53 111.32 203.49M105.54 204.55L105.54 206.83L102.03 206.83L102.03 207.61L105.54 207.61L105.54 211.03L106.46 211.03L106.46 207.61L109.88 207.61L109.88 206.83L106.46 206.83L106.46 204.55M116.98 199.60L116.98 205.35L114.69 205.35L114.69 206.23L116.81 206.23L116.81 209.16C116.81 209.69 116.42 209.96 116.17 210.09C116.34 210.32 116.55 210.81 116.61 211.05L116.67 211.01C116.95 210.84 117.56 210.69 121.25 209.74C121.25 209.53 121.27 209.14 121.31 208.88L117.77 209.71L117.77 206.23L119.86 206.23C120.99 208.70 123.02 210.29 126.01 210.95C126.14 210.69 126.42 210.29 126.62 210.08C125.17 209.81 123.92 209.31 122.92 208.60C123.84 208.12 124.91 207.48 125.74 206.87L124.95 206.33C124.27 206.88 123.19 207.56 122.27 208.06C121.70 207.53 121.23 206.92 120.86 206.23L126.32 206.23L126.32 205.35L117.98 205.35L117.98 204.23L124.65 204.23L124.65 203.44L117.98 203.44L117.98 202.34L124.65 202.34L124.65 201.55L117.98 201.55L117.98 200.43L125.05 200.43L125.05 199.60M128.96 199.47C129.34 200.02 129.81 200.77 130.04 201.24L130.82 200.74C130.57 200.29 130.12 199.59 129.70 199.05M133.62 206.40L135.49 206.40L135.49 209.43L133.62 209.43M133.62 205.53L133.62 202.73L135.49 202.73L135.49 205.53M138.12 206.40L138.12 209.43L136.36 209.43L136.36 206.40M138.12 205.53L136.36 205.53L136.36 202.73L138.12 202.73M135.42 199.08L135.42 201.85L132.69 201.85L132.69 211.04L133.62 211.04L133.62 210.31L138.12 210.31L138.12 210.96L139.06 210.96L139.06 201.85L136.41 201.85L136.41 199.08M127.62 201.38L127.62 202.28L130.74 202.28C129.98 203.93 128.63 205.61 127.38 206.57C127.52 206.75 127.75 207.23 127.84 207.50C128.38 207.05 128.92 206.49 129.46 205.84L129.46 211.03L130.41 211.03L130.41 205.85C130.87 206.46 131.39 207.18 131.64 207.57L132.17 206.79C132.03 206.59 131.63 206.11 131.21 205.63C131.58 205.29 132.02 204.84 132.41 204.42L131.80 203.86C131.55 204.24 131.13 204.77 130.78 205.15L130.41 204.75L130.41 204.57C131 203.68 131.52 202.71 131.90 201.73L131.37 201.34L131.22 201.38M152.17 199L140.44 210.73L140.83 211.12L152.56 199.39M160.14 201.75C161.06 202.29 162.10 203.11 162.71 203.77L159.44 203.77L159.44 204.67L161.83 204.67L161.83 209.96C161.83 210.10 161.78 210.14 161.61 210.16C161.44 210.16 160.88 210.17 160.29 210.14C160.40 210.40 160.53 210.79 160.57 211.05C161.41 211.05 161.96 211.04 162.31 210.88C162.66 210.75 162.75 210.48 162.75 209.96L162.75 204.67L164.26 204.67C164.05 205.31 163.79 205.94 163.57 206.39L164.38 206.59C164.73 205.92 165.13 204.85 165.45 203.92L164.79 203.75L164.63 203.77L163.24 203.77L163.65 203.44C163.43 203.16 163.10 202.86 162.74 202.55C163.56 201.88 164.43 200.93 165.01 200.03L164.40 199.61L164.21 199.66L159.86 199.66L159.86 200.54L163.53 200.54C163.13 201.08 162.61 201.64 162.10 202.07C161.67 201.75 161.22 201.45 160.79 201.20M153.96 204.44L153.96 205.27L156.17 205.27L156.17 206.62L154.31 206.62L154.31 210.86L155.21 210.86L155.21 210.21L158.03 210.21L158.03 210.61L158.95 210.61L158.95 206.62L157.09 206.62L157.09 205.27L159.23 205.27L159.23 204.44L157.09 204.44L157.09 203.15L158.38 203.15L158.38 202.33L154.78 202.33L154.78 203.15L156.17 203.15L156.17 204.44M155.21 209.39L155.21 207.45L158.03 207.45L158.03 209.39M156.42 199.01C155.76 200.21 154.59 201.32 153.43 202C153.59 202.23 153.84 202.69 153.92 202.90C154.83 202.28 155.78 201.39 156.52 200.42C157.43 201.09 158.46 202.02 158.97 202.63L159.54 201.86C159.01 201.25 157.97 200.39 157 199.73L157.24 199.33M167.08 199.53C167.66 200.17 168.38 201.07 168.74 201.62L169.48 201.08C169.13 200.56 168.42 199.73 167.82 199.09M175.62 200.97C175.45 201.38 175.19 201.91 174.97 202.29L172.84 202.29L173.24 202.17C173.16 201.84 172.96 201.34 172.71 200.97M173.12 199.31C173.32 199.57 173.51 199.87 173.68 200.17L170.08 200.17L170.08 200.97L172.31 200.97L171.85 201.08C172.07 201.45 172.27 201.93 172.37 202.29L170.76 202.29L170.76 209.12L171.64 209.12L171.64 203.08L173.94 203.08L173.94 203.97L171.98 203.97L171.98 204.63L173.94 204.63L173.94 205.57L172.58 205.57L172.58 208.30L173.29 208.30L173.29 207.79L176.09 207.79L176.09 205.57L174.68 205.57L174.68 204.63L176.65 204.63L176.65 203.97L174.68 203.97L174.68 203.08L176.97 203.08L176.97 208.02C176.97 208.18 176.92 208.23 176.76 208.23C176.59 208.25 176.09 208.25 175.50 208.22C175.62 208.45 175.76 208.80 175.80 209.05C176.57 209.05 177.10 209.05 177.45 208.90C177.79 208.75 177.87 208.50 177.87 208.04L177.87 202.29L175.91 202.29C176.13 201.93 176.37 201.49 176.59 201.04L176.28 200.97L178.32 200.97L178.32 200.17L174.68 200.17C174.49 199.79 174.19 199.34 173.89 199M173.29 206.19L175.36 206.19L175.36 207.17L173.29 207.17M166.79 206.31C166.90 206.20 167.24 206.11 167.57 206.11L168.99 206.11C168.56 208.15 167.63 209.60 166.36 210.40C166.56 210.53 166.88 210.87 167.01 211.07C167.68 210.62 168.28 209.99 168.76 209.18C169.78 210.59 171.41 210.84 174.01 210.84C175.44 210.84 177.08 210.82 178.28 210.74C178.34 210.47 178.47 210.01 178.61 209.81C177.28 209.92 175.37 209.99 174.01 209.99C171.64 209.97 170 209.79 169.15 208.43C169.52 207.59 169.81 206.62 169.99 205.49L169.51 205.31L169.34 205.32L167.86 205.32C168.60 204.44 169.59 203.08 170.13 202.32L169.50 202.02L169.34 202.08L166.61 202.08L166.61 202.90L168.70 202.90C168.15 203.69 167.38 204.74 167.07 205.02C166.83 205.28 166.62 205.37 166.43 205.42C166.53 205.62 166.73 206.07 166.79 206.31M182.71 199.66L182.71 200.54L185.04 200.54C185.08 201.04 185.14 201.52 185.20 201.99L180.43 201.99L180.43 211.04L181.41 211.04L181.41 202.95L184.80 202.95C184.34 205.01 183.29 206.40 181.52 207.27C181.73 207.44 182.06 207.82 182.19 208.04C183.93 207.14 184.99 205.70 185.55 203.71C186.11 205.66 187.13 207.11 188.83 207.97C188.98 207.71 189.31 207.32 189.53 207.13C187.81 206.39 186.84 204.96 186.33 202.95L189.67 202.95L189.67 209.77C189.67 209.96 189.61 210.04 189.37 210.04C189.13 210.05 188.29 210.06 187.44 210.03C187.59 210.31 187.75 210.75 187.79 211.03C188.88 211.03 189.63 211.03 190.09 210.86C190.52 210.70 190.65 210.39 190.65 209.77L190.65 201.99L186.12 201.99C186.01 201.28 185.93 200.50 185.89 199.66M197.85 199.11L197.85 200.31L196.37 200.31L196.37 201.17L197.85 201.17L197.85 202.54L198.73 202.54L198.73 201.17L200.14 201.17L200.14 200.31L198.73 200.31L198.73 199.11M194.22 199.09L194.22 201.71L192.64 201.71L192.64 202.62L194.22 202.62L194.22 205.31C193.61 205.57 193.04 205.79 192.59 205.96L192.86 206.92L194.22 206.32L194.22 209.82C194.22 210 194.16 210.05 194 210.05C193.85 210.06 193.34 210.06 192.78 210.05C192.91 210.32 193.03 210.74 193.05 210.99C193.88 211 194.39 210.96 194.72 210.79C195.04 210.64 195.17 210.36 195.17 209.82L195.17 205.91L196.25 205.41C196.42 205.63 196.63 205.98 196.72 206.15C197.26 205.84 197.84 205.48 198.38 205.05L198.38 205.75L202.39 205.75L202.39 205C202.97 205.38 203.56 205.75 204.10 206.03C204.18 205.79 204.36 205.37 204.53 205.14C203.25 204.59 201.65 203.58 200.76 202.64L200.94 202.37L200.18 202.02C199.29 203.34 197.76 204.53 196.29 205.27L196.15 204.49L195.17 204.90L195.17 202.62L196.37 202.62L196.37 201.71L195.17 201.71L195.17 199.09M202.28 204.92L198.55 204.92C199.18 204.42 199.76 203.86 200.27 203.27C200.83 203.82 201.54 204.40 202.28 204.92M197.49 206.79L197.49 211.01L198.40 211.01L198.40 210.55L202.41 210.55L202.41 211.01L203.36 211.01L203.36 206.79M198.40 209.71L198.40 207.61L202.41 207.61L202.41 209.71M200.49 200.31L200.49 201.17L201.88 201.17L201.88 202.54L202.78 202.54L202.78 201.17L204.32 201.17L204.32 200.31L202.78 200.31L202.78 199.11L201.88 199.11L201.88 200.31" fill="#2c2416" aria-label="透氣長袖／舒適內搭"/>
  <path d="M95.70 234.06L98.83 234.06L98.83 235.37L95.70 235.37M89.90 234.93L92.64 234.93L92.64 235.96L89.90 235.96M89.90 233.20L92.64 233.20L92.64 234.19L89.90 234.19M98.58 231.97L96.70 231.97L96.85 230.90L98.58 230.90M96.13 229.08L96.02 230.13L94.51 230.13L94.51 230.90L95.94 230.90L95.80 231.97L93.84 231.97L93.84 232.76L100.45 232.76L100.45 231.97L99.45 231.97L99.45 230.13L96.94 230.13L97.03 229.16M94.25 236.80L94.25 237.58L95.12 237.58C94.97 238.28 94.79 239.08 94.62 239.62L97.22 239.62L97.22 241.03L98.13 241.03L98.13 239.62L100.45 239.62L100.45 238.84L98.13 238.84L98.13 237.58L100.17 237.58L100.17 236.80L98.13 236.80L98.13 236.05L99.77 236.05L99.77 233.36L94.77 233.36L94.77 236.05L97.22 236.05L97.22 236.80M97.22 237.58L97.22 238.84L95.71 238.84L95.98 237.58M88.55 237.83L88.55 238.71L90.78 238.71L90.78 241.03L91.73 241.03L91.73 238.71L93.92 238.71L93.92 237.83L91.73 237.83L91.73 236.72L93.54 236.72L93.54 232.41L91.73 232.41L91.73 231.32L93.80 231.32L93.80 230.44L91.73 230.44L91.73 229.05L90.78 229.05L90.78 230.44L88.68 230.44L88.68 231.32L90.78 231.32L90.78 232.41L89.03 232.41L89.03 236.72L90.78 236.72L90.78 237.83M102.40 229.56L102.40 234.23C102.40 236.15 102.33 238.76 101.44 240.60C101.68 240.68 102.07 240.90 102.23 241.05C102.83 239.82 103.09 238.18 103.21 236.63L105.28 236.63L105.28 239.86C105.28 240.05 105.20 240.10 105.03 240.10C104.86 240.12 104.31 240.12 103.72 240.10C103.85 240.36 103.96 240.79 103.99 241.04C104.87 241.04 105.39 241.03 105.73 240.86C106.07 240.70 106.19 240.40 106.19 239.87L106.19 229.56M103.29 230.47L105.28 230.47L105.28 232.60L103.29 232.60M103.29 233.51L105.28 233.51L105.28 235.71L103.26 235.71C103.28 235.19 103.29 234.68 103.29 234.23M112.15 234.92C111.87 236.01 111.41 237 110.85 237.84C110.24 236.97 109.78 235.98 109.42 234.92M107.33 229.60L107.33 241.04L108.25 241.04L108.25 234.92L108.58 234.92C109 236.27 109.57 237.52 110.31 238.57C109.71 239.30 109.02 239.86 108.31 240.25C108.51 240.42 108.77 240.74 108.88 240.96C109.59 240.55 110.27 239.99 110.87 239.30C111.48 240.03 112.18 240.62 112.97 241.05C113.13 240.82 113.40 240.48 113.61 240.30C112.79 239.91 112.06 239.31 111.43 238.58C112.25 237.43 112.88 235.96 113.23 234.19L112.66 233.98L112.49 234.02L108.25 234.02L108.25 230.51L111.91 230.51L111.91 232.11C111.91 232.26 111.87 232.30 111.66 232.32C111.45 232.33 110.76 232.33 109.97 232.30C110.10 232.54 110.24 232.88 110.28 233.14C111.27 233.14 111.93 233.14 112.34 233.01C112.75 232.86 112.86 232.60 112.86 232.12L112.86 229.60M117.29 235.42L123.78 235.42L123.78 239.08L117.29 239.08M117.29 234.46L117.29 230.94L123.78 230.94L123.78 234.46M116.29 229.96L116.29 240.90L117.29 240.90L117.29 240.05L123.78 240.05L123.78 240.83L124.82 240.83L124.82 229.96M130.08 230.61L136.94 230.61L136.94 233.45L130.08 233.45M129.12 229.69L129.12 234.38L132.77 234.38C132.73 234.84 132.67 235.28 132.59 235.70L127.94 235.70L127.94 236.59L132.36 236.59C131.81 238.25 130.63 239.51 127.65 240.18C127.86 240.39 128.10 240.79 128.21 241.04C131.55 240.22 132.84 238.65 133.42 236.59L137.40 236.59C137.24 238.79 137.07 239.71 136.79 239.97C136.66 240.10 136.52 240.12 136.24 240.12C135.94 240.12 135.13 240.10 134.29 240.04C134.47 240.30 134.60 240.70 134.63 240.99C135.44 241.04 136.24 241.04 136.65 241.01C137.10 240.99 137.39 240.90 137.66 240.62C138.06 240.19 138.26 239.04 138.45 236.15C138.47 236.01 138.49 235.70 138.49 235.70L133.62 235.70C133.69 235.28 133.76 234.84 133.80 234.38L137.96 234.38L137.96 229.69M147.10 229.42C147.46 230.07 147.85 230.95 148.01 231.49L148.93 231.13C148.76 230.61 148.35 229.77 147.97 229.13M145.21 241.08C145.49 240.87 145.89 240.68 148.78 239.62C148.71 239.41 148.65 239.03 148.62 238.78L146.29 239.60L146.29 234.92C146.73 234.45 147.15 233.96 147.53 233.45C148.36 236.57 149.79 239.30 151.91 240.68C152.08 240.42 152.40 240.05 152.62 239.87C151.41 239.17 150.41 237.97 149.63 236.50C150.50 235.92 151.57 235.10 152.39 234.37L151.66 233.69C151.06 234.33 150.10 235.18 149.28 235.79C148.81 234.76 148.44 233.64 148.16 232.49L148.20 232.43L152.27 232.43L152.27 231.51L143.86 231.51L143.86 232.43L147.09 232.43C146.07 233.99 144.59 235.40 143.08 236.31C143.29 236.49 143.63 236.89 143.77 237.10C144.29 236.74 144.82 236.32 145.34 235.85L145.34 239.22C145.34 239.82 144.94 240.18 144.69 240.34C144.86 240.51 145.12 240.87 145.21 241.08M143.46 229.09C142.77 231.07 141.64 233.01 140.42 234.28C140.60 234.51 140.88 235.02 140.97 235.24C141.35 234.84 141.73 234.37 142.08 233.85L142.08 241.05L143.02 241.05L143.02 232.36C143.55 231.41 144.02 230.39 144.39 229.38M156.78 236.24L156.78 240.87L157.75 240.87L157.75 240.35L163.26 240.35L163.26 240.84L164.25 240.84L164.25 236.24L160.63 236.24L160.63 234.49L164.87 234.49L164.87 233.59L160.63 233.59L160.63 232.04L159.64 232.04L159.64 236.24M157.75 239.48L157.75 237.15L163.26 237.15L163.26 239.48M159.06 229.34C159.32 229.74 159.56 230.22 159.75 230.67L154.63 230.67L154.63 234.07C154.63 235.96 154.52 238.61 153.39 240.48C153.64 240.59 154.07 240.88 154.25 241.04C155.44 239.06 155.63 236.09 155.63 234.07L155.63 231.60L165.27 231.60L165.27 230.67L160.84 230.67C160.67 230.20 160.34 229.59 160.01 229.12M173.11 232.56L176.84 232.56L176.84 233.84L173.11 233.84M173.11 234.64L176.84 234.64L176.84 235.96L173.11 235.96M173.11 230.47L176.84 230.47L176.84 231.75L173.11 231.75M168.72 229.21L168.72 231.24L166.84 231.24L166.84 232.12L168.72 232.12L168.72 233.71L168.72 234.25L166.57 234.25L166.57 235.15L168.68 235.15C168.57 236.93 168.16 238.93 166.49 240.18C166.72 240.35 167.03 240.69 167.16 240.90C168.46 239.83 169.08 238.38 169.38 236.91C169.98 237.61 170.77 238.60 171.10 239.09L171.76 238.36C171.45 237.99 170.08 236.44 169.54 235.91L169.60 235.15L171.72 235.15L171.72 234.25L169.64 234.25L169.64 233.71L169.64 232.12L171.47 232.12L171.47 231.24L169.64 231.24L169.64 229.21M172.20 229.59L172.20 236.83L173.24 236.83C173.03 238.45 172.49 239.65 170.49 240.30C170.68 240.47 170.94 240.81 171.04 241.03C173.25 240.23 173.93 238.80 174.18 236.83L175.31 236.83L175.31 239.60C175.31 240.53 175.52 240.81 176.41 240.81C176.59 240.81 177.30 240.81 177.48 240.81C178.26 240.81 178.48 240.38 178.57 238.60C178.32 238.52 177.93 238.38 177.74 238.22C177.71 239.75 177.66 239.95 177.38 239.95C177.22 239.95 176.66 239.95 176.54 239.95C176.27 239.95 176.23 239.90 176.23 239.60L176.23 236.83L177.78 236.83L177.78 229.59" fill="#2c2416" aria-label="韓服日另依店規"/>
  <rect class="card" x="430" y="120" width="340" height="420" rx="8"/>
  <path d="M464.94 156.40L464.94 159.18L459.41 159.18L459.41 167.30L461.33 167.30L461.33 166.42L464.94 166.42L464.94 171.42L466.98 171.42L466.98 166.42L470.61 166.42L470.61 167.22L472.62 167.22L472.62 159.18L466.98 159.18L466.98 156.40M461.33 164.53L461.33 161.07L464.94 161.07L464.94 164.53M470.61 164.53L466.98 164.53L466.98 161.07L470.61 161.07M480.26 163.33C480.62 163.79 480.99 164.43 481.14 164.85L482.32 164.19C482.16 163.78 481.76 163.17 481.38 162.74M485.25 162.70C485.02 163.15 484.58 163.84 484.26 164.24L485.31 164.83C485.65 164.46 486.06 163.90 486.45 163.33M478.02 158.50L486.51 158.50L486.51 159.34L478.02 159.34M478.37 161.63L478.37 165.95L488.45 165.95L488.45 161.63L486.54 161.63L487.02 161.07L485.97 160.80L488.45 160.80L488.45 157.02L476.08 157.02L476.08 161.74C476.08 164.30 475.97 167.90 474.38 170.35C474.88 170.54 475.73 171.02 476.10 171.34C477.76 168.70 478.02 164.54 478.02 161.74L478.02 160.80L480.78 160.80L479.95 161.07C480.08 161.23 480.22 161.44 480.34 161.63M481.58 160.80L485.26 160.80C485.12 161.06 484.91 161.36 484.72 161.63L482.13 161.63C482 161.36 481.81 161.06 481.58 160.80M480.88 169.22L485.95 169.22L485.95 169.82L480.88 169.82M480.88 168.19L480.88 167.62L485.95 167.62L485.95 168.19M479.04 166.45L479.04 171.44L480.88 171.44L480.88 170.98L485.95 170.98L485.95 171.44L487.90 171.44L487.90 166.45M480.14 162.67L482.46 162.67L482.46 164.91L480.14 164.91M484.22 162.67L486.58 162.67L486.58 164.91L484.22 164.91" fill="#2c2416" aria-label="中層"/>
  <path d="M459.16 202.16C459.90 202.51 460.80 203.07 461.25 203.50L461.83 202.77C461.38 202.37 460.46 201.84 459.72 201.51M458.51 204.70C459.30 205.03 460.25 205.61 460.73 206.02L461.29 205.27C460.80 204.87 459.83 204.33 459.05 204.02M458.85 210.38L459.63 210.97C460.25 209.97 460.98 208.67 461.54 207.58L460.85 207C460.22 208.21 459.42 209.56 458.85 210.38M458.81 199.99L458.81 200.82L461.77 200.82L461.77 201.62L462.73 201.62L462.73 200.82L464.21 200.82L464.21 199.99L462.73 199.99L462.73 199.08L461.77 199.08L461.77 199.99M462.60 203.38L462.60 207.31L463.51 207.31L463.51 206.29L465.62 206.29L465.62 207.15L466.51 207.15L466.51 206.29L468.71 206.29L468.71 206.58C468.71 206.70 468.69 206.74 468.56 206.75C468.43 206.75 468.07 206.75 467.63 206.74C467.71 206.89 467.81 207.09 467.88 207.27L467.39 207.27L467.39 207.76L461.85 207.76L461.85 208.56L463.45 208.56L463.11 208.92C463.79 209.32 464.60 209.94 464.99 210.36L465.57 209.69C465.23 209.36 464.60 208.91 464.03 208.56L467.39 208.56L467.39 209.99C467.39 210.13 467.35 210.17 467.18 210.18C467.02 210.18 466.49 210.18 465.87 210.17C465.98 210.42 466.11 210.73 466.15 210.97C466.98 210.97 467.52 210.97 467.88 210.84C468.23 210.72 468.31 210.48 468.31 210L468.31 208.56L470.38 208.56L470.38 207.76L468.31 207.76L468.31 207.40C468.74 207.39 469.04 207.36 469.27 207.28C469.56 207.18 469.62 207.01 469.62 206.61L469.62 203.38L466.51 203.38L466.51 202.86L470.23 202.86L470.23 202.17L469.30 202.17L469.61 201.76C469.25 201.47 468.57 201.11 468 200.90L467.56 201.45C468 201.62 468.53 201.91 468.91 202.17L466.51 202.17L466.51 201.62L467.26 201.62L467.26 200.82L470.19 200.82L470.19 199.99L467.26 199.99L467.26 199.08L466.29 199.08L466.29 199.99L464.85 199.99L464.85 200.82L466.29 200.82L466.29 201.45L465.62 201.45L465.62 202.17L462.04 202.17L462.04 202.86L465.62 202.86L465.62 203.38M465.62 205.16L465.62 205.71L463.51 205.71L463.51 205.16M465.62 204.59L463.51 204.59L463.51 204.01L465.62 204.01M466.51 205.16L468.71 205.16L468.71 205.71L466.51 205.71M466.51 204.59L466.51 204.01L468.71 204.01L468.71 204.59M479.41 200.43L479.41 207.75L480.33 207.75L480.33 200.43M482.01 199.33L482.01 209.74C482.01 209.96 481.95 210.01 481.74 210.03C481.50 210.03 480.78 210.04 480.01 210.01C480.15 210.31 480.28 210.75 480.33 211.03C481.30 211.03 482.02 210.99 482.41 210.83C482.80 210.66 482.96 210.38 482.96 209.74L482.96 199.33M473.50 204.58L473.50 209.61L474.25 209.61L474.25 205.41L475.50 205.41L475.50 211.01L476.34 211.01L476.34 205.41L477.69 205.41L477.69 208.56C477.69 208.69 477.67 208.71 477.54 208.73C477.42 208.73 477.07 208.73 476.59 208.71C476.72 208.93 476.84 209.27 476.86 209.52C477.49 209.52 477.90 209.51 478.18 209.35C478.45 209.21 478.51 208.96 478.51 208.57L478.51 204.58L477.69 204.58L476.34 204.58L476.34 203.24L478.46 203.24L478.46 199.82L472.38 199.82L472.38 204.22C472.38 206.03 472.31 208.50 471.38 210.23C471.60 210.34 471.98 210.62 472.12 210.79C473.12 208.93 473.26 206.15 473.26 204.22L473.26 203.24L475.50 203.24L475.50 204.58M473.26 200.71L477.54 200.71L477.54 202.36L473.26 202.36M484.78 206.88L484.91 207.82L489.20 207.26L489.20 209C489.20 210.44 489.65 210.82 491.24 210.82C491.59 210.82 494.19 210.82 494.56 210.82C496 210.82 496.32 210.23 496.51 208.43C496.21 208.36 495.79 208.19 495.54 208.01C495.44 209.52 495.31 209.86 494.52 209.86C493.97 209.86 491.71 209.86 491.28 209.86C490.36 209.86 490.20 209.71 490.20 209.01L490.20 207.11L496.18 206.33L496.04 205.42L490.20 206.18L490.20 204.15L495.31 203.44L495.17 202.53L490.20 203.21L490.20 201.19C491.90 200.84 493.49 200.42 494.74 199.94L493.89 199.16C491.88 200 488.17 200.71 484.94 201.13C485.05 201.35 485.20 201.75 485.24 201.99C486.52 201.82 487.87 201.62 489.20 201.38L489.20 203.34L485.18 203.90L485.31 204.84L489.20 204.29L489.20 206.31M506 199.72C506.79 200.11 507.75 200.71 508.22 201.15L508.82 200.47C508.34 200.03 507.36 199.46 506.57 199.12M497.81 209.14L498 210.14C499.51 209.82 501.64 209.35 503.64 208.91L503.56 207.99C501.45 208.43 499.22 208.88 497.81 209.14M499.54 204.12L502.19 204.12L502.19 206.39L499.54 206.39M498.63 203.27L498.63 207.23L503.14 207.23L503.14 203.27M497.88 201.16L497.88 202.12L504.29 202.12C504.45 204.24 504.75 206.19 505.22 207.72C504.35 208.78 503.29 209.64 502.08 210.29C502.30 210.47 502.68 210.84 502.84 211.04C503.86 210.43 504.79 209.68 505.59 208.78C506.18 210.19 506.96 211.05 507.96 211.05C508.96 211.05 509.32 210.40 509.51 208.17C509.23 208.06 508.87 207.84 508.65 207.61C508.57 209.35 508.41 210.04 508.05 210.04C507.40 210.04 506.81 209.23 506.35 207.87C507.31 206.58 508.09 205.05 508.66 203.29L507.69 203.06C507.27 204.41 506.70 205.62 506 206.69C505.67 205.41 505.44 203.85 505.32 202.12L509.17 202.12L509.17 201.16L505.25 201.16C505.23 200.50 505.22 199.81 505.22 199.11L504.18 199.11C504.18 199.79 504.20 200.48 504.24 201.16M511.39 206.37C511.63 207.14 511.85 208.14 511.91 208.80L512.64 208.60C512.56 207.96 512.34 206.96 512.07 206.20M515.16 206.05C515.03 206.75 514.75 207.79 514.52 208.44L515.15 208.65C515.39 208.04 515.69 207.07 515.94 206.28M518.84 199.20L518.84 203.44L516.16 203.44L516.16 204.40L518.84 204.40L518.84 211.03L519.83 211.03L519.83 204.40L522.51 204.40L522.51 203.44L519.83 203.44L519.83 199.20M513.64 199C512.99 200.28 511.83 201.49 510.74 202.25C510.88 202.49 511.12 203.02 511.18 203.23C511.42 203.06 511.64 202.86 511.87 202.66L511.87 203.23L513.26 203.23L513.26 204.66L510.99 204.66L510.99 205.50L513.26 205.50L513.26 209.27L510.85 209.71L511.07 210.60C512.47 210.31 514.41 209.90 516.24 209.51L516.17 208.71L514.13 209.10L514.13 205.50L516.15 205.50L516.15 204.66L514.13 204.66L514.13 203.23L515.67 203.23L515.67 202.40L512.16 202.40C512.70 201.86 513.22 201.25 513.68 200.60C514.54 201.17 515.43 201.85 515.98 202.38L516.54 201.63C515.97 201.12 515.06 200.44 514.16 199.89L514.46 199.34M533.43 200.25C533.89 200.98 534.43 201.98 534.67 202.62L535.41 202.26C535.17 201.64 534.63 200.68 534.13 199.95M525.22 207.57C525.37 208.44 525.51 209.60 525.53 210.35L526.22 210.21C526.18 209.45 526.04 208.32 525.87 207.44M524.11 207.44C523.98 208.49 523.79 209.66 523.48 210.46C523.66 210.51 524.01 210.62 524.16 210.70C524.43 209.90 524.66 208.67 524.79 207.57M526.37 207.36C526.65 208.17 526.98 209.22 527.11 209.91L527.76 209.69C527.62 209.01 527.29 207.97 526.98 207.18M534.43 204.50C534.21 205.32 533.88 206.10 533.47 206.83C533.35 205.98 533.24 204.97 533.17 203.85L535.41 203.85L535.41 203.04L533.13 203.04C533.06 201.84 533.02 200.51 533.01 199.13L532.18 199.13C532.20 200.51 532.24 201.82 532.29 203.04L531 203.04C531.16 202.59 531.33 202.04 531.50 201.55L530.68 201.34C530.59 201.82 530.41 202.53 530.23 203.04L529.32 203.04C529.28 202.54 529.11 201.86 528.90 201.34L528.24 201.50C528.39 201.98 528.52 202.56 528.58 203.04L527.39 203.04L527.39 203.85L532.35 203.85C532.44 205.40 532.59 206.76 532.80 207.85C532.46 208.32 532.06 208.76 531.63 209.17L531.63 204.59L528.12 204.59L528.12 210.06L528.89 210.06L528.89 209.14L530.81 209.14L530.81 209.51L531.25 209.51C530.97 209.74 530.67 209.96 530.36 210.17C530.54 210.31 530.84 210.61 530.96 210.79C531.75 210.23 532.45 209.58 533.05 208.84C533.39 209.96 533.86 210.62 534.50 210.64C534.92 210.65 535.34 210.18 535.58 208.41C535.43 208.34 535.09 208.12 534.95 207.92C534.86 208.96 534.71 209.57 534.52 209.57C534.18 209.56 533.91 208.97 533.67 207.97C534.32 206.98 534.82 205.88 535.17 204.70M528.91 199.43C529.12 199.76 529.34 200.16 529.50 200.51L527.64 200.51L527.64 201.29L531.92 201.29L531.92 200.51L530.45 200.51C530.28 200.11 529.98 199.57 529.71 199.18M528.89 207.22L530.81 207.22L530.81 208.44L528.89 208.44M528.89 206.50L528.89 205.31L530.81 205.31L530.81 206.50M523.88 206.88C524.11 206.76 524.46 206.65 526.78 206.20L526.91 206.91L527.62 206.70C527.51 206.06 527.24 204.98 526.94 204.14L526.29 204.29C526.41 204.66 526.52 205.09 526.63 205.49L524.95 205.78C525.90 204.57 526.84 203.03 527.58 201.52L526.81 201.13C526.58 201.71 526.28 202.29 525.98 202.84L524.72 202.94C525.35 201.94 525.96 200.67 526.43 199.44L525.60 199.11C525.17 200.51 524.40 202.02 524.14 202.40C523.92 202.80 523.73 203.06 523.52 203.11C523.62 203.34 523.75 203.76 523.81 203.94C523.98 203.86 524.25 203.80 525.52 203.64C525.08 204.38 524.68 204.97 524.50 205.20C524.13 205.68 523.86 206.02 523.61 206.07C523.72 206.29 523.85 206.70 523.88 206.88" fill="#2c2416" aria-label="薄刷毛或針織"/>
  <path d="M460.94 232.78L467.97 232.78L467.97 234.20L460.94 234.20M460.94 230.56L467.97 230.56L467.97 231.95L460.94 231.95M458.61 237.01L458.61 237.96L463.95 237.96L463.95 241.04L464.95 241.04L464.95 237.96L470.44 237.96L470.44 237.01L464.95 237.01L464.95 235.09L468.97 235.09L468.97 229.69L459.98 229.69L459.98 235.09L463.95 235.09L463.95 237.01M478.15 231.03L480.33 231.03C480.09 231.49 479.77 231.99 479.48 232.37L477.23 232.37C477.58 231.94 477.88 231.49 478.15 231.03M472 230.04L472 239.52L472.88 239.52L472.88 238.50L475.55 238.50L475.55 233.01C475.76 233.14 475.99 233.38 476.11 233.55L476.43 233.24L476.43 236.37L478.74 236.37C478.21 238.17 477.07 239.51 474.39 240.27C474.61 240.47 474.87 240.83 474.98 241.08C477.94 240.16 479.15 238.53 479.68 236.37L479.80 236.37L479.80 239.57C479.80 240.55 480.05 240.83 481.01 240.83C481.20 240.83 482.15 240.83 482.36 240.83C483.21 240.83 483.45 240.39 483.56 238.63C483.30 238.57 482.91 238.41 482.71 238.26C482.67 239.75 482.62 239.95 482.27 239.95C482.06 239.95 481.28 239.95 481.14 239.95C480.79 239.95 480.72 239.90 480.72 239.56L480.72 236.37L482.97 236.37L482.97 232.37L480.46 232.37C480.89 231.82 481.33 231.16 481.61 230.55L481.01 230.16L480.85 230.20L478.61 230.20C478.77 229.87 478.92 229.55 479.05 229.24L478.10 229.09C477.64 230.25 476.80 231.71 475.55 232.82L475.55 230.04M477.31 233.20L479.16 233.20C479.11 234.03 479.05 234.83 478.92 235.54L477.31 235.54M480.10 233.20L482.05 233.20L482.05 235.54L479.85 235.54C479.98 234.81 480.05 234.03 480.10 233.20M474.67 234.64L474.67 237.62L472.88 237.62L472.88 234.64M474.67 233.77L472.88 233.77L472.88 230.93L474.67 230.93M487.64 229.13C486.91 231.11 485.70 233.06 484.42 234.32C484.58 234.54 484.87 235.05 484.98 235.28C485.42 234.83 485.85 234.29 486.26 233.71L486.26 241.01L487.19 241.01L487.19 232.28C487.72 231.37 488.19 230.38 488.56 229.41M495.18 229.22C493.70 229.57 491.07 229.86 488.85 230L488.85 233.84C488.85 235.75 488.76 238.40 487.64 240.26C487.86 240.36 488.26 240.62 488.43 240.79C489.49 239 489.73 236.37 489.77 234.40L495.82 234.40L495.82 231.54L489.77 231.54L489.77 230.72C491.89 230.59 494.23 230.33 495.86 229.96M489.77 232.34L494.87 232.34L494.87 233.60L489.77 233.60M495.35 236.11L495.35 237.70L494.22 237.70L494.22 236.11M489.76 235.31L489.76 241.01L490.59 241.01L490.59 238.50L491.72 238.50L491.72 240.74L492.44 240.74L492.44 238.50L493.52 238.50L493.52 240.62L494.22 240.62L494.22 238.50L495.35 238.50L495.35 239.97C495.35 240.08 495.32 240.12 495.22 240.12C495.10 240.12 494.82 240.12 494.46 240.10C494.57 240.34 494.67 240.66 494.71 240.90C495.26 240.90 495.63 240.90 495.89 240.75C496.15 240.60 496.21 240.38 496.21 239.97L496.21 235.31M490.59 237.70L490.59 236.11L491.72 236.11L491.72 237.70M492.44 236.11L493.52 236.11L493.52 237.70L492.44 237.70M502.93 233.42L507.52 233.42L507.52 235.35L502.93 235.35M502.59 236.89C502.10 237.87 501.36 238.92 500.63 239.65C500.86 239.77 501.25 240.04 501.42 240.19C502.13 239.41 502.94 238.22 503.51 237.15M506.83 237.24C507.44 238.15 508.18 239.38 508.52 240.16L509.40 239.77C509.06 239.03 508.31 237.84 507.67 236.94M498.14 229.94C498.99 230.30 499.99 230.93 500.50 231.39L501.04 230.59C500.52 230.13 499.48 229.55 498.65 229.22M497.45 233.51C498.29 233.88 499.27 234.49 499.77 234.93L500.29 234.12C499.77 233.68 498.77 233.11 497.96 232.78M497.88 240.21L498.66 240.87C499.40 239.66 500.28 238.04 500.94 236.66L500.26 236.02C499.54 237.49 498.56 239.21 497.88 240.21M504.25 229.30C504.45 229.69 504.67 230.17 504.84 230.57L501.32 230.57L501.32 231.46L509.38 231.46L509.38 230.57L505.97 230.57C505.79 230.15 505.49 229.52 505.24 229.05M501.98 232.55L501.98 236.22L504.75 236.22L504.75 239.87C504.75 240.03 504.68 240.06 504.49 240.08C504.28 240.09 503.56 240.09 502.85 240.06C502.98 240.31 503.14 240.68 503.19 240.92C504.20 240.92 504.83 240.92 505.24 240.78C505.66 240.64 505.76 240.39 505.76 239.88L505.76 236.22L508.50 236.22L508.50 232.55M510.73 230L510.73 230.98L519.71 230.98L519.71 239.62C519.71 239.90 519.62 239.97 519.33 240C519.02 240 517.96 240.01 516.92 239.96C517.07 240.25 517.25 240.73 517.32 241.01C518.61 241.01 519.52 241.01 520.04 240.84C520.54 240.68 520.73 240.34 520.73 239.64L520.73 230.98L522.32 230.98L522.32 230M513 233.82L516.42 233.82L516.42 236.81L513 236.81M512.05 232.89L512.05 238.79L513 238.79L513 237.75L517.38 237.75L517.38 232.89M530.44 230.69L530.44 240.84L531.37 240.84L531.37 239.88L533.89 239.88L533.89 240.74L534.87 240.74L534.87 230.69M531.37 238.95L531.37 231.64L533.89 231.64L533.89 238.95M525.53 229.25L525.52 231.55L523.69 231.55L523.69 232.50L525.50 232.50C525.40 235.78 525 238.66 523.36 240.38C523.61 240.53 523.96 240.83 524.12 241.05C525.87 239.14 526.33 236.02 526.45 232.50L528.42 232.50C528.32 237.50 528.20 239.28 527.93 239.66C527.81 239.83 527.68 239.88 527.49 239.87C527.25 239.87 526.69 239.87 526.08 239.82C526.25 240.09 526.34 240.51 526.37 240.79C526.95 240.83 527.55 240.84 527.91 240.79C528.29 240.74 528.54 240.62 528.77 240.29C529.17 239.73 529.27 237.83 529.37 232.04C529.37 231.90 529.37 231.55 529.37 231.55L526.47 231.55" fill="#2c2416" aria-label="早晚偏涼可加"/>
  <rect class="card-ok" x="800" y="120" width="340" height="420" rx="8"/>
  <path d="M832.06 160.56L834.48 160.56C834.30 161.74 834.03 162.82 833.70 163.78C833.06 163.12 832.27 162.37 831.60 161.74C831.76 161.36 831.92 160.96 832.06 160.56M831.20 156.40C830.70 159.15 829.74 161.82 828.35 163.42C828.80 163.71 829.63 164.32 829.97 164.64C830.26 164.27 830.51 163.87 830.77 163.42C831.52 164.19 832.32 165.04 832.85 165.70C831.81 167.58 830.35 168.93 828.50 169.79C828.99 170.13 829.79 170.94 830.11 171.41C833.70 169.54 836.03 165.58 836.78 159.06L835.41 158.67L835.04 158.74L832.66 158.74C832.83 158.08 832.99 157.41 833.14 156.74M837.42 156.42L837.42 171.44L839.44 171.44L839.44 163.18C840.42 164.22 841.49 165.39 842.03 166.19L843.66 164.90C842.90 163.89 841.26 162.32 840.16 161.23L839.44 161.76L839.44 156.42M850.26 163.33C850.62 163.79 850.99 164.43 851.14 164.85L852.32 164.19C852.16 163.78 851.76 163.17 851.38 162.74M855.25 162.70C855.02 163.15 854.58 163.84 854.26 164.24L855.31 164.83C855.65 164.46 856.06 163.90 856.45 163.33M848.02 158.50L856.51 158.50L856.51 159.34L848.02 159.34M848.37 161.63L848.37 165.95L858.45 165.95L858.45 161.63L856.54 161.63L857.02 161.07L855.97 160.80L858.45 160.80L858.45 157.02L846.08 157.02L846.08 161.74C846.08 164.30 845.97 167.90 844.38 170.35C844.88 170.54 845.73 171.02 846.10 171.34C847.76 168.70 848.02 164.54 848.02 161.74L848.02 160.80L850.78 160.80L849.95 161.07C850.08 161.23 850.22 161.44 850.34 161.63M851.58 160.80L855.26 160.80C855.12 161.06 854.91 161.36 854.72 161.63L852.13 161.63C852 161.36 851.81 161.06 851.58 160.80M850.88 169.22L855.95 169.22L855.95 169.82L850.88 169.82M850.88 168.19L850.88 167.62L855.95 167.62L855.95 168.19M849.04 166.45L849.04 171.44L850.88 171.44L850.88 170.98L855.95 170.98L855.95 171.44L857.90 171.44L857.90 166.45M850.14 162.67L852.46 162.67L852.46 164.91L850.14 164.91M854.22 162.67L856.58 162.67L856.58 164.91L854.22 164.91" fill="#2c2416" aria-label="外層"/>
  <path d="M835.80 199.31C836.03 199.94 836.29 200.77 836.41 201.26L837.33 200.99C837.22 200.51 836.94 199.70 836.70 199.11M832.84 201.26L832.84 202.19L834.90 202.19C834.81 205.67 834.55 208.73 831.67 210.29C831.90 210.46 832.19 210.78 832.32 211C834.59 209.74 835.38 207.61 835.68 205.06L838.61 205.06C838.49 208.40 838.34 209.65 838.06 209.95C837.95 210.08 837.82 210.12 837.58 210.10C837.32 210.10 836.64 210.10 835.93 210.04C836.10 210.31 836.22 210.72 836.23 211C836.92 211.03 837.63 211.05 838.01 211C838.41 210.96 838.67 210.87 838.91 210.57C839.31 210.10 839.45 208.65 839.60 204.62C839.60 204.47 839.60 204.16 839.60 204.16L835.77 204.16C835.81 203.53 835.85 202.86 835.87 202.19L840.38 202.19L840.38 201.26M829.07 199.64L829.07 211.04L829.99 211.04L829.99 200.52L831.90 200.52C831.60 201.45 831.20 202.67 830.79 203.64C831.78 204.70 832.03 205.59 832.03 206.32C832.03 206.72 831.95 207.09 831.76 207.23C831.63 207.31 831.48 207.36 831.32 207.36C831.08 207.36 830.81 207.36 830.50 207.35C830.65 207.59 830.73 207.97 830.74 208.23C831.05 208.25 831.41 208.25 831.69 208.22C831.95 208.18 832.20 208.10 832.39 207.96C832.77 207.70 832.93 207.14 832.93 206.43C832.93 205.59 832.71 204.64 831.69 203.53C832.16 202.46 832.68 201.09 833.08 199.99L832.42 199.59L832.26 199.64M843 199.78L843 203.98C843 205.98 842.86 208.65 841.46 210.52C841.68 210.62 842.09 210.90 842.25 211.07C843.72 209.09 843.92 206.11 843.92 203.98L843.92 200.71L851.01 200.71C851.05 206.40 851.04 211.04 852.61 211.04C853.27 211.04 853.47 210.38 853.57 208.70C853.39 208.54 853.14 208.25 852.97 207.99C852.95 209.13 852.87 210.01 852.71 210.01C851.95 210.01 851.93 204.66 851.95 199.78M845.47 204.41L846.94 204.41L846.94 206.41L845.47 206.41M847.81 204.41L849.31 204.41L849.31 206.41L847.81 206.41M844.50 201.56L844.50 202.37L846.94 202.37L846.94 203.63L844.68 203.63L844.68 207.21L846.94 207.21L846.94 209.03C845.77 209.10 844.71 209.16 843.89 209.19L843.96 210.09L849.92 209.66C850.09 210.03 850.23 210.38 850.31 210.68L851.11 210.38C850.89 209.57 850.23 208.38 849.55 207.50L848.80 207.76C849.05 208.10 849.28 208.48 849.50 208.87L847.81 208.97L847.81 207.21L850.13 207.21L850.13 203.63L847.81 203.63L847.81 202.37L850.35 202.37L850.35 201.56M866.17 199L854.44 210.73L854.83 211.12L866.56 199.39M874.80 199.31C875.03 199.94 875.29 200.77 875.41 201.26L876.33 200.99C876.22 200.51 875.94 199.70 875.70 199.11M871.84 201.26L871.84 202.19L873.90 202.19C873.81 205.67 873.55 208.73 870.67 210.29C870.90 210.46 871.19 210.78 871.32 211C873.59 209.74 874.38 207.61 874.68 205.06L877.61 205.06C877.49 208.40 877.34 209.65 877.06 209.95C876.95 210.08 876.82 210.12 876.58 210.10C876.32 210.10 875.64 210.10 874.93 210.04C875.10 210.31 875.22 210.72 875.23 211C875.92 211.03 876.63 211.05 877.01 211C877.41 210.96 877.67 210.87 877.91 210.57C878.31 210.10 878.45 208.65 878.60 204.62C878.60 204.47 878.60 204.16 878.60 204.16L874.77 204.16C874.81 203.53 874.85 202.86 874.87 202.19L879.38 202.19L879.38 201.26M868.07 199.64L868.07 211.04L868.99 211.04L868.99 200.52L870.90 200.52C870.60 201.45 870.20 202.67 869.79 203.64C870.78 204.70 871.03 205.59 871.03 206.32C871.03 206.72 870.95 207.09 870.76 207.23C870.63 207.31 870.48 207.36 870.32 207.36C870.08 207.36 869.81 207.36 869.50 207.35C869.65 207.59 869.73 207.97 869.74 208.23C870.05 208.25 870.41 208.25 870.69 208.22C870.95 208.18 871.20 208.10 871.39 207.96C871.77 207.70 871.93 207.14 871.93 206.43C871.93 205.59 871.71 204.64 870.69 203.53C871.16 202.46 871.68 201.09 872.08 199.99L871.42 199.59L871.26 199.64M880.94 199.78C881.56 200.22 882.30 200.90 882.66 201.37L883.22 200.73C882.87 200.29 882.11 199.65 881.48 199.24M880.57 203.44C881.22 203.81 882.04 204.37 882.44 204.77L882.96 204.10C882.55 203.71 881.72 203.18 881.08 202.85M880.72 210.34L881.48 210.83C882 209.66 882.63 208.10 883.09 206.76L882.43 206.28C881.92 207.70 881.22 209.35 880.72 210.34M884.42 205.33C884.32 206.22 884.13 207.34 883.98 208.08L886.37 208.08C886.25 209.36 886.12 209.91 885.94 210.08C885.85 210.17 885.75 210.18 885.56 210.18C885.38 210.18 884.91 210.18 884.43 210.13C884.58 210.35 884.67 210.68 884.68 210.92C885.16 210.95 885.64 210.96 885.90 210.92C886.23 210.91 886.45 210.84 886.66 210.64C886.94 210.34 887.09 209.57 887.25 207.71C887.27 207.59 887.28 207.35 887.28 207.35L884.91 207.35L885.11 206.10L887.29 206.10L887.29 203.29L885.56 203.29C886.55 202.42 887.36 201.22 887.77 199.74L887.23 199.53L887.06 199.57L884.39 199.57L884.39 200.37L886.66 200.37C886.45 200.86 886.17 201.33 885.85 201.75C885.52 201.46 885.07 201.13 884.71 200.89L884.16 201.42C884.55 201.68 884.99 202.04 885.33 202.34C884.75 202.94 884.06 203.41 883.35 203.69C883.54 203.86 883.77 204.19 883.87 204.40C884.15 204.27 884.42 204.12 884.68 203.96L884.68 204.06L886.46 204.06L886.46 205.33M891.78 200.94C891.45 201.25 890.91 201.69 890.45 202.02C890.24 201.77 890.05 201.51 889.87 201.24C890.30 200.93 890.80 200.54 891.22 200.11L890.61 199.60C890.34 199.90 889.91 200.31 889.53 200.64C889.29 200.19 889.11 199.72 888.97 199.21L888.14 199.37C888.59 200.99 889.35 202.33 890.47 203.28L888.14 203.28L888.14 204.42C888.14 204.98 888.05 205.58 887.33 206.09C887.49 206.19 887.80 206.49 887.92 206.65C888.77 206.05 888.96 205.16 888.96 204.45L888.96 204.02L890.17 204.02L890.17 205.22C890.17 205.93 890.30 206.22 891.01 206.22C891.14 206.22 891.38 206.22 891.49 206.22C891.67 206.22 891.87 206.22 892 206.18C891.99 205.98 891.97 205.71 891.95 205.51C891.82 205.55 891.60 205.55 891.48 205.55C891.39 205.55 891.21 205.55 891.13 205.55C890.99 205.55 890.97 205.50 890.97 205.22L890.97 203.67C891.32 203.90 891.70 204.10 892.10 204.27C892.23 204.03 892.49 203.69 892.69 203.51C892.02 203.28 891.44 202.93 890.93 202.49C891.39 202.20 891.93 201.82 892.39 201.43M887.74 208.06C888.24 208.44 888.83 208.88 889.37 209.32C888.76 209.81 888.05 210.14 887.28 210.35C887.46 210.52 887.66 210.84 887.75 211.05C888.58 210.78 889.36 210.39 890.01 209.84C890.54 210.29 891.01 210.70 891.35 211.01L891.95 210.46C891.60 210.14 891.12 209.74 890.57 209.31C891.15 208.69 891.60 207.89 891.87 206.93L891.34 206.78L891.19 206.80L887.77 206.80L887.77 207.53L890.80 207.53C890.58 208.01 890.30 208.44 889.93 208.82L888.29 207.58M893.92 202.41L893.92 203.40L897.12 203.40C896.50 205.97 895.16 207.93 893.51 209.01C893.74 209.16 894.13 209.53 894.30 209.77C896.13 208.47 897.65 206.02 898.29 202.62L897.65 202.37L897.47 202.41M903.62 201.52C902.98 202.41 901.96 203.56 901.10 204.37C900.70 203.69 900.33 202.98 900.05 202.25L900.05 199.11L899.01 199.11L899.01 209.71C899.01 209.94 898.93 209.99 898.72 210C898.51 210.01 897.84 210.01 897.08 209.99C897.24 210.29 897.41 210.77 897.46 211.05C898.46 211.05 899.10 211.03 899.50 210.84C899.89 210.68 900.05 210.36 900.05 209.70L900.05 204.22C901.23 206.57 902.92 208.62 904.95 209.69C905.12 209.40 905.44 209 905.67 208.79C904.10 208.06 902.68 206.71 901.58 205.10C902.49 204.33 903.65 203.15 904.50 202.15" fill="#2c2416" aria-label="防風／防潑水"/>
  <path d="M837.19 237.79C836.97 238.40 836.54 239.26 836.16 239.87L834.99 239.87L834.99 237.57L839.47 237.57L839.47 236.76L834.99 236.76L834.99 235.37L838.32 235.37L838.32 234.55L830.70 234.55L830.70 235.37L834.01 235.37L834.01 236.76L829.60 236.76L829.60 237.57L834.01 237.57L834.01 239.87L831.91 239.87L832.65 239.64C832.45 239.18 832 238.40 831.65 237.83L830.82 238.05C831.16 238.62 831.56 239.40 831.78 239.87L828.87 239.87L828.87 240.75L840.14 240.75L840.14 239.87L837.09 239.87C837.42 239.32 837.80 238.63 838.14 238.02M832.60 229.03C831.71 229.73 830.29 230.43 829.07 230.87C829.26 231.07 829.57 231.50 829.70 231.68C830.31 231.41 831 231.06 831.65 230.68C832.21 231.28 832.89 231.81 833.64 232.29C832.08 232.99 830.24 233.50 828.39 233.82C828.57 234.02 828.87 234.45 828.99 234.67C830.91 234.25 832.88 233.66 834.57 232.81C836.18 233.66 838.08 234.25 840 234.58C840.13 234.32 840.36 233.94 840.57 233.73C838.76 233.49 837 232.99 835.49 232.32C836.27 231.84 836.97 231.30 837.55 230.68C838.26 231.06 838.92 231.45 839.35 231.76L839.96 231.02C839.08 230.39 837.35 229.56 836.06 229.05L835.48 229.69C835.85 229.85 836.27 230.04 836.67 230.24C836.11 230.85 835.38 231.38 834.54 231.84C833.68 231.37 832.95 230.82 832.38 230.22C832.77 229.98 833.13 229.72 833.45 229.46M842.40 231.78L842.40 240.03L851.61 240.03L851.61 240.99L852.61 240.99L852.61 231.77L851.61 231.77L851.61 239.04L847.99 239.04L847.99 229.22L846.98 229.22L846.98 239.04L843.40 239.04L843.40 231.78M855.24 229.93C856.01 230.30 857 230.89 857.48 231.32L858.06 230.57C857.56 230.16 856.57 229.59 855.79 229.26M854.55 233.71C855.29 234.07 856.22 234.66 856.68 235.07L857.24 234.32C856.76 233.92 855.83 233.37 855.08 233.03M854.94 240.29L855.78 240.82C856.34 239.60 857 237.96 857.48 236.58L856.73 236.05C856.20 237.54 855.46 239.26 854.94 240.29M861.24 233.90C861.79 234.32 862.40 234.93 862.68 235.37L859.95 235.37L860.17 233.54L864.67 233.54L864.58 235.37L862.74 235.37L863.27 234.98C862.98 234.57 862.33 233.96 861.80 233.54M857.71 235.37L857.71 236.27L858.91 236.27C858.76 237.35 858.59 238.36 858.43 239.13L864.22 239.13C864.14 239.56 864.04 239.82 863.92 239.94C863.80 240.09 863.67 240.13 863.44 240.13C863.19 240.13 862.58 240.12 861.90 240.05C862.06 240.29 862.15 240.65 862.18 240.90C862.80 240.94 863.45 240.95 863.82 240.91C864.21 240.87 864.48 240.78 864.74 240.44C864.91 240.22 865.05 239.83 865.17 239.13L866.15 239.13L866.15 238.28L865.28 238.28C865.34 237.74 865.39 237.07 865.44 236.27L866.52 236.27L866.52 235.37L865.49 235.37L865.60 233.16C865.60 233.02 865.61 232.69 865.61 232.69L859.36 232.69C859.28 233.50 859.16 234.44 859.03 235.37M859.82 236.27L864.53 236.27C864.48 237.10 864.43 237.76 864.36 238.28L859.54 238.28M860.92 236.66C861.48 237.14 862.15 237.83 862.46 238.28L863.05 237.87C862.74 237.41 862.06 236.75 861.48 236.31M859.75 229.07C859.28 230.59 858.47 232.11 857.55 233.08C857.78 233.21 858.21 233.47 858.39 233.63C858.89 233.04 859.37 232.29 859.80 231.45L866.19 231.45L866.19 230.55L860.23 230.55C860.40 230.15 860.55 229.73 860.70 229.31M868.59 233.14L868.59 235.65C868.59 237.01 868.47 238.84 867.44 240.18C867.66 240.30 868.08 240.62 868.24 240.81C869.35 239.36 869.55 237.21 869.55 235.66L869.55 234.02L879.17 234.02L879.17 233.14M869.96 237.39L869.96 238.26L874.06 238.26L874.06 241.04L875.07 241.04L875.07 238.26L879.35 238.26L879.35 237.39L875.07 237.39L875.07 235.98L878.66 235.98L878.66 235.13L870.63 235.13L870.63 235.98L874.06 235.98L874.06 237.39M872.99 229.07L872.99 231.22L869.64 231.22L869.64 229.57L868.65 229.57L868.65 232.11L878.47 232.11L878.47 229.57L877.45 229.57L877.45 231.22L874.02 231.22L874.02 229.07M882 229.78L882 233.98C882 235.98 881.86 238.65 880.46 240.52C880.68 240.62 881.09 240.90 881.25 241.07C882.72 239.09 882.92 236.11 882.92 233.98L882.92 230.71L890.01 230.71C890.05 236.40 890.04 241.04 891.61 241.04C892.27 241.04 892.47 240.38 892.57 238.70C892.39 238.54 892.14 238.25 891.97 237.99C891.95 239.13 891.87 240.01 891.71 240.01C890.95 240.01 890.93 234.66 890.95 229.78M884.47 234.41L885.94 234.41L885.94 236.41L884.47 236.41M886.81 234.41L888.31 234.41L888.31 236.41L886.81 236.41M883.50 231.56L883.50 232.37L885.94 232.37L885.94 233.63L883.68 233.63L883.68 237.21L885.94 237.21L885.94 239.03C884.77 239.10 883.71 239.16 882.89 239.19L882.96 240.09L888.92 239.66C889.09 240.03 889.23 240.38 889.31 240.68L890.11 240.38C889.89 239.57 889.23 238.38 888.55 237.50L887.80 237.76C888.05 238.10 888.28 238.48 888.50 238.87L886.81 238.97L886.81 237.21L889.13 237.21L889.13 233.63L886.81 233.63L886.81 232.37L889.35 232.37L889.35 231.56M900.22 234.51L904.02 234.51L904.02 235.79L900.22 235.79M900.22 236.52L904.02 236.52L904.02 237.80L900.22 237.80M900.22 232.54L904.02 232.54L904.02 233.79L900.22 233.79M900.61 238.79C900.05 239.38 898.86 240.05 897.82 240.43C898.03 240.59 898.33 240.90 898.49 241.08C899.53 240.69 900.75 239.99 901.45 239.30M902.62 239.36C903.41 239.86 904.41 240.60 904.89 241.08L905.67 240.52C905.15 240.03 904.14 239.32 903.35 238.86M894.14 231.98C895.05 232.47 896.13 233.21 896.81 233.84L893.49 233.84L893.49 234.72L895.64 234.72L895.64 239.87C895.64 240.04 895.59 240.08 895.39 240.09C895.21 240.09 894.61 240.09 893.94 240.08C894.08 240.35 894.21 240.74 894.25 241.01C895.14 241.01 895.73 241 896.09 240.84C896.47 240.69 896.58 240.42 896.58 239.90L896.58 234.72L897.95 234.72C897.73 235.42 897.47 236.14 897.24 236.62L897.98 236.81C898.33 236.11 898.73 234.97 899.07 233.97L898.46 233.80L898.32 233.84L897.38 233.84L897.69 233.44C897.43 233.18 897.08 232.88 896.67 232.58C897.39 231.89 898.17 230.95 898.71 230.08L898.10 229.65L897.91 229.70L893.77 229.70L893.77 230.57L897.28 230.57C896.90 231.11 896.43 231.68 895.98 232.11C895.53 231.82 895.08 231.56 894.66 231.34M899.30 231.77L899.30 238.56L904.96 238.56L904.96 231.77L902.24 231.77L902.62 230.54L905.40 230.54L905.40 229.69L898.80 229.69L898.80 230.54L901.53 230.54C901.46 230.94 901.37 231.38 901.28 231.77M909.17 238.43L912.06 238.43L912.06 239.75L909.17 239.75M909.17 237.66L909.17 236.39L912.06 236.39L912.06 237.66M915.93 238.43L915.93 239.75L912.98 239.75L912.98 238.43M915.93 237.66L912.98 237.66L912.98 236.39L915.93 236.39M908.20 235.58L908.20 241.04L909.17 241.04L909.17 240.56L915.93 240.56L915.93 240.99L916.95 240.99L916.95 235.58M912.51 229.79L912.51 230.67L914.03 230.67C913.85 232.42 913.37 233.76 911.65 234.51C911.86 234.67 912.12 235 912.23 235.20C914.16 234.29 914.74 232.73 914.96 230.67L916.96 230.67C916.87 232.85 916.74 233.68 916.54 233.92C916.45 234.03 916.34 234.05 916.14 234.05C915.95 234.05 915.41 234.05 914.85 233.99C914.98 234.23 915.09 234.58 915.10 234.85C915.68 234.88 916.26 234.88 916.57 234.85C916.92 234.83 917.15 234.74 917.35 234.49C917.66 234.12 917.79 233.07 917.92 230.21C917.92 230.08 917.93 229.79 917.93 229.79M907.53 234.90C907.78 234.74 908.20 234.58 911.11 233.79C911.24 234.06 911.34 234.32 911.41 234.54L912.27 234.18C912.02 233.41 911.37 232.24 910.76 231.37L909.97 231.69C910.24 232.10 910.50 232.55 910.75 233.01L908.44 233.58L908.44 230.78C909.64 230.52 910.93 230.19 911.86 229.81L911.20 229.09C910.32 229.50 908.81 229.91 907.50 230.20L907.50 233.04C907.50 233.64 907.21 233.99 907.01 234.15C907.17 234.31 907.43 234.68 907.53 234.89M924.88 230.56L929.71 230.56L929.71 232.95L924.88 232.95M924.98 236.92C924.43 237.93 923.63 239.06 922.87 239.84C923.11 239.97 923.47 240.25 923.64 240.39C924.37 239.57 925.24 238.30 925.86 237.19M928.48 237.32C929.31 238.25 930.25 239.52 930.69 240.34L931.48 239.84C931.02 239.05 930.06 237.83 929.22 236.91M923.94 229.69L923.94 233.84L926.77 233.84L926.77 235.38L922.98 235.38L922.98 236.28L926.77 236.28L926.77 241.04L927.75 241.04L927.75 236.28L931.44 236.28L931.44 235.38L927.75 235.38L927.75 233.84L930.69 233.84L930.69 229.69M922.60 229.12C921.85 231.08 920.60 233.02 919.30 234.27C919.47 234.49 919.75 235.01 919.85 235.23C920.31 234.76 920.77 234.22 921.20 233.62L921.20 241L922.15 241L922.15 232.17C922.67 231.29 923.13 230.35 923.51 229.41M939.66 230.67C939.81 231.24 939.96 231.99 940.01 232.43L940.84 232.24C940.77 231.82 940.61 231.09 940.44 230.54M943.30 229.17C941.78 229.51 939.01 229.73 936.75 229.81C936.85 230.02 936.95 230.34 936.98 230.56C939.27 230.51 942.10 230.29 943.87 229.90M937.33 230.94C937.56 231.46 937.82 232.16 937.94 232.59L938.75 232.32C938.63 231.91 938.34 231.24 938.10 230.73M942.79 230.39C942.52 231.04 942.02 231.95 941.58 232.59L936.94 232.59L936.94 233.40L938.57 233.40L938.46 234.42L936.55 234.42L936.55 235.25L938.33 235.25C938.01 237.15 937.29 239.19 935.43 240.34C935.67 240.49 935.97 240.81 936.10 241.03C937.39 240.18 938.17 238.95 938.67 237.62C939.09 238.27 939.61 238.83 940.20 239.32C939.44 239.79 938.54 240.10 937.55 240.32C937.73 240.49 938.01 240.86 938.10 241.07C939.15 240.81 940.11 240.42 940.93 239.86C941.82 240.42 942.86 240.83 944 241.08C944.13 240.82 944.40 240.44 944.61 240.25C943.52 240.05 942.53 239.71 941.70 239.26C942.48 238.53 943.10 237.58 943.48 236.35L942.93 236.10L942.76 236.14L939.10 236.14L939.28 235.25L944.38 235.25L944.38 234.42L939.40 234.42L939.50 233.40L944.09 233.40L944.09 232.59L942.53 232.59C942.92 232.02 943.35 231.33 943.71 230.69M939.22 236.89L942.35 236.89C942.02 237.66 941.54 238.28 940.94 238.79C940.22 238.27 939.63 237.63 939.22 236.89M935.46 234.67L935.46 237.65L933.85 237.65L933.85 234.67M935.46 233.80L933.85 233.80L933.85 230.94L935.46 230.94M932.98 230.07L932.98 239.54L933.85 239.54L933.85 238.52L936.34 238.52L936.34 230.07" fill="#2c2416" aria-label="釜山海岸風預留保暖"/>
  <path d="M836.59 263.10L836.59 264.61L833.58 264.61L833.58 265.53L836.59 265.53L836.59 269.87C836.59 270.05 836.53 270.12 836.32 270.13C836.11 270.13 835.40 270.13 834.63 270.12C834.76 270.38 834.93 270.78 834.98 271.04C836.01 271.05 836.63 271.03 837.03 270.88C837.45 270.73 837.59 270.45 837.59 269.88L837.59 265.53L840.48 265.53L840.48 264.61L837.59 264.61L837.59 263.33C838.52 262.54 839.45 261.45 840.09 260.46L839.41 259.98L839.18 260.04L834.16 260.04L834.16 260.94L838.52 260.94C838 261.69 837.27 262.55 836.59 263.10M828.49 262.08L828.60 263.02L829.63 262.97C829.38 264.19 829.11 265.35 828.85 266.20C829.51 266.71 830.25 267.32 830.94 267.93C830.39 268.79 829.61 269.64 828.53 270.39C828.75 270.55 829.09 270.86 829.24 271.07C830.30 270.30 831.08 269.45 831.67 268.58C832.26 269.14 832.80 269.68 833.16 270.12L833.80 269.30C833.41 268.84 832.82 268.28 832.16 267.71C833.04 266 833.23 264.21 833.26 262.73L834.01 262.69L834.01 261.81L833.26 261.85L833.26 260.94L832.34 260.94L832.34 261.90L830.74 261.98C830.92 261 831.08 260.03 831.17 259.16L830.21 259.11C830.13 260 829.98 261.02 829.81 262.03M829.90 265.88C830.12 265.02 830.35 263.98 830.57 262.90L832.33 262.80C832.30 264.07 832.13 265.59 831.42 267.07C830.91 266.66 830.39 266.24 829.90 265.88M843.85 265.01C843.65 266.92 843.03 269.22 841.44 270.43C841.66 270.58 842 270.88 842.17 271.07C843.09 270.34 843.72 269.27 844.15 268.10C845.45 270.38 847.57 270.87 850.36 270.87L853.17 270.87C853.22 270.60 853.39 270.16 853.53 269.92C852.96 269.94 850.83 269.94 850.40 269.94C849.53 269.94 848.71 269.88 847.97 269.73L847.97 267.17L852.32 267.17L852.32 266.28L847.97 266.28L847.97 264.21L853.17 264.21L853.17 263.31L847.97 263.31L847.97 261.51L852.22 261.51L852.22 260.60L847.97 260.60L847.97 259.09L846.97 259.09L846.97 260.60L842.95 260.60L842.95 261.51L846.97 261.51L846.97 263.31L841.82 263.31L841.82 264.21L846.97 264.21L846.97 269.43C845.90 269 845.07 268.23 844.51 266.92C844.67 266.32 844.78 265.72 844.86 265.14M862.96 264.94L862.96 266.59L860.64 266.59L860.64 267.49L862.96 267.49L862.96 269.66L860.06 269.66L860.06 270.58L866.51 270.58L866.51 269.66L863.91 269.66L863.91 267.49L866.15 267.49L866.15 266.59L863.91 266.59L863.91 264.94M862.96 259.11L862.96 260.82L860.81 260.82L860.81 261.72L862.96 261.72L862.96 263.63L860.43 263.63L860.43 264.54L866.36 264.54L866.36 263.63L863.91 263.63L863.91 261.72L866.09 261.72L866.09 260.82L863.91 260.82L863.91 259.11M855.01 263.76L855.01 266.88L857.08 266.88L857.08 267.89L854.52 267.89L854.52 268.74L857.08 268.74L857.08 271.05L857.99 271.05L857.99 268.74L860.38 268.74L860.38 267.89L857.99 267.89L857.99 266.88L859.97 266.88L859.97 263.76L857.99 263.76L857.99 262.90L859.41 262.90L859.41 261.10L860.51 261.10L860.51 260.28L859.41 260.28L859.41 259.09L858.52 259.09L858.52 260.28L856.57 260.28L856.57 259.09L855.72 259.09L855.72 260.28L854.59 260.28L854.59 261.10L855.72 261.10L855.72 262.90L857.08 262.90L857.08 263.76M858.52 261.10L858.52 262.12L856.57 262.12L856.57 261.10M855.86 264.53L857.15 264.53L857.15 266.11L855.86 266.11M857.93 264.53L859.12 264.53L859.12 266.11L857.93 266.11M878.22 265.57L878.22 264.67L873.94 264.67L873.94 260.39L873.06 260.39L873.06 264.67L868.78 264.67L868.78 265.57L873.06 265.57L873.06 269.84L873.94 269.84L873.94 265.57M883.03 259.08C882.44 261.08 881.48 263.07 880.42 264.38C880.59 264.63 880.86 265.16 880.94 265.38C881.30 264.93 881.65 264.42 881.98 263.85L881.98 271.01L882.92 271.01L882.92 261.99C883.32 261.13 883.65 260.24 883.93 259.34M889.23 259.13L889.23 260.41L887.06 260.41L887.06 259.13L886.12 259.13L886.12 260.41L884.15 260.41L884.15 261.32L886.12 261.32L886.12 262.56L883.78 262.56L883.78 263.47L885.67 263.47C885 264.36 884.06 265.11 883.09 265.62C883.28 265.81 883.58 266.23 883.68 266.41C884.06 266.19 884.45 265.92 884.81 265.62L884.81 267.01C884.81 268.10 884.72 269.48 883.94 270.49C884.16 270.61 884.56 270.92 884.72 271.09C885.17 270.52 885.43 269.79 885.58 269.06L887.83 269.06L887.83 270.73L888.71 270.73L888.71 269.06L890.76 269.06L890.76 270.04C890.76 270.16 890.73 270.21 890.61 270.21C890.48 270.21 890.10 270.21 889.71 270.19C889.83 270.42 889.95 270.75 890 270.99C890.60 270.99 891.02 270.98 891.32 270.85C891.61 270.70 891.69 270.48 891.69 270.04L891.69 264.50L885.97 264.50C886.25 264.18 886.51 263.82 886.73 263.47L892.27 263.47L892.27 262.56L890.18 262.56L890.18 261.32L891.95 261.32L891.95 260.41L890.18 260.41L890.18 259.13M887.06 262.56L887.06 261.32L889.23 261.32L889.23 262.56M887.83 267.18L887.83 268.32L885.69 268.32C885.73 267.92 885.76 267.54 885.76 267.18M888.71 267.18L890.76 267.18L890.76 268.32L888.71 268.32M887.83 266.43L885.76 266.43L885.76 265.33L887.83 265.33M888.71 266.43L888.71 265.33L890.76 265.33L890.76 266.43M894.99 259.99L894.99 264.71C894.99 266.54 894.86 268.84 893.42 270.47C893.64 270.58 894.03 270.91 894.17 271.11C895.17 270 895.61 268.50 895.81 267.05L899.07 267.05L899.07 270.92L900.06 270.92L900.06 267.05L903.57 267.05L903.57 269.71C903.57 269.95 903.48 270.03 903.22 270.04C902.97 270.05 902.09 270.06 901.18 270.03C901.31 270.29 901.46 270.71 901.51 270.96C902.74 270.98 903.49 270.96 903.93 270.81C904.38 270.65 904.53 270.35 904.53 269.71L904.53 259.99M895.95 260.93L899.07 260.93L899.07 263.02L895.95 263.02M903.57 260.93L903.57 263.02L900.06 263.02L900.06 260.93M895.95 263.94L899.07 263.94L899.07 266.13L895.90 266.13C895.94 265.63 895.95 265.15 895.95 264.71M903.57 263.94L903.57 266.13L900.06 266.13L900.06 263.94M914.96 264.94L914.96 266.59L912.64 266.59L912.64 267.49L914.96 267.49L914.96 269.66L912.06 269.66L912.06 270.58L918.51 270.58L918.51 269.66L915.91 269.66L915.91 267.49L918.15 267.49L918.15 266.59L915.91 266.59L915.91 264.94M914.96 259.11L914.96 260.82L912.81 260.82L912.81 261.72L914.96 261.72L914.96 263.63L912.43 263.63L912.43 264.54L918.36 264.54L918.36 263.63L915.91 263.63L915.91 261.72L918.09 261.72L918.09 260.82L915.91 260.82L915.91 259.11M907.01 263.76L907.01 266.88L909.08 266.88L909.08 267.89L906.52 267.89L906.52 268.74L909.08 268.74L909.08 271.05L909.99 271.05L909.99 268.74L912.38 268.74L912.38 267.89L909.99 267.89L909.99 266.88L911.97 266.88L911.97 263.76L909.99 263.76L909.99 262.90L911.41 262.90L911.41 261.10L912.51 261.10L912.51 260.28L911.41 260.28L911.41 259.09L910.52 259.09L910.52 260.28L908.57 260.28L908.57 259.09L907.72 259.09L907.72 260.28L906.59 260.28L906.59 261.10L907.72 261.10L907.72 262.90L909.08 262.90L909.08 263.76M910.52 261.10L910.52 262.12L908.57 262.12L908.57 261.10M907.86 264.53L909.15 264.53L909.15 266.11L907.86 266.11M909.93 264.53L911.12 264.53L911.12 266.11L909.93 266.11" fill="#2c2416" aria-label="好走鞋＋備用鞋"/>
  <path d="M94.71 494.26C96.14 495.22 97.94 496.64 98.79 497.56L99.52 496.87C98.62 495.94 96.80 494.60 95.38 493.69M88.83 490.76L88.83 491.68L94.17 491.68C92.98 493.74 90.92 495.76 88.53 496.94C88.72 497.14 89 497.50 89.14 497.73C90.81 496.86 92.30 495.62 93.51 494.23L93.51 500.94L94.48 500.94L94.48 492.99C94.79 492.57 95.07 492.13 95.32 491.68L99.17 491.68L99.17 490.76M103.18 498.15C102.95 498.85 102.54 499.75 102.05 500.30L102.78 500.65C103.26 500.07 103.64 499.16 103.90 498.45M104.40 498.34C104.66 499.03 104.82 499.90 104.81 500.46L105.56 500.35C105.56 499.80 105.36 498.93 105.11 498.26M105.93 498.34C106.29 498.93 106.60 499.70 106.71 500.20L107.40 499.99C107.30 499.50 106.95 498.73 106.58 498.16M107.44 498.32C107.85 498.72 108.28 499.28 108.46 499.68L109.08 499.35C108.90 498.97 108.46 498.42 108.04 498.03M105.11 490.11C105.26 490.35 105.39 490.63 105.51 490.89L100.90 490.89L100.90 493.02L101.73 493.02L101.73 491.68L110.25 491.68L110.25 493.02L111.11 493.02L111.11 490.89L106.56 490.89C106.42 490.56 106.20 490.16 106.01 489.85M106.53 494.13L106.53 494.79L108.83 494.79L108.83 495.61L103.14 495.61L103.14 494.79L105.48 494.79L105.48 494.13L103.14 494.13L103.14 493.33C104.03 493.15 104.99 492.91 105.71 492.64L105.15 492.07C104.46 492.34 103.32 492.64 102.34 492.86L102.34 496.27L103.76 496.27C103 497.22 101.75 497.98 100.53 498.46C100.70 498.63 100.96 499 101.07 499.18C101.85 498.82 102.64 498.36 103.32 497.79L109.84 497.79C109.73 499.29 109.61 499.89 109.43 500.07C109.34 500.18 109.23 500.19 109.02 500.18C108.82 500.18 108.27 500.18 107.69 500.12C107.84 500.34 107.92 500.67 107.94 500.91C108.54 500.95 109.12 500.96 109.42 500.92C109.74 500.90 109.97 500.84 110.18 500.62C110.48 500.30 110.61 499.48 110.74 497.41C110.75 497.29 110.76 497.05 110.76 497.05L104.13 497.05C104.36 496.80 104.56 496.54 104.74 496.27L109.66 496.27L109.66 492.67L106.32 492.67L106.32 493.33L108.83 493.33L108.83 494.13M112.67 490.66L112.67 491.54L115 491.54C114.56 493.21 113.67 495.07 112.41 496.20C112.61 496.34 112.92 496.62 113.08 496.80C113.37 496.52 113.64 496.22 113.90 495.90C114.54 496.44 115.28 497.11 115.73 497.64C114.89 498.74 113.79 499.51 112.53 500.01C112.73 500.17 113.04 500.53 113.16 500.74C115.68 499.65 117.60 497.46 118.31 493.52L117.75 493.30L117.58 493.33L115.34 493.33C115.59 492.73 115.79 492.13 115.96 491.54L118.96 491.54L118.96 498.97C118.96 500.13 119.26 500.43 120.34 500.43C120.57 500.43 121.95 500.43 122.19 500.43C123.20 500.43 123.44 499.89 123.54 498.18C123.29 498.10 122.93 497.95 122.72 497.79C122.67 499.27 122.60 499.60 122.13 499.60C121.83 499.60 120.68 499.60 120.45 499.60C119.94 499.60 119.87 499.51 119.87 498.98L119.87 495.58L122.98 495.58L122.98 494.74L119.87 494.74L119.87 491.54L123.35 491.54L123.35 490.66M117.28 494.17C117.04 495.21 116.69 496.11 116.25 496.87C115.76 496.35 115.02 495.70 114.38 495.20C114.58 494.86 114.77 494.53 114.95 494.17M126.40 491L128.69 491L128.69 492.13L126.40 492.13M125.58 490.39L125.58 492.73L129.54 492.73L129.54 490.39M131.32 491L133.66 491L133.66 492.13L131.32 492.13M130.52 490.39L130.52 492.73L134.51 492.73L134.51 490.39M126.78 495.78L129.50 495.78L129.50 496.82L126.78 496.82M130.43 495.78L133.31 495.78L133.31 496.82L130.43 496.82M126.78 494.06L129.50 494.06L129.50 495.09L126.78 495.09M130.43 494.06L133.31 494.06L133.31 495.09L130.43 495.09M124.70 498.46L124.70 499.27L129.50 499.27L129.50 500.96L130.43 500.96L130.43 499.27L135.34 499.27L135.34 498.46L130.43 498.46L130.43 497.55L134.22 497.55L134.22 493.34L125.90 493.34L125.90 497.55L129.50 497.55L129.50 498.46M136.53 494.83L136.53 495.81L147.52 495.81L147.52 494.83M149.07 490.68C149.80 491.04 150.68 491.61 151.11 492.04L151.64 491.30C151.20 490.88 150.30 490.35 149.58 490.03M148.46 493.92C149.20 494.24 150.09 494.78 150.52 495.18L151.04 494.44C150.59 494.05 149.69 493.53 148.96 493.24M148.73 500.25L149.52 500.80C150.14 499.69 150.86 498.19 151.40 496.93L150.69 496.39C150.10 497.74 149.30 499.33 148.73 500.25M153.35 491.19L157.43 491.19L157.43 494.48L153.35 494.48M152.52 490.48L152.52 495.19L158.28 495.19L158.28 490.48M151.01 499.81L151.01 500.61L159.54 500.61L159.54 499.81L158.72 499.81L158.72 496.09L152.09 496.09L152.09 499.81M152.92 499.81L152.92 496.87L154.08 496.87L154.08 499.81M154.78 499.81L154.78 496.87L155.97 496.87L155.97 499.81M156.68 499.81L156.68 496.87L157.86 496.87L157.86 499.81M155.19 491.40C155.04 492.32 154.49 493.27 153.59 493.77C153.71 493.88 153.90 494.10 154 494.23C154.54 493.93 154.97 493.46 155.30 492.93C155.80 493.36 156.34 493.88 156.63 494.22L157.10 493.80C156.76 493.44 156.11 492.86 155.56 492.42C155.69 492.12 155.79 491.79 155.85 491.48M164.63 492.27L164.63 493.32L162.70 493.32L162.70 494.06L164.63 494.06L164.63 496.05L169.30 496.05L169.30 494.06L171.24 494.06L171.24 493.32L169.30 493.32L169.30 492.27L168.41 492.27L168.41 493.32L165.50 493.32L165.50 492.27M168.41 494.06L168.41 495.33L165.50 495.33L165.50 494.06M169.08 497.56C168.56 498.19 167.81 498.68 166.95 499.06C166.10 498.67 165.40 498.16 164.90 497.56M162.87 496.82L162.87 497.56L164.43 497.56L164.02 497.73C164.51 498.40 165.17 498.97 165.96 499.44C164.84 499.80 163.58 500.01 162.30 500.12C162.44 500.32 162.60 500.67 162.66 500.89C164.16 500.72 165.63 500.42 166.91 499.92C168.10 500.44 169.50 500.78 171.02 500.96C171.12 500.73 171.35 500.37 171.54 500.18C170.22 500.06 168.99 499.82 167.92 499.45C168.98 498.88 169.85 498.12 170.40 497.08L169.84 496.78L169.68 496.82M165.68 490.08C165.84 490.39 166.02 490.77 166.16 491.11L161.51 491.11L161.51 494.38C161.51 496.17 161.43 498.74 160.44 500.55C160.67 500.62 161.07 500.82 161.25 500.96C162.26 499.06 162.41 496.29 162.41 494.37L162.41 491.96L171.38 491.96L171.38 491.11L167.18 491.11C167.03 490.72 166.79 490.24 166.58 489.86M180.14 493.10L181.79 493.10C181.64 494.53 181.38 495.75 180.96 496.78C180.56 495.73 180.28 494.53 180.09 493.24M172.53 497.25L172.53 497.91L174.08 497.91C173.84 498.31 173.58 498.67 173.36 498.97C173.91 499.11 174.50 499.32 175.08 499.53C174.45 499.84 173.60 500.12 172.44 500.35C172.59 500.49 172.77 500.78 172.84 500.95C174.23 500.66 175.22 500.29 175.91 499.88C176.51 500.13 177.05 500.41 177.45 500.64L177.74 500.37C177.89 500.54 178.08 500.83 178.16 500.97C179.36 500.35 180.24 499.54 180.92 498.54C181.46 499.54 182.15 500.36 183.04 500.91C183.16 500.68 183.44 500.36 183.63 500.20C182.67 499.69 181.94 498.82 181.38 497.73C182.01 496.48 182.38 494.96 182.61 493.10L183.53 493.10L183.53 492.30L180.38 492.30C180.58 491.58 180.76 490.82 180.90 490.06L180.12 489.92C179.78 491.86 179.21 493.83 178.42 495.14L178.42 494.52L176.06 494.52L176.06 494L178.17 494L178.17 492.63L178.85 492.63L178.85 491.95L178.17 491.95L178.17 490.70L176.06 490.70L176.06 489.92L175.34 489.92L175.34 490.70L173.34 490.70L173.34 491.95L172.53 491.95L172.53 492.63L173.34 492.63L173.34 494L175.34 494L175.34 494.52L173.07 494.52L173.07 496.48L174.86 496.48C174.74 496.74 174.60 496.99 174.46 497.25M176.81 496.76L176.81 497.17L176.81 497.25L175.30 497.25C175.43 497 175.56 496.74 175.68 496.48L178.42 496.48L178.42 495.37C178.60 495.51 178.85 495.74 178.96 495.86C179.20 495.46 179.42 495.01 179.62 494.50C179.85 495.68 180.14 496.76 180.53 497.70C179.94 498.73 179.13 499.53 178.01 500.12L178.04 500.10C177.65 499.88 177.14 499.64 176.58 499.40C177.14 498.92 177.38 498.40 177.47 497.91L178.76 497.91L178.76 497.25L177.54 497.25L177.54 497.18L177.54 496.76M174.06 491.32L175.34 491.32L175.34 491.98L174.06 491.98M175.34 493.36L174.06 493.36L174.06 492.60L175.34 492.60M176.06 491.32L177.44 491.32L177.44 491.98L176.06 491.98M176.06 493.36L176.06 492.60L177.44 492.60L177.44 493.36M173.85 495.09L175.34 495.09L175.34 495.90L173.85 495.90M176.06 495.09L177.62 495.09L177.62 495.90L176.06 495.90M174.47 498.63L174.92 497.91L176.72 497.91C176.60 498.30 176.34 498.70 175.82 499.09C175.37 498.92 174.92 498.76 174.47 498.63M189.52 495.64L189.52 496.40L184.83 496.40L184.83 497.26L189.52 497.26L189.52 499.83C189.52 500 189.46 500.06 189.24 500.07C189.03 500.07 188.25 500.07 187.44 500.05C187.60 500.29 187.77 500.70 187.83 500.95C188.85 500.95 189.48 500.94 189.90 500.80C190.34 500.65 190.47 500.38 190.47 499.86L190.47 497.26L195.16 497.26L195.16 496.40L190.47 496.40L190.47 495.96C191.52 495.39 192.60 494.58 193.35 493.81L192.74 493.34L192.53 493.39L186.80 493.39L186.80 494.24L191.62 494.24C191.01 494.77 190.23 495.30 189.52 495.64M189.09 490.11C189.32 490.42 189.54 490.82 189.70 491.17L184.96 491.17L184.96 493.65L185.85 493.65L185.85 492.03L194.12 492.03L194.12 493.65L195.04 493.65L195.04 491.17L190.76 491.17C190.59 490.77 190.28 490.23 189.96 489.84M203.66 497.76C204.02 498.25 204.39 498.94 204.53 499.39L205.19 499.11C205.05 498.68 204.66 498 204.28 497.52M198.46 490.28C198.93 490.78 199.43 491.48 199.65 491.95L200.48 491.56C200.24 491.11 199.71 490.42 199.25 489.96M200.09 498.04C200.31 498.82 200.44 499.82 200.40 500.47L201.20 500.35C201.20 499.70 201.08 498.72 200.84 497.95M201.87 497.94C202.16 498.61 202.44 499.48 202.53 500.05L203.28 499.84C203.18 499.29 202.89 498.43 202.56 497.78M198.56 497.78C198.33 498.70 197.86 499.77 197.20 500.41L197.90 500.89C198.62 500.17 199.04 499.02 199.31 498.02M202.10 489.91C201.89 490.60 201.64 491.30 201.34 491.97L196.98 491.97L196.98 492.80L200.94 492.80C199.91 494.82 198.40 496.63 196.36 497.79C196.52 497.98 196.74 498.33 196.85 498.55C197.56 498.13 198.21 497.65 198.80 497.11L206.26 497.11C206.07 499.02 205.88 499.82 205.61 500.06C205.50 500.17 205.38 500.18 205.17 500.18C204.94 500.19 204.36 500.18 203.75 500.12C203.90 500.36 204 500.71 204.02 500.95C204.64 500.98 205.23 500.98 205.54 500.96C205.90 500.94 206.13 500.86 206.36 500.62C206.74 500.24 206.96 499.23 207.18 496.70C207.20 496.58 207.22 496.32 207.22 496.32L205.91 496.32C206.07 495.69 206.24 494.85 206.37 494.14L205 494.14C205.16 493.52 205.34 492.69 205.47 491.97L202.32 491.97C202.58 491.37 202.80 490.76 203.01 490.14M199.59 496.32C199.98 495.88 200.36 495.42 200.69 494.94L205.38 494.94C205.30 495.42 205.18 495.91 205.07 496.32M201.94 492.80L204.47 492.80C204.38 493.28 204.27 493.76 204.16 494.14L201.21 494.14C201.47 493.71 201.71 493.26 201.94 492.80M209.09 493.54L209.09 494.26L212.78 494.26L212.78 493.54M209.09 495.13L209.09 495.84L212.76 495.84L212.76 495.13M208.56 491.96L208.56 492.70L213.16 492.70L213.16 491.96M209.92 490.23C210.24 490.71 210.63 491.41 210.81 491.84L211.55 491.42C211.36 490.99 210.98 490.35 210.62 489.87M209.09 496.72L209.09 500.80L209.88 500.80L209.88 500.23L212.73 500.23L212.73 496.72M209.88 497.48L211.94 497.48L211.94 499.47L209.88 499.47M213.39 490.93L213.39 491.80L216.78 491.80L216.78 499.60C216.78 499.83 216.69 499.90 216.45 499.92C216.18 499.93 215.28 499.94 214.37 499.89C214.52 500.14 214.68 500.58 214.73 500.83C215.90 500.83 216.66 500.83 217.10 500.67C217.54 500.52 217.68 500.22 217.68 499.60L217.68 491.80L219.53 491.80L219.53 490.93M227.75 498.72C228.75 499.28 230.01 500.12 230.61 500.67L231.30 500.13C230.64 499.58 229.38 498.79 228.40 498.26M222.10 495.62L222.10 496.34L229.92 496.34L229.92 495.62M223.25 498.22C222.63 498.97 221.56 499.66 220.54 500.11C220.74 500.25 221.08 500.55 221.22 500.72C222.22 500.19 223.37 499.38 224.09 498.51M220.65 497.17L220.65 497.92L225.56 497.92L225.56 500.98L226.44 500.98L226.44 497.92L231.39 497.92L231.39 497.17M221.50 492.07L221.50 494.84L230.57 494.84L230.57 492.07L227.75 492.07L227.75 491.14L231.15 491.14L231.15 490.40L220.78 490.40L220.78 491.14L224.16 491.14L224.16 492.07M224.99 491.14L226.90 491.14L226.90 492.07L224.99 492.07M222.34 492.75L224.16 492.75L224.16 494.14L222.34 494.14M224.99 492.75L226.90 492.75L226.90 494.14L224.99 494.14M227.75 492.75L229.68 492.75L229.68 494.14L227.75 494.14M233.61 498.43L233.61 499.14L237.51 499.14L237.51 499.95C237.51 500.17 237.44 500.23 237.21 500.24C237 500.25 236.27 500.26 235.55 500.24C235.67 500.44 235.83 500.78 235.88 501C236.88 501 237.51 500.98 237.88 500.85C238.25 500.72 238.42 500.50 238.42 499.95L238.42 499.14L241.30 499.14L241.30 499.66L242.21 499.66L242.21 497.53L243.46 497.53L243.46 496.81L242.21 496.81L242.21 495.31L238.42 495.31L238.42 494.46L242.02 494.46L242.02 492.33L238.42 492.33L238.42 491.62L243.22 491.62L243.22 490.88L238.42 490.88L238.42 489.92L237.51 489.92L237.51 490.88L232.80 490.88L232.80 491.62L237.51 491.62L237.51 492.33L234.06 492.33L234.06 494.46L237.51 494.46L237.51 495.31L233.72 495.31L233.72 495.97L237.51 495.97L237.51 496.81L232.58 496.81L232.58 497.53L237.51 497.53L237.51 498.43M234.93 492.97L237.51 492.97L237.51 493.82L234.93 493.82M238.42 492.97L241.11 492.97L241.11 493.82L238.42 493.82M238.42 495.97L241.30 495.97L241.30 496.81L238.42 496.81M238.42 497.53L241.30 497.53L241.30 498.43L238.42 498.43M247.08 497.12L252.96 497.12L252.96 497.68L247.08 497.68M247.08 498.20L252.96 498.20L252.96 498.76L247.08 498.76M247.08 496.08L252.96 496.08L252.96 496.60L247.08 496.60M249.10 490.08C249.29 490.34 249.50 490.68 249.64 490.98L244.97 490.98L244.97 492.90L245.80 492.90L245.80 491.71L254.19 491.71L254.19 492.90L255.05 492.90L255.05 490.98L250.58 490.98C250.42 490.62 250.14 490.16 249.88 489.82M247.47 492.80L249.68 492.80L249.64 493.35L247.40 493.35M249.51 494.48L247.25 494.48L247.32 493.89L249.58 493.89M250.44 492.80L252.69 492.80L252.64 493.35L250.40 493.35M250.29 494.48L250.35 493.89L252.60 493.89L252.56 494.48M250.77 499.82C252.17 500.20 253.58 500.66 254.45 501L255.05 500.42C254.13 500.08 252.66 499.65 251.28 499.30L253.88 499.30L253.88 495.52L246.21 495.52L246.21 499.30L248.50 499.30C247.73 499.72 246.11 500.16 244.84 500.36C245 500.53 245.22 500.82 245.33 500.98C246.66 500.77 248.28 500.31 249.28 499.77L248.55 499.30L251.22 499.30M244.58 493.28L244.58 493.98L246.50 493.98L246.36 495.03L253.34 495.03L253.43 493.98L255.46 493.98L255.46 493.28L253.49 493.28L253.58 492.27L246.72 492.27L246.59 493.28" fill="#2c2416" aria-label="不寫死單一溫度數字為訂票事實"/>
</svg>
