<?xml version="1.0" encoding="UTF-8"?><svg xmlns="http://www.w3.org/2000/svg" width="98.74100000000003" height="12" viewBox="0 0 98.74100000000003 12"><path d="M6.34 3.03C6.86 3.49 7.47 4.15 7.75 4.58L8.30 4.19C8 3.76 7.37 3.12 6.85 2.67M7.49 6.16C7.18 6.73 6.78 7.30 6.30 7.81C6.15 7.21 6.02 6.51 5.93 5.74L8.51 5.74L8.51 5.10L5.86 5.10C5.79 4.29 5.75 3.42 5.75 2.51L5.04 2.51C5.05 3.40 5.09 4.28 5.17 5.10L3.11 5.10L3.11 3.52C3.65 3.40 4.18 3.27 4.62 3.11L4.14 2.55C3.28 2.87 1.82 3.18 0.56 3.37C0.64 3.53 0.73 3.77 0.77 3.93C1.30 3.86 1.87 3.77 2.43 3.66L2.43 5.10L0.50 5.10L0.50 5.74L2.43 5.74L2.43 7.34L0.37 7.74L0.57 8.43L2.43 8L2.43 9.85C2.43 10 2.38 10.04 2.22 10.05C2.06 10.06 1.53 10.06 0.95 10.04C1.05 10.23 1.17 10.54 1.20 10.73C1.94 10.73 2.43 10.71 2.71 10.60C3.01 10.49 3.11 10.29 3.11 9.85L3.11 7.84L4.77 7.45L4.72 6.85L3.11 7.19L3.11 5.74L5.23 5.74C5.35 6.72 5.52 7.62 5.73 8.38C5.09 8.97 4.36 9.48 3.59 9.85C3.76 9.99 3.96 10.22 4.06 10.38C4.73 10.03 5.38 9.58 5.97 9.05C6.37 10.11 6.93 10.75 7.64 10.75C8.32 10.75 8.57 10.31 8.69 8.81C8.51 8.75 8.26 8.60 8.12 8.44C8.06 9.60 7.96 10.06 7.70 10.06C7.25 10.06 6.84 9.49 6.52 8.53C7.14 7.89 7.68 7.17 8.08 6.41M12.48 4.83L13.74 4.83L13.74 5.70L12.48 5.70M12.48 4.31L12.48 3.50L13.74 3.50L13.74 4.31M16.70 4.83L16.70 5.70L15.37 5.70L15.37 4.83M16.70 4.31L15.37 4.31L15.37 3.50L16.70 3.50M17.03 2.96L14.82 2.96L14.82 6.24L16.70 6.24L16.70 9.83C16.70 10.01 16.64 10.06 16.47 10.06C16.29 10.07 15.67 10.08 15.02 10.05C15.12 10.23 15.23 10.53 15.26 10.71C16.11 10.71 16.64 10.70 16.95 10.59C17.24 10.49 17.35 10.28 17.35 9.84L17.35 2.96M11.85 2.96L11.85 10.70L12.48 10.70L12.48 6.24L14.28 6.24L14.28 2.96M11.10 2.48C10.67 3.88 9.95 5.27 9.16 6.17C9.28 6.34 9.45 6.69 9.51 6.85C9.81 6.50 10.10 6.09 10.37 5.64L10.37 10.72L11.02 10.72L11.02 4.43C11.29 3.86 11.53 3.26 11.72 2.66M22.97 6.19C23.46 6.85 24.08 7.75 24.35 8.30L24.92 7.94C24.62 7.41 24 6.54 23.49 5.90M20.16 2.42C20.09 2.85 19.94 3.45 19.79 3.89L18.78 3.89L18.78 10.49L19.40 10.49L19.40 9.78L21.92 9.78L21.92 3.89L20.41 3.89C20.57 3.50 20.74 3 20.89 2.55M19.40 4.49L21.29 4.49L21.29 6.39L19.40 6.39M19.40 9.16L19.40 6.98L21.29 6.98L21.29 9.16M23.38 2.40C23.09 3.65 22.61 4.89 21.99 5.69C22.15 5.78 22.43 5.97 22.55 6.08C22.86 5.64 23.15 5.09 23.40 4.48L25.70 4.48C25.60 8.09 25.45 9.48 25.16 9.78C25.06 9.91 24.96 9.94 24.78 9.94C24.57 9.94 24.03 9.93 23.44 9.88C23.56 10.05 23.64 10.34 23.66 10.53C24.17 10.56 24.70 10.58 25 10.55C25.33 10.51 25.52 10.44 25.73 10.17C26.09 9.73 26.22 8.33 26.35 4.20C26.36 4.11 26.36 3.86 26.36 3.86L23.64 3.86C23.79 3.44 23.92 2.99 24.03 2.55M32.33 5.89L34.50 5.89L34.50 6.80L32.33 6.80M28.31 6.49L30.21 6.49L30.21 7.20L28.31 7.20M28.31 5.29L30.21 5.29L30.21 5.98L28.31 5.98M34.33 4.44L33.02 4.44L33.13 3.70L34.33 3.70M32.63 2.44L32.55 3.17L31.51 3.17L31.51 3.70L32.50 3.70L32.40 4.44L31.04 4.44L31.04 4.99L35.62 4.99L35.62 4.44L34.93 4.44L34.93 3.17L33.19 3.17L33.26 2.49M31.33 7.79L31.33 8.33L31.93 8.33C31.82 8.81 31.70 9.36 31.58 9.74L33.38 9.74L33.38 10.71L34.01 10.71L34.01 9.74L35.62 9.74L35.62 9.20L34.01 9.20L34.01 8.33L35.42 8.33L35.42 7.79L34.01 7.79L34.01 7.26L35.15 7.26L35.15 5.40L31.69 5.40L31.69 7.26L33.38 7.26L33.38 7.79M33.38 8.33L33.38 9.20L32.34 9.20L32.53 8.33M27.38 8.50L27.38 9.11L28.93 9.11L28.93 10.71L29.58 10.71L29.58 9.11L31.10 9.11L31.10 8.50L29.58 8.50L29.58 7.73L30.83 7.73L30.83 4.74L29.58 4.74L29.58 3.99L31.01 3.99L31.01 3.38L29.58 3.38L29.58 2.42L28.93 2.42L28.93 3.38L27.47 3.38L27.47 3.99L28.93 3.99L28.93 4.74L27.71 4.74L27.71 7.73L28.93 7.73L28.93 8.50M41.63 3.92C41.98 4.09 42.39 4.36 42.60 4.56L42.92 4.20C42.71 4 42.29 3.74 41.94 3.59M37.78 8.33L37.88 8.86C38.63 8.71 39.58 8.52 40.53 8.33L40.50 7.86C39.49 8.05 38.48 8.23 37.78 8.33M38.67 6.16L39.71 6.16L39.71 7.07L38.67 7.07M38.20 5.74L38.20 7.49L40.20 7.49L40.20 5.74M40.54 3.69L40.61 4.66L37.87 4.66L37.87 5.17L40.65 5.17C40.75 6.19 40.91 7.13 41.15 7.85C40.77 8.33 40.31 8.72 39.78 9.03C39.91 9.13 40.10 9.34 40.18 9.45C40.62 9.16 41.02 8.82 41.37 8.42C41.62 8.90 41.91 9.22 42.31 9.30C42.79 9.47 43.10 9.12 43.23 8.13C43.10 8.07 42.89 7.93 42.78 7.81C42.72 8.41 42.63 8.79 42.51 8.76C42.21 8.71 41.97 8.40 41.77 7.91C42.21 7.29 42.54 6.55 42.78 5.70L42.23 5.59C42.08 6.20 41.85 6.76 41.55 7.25C41.41 6.66 41.29 5.94 41.22 5.17L43.15 5.17L43.15 4.66L41.18 4.66L41.11 3.69M36.74 2.85L36.74 10.75L37.39 10.75L37.39 10.32L43.60 10.32L43.60 10.75L44.26 10.75L44.26 2.85M37.39 9.71L37.39 3.47L43.60 3.47L43.60 9.71M51.52 5.63C50.99 5.63 50.56 6.05 50.56 6.58C50.56 7.11 50.99 7.53 51.52 7.53C52.05 7.53 52.47 7.11 52.47 6.58C52.47 6.05 52.05 5.63 51.52 5.63M60.31 10L61.15 10L61.15 4.10L63.14 4.10L63.14 3.40L58.31 3.40L58.31 4.10L60.31 4.10M65.57 10.12C66.22 10.12 66.74 9.90 67.17 9.62L66.88 9.07C66.51 9.32 66.13 9.46 65.66 9.46C64.73 9.46 64.09 8.79 64.04 7.75L67.33 7.75C67.35 7.62 67.37 7.46 67.37 7.28C67.37 5.89 66.66 4.99 65.41 4.99C64.30 4.99 63.23 5.97 63.23 7.56C63.23 9.17 64.26 10.12 65.57 10.12M64.03 7.16C64.13 6.19 64.74 5.64 65.43 5.64C66.20 5.64 66.65 6.17 66.65 7.16M67.81 10L68.67 10L69.33 8.86C69.50 8.56 69.65 8.26 69.82 7.98L69.87 7.98C70.06 8.26 70.24 8.56 70.40 8.86L71.12 10L72.02 10L70.41 7.53L71.89 5.11L71.04 5.11L70.43 6.18C70.28 6.46 70.15 6.72 70 7L69.96 7C69.80 6.72 69.62 6.46 69.48 6.18L68.82 5.11L67.93 5.11L69.42 7.45M74.27 10.12C74.57 10.12 74.90 10.03 75.18 9.94L75.02 9.32C74.85 9.39 74.64 9.45 74.46 9.45C73.89 9.45 73.70 9.11 73.70 8.52L73.70 5.78L75.03 5.78L75.03 5.11L73.70 5.11L73.70 3.74L73.02 3.74L72.93 5.11L72.15 5.16L72.15 5.78L72.88 5.78L72.88 8.49C72.88 9.47 73.23 10.12 74.27 10.12M78.28 10.12C79.40 10.12 80.41 9.15 80.41 7.48C80.41 5.97 79.72 4.99 78.46 4.99C77.91 4.99 77.37 5.29 76.92 5.67L76.96 4.80L76.96 2.84L76.13 2.84L76.13 10L76.79 10L76.86 9.50L76.90 9.50C77.32 9.88 77.83 10.12 78.28 10.12M78.15 9.42C77.82 9.42 77.38 9.30 76.96 8.92L76.96 6.35C77.42 5.91 77.85 5.68 78.26 5.68C79.19 5.68 79.55 6.40 79.55 7.49C79.55 8.70 78.96 9.42 78.15 9.42M83.59 10.12C84.79 10.12 85.85 9.18 85.85 7.56C85.85 5.93 84.79 4.99 83.59 4.99C82.40 4.99 81.33 5.93 81.33 7.56C81.33 9.18 82.40 10.12 83.59 10.12M83.59 9.43C82.75 9.43 82.18 8.69 82.18 7.56C82.18 6.44 82.75 5.68 83.59 5.68C84.44 5.68 85.01 6.44 85.01 7.56C85.01 8.69 84.44 9.43 83.59 9.43M89.05 10.12C90.24 10.12 91.31 9.18 91.31 7.56C91.31 5.93 90.24 4.99 89.05 4.99C87.85 4.99 86.79 5.93 86.79 7.56C86.79 9.18 87.85 10.12 89.05 10.12M89.05 9.43C88.20 9.43 87.63 8.69 87.63 7.56C87.63 6.44 88.20 5.68 89.05 5.68C89.89 5.68 90.47 6.44 90.47 7.56C90.47 8.69 89.89 9.43 89.05 9.43M92.60 10L93.41 10L93.41 8.71L94.33 7.64L95.76 10L96.65 10L94.81 7.08L96.44 5.11L95.52 5.11L93.45 7.69L93.41 7.69L93.41 2.84L92.60 2.84" fill="#5a635c"/></svg>