<svg data-cjk-paths="1" xmlns="http://www.w3.org/2000/svg" width="1200" height="520" viewBox="0 0 1200 520"><rect width="1200" height="520" fill="#f3f7f2"/><path d="M42.55 48L48.46 48C54.59 48 58.48 44.53 58.48 37.53C58.48 30.56 54.59 27.25 48.23 27.25L42.55 27.25M46.69 44.64L46.69 30.58L47.95 30.58C51.84 30.58 54.25 32.49 54.25 37.53C54.25 42.57 51.84 44.64 47.95 44.64M66.04 48.39C67.86 48.39 69.43 47.52 70.77 46.32L70.91 46.32L71.19 48L74.55 48L74.55 38.84C74.55 34.31 72.51 31.93 68.53 31.93C66.07 31.93 63.83 32.88 62.01 34L63.46 36.74C64.92 35.88 66.32 35.23 67.78 35.23C69.71 35.23 70.38 36.41 70.44 37.95C64.14 38.62 61.42 40.38 61.42 43.72C61.42 46.40 63.24 48.39 66.04 48.39M67.41 45.17C66.21 45.17 65.34 44.64 65.34 43.41C65.34 41.98 66.60 40.94 70.44 40.50L70.44 43.63C69.46 44.61 68.59 45.17 67.41 45.17M80.12 54.27C83.62 54.27 85.30 52.17 86.68 48.48L92.25 32.32L88.30 32.32L86.14 39.60C85.75 41.06 85.36 42.57 85.02 44.02L84.88 44.02C84.44 42.51 84.04 41 83.57 39.60L81.08 32.32L76.93 32.32L83.04 47.69L82.76 48.64C82.31 50.02 81.41 51.02 79.82 51.02C79.45 51.02 79 50.91 78.72 50.83L77.97 53.99C78.58 54.16 79.20 54.27 80.12 54.27M100.17 48L114.06 48L114.06 44.53L109.58 44.53C108.60 44.53 107.23 44.64 106.16 44.78C109.94 41.06 113.08 37.02 113.08 33.27C113.08 29.41 110.48 26.89 106.56 26.89C103.73 26.89 101.88 27.98 99.95 30.05L102.24 32.26C103.28 31.12 104.51 30.14 106.02 30.14C108.01 30.14 109.13 31.42 109.13 33.47C109.13 36.69 105.83 40.58 100.17 45.62M134.86 47.10L134.86 49.85L142.40 49.85L142.40 47.10M128.54 24.31C127.11 28.32 124.67 32.32 122.15 34.84C122.71 35.65 123.61 37.50 123.92 38.34C124.56 37.67 125.18 36.91 125.79 36.13L125.79 50.46L128.98 50.46L128.98 31.14C130.02 29.27 130.94 27.28 131.70 25.32M132.04 47.86C132.71 47.41 133.77 47.02 139.90 45.40C139.82 44.70 139.79 43.41 139.85 42.54L135.31 43.60L135.31 37.72L140.86 37.72C141.70 45.23 143.35 50.13 146.26 50.16C147.38 50.18 148.67 49.09 149.31 44.61C148.81 44.36 147.60 43.55 147.07 42.93C146.93 45.17 146.65 46.43 146.29 46.40C145.39 46.38 144.50 42.85 143.88 37.72L148.58 37.72L148.58 34.62L143.57 34.62C143.40 32.52 143.26 30.28 143.21 27.95C144.92 27.56 146.54 27.08 147.97 26.58L145.45 24.06C142.23 25.29 136.96 26.41 132.18 27.08L132.20 27.11L132.18 43.21C132.18 44.36 131.45 44.95 130.86 45.20C131.31 45.82 131.87 47.10 132.04 47.86M140.55 34.62L135.31 34.62L135.31 29.44C136.94 29.18 138.59 28.93 140.21 28.60C140.30 30.70 140.41 32.71 140.55 34.62M162.44 36.24L162.44 38.65L176.78 38.65L176.78 36.24M166.42 41.59L172.52 41.59L172.52 43.04L166.42 43.04M170.59 47.64L168.35 47.64C168.10 46.88 167.71 45.87 167.34 45.06L171.52 45.06C171.29 45.84 170.93 46.82 170.59 47.64M164.71 45.59C164.96 46.21 165.24 46.96 165.47 47.64L162.14 47.64L162.14 50.07L177 50.07L177 47.64L173.34 47.64L174.60 45.65L172.50 45.06L175.63 45.06L175.63 39.54L163.51 39.54L163.51 45.06L166.48 45.06M162.86 26.24L162.86 35.26L176.25 35.26L176.25 26.24L172.64 26.24L172.64 24.23L170 24.23L170 26.24L168.80 26.24L168.80 24.23L166.20 24.23L166.20 26.24M165.36 31.76L166.78 31.76L166.78 33.08L165.36 33.08M168.83 31.76L170.14 31.76L170.14 33.08L168.83 33.08M172.19 31.76L173.64 31.76L173.64 33.08L172.19 33.08M165.36 28.43L166.78 28.43L166.78 29.72L165.36 29.72M168.83 28.43L170.14 28.43L170.14 29.72L168.83 29.72M172.19 28.43L173.64 28.43L173.64 29.72L172.19 29.72M158.33 38.68L158.33 41C157.71 40.50 156.82 39.85 156 39.32L155.05 40.27L155.05 38.68M159.81 36.49L153.34 36.49L153.34 35.34L159.81 35.34M150.94 33.08L150.94 37.47L152.34 37.47L152.34 41.78C152.34 44.02 152.22 46.88 150.82 48.98C151.47 49.29 152.70 50.10 153.18 50.60C154.16 49.12 154.66 47.13 154.88 45.20L155.61 46.77L158.33 45.03L158.33 47.58C158.33 47.83 158.24 47.94 157.96 47.94C157.71 47.94 156.87 47.94 156.06 47.92C156.40 48.59 156.76 49.68 156.84 50.38C158.33 50.38 159.34 50.35 160.12 49.93C160.90 49.51 161.10 48.81 161.10 47.61L161.10 37.47L162.33 37.47L162.33 33.08L161.18 33.08L161.18 25.10L152.03 25.10L152.03 33.08M158.33 42.88C157.07 43.46 155.92 44.02 154.94 44.42C155.02 43.49 155.05 42.62 155.05 41.84L155.05 41C155.86 41.62 156.73 42.37 157.21 42.88L158.33 41.62M155.70 28.62L155.70 33.08L154.63 33.08L154.63 27.48L158.44 27.48L158.44 28.62M158.44 33.08L157.40 33.08L157.40 30.50L158.44 30.50M188.54 24.26L188.54 30.05L179.94 30.05L179.94 33.50L188.40 33.50C187.92 38.40 186.05 44.14 179.08 47.92C179.89 48.53 181.15 49.82 181.71 50.66C189.58 46.21 191.56 39.32 192.01 33.50L199.88 33.50C199.46 41.87 198.90 45.56 198 46.43C197.64 46.80 197.30 46.88 196.72 46.88C195.96 46.88 194.31 46.88 192.54 46.74C193.19 47.69 193.66 49.20 193.69 50.21C195.40 50.27 197.16 50.30 198.20 50.13C199.43 49.99 200.24 49.68 201.08 48.62C202.34 47.10 202.88 42.88 203.46 31.65C203.49 31.20 203.52 30.05 203.52 30.05L192.12 30.05L192.12 24.26M223.93 27.62L223.93 43.46L226.84 43.46L226.84 27.62M228.89 24.79L228.89 46.68C228.89 47.13 228.72 47.24 228.30 47.27C227.82 47.27 226.40 47.27 224.94 47.22C225.39 48.11 225.84 49.57 225.92 50.46C228.05 50.46 229.64 50.35 230.62 49.82C231.63 49.29 231.94 48.42 231.94 46.71L231.94 24.79M219.14 28.26L219.14 35.37L217.80 35.37L217.80 28.26M206.68 35.37L206.68 38.42L208.25 38.42L208.25 50.52L211 50.52L211 38.42L212.23 38.42L212.23 49.93L214.38 49.93L214.38 38.42L215.67 38.42L215.67 49.88L217.80 49.88L217.80 47.94C218.14 48.70 218.50 49.79 218.58 50.46C219.70 50.46 220.46 50.35 221.16 49.88C221.86 49.34 222.03 48.48 222.03 47.33L222.03 38.42L223.46 38.42L223.46 35.37L222.03 35.37L222.03 25.35L208.25 25.35L208.25 35.37M219.14 38.42L219.14 47.24C219.14 47.50 219.06 47.58 218.84 47.58C218.67 47.61 218.28 47.61 217.80 47.58L217.80 38.42M211 35.37L211 28.26L212.23 28.26L212.23 35.37M214.38 28.26L215.67 28.26L215.67 35.37L214.38 35.37M246 32.85L246 35.32L251.96 35.32L251.96 32.85M235.94 26.80C237.57 27.59 239.56 28.82 240.48 29.74L242.50 27.06C241.49 26.13 239.42 25.04 237.82 24.37M234.63 34.39C236.22 35.12 238.24 36.30 239.16 37.19L241.12 34.48C240.12 33.61 238.07 32.54 236.48 31.93M234.77 48.25L237.82 49.93C238.97 47.10 240.17 43.74 241.15 40.64L238.46 38.93C237.37 42.32 235.86 45.98 234.77 48.25M252.21 24.54L252.32 28.34L242.13 28.34L242.13 36.18C242.13 39.96 241.94 45.17 239.78 48.78C240.48 49.09 241.77 49.96 242.30 50.46C244.68 46.54 245.04 40.38 245.04 36.18L245.04 31.28L252.46 31.28C252.69 35.90 253.08 39.88 253.70 42.99C252.27 45.12 250.48 46.85 248.32 48.17C248.96 48.67 250.08 49.76 250.53 50.32C252.07 49.26 253.44 48 254.65 46.54C255.52 49.01 256.69 50.41 258.26 50.44C259.38 50.44 260.78 49.32 261.48 44.19C260.95 43.94 259.63 43.13 259.10 42.46C258.96 45.06 258.68 46.49 258.29 46.46C257.78 46.43 257.31 45.28 256.86 43.32C258.48 40.58 259.72 37.33 260.56 33.66L257.64 33.10C257.25 35.01 256.75 36.77 256.10 38.42C255.85 36.30 255.66 33.89 255.52 31.28L260.61 31.28L260.61 28.34L259.41 28.34L260.84 26.94C260.08 26.10 258.51 24.98 257.22 24.28L255.43 25.94C256.52 26.61 257.76 27.56 258.54 28.34L255.38 28.34L255.29 24.54M245.86 36.88L245.86 46.26L248.04 46.26L248.04 44.78L252.21 44.78L252.21 36.88M248.04 39.32L250 39.32L250 42.32L248.04 42.32" fill="#2c2416" aria-label="Day 2 低體力刪減"/><rect x="40" y="90" width="1120" height="380" rx="8" fill="#fff" stroke="#2f5d3a" stroke-width="2"/><path d="M71.58 150L78.82 150L78.82 148.63L76.17 148.63L76.17 136.81L74.91 136.81C74.19 137.22 73.35 137.53 72.18 137.74L72.18 138.79L74.54 138.79L74.54 148.63L71.58 148.63M96.17 147.08C97.49 147.71 98.84 148.54 99.59 149.23L100.80 148.61C99.92 147.93 98.42 147.10 97.07 146.47M93.15 146.47C92.30 147.23 90.93 147.95 89.66 148.45C89.98 148.63 90.47 149.05 90.70 149.28C91.94 148.70 93.40 147.80 94.37 146.90M85.23 135.58C86.04 136.48 87.03 137.72 87.51 138.48L88.56 137.74C88.05 137.02 87.06 135.87 86.24 134.99M96.62 141.25L96.62 142.55L93.81 142.55L93.81 141.25L92.55 141.25L92.55 142.55L90.05 142.55L90.05 143.59L92.55 143.59L92.55 145.28L89.30 145.28L89.30 146.33L101.10 146.33L101.10 145.28L97.88 145.28L97.88 143.59L100.51 143.59L100.51 142.55L97.88 142.55L97.88 141.25M93.81 143.59L96.62 143.59L96.62 145.28L93.81 145.28M89.94 141.40C90.25 141.22 90.79 141.11 94.80 140.39C94.80 140.15 94.84 139.72 94.91 139.43L91.04 140.03L91.04 138.64L94.73 138.64L94.73 135.58L89.94 135.58L89.94 139.29C89.94 139.97 89.69 140.19 89.46 140.32C89.64 140.59 89.87 141.09 89.94 141.40M91.04 136.52L93.58 136.52L93.58 137.71L91.04 137.71M95.67 135.60L95.67 139.25C95.67 140.50 95.97 140.93 97.22 140.93C97.50 140.93 99.36 140.93 99.75 140.93C100.24 140.93 100.74 140.91 101 140.84C100.96 140.59 100.92 140.17 100.89 139.87C100.60 139.94 100.04 139.96 99.72 139.96C99.36 139.96 97.65 139.96 97.27 139.96C96.86 139.96 96.78 139.79 96.78 139.29L96.78 138.66L100.58 138.66L100.58 135.60M96.78 136.54L99.39 136.54L99.39 137.72L96.78 137.72M85.17 144.89C85.30 144.74 85.77 144.62 86.20 144.62L87.82 144.62C87.28 147.41 86.13 149.42 84.54 150.56C84.83 150.74 85.26 151.19 85.46 151.48C86.31 150.83 87.06 149.93 87.68 148.76C89.10 150.81 91.37 151.17 95.07 151.17C97.07 151.17 99.36 151.13 101.05 151.03C101.12 150.65 101.30 150.02 101.52 149.71C99.65 149.89 97 149.98 95.07 149.98C91.67 149.96 89.37 149.69 88.18 147.66C88.63 146.54 88.97 145.23 89.19 143.74L88.52 143.50L88.29 143.52L86.54 143.52C87.39 142.30 88.50 140.35 89.12 139.31L88.22 138.95L87.96 139.06L84.87 139.06L84.87 140.19L87.28 140.19C86.67 141.31 85.80 142.76 85.48 143.14C85.21 143.48 84.94 143.59 84.67 143.68C84.81 143.93 85.10 144.56 85.17 144.89M105.03 135.58L105.03 141.09L106.34 141.09L106.34 136.59L115.70 136.59L115.70 141.09L117.07 141.09L117.07 135.58M107.13 137.69L107.13 138.59L114.91 138.59L114.91 137.69M107.13 139.69L107.13 140.62L114.87 140.62L114.87 139.69M109.08 142.94L109.08 144.11L105.80 144.11L105.80 142.94M102.81 149.12L102.96 150.29C104.61 150.11 106.86 149.86 109.08 149.59L109.08 151.44L110.36 151.44L110.36 142.94L118.94 142.94L118.94 141.81L103.05 141.81L103.05 142.94L104.56 142.94L104.56 148.96M110.86 144.06L110.86 145.16L112.57 145.16L111.78 145.39C112.28 146.62 112.97 147.70 113.83 148.61C112.79 149.39 111.62 149.96 110.41 150.32C110.66 150.59 111 151.08 111.15 151.39C112.43 150.95 113.65 150.32 114.75 149.48C115.79 150.34 117.05 151.01 118.46 151.42C118.65 151.12 119 150.61 119.28 150.38C117.92 150.04 116.69 149.44 115.67 148.67C116.84 147.53 117.77 146.11 118.33 144.35L117.50 144.01L117.27 144.06M112.91 145.16L116.69 145.16C116.22 146.18 115.54 147.08 114.73 147.86C113.96 147.08 113.34 146.17 112.91 145.16M109.08 145.14L109.08 146.35L105.80 146.35L105.80 145.14M109.08 147.35L109.08 148.49L105.80 148.85L105.80 147.35M121.57 135.51C122.42 136.39 123.46 137.63 123.98 138.41L125.03 137.65C124.50 136.93 123.48 135.78 122.60 134.90M135.63 135.20C133.83 135.76 130.48 136.12 127.67 136.28L127.67 140.15C127.67 142.42 127.47 145.54 125.75 147.77C126.07 147.93 126.63 148.34 126.86 148.60C128.39 146.65 128.88 143.90 129 141.59L132.48 141.59L132.48 148.96L133.85 148.96L133.85 141.59L137.10 141.59L137.10 140.32L129.04 140.32L129.04 140.15L129.04 137.35C131.72 137.18 134.73 136.82 136.74 136.21M121.12 144.89C121.26 144.74 121.73 144.62 122.22 144.62L124.32 144.62C123.69 147.48 122.33 149.46 120.51 150.56C120.78 150.74 121.21 151.21 121.39 151.48C122.38 150.85 123.24 149.96 123.96 148.79C125.39 150.81 127.64 151.17 131.27 151.17C133.25 151.17 135.50 151.13 137.19 151.03C137.27 150.65 137.45 150.02 137.64 149.73C135.81 149.89 133.16 149.98 131.27 149.98C127.94 149.96 125.69 149.69 124.50 147.77C125.04 146.63 125.46 145.30 125.71 143.75L125.03 143.50L124.81 143.52L122.61 143.52C123.68 142.30 125.12 140.44 125.87 139.38L124.97 138.95L124.77 139.04L120.87 139.04L120.87 140.17L123.86 140.17C123.05 141.27 121.95 142.69 121.52 143.11C121.17 143.47 120.89 143.59 120.62 143.66C120.76 143.93 121.03 144.56 121.12 144.89M148.68 141.77L153.02 141.77L153.02 143.59L148.68 143.59M140.65 142.98L144.45 142.98L144.45 144.40L140.65 144.40M140.65 140.59L144.45 140.59L144.45 141.95L140.65 141.95M152.67 138.88L150.06 138.88L150.28 137.40L152.67 137.40M149.27 134.88L149.13 136.34L147.04 136.34L147.04 137.40L149.02 137.40L148.82 138.88L146.10 138.88L146.10 139.97L155.27 139.97L155.27 138.88L153.88 138.88L153.88 136.34L150.41 136.34L150.53 134.99M146.68 145.57L146.68 146.65L147.89 146.65C147.67 147.62 147.42 148.72 147.18 149.48L150.78 149.48L150.78 151.42L152.04 151.42L152.04 149.48L155.27 149.48L155.27 148.40L152.04 148.40L152.04 146.65L154.87 146.65L154.87 145.57L152.04 145.57L152.04 144.53L154.31 144.53L154.31 140.80L147.40 140.80L147.40 144.53L150.78 144.53L150.78 145.57M150.78 146.65L150.78 148.40L148.70 148.40L149.07 146.65M138.78 146.99L138.78 148.22L141.87 148.22L141.87 151.42L143.19 151.42L143.19 148.22L146.21 148.22L146.21 146.99L143.19 146.99L143.19 145.46L145.69 145.46L145.69 139.49L143.19 139.49L143.19 137.98L146.05 137.98L146.05 136.77L143.19 136.77L143.19 134.84L141.87 134.84L141.87 136.77L138.96 136.77L138.96 137.98L141.87 137.98L141.87 139.49L139.44 139.49L139.44 145.46L141.87 145.46L141.87 146.99M157.97 135.55L157.97 142.01C157.97 144.67 157.86 148.29 156.63 150.83C156.96 150.94 157.50 151.24 157.73 151.46C158.56 149.75 158.92 147.48 159.08 145.34L161.94 145.34L161.94 149.80C161.94 150.07 161.84 150.14 161.60 150.14C161.37 150.16 160.61 150.16 159.78 150.14C159.96 150.50 160.13 151.10 160.16 151.44C161.39 151.44 162.11 151.42 162.57 151.19C163.04 150.97 163.20 150.56 163.20 149.82L163.20 135.55M159.19 136.81L161.94 136.81L161.94 139.76L159.19 139.76M159.19 141.02L161.94 141.02L161.94 144.06L159.15 144.06C159.17 143.34 159.19 142.64 159.19 142.01M171.47 142.96C171.07 144.47 170.44 145.84 169.67 147.01C168.82 145.81 168.17 144.44 167.69 142.96M164.79 135.60L164.79 151.44L166.07 151.44L166.07 142.96L166.52 142.96C167.09 144.83 167.88 146.56 168.91 148.02C168.08 149.03 167.13 149.80 166.14 150.34C166.43 150.58 166.79 151.03 166.93 151.33C167.92 150.76 168.86 149.98 169.68 149.03C170.53 150.04 171.50 150.86 172.60 151.46C172.82 151.13 173.19 150.67 173.48 150.41C172.35 149.87 171.34 149.05 170.46 148.04C171.59 146.44 172.47 144.40 172.96 141.95L172.17 141.67L171.93 141.72L166.07 141.72L166.07 136.86L171.12 136.86L171.12 139.07C171.12 139.29 171.07 139.34 170.78 139.36C170.49 139.38 169.54 139.38 168.44 139.34C168.62 139.67 168.82 140.14 168.87 140.50C170.24 140.50 171.16 140.50 171.72 140.32C172.29 140.12 172.44 139.76 172.44 139.09L172.44 135.60M179.26 144.80L179.26 151.21L180.59 151.21L180.59 150.49L188.22 150.49L188.22 151.17L189.59 151.17L189.59 144.80L184.59 144.80L184.59 142.37L190.46 142.37L190.46 141.13L184.59 141.13L184.59 138.98L183.22 138.98L183.22 144.80M180.59 149.28L180.59 146.06L188.22 146.06L188.22 149.28M182.41 135.24C182.77 135.80 183.11 136.46 183.36 137.08L176.27 137.08L176.27 141.79C176.27 144.40 176.13 148.07 174.56 150.67C174.90 150.81 175.50 151.22 175.75 151.44C177.41 148.70 177.66 144.58 177.66 141.79L177.66 138.37L191.01 138.37L191.01 137.08L184.88 137.08C184.64 136.43 184.19 135.58 183.72 134.93M204.53 143.16C204.53 146.67 205.95 149.53 208.11 151.73L209.19 151.17C207.12 149.03 205.85 146.36 205.85 143.16C205.85 139.96 207.12 137.29 209.19 135.15L208.11 134.59C205.95 136.79 204.53 139.65 204.53 143.16M214.13 137.72C213.35 139.76 212.18 141.97 210.98 143.41C211.32 143.56 211.89 143.88 212.15 144.06C213.28 142.55 214.54 140.24 215.40 138.08M222.68 138.25C223.88 140.01 225.32 142.44 226.02 143.92L227.18 143.25C226.47 141.77 225 139.47 223.77 137.71M223.74 144.20C221.47 147.73 216.77 149.46 210.62 150.13C210.87 150.47 211.14 151.03 211.26 151.42C217.64 150.61 222.51 148.67 224.96 144.76M218.10 134.88L218.10 145.99L219.44 145.99L219.44 134.88M237.18 148.06C237.87 148.70 238.57 149.62 238.88 150.25L239.88 149.60C239.54 148.99 238.80 148.13 238.10 147.52M236.12 144.20L236.21 145.23C238.23 145.19 241.13 145.14 243.97 145.05C244.17 145.32 244.33 145.57 244.46 145.79L245.43 145.23C245.01 144.58 244.20 143.66 243.39 142.96L244.69 142.96L244.69 138.25L241.22 138.25L241.22 137.27L245.10 137.27L245.10 136.21L241.22 136.21L241.22 134.90L240.03 134.90L240.03 136.21L236.30 136.21L236.30 137.27L240.03 137.27L240.03 138.25L236.73 138.25L236.73 142.96L240.03 142.96L240.03 144.15M229.35 139.36L229.35 145.63L231.91 145.63L231.91 147.10L228.71 147.10L228.71 148.29L231.91 148.29L231.91 151.46L233.13 151.46L233.13 148.29L236.19 148.29L236.19 147.35L241.86 147.35L241.86 150.09C241.86 150.29 241.79 150.36 241.54 150.38C241.31 150.40 240.48 150.40 239.58 150.36C239.74 150.68 239.92 151.13 239.97 151.48C241.18 151.48 241.95 151.48 242.48 151.28C243 151.12 243.11 150.79 243.11 150.13L243.11 147.35L245.32 147.35L245.32 146.29L243.11 146.29L243.11 145.32L241.86 145.32L241.86 146.29L236.10 146.29L236.10 147.10L233.13 147.10L233.13 145.63L235.74 145.63L235.74 139.36L233.13 139.36L233.13 138.03L235.94 138.03L235.94 136.84L233.13 136.84L233.13 134.88L231.91 134.88L231.91 136.84L228.96 136.84L228.96 138.03L231.91 138.03L231.91 139.36M237.85 141L240.03 141L240.03 142.12L237.85 142.12M241.22 141L243.52 141L243.52 142.12L241.22 142.12M237.85 139.09L240.03 139.09L240.03 140.19L237.85 140.19M241.22 139.09L243.52 139.09L243.52 140.19L241.22 140.19M242.35 143.30C242.60 143.54 242.87 143.81 243.14 144.08L241.22 144.13L241.22 142.96L243.02 142.96M230.38 142.96L232.04 142.96L232.04 144.62L230.38 144.62M233.01 142.96L234.70 142.96L234.70 144.62L233.01 144.62M230.38 140.37L232.04 140.37L232.04 141.99L230.38 141.99M233.01 140.37L234.70 140.37L234.70 141.99L233.01 141.99M260.78 134.97C257.85 135.58 252.68 135.96 248.49 136.10C248.61 136.41 248.78 136.93 248.79 137.26C250.52 137.22 252.43 137.13 254.30 137L254.30 138.66L247.19 138.66L247.19 139.90L254.30 139.90L254.30 144.22C252.75 146.69 249.82 148.87 246.63 149.75C246.94 150.04 247.34 150.54 247.53 150.88C250.14 150.02 252.59 148.27 254.30 146.11L254.30 151.42L255.71 151.42L255.71 146.02C257.42 148.20 259.88 150.02 262.49 150.90C262.69 150.56 263.09 150.04 263.37 149.77C260.22 148.87 257.24 146.65 255.71 144.19L255.71 139.90L262.85 139.90L262.85 138.66L255.71 138.66L255.71 136.90C257.85 136.70 259.86 136.45 261.41 136.14M247.14 145.48L247.50 146.60C249.14 146.15 251.28 145.54 253.31 144.92L253.17 143.93L252.36 144.15L252.36 140.41L251.13 140.41L251.13 141.67L247.68 141.67L247.68 142.76L251.13 142.76L251.13 144.49C249.62 144.89 248.20 145.25 247.14 145.48M257.61 140.41L257.61 144.10C257.61 145.34 257.92 145.82 259.27 145.82C259.54 145.82 261.25 145.82 261.65 145.82C262.13 145.82 262.64 145.81 262.89 145.73C262.83 145.43 262.80 144.98 262.76 144.64C262.51 144.71 261.93 144.73 261.61 144.73C261.25 144.73 259.70 144.73 259.36 144.73C258.98 144.73 258.91 144.60 258.91 144.10L258.91 142.78L262.42 142.78L262.42 141.67L258.91 141.67L258.91 140.41M269.51 143.16C269.51 139.65 268.09 136.79 265.93 134.59L264.85 135.15C266.92 137.29 268.20 139.96 268.20 143.16C268.20 146.36 266.92 149.03 264.85 151.17L265.93 151.73C268.09 149.53 269.51 146.67 269.51 143.16" fill="#2c2416" aria-label="1 選最近韓服店（少轉乘）"/><path d="M70.79 195L79.09 195L79.09 193.58L75.44 193.58C74.77 193.58 73.96 193.65 73.28 193.70C76.37 190.77 78.46 188.09 78.46 185.44C78.46 183.10 76.97 181.57 74.61 181.57C72.93 181.57 71.78 182.33 70.72 183.50L71.67 184.43C72.41 183.55 73.33 182.90 74.41 182.90C76.05 182.90 76.84 184 76.84 185.51C76.84 187.78 74.93 190.41 70.79 194.03M88.38 183.48L97.61 183.48L97.61 184.63L88.38 184.63M88.38 181.45L97.61 181.45L97.61 182.58L88.38 182.58M88.79 189.78L97.27 189.78L97.27 191.49L88.79 191.49M95.24 193.81C96.89 194.44 98.96 195.47 100.01 196.19L100.92 195.31C99.81 194.57 97.72 193.60 96.10 193.02M89.26 192.95C88.18 193.81 86.40 194.64 84.81 195.16C85.12 195.38 85.59 195.86 85.82 196.13C87.35 195.50 89.28 194.48 90.48 193.45M91.82 185.89C92 186.13 92.18 186.41 92.34 186.70L85.03 186.70L85.03 187.82L100.96 187.82L100.96 186.70L93.80 186.70C93.62 186.32 93.35 185.91 93.06 185.57L98.96 185.57L98.96 180.53L87.08 180.53L87.08 185.57L92.79 185.57M87.50 188.77L87.50 192.48L92.34 192.48L92.34 195.11C92.34 195.31 92.28 195.36 92.03 195.38C91.78 195.40 90.90 195.40 89.96 195.36C90.14 195.67 90.32 196.10 90.38 196.44C91.65 196.44 92.48 196.44 93 196.26C93.54 196.10 93.71 195.81 93.71 195.14L93.71 192.48L98.62 192.48L98.62 188.77M104.42 180.44C104.90 181.27 105.51 182.38 105.80 183.08L106.90 182.54C106.63 181.86 106 180.82 105.50 179.99M111.62 184.24L116.76 184.24L116.76 186.22L111.62 186.22M110.41 183.14L110.41 187.31L118.02 187.31L118.02 183.14M109.38 180.76L109.38 181.93L118.98 181.93L118.98 180.76M113.45 189.60L113.45 191.47L110.72 191.47L110.72 189.60M114.68 189.60L117.56 189.60L117.56 191.47L114.68 191.47M113.45 192.53L113.45 194.46L110.72 194.46L110.72 192.53M114.68 192.53L117.56 192.53L117.56 194.46L114.68 194.46M103.01 183.26L103.01 184.49L107.57 184.49C106.43 186.88 104.34 189.15 102.36 190.45C102.58 190.68 102.92 191.31 103.07 191.67C103.88 191.09 104.69 190.37 105.48 189.55L105.48 196.40L106.79 196.40L106.79 188.63C107.46 189.31 108.32 190.23 108.70 190.72L109.46 189.67L109.46 196.44L110.72 196.44L110.72 195.59L117.56 195.59L117.56 196.39L118.85 196.39L118.85 188.48L109.46 188.48L109.46 189.58C109.08 189.20 107.78 188.03 107.15 187.51C108 186.34 108.74 185.05 109.24 183.70L108.50 183.21L108.25 183.26M125.66 185.50L132.33 185.50L132.33 187.87L125.66 187.87M123.08 190.59L123.08 196.39L124.43 196.39L124.43 195.65L133.79 195.65L133.79 196.31L135.18 196.31L135.18 190.59L128.81 190.59L129.60 188.99L133.68 188.99L133.68 184.38L124.38 184.38L124.38 188.99L128.01 188.99C127.83 189.51 127.62 190.09 127.38 190.59M124.43 194.46L124.43 191.78L133.79 191.78L133.79 194.46M127.65 180.17C127.91 180.60 128.18 181.12 128.37 181.61L121.50 181.61L121.50 185.68L122.81 185.68L122.81 182.85L135.25 182.85L135.25 185.68L136.62 185.68L136.62 181.61L129.98 181.61C129.72 181.03 129.36 180.31 129.02 179.77M148.70 191.72C150.51 193.13 152.75 195.14 153.79 196.44L155.01 195.63C153.90 194.32 151.65 192.37 149.85 191.02M144.03 191.08C142.97 192.62 140.85 194.44 138.90 195.54C139.21 195.77 139.71 196.21 139.97 196.49C141.96 195.29 144.11 193.40 145.46 191.62M142.25 182.53L151.79 182.53L151.79 188.11L142.25 188.11M140.87 181.21L140.87 189.40L153.21 189.40L153.21 181.21M160.41 192.82L164.41 192.82L164.41 194.66L160.41 194.66M160.41 191.76L160.41 190L164.41 190L164.41 191.76M169.77 192.82L169.77 194.66L165.69 194.66L165.69 192.82M169.77 191.76L165.69 191.76L165.69 190L169.77 190M159.06 188.88L159.06 196.44L160.41 196.44L160.41 195.77L169.77 195.77L169.77 196.37L171.18 196.37L171.18 188.88M165.04 180.87L165.04 182.08L167.15 182.08C166.89 184.51 166.23 186.36 163.85 187.40C164.14 187.62 164.50 188.07 164.64 188.36C167.33 187.10 168.12 184.94 168.42 182.08L171.20 182.08C171.07 185.10 170.89 186.25 170.62 186.58C170.49 186.74 170.33 186.76 170.06 186.76C169.79 186.76 169.05 186.76 168.28 186.68C168.46 187.01 168.60 187.49 168.62 187.87C169.43 187.91 170.22 187.91 170.66 187.87C171.14 187.84 171.47 187.71 171.74 187.37C172.17 186.86 172.35 185.41 172.53 181.45C172.53 181.27 172.55 180.87 172.55 180.87M158.15 187.94C158.49 187.71 159.06 187.49 163.10 186.40C163.28 186.77 163.42 187.13 163.51 187.44L164.70 186.94C164.36 185.87 163.46 184.25 162.61 183.05L161.51 183.50C161.89 184.06 162.25 184.69 162.59 185.32L159.41 186.11L159.41 182.24C161.06 181.88 162.84 181.41 164.14 180.89L163.22 179.90C162 180.46 159.91 181.03 158.09 181.43L158.09 185.37C158.09 186.20 157.70 186.68 157.43 186.90C157.64 187.12 158 187.64 158.15 187.93M176.88 185.28L176.88 190.88L182.28 190.88L182.28 192.12L176.31 192.12L176.31 193.20L182.28 193.20L182.28 194.77L174.96 194.77L174.96 195.86L191.10 195.86L191.10 194.77L183.63 194.77L183.63 193.20L189.97 193.20L189.97 192.12L183.63 192.12L183.63 190.88L189.29 190.88L189.29 185.28L183.63 185.28L183.63 184.18L191.01 184.18L191.01 183.07L183.63 183.07L183.63 181.68C185.74 181.52 187.72 181.30 189.27 181.03L188.55 179.99C185.70 180.49 180.61 180.83 176.42 180.94C176.54 181.21 176.69 181.70 176.70 182C178.47 181.97 180.39 181.90 182.28 181.79L182.28 183.07L175.07 183.07L175.07 184.18L182.28 184.18L182.28 185.28M178.20 188.52L182.28 188.52L182.28 189.89L178.20 189.89M183.63 188.52L187.92 188.52L187.92 189.89L183.63 189.89M178.20 186.25L182.28 186.25L182.28 187.60L178.20 187.60M183.63 186.25L187.92 186.25L187.92 187.60L183.63 187.60M194.74 182.42C195.03 183.28 195.26 184.43 195.30 185.17L196.02 184.97C195.96 184.25 195.71 183.10 195.41 182.24M195.39 192.80C195.59 193.81 195.68 195.11 195.64 195.95L196.59 195.85C196.61 195 196.50 193.70 196.31 192.71M197.24 192.80C197.62 193.72 197.94 194.93 198.03 195.74L198.93 195.52C198.84 194.75 198.48 193.54 198.11 192.64M199.10 192.77C199.60 193.65 200.09 194.84 200.27 195.61L201.17 195.29C200.99 194.50 200.50 193.34 199.96 192.46M193.79 192.46C193.59 193.56 193.19 194.96 192.63 195.81L193.61 196.22C194.16 195.36 194.52 193.94 194.72 192.80M198.41 182.18C198.25 183.01 197.89 184.29 197.64 185.06L198.21 185.28C198.54 184.58 198.90 183.41 199.20 182.47M204.15 179.92L204.15 188.45L201.53 188.45L201.53 196.42L202.79 196.42L202.79 195.59L207.32 195.59L207.32 196.35L208.62 196.35L208.62 188.45L205.47 188.45L205.47 185.08L209.32 185.08L209.32 183.82L205.47 183.82L205.47 179.92M202.79 194.33L202.79 189.67L207.32 189.67L207.32 194.33M194.49 181.52L196.43 181.52L196.43 185.87L194.49 185.87M197.35 181.52L199.44 181.52L199.44 185.87L197.35 185.87M192.96 190.63L192.96 191.69L200.88 191.69L200.88 190.63L197.49 190.63L197.49 189.19L200.66 189.19L200.66 188.11L197.49 188.11L197.49 186.86L200.54 186.86L200.54 180.53L193.41 180.53L193.41 186.86L196.29 186.86L196.29 188.11L193.28 188.11L193.28 189.19L196.29 189.19L196.29 190.63M219.33 179.83C217.49 182.62 214.16 185.03 210.74 186.38C211.12 186.68 211.50 187.21 211.71 187.57C212.65 187.15 213.59 186.67 214.49 186.11L214.49 187.01L223.58 187.01L223.58 185.80C224.51 186.40 225.48 186.92 226.51 187.40C226.71 186.97 227.12 186.49 227.46 186.18C224.60 184.97 222.05 183.48 219.94 181.25L220.52 180.44M215.01 185.77C216.54 184.76 217.96 183.55 219.13 182.22C220.50 183.66 221.94 184.79 223.50 185.77M213.55 189.17L213.55 196.40L214.92 196.40L214.92 195.40L223.31 195.40L223.31 196.33L224.73 196.33L224.73 189.17M214.92 194.14L214.92 190.39L223.31 190.39L223.31 194.14M237.53 187.67L242.80 187.67L242.80 190.41L237.53 190.41M236.27 186.54L236.27 191.54L244.13 191.54L244.13 186.54M234.14 192.75C234.36 193.94 234.50 195.45 234.52 196.37L235.83 196.17C235.82 195.27 235.62 193.78 235.38 192.62M237.99 192.70C238.46 193.87 238.91 195.41 239.09 196.33L240.42 196.04C240.24 195.09 239.74 193.60 239.25 192.46M241.67 192.61C242.53 193.79 243.52 195.45 243.95 196.48L245.23 195.90C244.78 194.87 243.75 193.27 242.89 192.10M231.15 192.23C230.56 193.56 229.61 195.05 228.80 195.95L230.09 196.53C230.92 195.50 231.82 193.94 232.45 192.61M230.97 181.86L233.67 181.86L233.67 185.03L230.97 185.03M230.97 189.74L230.97 186.22L233.67 186.22L233.67 189.74M229.70 180.65L229.70 191.89L230.97 191.89L230.97 190.97L234.93 190.97L234.93 180.65M235.73 180.62L235.73 181.82L238.73 181.82C238.37 183.50 237.53 184.65 235.15 185.30C235.42 185.51 235.76 186 235.91 186.31C238.64 185.46 239.67 184 240.06 181.82L243.29 181.82C243.16 183.53 243.03 184.24 242.80 184.47C242.67 184.60 242.51 184.61 242.26 184.61C241.97 184.61 241.23 184.61 240.44 184.54C240.64 184.85 240.77 185.32 240.78 185.66C241.61 185.71 242.42 185.69 242.84 185.68C243.30 185.64 243.61 185.53 243.90 185.24C244.28 184.83 244.46 183.77 244.62 181.14C244.64 180.96 244.65 180.62 244.65 180.62M253.82 184.06L257.94 184.06L257.94 186.14L253.82 186.14M252.54 183.08L252.54 187.12L259.27 187.12L259.27 183.08M251.71 189.33L254.12 189.33L254.12 191.99L251.71 191.99M250.58 188.32L250.58 192.97L255.29 192.97L255.29 188.32M257.69 189.33L260.19 189.33L260.19 191.99L257.69 191.99M256.52 188.32L256.52 192.97L261.39 192.97L261.39 188.32M247.08 180.71L247.08 181.93L247.82 181.93L247.82 192.07C247.82 194.71 249.15 195.59 251.93 195.59C252.59 195.59 258.62 195.59 259.92 195.59C261.30 195.59 262.67 195.58 263.18 195.45C263.10 195.14 263 194.51 262.96 194.14C262.29 194.28 260.93 194.33 259.94 194.33C258.66 194.33 252.97 194.33 251.80 194.33C249.86 194.33 249.14 193.70 249.14 192.16L249.14 181.93L262.28 181.93L262.28 180.71" fill="#2c2416" aria-label="2 景福宮只留重點合照區"/><path d="M74.73 240.23C77.09 240.23 78.98 238.83 78.98 236.47C78.98 234.65 77.74 233.50 76.19 233.12L76.19 233.03C77.60 232.55 78.53 231.47 78.53 229.87C78.53 227.78 76.91 226.57 74.68 226.57C73.17 226.57 72 227.24 71.01 228.14L71.89 229.18C72.65 228.43 73.56 227.90 74.63 227.90C76.01 227.90 76.86 228.73 76.86 229.99C76.86 231.41 75.94 232.51 73.20 232.51L73.20 233.77C76.26 233.77 77.31 234.82 77.31 236.42C77.31 237.93 76.21 238.87 74.63 238.87C73.13 238.87 72.14 238.15 71.37 237.35L70.52 238.42C71.39 239.37 72.68 240.23 74.73 240.23M95.96 227.04L95.96 237.03L97.16 237.03L97.16 227.04M99.27 225.22L99.27 239.69C99.27 239.98 99.20 240.07 98.91 240.07C98.58 240.09 97.63 240.09 96.60 240.05C96.78 240.45 96.98 241.04 97.04 241.40C98.31 241.40 99.27 241.37 99.81 241.15C100.33 240.94 100.53 240.54 100.53 239.69L100.53 225.22M93.22 226.97L93.22 232.13L91.76 232.13L91.76 226.97M84.72 232.13L84.72 233.38L85.88 233.38L85.88 241.44L87.03 241.44L87.03 233.38L88.43 233.38L88.43 240.88L89.37 240.88L89.37 233.38L90.81 233.38L90.81 240.77L91.76 240.77L91.76 233.38L93.22 233.38L93.22 239.98C93.22 240.18 93.17 240.23 92.99 240.23C92.84 240.23 92.37 240.23 91.83 240.23C92 240.54 92.19 241.10 92.23 241.40C93.06 241.42 93.56 241.37 93.92 241.19C94.30 240.95 94.41 240.58 94.41 240L94.41 233.38L95.52 233.38L95.52 232.13L94.41 232.13L94.41 225.76L85.88 225.76L85.88 232.13M87.03 232.13L87.03 226.97L88.43 226.97L88.43 232.13M89.37 226.97L90.81 226.97L90.81 232.13L89.37 232.13M102.63 239.91L103.26 241.26C105.33 240.41 108.14 239.26 110.75 238.15L110.52 236.96L109.15 237.48L109.15 225.20L107.76 225.20L107.76 229.45L103.17 229.45L103.17 230.80L107.76 230.80L107.76 238.02C105.80 238.76 103.95 239.46 102.63 239.91M112.19 225.22L112.19 238.31C112.19 240.20 112.66 240.72 114.24 240.72C114.59 240.72 116.33 240.72 116.67 240.72C118.42 240.72 118.74 239.44 118.89 235.72C118.51 235.63 117.95 235.36 117.59 235.05C117.48 238.52 117.38 239.39 116.57 239.39C116.19 239.39 114.73 239.39 114.41 239.39C113.72 239.39 113.60 239.23 113.60 238.33L113.60 230.78L118.65 230.78L118.65 229.43L113.60 229.43L113.60 225.22M129.09 232.40C130.05 233.79 131.02 235.63 131.38 236.80L132.60 236.17C132.23 235 131.22 233.21 130.21 231.88M134.10 224.90L134.10 228.71L128.72 228.71L128.72 230.01L134.10 230.01L134.10 239.59C134.10 239.93 133.97 240.02 133.65 240.04C133.29 240.04 132.15 240.05 130.93 240.02C131.15 240.41 131.36 241.04 131.43 241.44C132.98 241.44 134.03 241.40 134.62 241.17C135.21 240.95 135.47 240.54 135.47 239.59L135.47 230.01L137.41 230.01L137.41 228.71L135.47 228.71L135.47 224.90M124.16 224.88L124.16 228.73L120.96 228.73L120.96 230.03L123.96 230.03C123.28 232.53 121.89 235.32 120.53 236.85C120.78 237.17 121.12 237.73 121.28 238.11C122.34 236.85 123.39 234.78 124.16 232.64L124.16 241.42L125.46 241.42L125.46 233.23C126.16 234.10 127.02 235.21 127.40 235.82L128.27 234.69C127.87 234.19 126.05 232.22 125.46 231.67L125.46 230.03L128.18 230.03L128.18 228.73L125.46 228.73L125.46 224.88M142.14 225.60L142.14 233.56L138.98 233.56L138.98 234.78L141.91 234.78L141.91 238.83C141.91 239.57 141.37 239.95 141.03 240.13C141.26 240.45 141.55 241.12 141.64 241.46L141.71 241.40C142.11 241.17 142.95 240.95 148.07 239.64C148.07 239.35 148.08 238.81 148.14 238.45L143.24 239.60L143.24 234.78L146.14 234.78C147.71 238.20 150.51 240.40 154.65 241.31C154.83 240.95 155.21 240.40 155.50 240.11C153.48 239.73 151.76 239.05 150.37 238.06C151.65 237.39 153.12 236.51 154.28 235.66L153.18 234.92C152.24 235.68 150.75 236.62 149.47 237.32C148.68 236.58 148.03 235.73 147.53 234.78L155.09 234.78L155.09 233.56L143.53 233.56L143.53 232.01L152.76 232.01L152.76 230.91L143.53 230.91L143.53 229.40L152.76 229.40L152.76 228.30L143.53 228.30L143.53 226.75L153.32 226.75L153.32 225.60M163.19 227.54L163.19 232.22C163.19 234.76 162.92 238.07 160.61 240.40C160.90 240.56 161.42 241.01 161.64 241.28C163.83 239.05 164.37 235.77 164.46 233.14L164.66 233.14C165.31 235.07 166.25 236.72 167.47 238.09C166.28 239.10 164.91 239.86 163.49 240.32C163.78 240.59 164.12 241.10 164.28 241.42C165.76 240.86 167.16 240.07 168.37 239.01C169.54 240.05 170.93 240.86 172.53 241.39C172.73 241.04 173.10 240.52 173.39 240.25C171.83 239.80 170.46 239.06 169.31 238.11C170.71 236.60 171.81 234.65 172.42 232.21L171.57 231.90L171.34 231.95L168.62 231.95L168.62 228.80L171.59 228.80C171.38 229.65 171.12 230.50 170.91 231.09L172.10 231.36C172.47 230.46 172.91 228.98 173.27 227.72L172.29 227.49L172.06 227.54L168.62 227.54L168.62 224.88L167.31 224.88L167.31 227.54M167.31 228.80L167.31 231.95L164.48 231.95L164.48 228.80M170.82 233.14C170.28 234.74 169.43 236.09 168.37 237.23C167.31 236.08 166.48 234.71 165.90 233.14M156.63 237.07L157.17 238.40C158.70 237.71 160.70 236.81 162.57 235.95L162.27 234.76L160.38 235.57L160.38 230.50L162.36 230.50L162.36 229.22L160.38 229.22L160.38 225.10L159.10 225.10L159.10 229.22L156.87 229.22L156.87 230.50L159.10 230.50L159.10 236.09C158.16 236.47 157.32 236.81 156.63 237.07M190.87 224.77L174.63 241.01L175.17 241.55L191.41 225.31M202.70 236.72C204.51 238.13 206.75 240.14 207.79 241.44L209.01 240.63C207.90 239.32 205.65 237.37 203.85 236.02M198.03 236.08C196.97 237.62 194.85 239.44 192.90 240.54C193.21 240.77 193.71 241.21 193.97 241.49C195.96 240.29 198.11 238.40 199.46 236.62M196.25 227.53L205.79 227.53L205.79 233.11L196.25 233.11M194.87 226.21L194.87 234.40L207.21 234.40L207.21 226.21M214.41 237.82L218.41 237.82L218.41 239.66L214.41 239.66M214.41 236.76L214.41 235L218.41 235L218.41 236.76M223.77 237.82L223.77 239.66L219.69 239.66L219.69 237.82M223.77 236.76L219.69 236.76L219.69 235L223.77 235M213.06 233.88L213.06 241.44L214.41 241.44L214.41 240.77L223.77 240.77L223.77 241.37L225.18 241.37L225.18 233.88M219.04 225.87L219.04 227.08L221.15 227.08C220.89 229.51 220.23 231.36 217.85 232.40C218.14 232.62 218.50 233.07 218.64 233.36C221.33 232.10 222.12 229.94 222.42 227.08L225.20 227.08C225.07 230.10 224.89 231.25 224.62 231.58C224.49 231.74 224.33 231.76 224.06 231.76C223.79 231.76 223.05 231.76 222.28 231.68C222.46 232.01 222.60 232.49 222.62 232.87C223.43 232.91 224.22 232.91 224.66 232.87C225.14 232.84 225.47 232.71 225.74 232.37C226.17 231.86 226.35 230.41 226.53 226.45C226.53 226.27 226.55 225.87 226.55 225.87M212.15 232.94C212.49 232.71 213.06 232.49 217.10 231.40C217.28 231.77 217.42 232.13 217.51 232.44L218.70 231.94C218.36 230.87 217.46 229.25 216.61 228.05L215.51 228.50C215.89 229.06 216.25 229.69 216.59 230.32L213.41 231.11L213.41 227.24C215.06 226.88 216.84 226.41 218.14 225.89L217.22 224.90C216 225.46 213.91 226.03 212.09 226.43L212.09 230.37C212.09 231.20 211.70 231.68 211.43 231.90C211.64 232.12 212 232.64 212.15 232.93M228.81 232.24L228.81 233.72L245.30 233.72L245.30 232.24M255.96 233.83L259 233.83L259 236.63L255.96 236.63M252.18 225.96L252.18 241.42L253.42 241.42L253.42 240.36L261.41 240.36L261.41 241.30L262.71 241.30L262.71 225.96M253.42 239.14L253.42 227.17L261.41 227.17L261.41 239.14M254.91 232.82L254.91 237.64L260.08 237.64L260.08 232.82L257.99 232.82L257.99 230.84L260.80 230.84L260.80 229.79L257.99 229.79L257.99 227.74L256.89 227.74L256.89 229.79L254.18 229.79L254.18 230.84L256.89 230.84L256.89 232.82M250.31 224.97C249.41 227.69 247.95 230.41 246.33 232.17C246.56 232.51 246.92 233.25 247.05 233.56C247.66 232.85 248.24 232.04 248.79 231.16L248.79 241.46L250.09 241.46L250.09 228.84C250.65 227.71 251.15 226.52 251.55 225.33M266.27 229.29L267.82 229.29L267.82 230.87L266.27 230.87M265.41 228.48L265.41 231.67L268.70 231.67L268.70 228.48M270.52 229.29L272.12 229.29L272.12 230.84L270.52 230.84M269.67 228.48L269.67 231.67L273 231.67L273 228.48M275.06 229.67L279.38 229.67L279.38 231.43L275.06 231.43M275.06 232.55L279.38 232.55L279.38 234.37L275.06 234.37M275.06 226.77L279.38 226.77L279.38 228.53L275.06 228.53M269.51 236.17L269.51 237.30L267.24 237.30L267.24 236.17M273.90 225.55L273.90 235.57L275.47 235.57C275.27 237.55 274.77 239.17 273.13 240.18L273.13 239.50L270.59 239.50L270.59 238.24L272.88 238.24L272.88 237.30L270.59 237.30L270.59 236.17L272.79 236.17L272.79 235.23L270.59 235.23L270.59 234.15L273.15 234.15L273.15 233.16L270.77 233.16C270.61 232.75 270.29 232.22 270 231.81L269.13 232.21C269.33 232.49 269.53 232.84 269.67 233.16L267.50 233.16C267.68 232.80 267.84 232.44 267.98 232.08L267.03 231.77C266.49 233.21 265.57 234.64 264.58 235.61C264.78 235.82 265.12 236.31 265.25 236.53C265.57 236.17 265.89 235.75 266.22 235.32L266.22 241.44L267.24 241.44L267.24 240.50L272.68 240.50C272.95 240.72 273.29 241.17 273.44 241.48C275.74 240.27 276.42 238.22 276.68 235.57L277.79 235.57L277.79 239.69C277.79 240.90 278.03 241.28 279.03 241.28C279.25 241.28 279.81 241.28 280.01 241.28C280.92 241.28 281.23 240.67 281.30 238.16C281 238.06 280.49 237.88 280.26 237.66C280.24 239.87 280.19 240.11 279.86 240.11C279.74 240.11 279.32 240.11 279.20 240.11C278.94 240.11 278.91 240.05 278.91 239.69L278.91 235.57L280.58 235.57L280.58 225.55M269.51 235.23L267.24 235.23L267.24 234.15L269.51 234.15M269.51 238.24L269.51 239.50L267.24 239.50L267.24 238.24M267.30 224.88L267.30 226.01L264.69 226.01L264.69 227.04L267.30 227.04L267.30 228.14L268.40 228.14L268.40 224.88M270.05 224.88L270.05 228.14L271.17 228.14L271.17 227.04L273.56 227.04L273.56 226L271.17 226L271.17 224.88M286.38 228.48L295.61 228.48L295.61 229.63L286.38 229.63M286.38 226.45L295.61 226.45L295.61 227.58L286.38 227.58M286.79 234.78L295.27 234.78L295.27 236.49L286.79 236.49M293.24 238.81C294.89 239.44 296.96 240.47 298.01 241.19L298.92 240.31C297.81 239.57 295.72 238.60 294.10 238.02M287.26 237.95C286.18 238.81 284.40 239.64 282.81 240.16C283.12 240.38 283.59 240.86 283.82 241.13C285.35 240.50 287.28 239.48 288.48 238.45M289.82 230.89C290 231.13 290.18 231.41 290.34 231.70L283.03 231.70L283.03 232.82L298.96 232.82L298.96 231.70L291.80 231.70C291.62 231.32 291.35 230.91 291.06 230.57L296.96 230.57L296.96 225.53L285.08 225.53L285.08 230.57L290.79 230.57M285.50 233.77L285.50 237.48L290.34 237.48L290.34 240.11C290.34 240.31 290.28 240.36 290.03 240.38C289.78 240.40 288.90 240.40 287.96 240.36C288.14 240.67 288.32 241.10 288.38 241.44C289.65 241.44 290.48 241.44 291 241.26C291.54 241.10 291.71 240.81 291.71 240.14L291.71 237.48L296.62 237.48L296.62 233.77M302.74 227.42C303.03 228.28 303.26 229.43 303.30 230.17L304.02 229.97C303.96 229.25 303.71 228.10 303.41 227.24M303.39 237.80C303.59 238.81 303.68 240.11 303.64 240.95L304.59 240.85C304.61 240 304.50 238.70 304.31 237.71M305.24 237.80C305.62 238.72 305.94 239.93 306.03 240.74L306.93 240.52C306.84 239.75 306.48 238.54 306.11 237.64M307.10 237.77C307.60 238.65 308.09 239.84 308.27 240.61L309.17 240.29C308.99 239.50 308.50 238.34 307.96 237.46M301.79 237.46C301.59 238.56 301.19 239.96 300.63 240.81L301.61 241.22C302.16 240.36 302.52 238.94 302.72 237.80M306.41 227.18C306.25 228.01 305.89 229.29 305.64 230.06L306.21 230.28C306.54 229.58 306.90 228.41 307.20 227.47M312.15 224.92L312.15 233.45L309.53 233.45L309.53 241.42L310.79 241.42L310.79 240.59L315.32 240.59L315.32 241.35L316.62 241.35L316.62 233.45L313.47 233.45L313.47 230.08L317.32 230.08L317.32 228.82L313.47 228.82L313.47 224.92M310.79 239.33L310.79 234.67L315.32 234.67L315.32 239.33M302.49 226.52L304.43 226.52L304.43 230.87L302.49 230.87M305.35 226.52L307.44 226.52L307.44 230.87L305.35 230.87M300.96 235.63L300.96 236.69L308.88 236.69L308.88 235.63L305.49 235.63L305.49 234.19L308.66 234.19L308.66 233.11L305.49 233.11L305.49 231.86L308.54 231.86L308.54 225.53L301.41 225.53L301.41 231.86L304.29 231.86L304.29 233.11L301.28 233.11L301.28 234.19L304.29 234.19L304.29 235.63" fill="#2c2416" aria-label="3 刪北村長坡／只留一個觀景點"/><path d="M76.12 285L77.67 285L77.67 281.36L79.43 281.36L79.43 280.05L77.67 280.05L77.67 271.81L75.85 271.81L70.36 280.28L70.36 281.36L76.12 281.36M76.12 280.05L72.07 280.05L75.08 275.55C75.45 274.90 75.81 274.24 76.14 273.61L76.21 273.61C76.17 274.27 76.12 275.35 76.12 276M86.72 271.95L89.62 271.95L89.62 275.15L86.72 275.15M91.04 272.74C91.78 273.95 92.43 275.55 92.63 276.63L93.78 276.11C93.54 275.05 92.88 273.46 92.09 272.27M84.65 284.06L84.96 285.32C86.70 284.86 89.06 284.24 91.29 283.65L91.13 282.48L88.92 283.04L88.92 279.78L90.86 279.78L90.86 278.57L88.92 278.57L88.92 276.31L90.79 276.31L90.79 270.80L85.59 270.80L85.59 276.31L87.78 276.31L87.78 283.33L86.63 283.60L86.63 277.73L85.62 277.73L85.62 283.85M99.92 272.13C99.47 273.39 98.58 275.14 97.92 276.22L98.89 276.72C99.61 275.69 100.47 274.07 101.18 272.76M96.64 269.86L96.64 284.14C96.64 285.76 96.98 286.17 98.21 286.17C98.46 286.17 99.66 286.17 99.93 286.17C101.03 286.17 101.34 285.43 101.46 283.40C101.10 283.33 100.62 283.09 100.33 282.86C100.28 284.48 100.20 284.93 99.86 284.93C99.59 284.93 98.60 284.93 98.40 284.93C97.99 284.93 97.92 284.82 97.92 284.14L97.92 279.31C98.91 280.14 99.99 281.13 100.55 281.80L101.45 280.84C100.76 280.07 99.30 278.84 98.19 277.98L97.92 278.25L97.92 269.86M93.85 269.86L93.85 277.49L93.83 278.66C92.59 279.47 91.35 280.28 90.48 280.75L91.24 281.98L93.74 280.05C93.51 282.19 92.75 284.33 90.38 285.49C90.65 285.74 91.06 286.21 91.24 286.48C94.77 284.51 95.09 280.72 95.09 277.49L95.09 269.86M103.52 270.47C104.25 271.37 105.19 272.62 105.64 273.39L106.70 272.69C106.25 271.93 105.33 270.78 104.54 269.88M109.60 270.51L109.60 276.07L108.23 276.07L108.23 283.90L109.44 283.90L109.44 277.15L117.21 277.15L117.21 282.55C117.21 282.75 117.14 282.80 116.94 282.80C116.75 282.82 116.08 282.82 115.32 282.79C115.47 283.11 115.63 283.58 115.68 283.90C116.75 283.90 117.47 283.88 117.90 283.70C118.35 283.51 118.46 283.18 118.46 282.55L118.46 276.07L117.03 276.07L117.03 270.51M112.57 273.03L112.57 276.07L110.81 276.07L110.81 271.55L115.79 271.55L115.79 273.03M115.79 276.07L113.61 276.07L113.61 273.98L115.79 273.98M110.97 278.30L110.97 282.84L112.01 282.84L112.01 282.12L115.67 282.12L115.67 278.30M112.01 279.26L114.60 279.26L114.60 281.18L112.01 281.18M103.12 279.89C103.26 279.74 103.73 279.62 104.18 279.62L105.93 279.62C105.37 282.43 104.18 284.41 102.56 285.54C102.83 285.72 103.28 286.19 103.48 286.46C104.34 285.81 105.12 284.91 105.75 283.74C107.17 285.79 109.46 286.15 113.11 286.15C115.09 286.15 117.38 286.12 119.07 286.01C119.14 285.65 119.30 285.02 119.52 284.73C117.66 284.91 115.02 284.98 113.13 284.98C109.73 284.96 107.44 284.69 106.27 282.66C106.72 281.54 107.08 280.23 107.30 278.74L106.68 278.50L106.45 278.52L104.58 278.52C105.59 277.30 106.90 275.42 107.62 274.36L106.74 273.95L106.54 274.04L102.85 274.04L102.85 275.17L105.68 275.17C104.92 276.29 103.89 277.71 103.48 278.12C103.17 278.47 102.89 278.59 102.62 278.66C102.76 278.93 103.03 279.56 103.12 279.89M127.02 272.92L127.02 274.34L136.38 274.34L136.38 272.92M125.98 283.72L125.98 285.13L137.18 285.13L137.18 283.72M125.33 269.92C124.27 272.74 122.51 275.50 120.65 277.28C120.90 277.60 121.34 278.30 121.48 278.63C122.13 277.98 122.76 277.21 123.37 276.38L123.37 286.40L124.72 286.40L124.72 274.29C125.46 273.03 126.12 271.68 126.65 270.33M141.64 281.67C142.58 282.66 143.78 284.03 144.38 284.84L145.55 284.10C144.92 283.31 143.67 281.98 142.74 281.02M146.25 269.86L146.25 272.04L138.96 272.04L138.96 273.32L146.25 273.32L146.25 275.59L140.27 275.59L140.27 276.88L153.59 276.88L153.59 275.59L147.65 275.59L147.65 273.32L155.12 273.32L155.12 272.04L147.65 272.04L147.65 269.86M149.54 277.46L149.54 279.31L139.34 279.31L139.34 280.61L149.54 280.61L149.54 284.68C149.54 284.95 149.45 285.04 149.11 285.05C148.77 285.05 147.58 285.07 146.32 285.02C146.52 285.41 146.73 285.97 146.81 286.35C148.41 286.35 149.47 286.35 150.10 286.15C150.73 285.92 150.93 285.54 150.93 284.71L150.93 280.61L154.82 280.61L154.82 279.31L150.93 279.31L150.93 277.46M164.21 273.64L164.21 274.78L170.40 274.78L170.40 273.64M157.55 271.16C158.65 271.68 160.05 272.51 160.77 273.08L161.57 271.99C160.85 271.43 159.39 270.65 158.33 270.17M156.67 275.98C157.80 276.49 159.26 277.30 159.98 277.85L160.76 276.72CNaN 276.18 158.52 275.42 157.39 274.97M157.19 285.18L158.38 286.10C159.37 284.44 160.52 282.25 161.40 280.37L160.36 279.47C159.41 281.49 158.11 283.81 157.19 285.18M161.89 270.64L161.89 286.44L163.17 286.44L163.17 271.86L171.38 271.86L171.38 284.71C171.38 285.02 171.29 285.11 171 285.13C170.71 285.13 169.77 285.14 168.75 285.11C168.93 285.47 169.13 286.10 169.18 286.46C170.60 286.46 171.47 286.44 171.99 286.19C172.51 285.97 172.69 285.54 172.69 284.73L172.69 270.64M164.77 276.58L164.77 283.38L165.87 283.38L165.87 282.25L169.79 282.25L169.79 276.58M165.87 277.73L168.66 277.73L168.66 281.09L165.87 281.09M190.87 269.77L174.63 286.01L175.17 286.55L191.41 270.31M202.66 276.43C204.50 277.12 206.91 278.20 208.13 278.92L208.83 277.82C207.57 277.13 205.13 276.11 203.33 275.46M198.23 275.41C197.12 276.38 194.85 277.60 193.25 278.20C193.55 278.47 193.89 278.95 194.09 279.26C195.69 278.48 197.94 277.13 199.19 276.09M195.19 279.04L195.19 284.68L192.83 284.68L192.83 285.90L209.23 285.90L209.23 284.68L207 284.68L207 279.04M196.41 284.68L196.41 280.21L198.66 280.21L198.66 284.68M199.92 284.68L199.92 280.21L202.16 280.21L202.16 284.68M203.42 284.68L203.42 280.21L205.72 280.21L205.72 284.68M204.86 269.88C204.42 270.85 203.61 272.20 202.97 273.05L203.94 273.41L198.12 273.41L199.10 272.90C198.74 272.09 197.94 270.85 197.17 269.92L196.02 270.42C196.72 271.32 197.48 272.56 197.84 273.41L193.17 273.41L193.17 274.61L208.85 274.61L208.85 273.41L204.12 273.41C204.78 272.58 205.56 271.39 206.21 270.33M213.46 281.53L213.46 286.44L214.79 286.44L214.79 285.83L223.32 285.83L223.32 286.39L224.69 286.39L224.69 281.53M214.79 284.73L214.79 282.61L223.32 282.61L223.32 284.73M222.19 269.84C221.94 270.44 221.49 271.27 221.11 271.88L215.84 271.88L216.81 271.50C216.61 271.01 216.14 270.33 215.67 269.84L214.49 270.26C214.86 270.74 215.30 271.39 215.51 271.88L211.98 271.88L211.98 272.92L218.28 272.92L218.28 274.13L213.08 274.13L213.08 275.15L218.28 275.15L218.28 276.40L211.52 276.40L211.52 277.44L226.65 277.44L226.65 276.40L219.67 276.40L219.67 275.15L224.98 275.15L224.98 274.13L219.67 274.13L219.67 272.92L226.10 272.92L226.10 271.88L222.51 271.88C222.86 271.37 223.25 270.76 223.58 270.17M223.04 277.46C222.80 278 222.39 278.79 222.05 279.37L215.21 279.37L215.98 279.13C215.78 278.65 215.35 277.96 214.90 277.44L213.68 277.78C214.05 278.23 214.43 278.88 214.61 279.37L210.98 279.37L210.98 280.46L227.12 280.46L227.12 279.37L223.43 279.37C223.76 278.90 224.08 278.32 224.39 277.75M236.21 273.64L236.21 274.78L242.40 274.78L242.40 273.64M229.55 271.16C230.65 271.68 232.05 272.51 232.77 273.08L233.57 271.99C232.85 271.43 231.39 270.65 230.33 270.17M228.67 275.98C229.80 276.49 231.26 277.30 231.98 277.85L232.76 276.72CNaN 276.18 230.52 275.42 229.39 274.97M229.19 285.18L230.38 286.10C231.37 284.44 232.52 282.25 233.40 280.37L232.36 279.47C231.41 281.49 230.11 283.81 229.19 285.18M233.89 270.64L233.89 286.44L235.17 286.44L235.17 271.86L243.38 271.86L243.38 284.71C243.38 285.02 243.29 285.11 243 285.13C242.71 285.13 241.77 285.14 240.75 285.11C240.93 285.47 241.13 286.10 241.18 286.46C242.60 286.46 243.47 286.44 243.99 286.19C244.51 285.97 244.69 285.54 244.69 284.73L244.69 270.64M236.77 276.58L236.77 283.38L237.87 283.38L237.87 282.25L241.79 282.25L241.79 276.58M237.87 277.73L240.66 277.73L240.66 281.09L237.87 281.09" fill="#2c2416" aria-label="4 跳過仁寺洞／益善洞"/><path d="M74.72 330.23C76.93 330.23 79.04 328.60 79.04 325.72C79.04 322.80 77.24 321.50 75.06 321.50C74.27 321.50 73.67 321.70 73.08 322.03L73.42 318.21L78.39 318.21L78.39 316.81L71.98 316.81L71.55 322.96L72.43 323.52C73.19 323.02 73.74 322.75 74.63 322.75C76.28 322.75 77.36 323.86 77.36 325.75C77.36 327.68 76.12 328.87 74.55 328.87C73.02 328.87 72.05 328.16 71.31 327.41L70.49 328.49C71.39 329.37 72.65 330.23 74.72 330.23M92.63 318.89L98.64 318.89L98.64 320.32L92.63 320.32M92.63 316.50L98.64 316.50L98.64 317.92L92.63 317.92M91.38 315.47L91.38 321.36L99.93 321.36L99.93 315.47M91.74 324.65C91.46 327.32 90.65 329.35 89.04 330.63C89.33 330.81 89.85 331.22 90.05 331.44C91.01 330.59 91.73 329.50 92.23 328.13C93.40 330.67 95.31 331.17 97.94 331.17L101.09 331.17C101.14 330.81 101.32 330.25 101.50 329.95C100.87 329.96 98.44 329.96 97.99 329.96C97.38 329.96 96.80 329.95 96.26 329.86L96.26 327.03L100.04 327.03L100.04 325.91L96.26 325.91L96.26 323.79L100.92 323.79L100.92 322.66L90.57 322.66L90.57 323.79L94.98 323.79L94.98 329.51C93.96 329.06 93.17 328.25 92.64 326.74C92.79 326.13 92.90 325.48 92.99 324.80M86.97 314.90L86.97 318.52L84.74 318.52L84.74 319.78L86.97 319.78L86.97 323.74C86.06 324.02 85.21 324.26 84.54 324.44L84.89 325.77L86.97 325.09L86.97 329.75C86.97 330 86.88 330.07 86.67 330.07C86.45 330.09 85.75 330.09 84.98 330.07C85.14 330.43 85.32 330.99 85.35 331.31C86.49 331.33 87.19 331.28 87.62 331.06C88.07 330.86 88.23 330.49 88.23 329.75L88.23 324.67L90.23 324.01L90.05 322.78L88.23 323.34L88.23 319.78L90.23 319.78L90.23 318.52L88.23 318.52L88.23 314.90M106.09 320.01L115.83 320.01L115.83 321.97L106.09 321.97M106.09 316.93L115.83 316.93L115.83 318.86L106.09 318.86M102.87 325.86L102.87 327.17L110.27 327.17L110.27 331.44L111.65 331.44L111.65 327.17L119.25 327.17L119.25 325.86L111.65 325.86L111.65 323.20L117.21 323.20L117.21 315.73L104.76 315.73L104.76 323.20L110.27 323.20L110.27 325.86M128.16 321.70L128.16 324.19L129.29 324.19L129.29 322.75L131.87 322.75L131.87 324.49L128.77 324.49L128.77 330.04L129.94 330.04L129.94 325.59L131.87 325.59L131.87 331.37L133.09 331.37L133.09 325.59L135.11 325.59L135.11 328.69C135.11 328.85 135.05 328.90 134.89 328.90C134.73 328.92 134.24 328.92 133.67 328.88C133.81 329.19 133.95 329.60 133.99 329.91C134.87 329.91 135.47 329.91 135.84 329.73C136.22 329.55 136.29 329.26 136.29 328.70L136.29 324.49L133.09 324.49L133.09 322.75L135.75 322.75L135.75 324.19L136.92 324.19L136.92 321.70M121.64 323.25L121.64 324.28L123.95 324.28L123.95 329.03L122.67 329.24L122.67 325.27L121.59 325.27L121.59 329.41L120.71 329.55L120.89 330.81C122.79 330.49 125.42 330 127.91 329.57L127.85 328.38L125.10 328.85L125.10 326.96L127.58 326.96L127.58 325.86L125.10 325.86L125.10 324.28L127.37 324.28L127.37 320.73L122.79 320.73L122.79 319.83L127.31 319.83L127.31 316.39L124.45 316.39L124.99 315.08L123.62 314.86C123.55 315.29 123.39 315.89 123.23 316.39L121.64 316.39M127.83 317.65L127.83 318.64L134.55 318.64L134.55 319.78L129.06 319.78L129.06 320.78L135.79 320.78L135.79 318.64L137.32 318.64L137.32 317.65L135.79 317.65L135.79 315.53L129.09 315.53L129.09 316.54L134.55 316.54L134.55 317.65M122.79 317.40L126.16 317.40L126.16 318.84L122.79 318.84M122.79 321.77L126.23 321.77L126.23 323.25L122.79 323.25M143.30 319.67L143.30 320.62L155.09 320.62L155.09 319.67M146.12 322.37L152.19 322.37L152.19 323.84L146.12 323.84M151.09 316.28L152.89 316.28L152.89 317.92L151.09 317.92M148.23 316.28L149.99 316.28L149.99 317.92L148.23 317.92M145.42 316.28L147.15 316.28L147.15 317.92L145.42 317.92M144.29 315.42L144.29 318.79L154.08 318.79L154.08 315.42M139.52 315.47C140.25 316.37 141.19 317.62 141.64 318.39L142.70 317.69C142.25 316.93 141.33 315.78 140.54 314.88M146.12 329.62C146.43 329.39 146.91 329.19 150.33 328C150.28 327.77 150.19 327.32 150.17 327.03L147.47 327.89L147.47 326C148.19 325.61 148.88 325.18 149.42 324.73L153.45 324.73L153.45 321.50L144.90 321.50L144.90 324.73L147.87 324.73C146.55 325.55 144.77 326.33 143.33 326.74C143.57 326.94 143.87 327.32 144.03 327.55C144.75 327.32 145.55 326.98 146.36 326.60L146.36 327.71C146.36 328.36 145.96 328.58 145.69 328.67C145.85 328.88 146.05 329.35 146.12 329.62M149.16 325.81C150.77 326.85 152.89 328.34 153.97 329.23L154.80 328.47C154.24 328.02 153.39 327.43 152.49 326.81C153.20 326.38 154.02 325.82 154.69 325.25L153.79 324.62C153.25 325.10 152.39 325.79 151.65 326.26L149.96 325.18M139.16 324.89C139.30 324.74 139.77 324.62 140.22 324.62L141.80 324.62C141.28 327.39 140.13 329.41 138.58 330.54C138.85 330.72 139.30 331.19 139.48 331.46C140.31 330.83 141.05 329.95 141.64 328.79C143.08 330.79 145.37 331.15 149.06 331.15C151.05 331.15 153.36 331.12 155.09 331.01C155.14 330.65 155.32 330.02 155.52 329.73C153.66 329.91 150.98 329.98 149.06 329.98C145.64 329.96 143.35 329.69 142.14 327.73C142.61 326.60 142.95 325.27 143.17 323.74L142.56 323.50L142.32 323.52L140.56 323.52C141.44 322.30 142.63 320.35 143.28 319.29L142.38 318.93L142.14 319.04L138.83 319.04L138.83 320.17L141.41 320.17C140.74 321.29 139.84 322.75 139.48 323.12C139.21 323.47 138.92 323.59 138.67 323.68C138.81 323.93 139.08 324.56 139.16 324.89M166.68 321.77L171.02 321.77L171.02 323.59L166.68 323.59M158.65 322.98L162.45 322.98L162.45 324.40L158.65 324.40M158.65 320.59L162.45 320.59L162.45 321.95L158.65 321.95M170.67 318.88L168.06 318.88L168.28 317.40L170.67 317.40M167.27 314.88L167.13 316.34L165.04 316.34L165.04 317.40L167.02 317.40L166.82 318.88L164.10 318.88L164.10 319.97L173.27 319.97L173.27 318.88L171.88 318.88L171.88 316.34L168.41 316.34L168.53 314.99M164.68 325.57L164.68 326.65L165.89 326.65C165.67 327.62 165.42 328.72 165.18 329.48L168.78 329.48L168.78 331.42L170.04 331.42L170.04 329.48L173.27 329.48L173.27 328.40L170.04 328.40L170.04 326.65L172.87 326.65L172.87 325.57L170.04 325.57L170.04 324.53L172.31 324.53L172.31 320.80L165.40 320.80L165.40 324.53L168.78 324.53L168.78 325.57M168.78 326.65L168.78 328.40L166.70 328.40L167.07 326.65M156.78 326.99L156.78 328.22L159.87 328.22L159.87 331.42L161.19 331.42L161.19 328.22L164.21 328.22L164.21 326.99L161.19 326.99L161.19 325.46L163.69 325.46L163.69 319.49L161.19 319.49L161.19 317.98L164.05 317.98L164.05 316.77L161.19 316.77L161.19 314.84L159.87 314.84L159.87 316.77L156.96 316.77L156.96 317.98L159.87 317.98L159.87 319.49L157.44 319.49L157.44 325.46L159.87 325.46L159.87 326.99M175.97 315.55L175.97 322.01C175.97 324.67 175.86 328.29 174.63 330.83C174.96 330.94 175.50 331.24 175.73 331.46C176.56 329.75 176.92 327.48 177.08 325.34L179.94 325.34L179.94 329.80C179.94 330.07 179.84 330.14 179.60 330.14C179.37 330.16 178.61 330.16 177.78 330.14C177.96 330.50 178.13 331.10 178.16 331.44C179.39 331.44 180.11 331.42 180.57 331.19C181.04 330.97 181.20 330.56 181.20 329.82L181.20 315.55M177.19 316.81L179.94 316.81L179.94 319.76L177.19 319.76M177.19 321.02L179.94 321.02L179.94 324.06L177.15 324.06C177.17 323.34 177.19 322.64 177.19 322.01M189.47 322.96C189.07 324.47 188.44 325.84 187.67 327.01C186.82 325.81 186.17 324.44 185.69 322.96M182.79 315.60L182.79 331.44L184.07 331.44L184.07 322.96L184.52 322.96C185.09 324.83 185.88 326.56 186.91 328.02C186.08 329.03 185.13 329.80 184.14 330.34C184.43 330.58 184.79 331.03 184.93 331.33C185.92 330.76 186.86 329.98 187.68 329.03C188.53 330.04 189.50 330.86 190.60 331.46C190.82 331.13 191.19 330.67 191.48 330.41C190.35 329.87 189.34 329.05 188.46 328.04C189.59 326.44 190.47 324.40 190.96 321.95L190.17 321.67L189.93 321.72L184.07 321.72L184.07 316.86L189.12 316.86L189.12 319.07C189.12 319.29 189.07 319.34 188.78 319.36C188.49 319.38 187.54 319.38 186.44 319.34C186.62 319.67 186.82 320.14 186.87 320.50C188.24 320.50 189.16 320.50 189.72 320.32C190.29 320.12 190.44 319.76 190.44 319.09L190.44 315.60M207.56 323.86L207.56 322.62L201.63 322.62L201.63 316.70L200.41 316.70L200.41 322.62L194.49 322.62L194.49 323.86L200.41 323.86L200.41 329.78L201.63 329.78L201.63 323.86M215.53 319.47L215.53 320.78L219.90 320.78C218.77 323.74 216.84 326.65 214.88 328.18C215.21 328.43 215.66 328.90 215.89 329.24C217.69 327.68 219.40 325.12 220.61 322.30L220.61 331.44L221.94 331.44L221.94 321.86C223.13 324.74 224.85 327.53 226.62 329.14C226.85 328.78 227.32 328.31 227.64 328.07C225.77 326.54 223.88 323.65 222.75 320.78L227.18 320.78L227.18 319.47L221.94 319.47L221.94 315.13L220.61 315.13L220.61 319.47M215.31 314.99C214.22 317.83 212.36 320.53 210.38 322.26C210.63 322.58 211.05 323.30 211.21 323.63C211.95 322.94 212.65 322.13 213.33 321.25L213.33 331.40L214.67 331.40L214.67 319.31C215.44 318.07 216.11 316.75 216.65 315.40M232.81 320.10L241.16 320.10L241.16 321.54L232.81 321.54M232.81 322.58L241.16 322.58L241.16 324.04L232.81 324.04M232.81 317.63L241.16 317.63L241.16 319.07L232.81 319.07M232.74 326.36L232.74 329.30C232.74 330.74 233.30 331.12 235.38 331.12C235.82 331.12 239.07 331.12 239.52 331.12C241.27 331.12 241.72 330.58 241.90 328.27C241.52 328.20 240.95 328 240.64 327.79C240.55 329.62 240.41 329.87 239.43 329.87C238.71 329.87 236 329.87 235.46 329.87C234.30 329.87 234.09 329.78 234.09 329.28L234.09 326.36M241.76 326.54C242.58 327.68 243.45 329.23 243.75 330.22L245.03 329.64C244.69 328.65 243.81 327.14 242.96 326.04M230.69 326.33C230.25 327.46 229.55 329.01 228.83 330L230.07 330.59C230.74 329.55 231.39 327.97 231.84 326.83M235.56 325.68C236.48 326.53 237.53 327.73 237.98 328.54L239.07 327.86C238.59 327.08 237.56 325.93 236.63 325.12L242.51 325.12L242.51 316.55L237.13 316.55C237.40 316.09 237.71 315.53 237.98 314.97L236.39 314.70C236.25 315.22 235.96 315.96 235.73 316.55L231.51 316.55L231.51 325.12" fill="#2c2416" aria-label="5 提早歸還韓服＋休息"/><path d="M73.07 388.83L73.70 389.84C74.67 389.10 75.82 388.21 76.91 387.31L76.51 386.46C75.23 387.36 73.94 388.29 73.07 388.83M73.34 383.52C74.32 384.19 75.55 385.17 76.18 385.78L76.91 384.99C76.26 384.40 74.99 383.47 74.03 382.83M82.19 382.86C81.39 383.55 80.02 384.53 79.09 385.06L79.63 385.79C80.59 385.28 81.94 384.45 82.88 383.70M79.06 387.12C80.08 387.84 81.39 388.86 82.06 389.50L82.82 388.75C82.13 388.14 80.80 387.15 79.78 386.50M70.85 377.57L70.85 378.75L77.42 378.75L77.42 380.85L71.60 380.85L71.60 391.25L72.75 391.25L72.75 381.98L77.42 381.98L77.42 391.09L78.61 391.09L78.61 381.98L83.28 381.98L83.28 389.74C83.28 390 83.20 390.06 82.91 390.08C82.64 390.10 81.68 390.10 80.64 390.06C80.82 390.37 80.99 390.86 81.06 391.17C82.35 391.17 83.26 391.17 83.78 390.98C84.29 390.78 84.45 390.43 84.45 389.74L84.45 380.85L78.61 380.85L78.61 378.75L85.17 378.75L85.17 377.57M87.06 382.72L87.06 383.94L92.94 383.94C92.37 386.19 90.80 388.56 86.67 390.24C86.93 390.48 87.30 390.96 87.46 391.25C91.54 389.57 93.28 387.20 94.02 384.83C95.31 387.97 97.44 390.18 100.64 391.23C100.82 390.90 101.18 390.42 101.46 390.16C98.21 389.22 96 386.98 94.88 383.94L100.99 383.94L100.99 382.72L94.45 382.72C94.51 382.10 94.53 381.49 94.53 380.91L94.53 379.01L100.30 379.01L100.30 377.79L87.63 377.79L87.63 379.01L93.26 379.01L93.26 380.91C93.26 381.49 93.25 382.10 93.17 382.72M110 381.30C110.64 381.30 111.22 380.83 111.22 380.10C111.22 379.36 110.64 378.90 110 378.90C109.36 378.90 108.78 379.36 108.78 380.10C108.78 380.83 109.36 381.30 110 381.30M110 389.14C110.64 389.14 111.22 388.66 111.22 387.94C111.22 387.20 110.64 386.72 110 386.72C109.36 386.72 108.78 387.20 108.78 387.94C108.78 388.66 109.36 389.14 110 389.14M120.91 386.98C121.10 388.06 121.28 389.47 121.31 390.42L122.19 390.19C122.14 389.26 121.97 387.87 121.78 386.78M119.25 386.85C119.10 388.14 118.88 389.58 118.51 390.56C118.75 390.64 119.18 390.80 119.39 390.91C119.71 389.90 120 388.40 120.18 387.02M122.64 386.64C122.98 387.63 123.38 388.93 123.54 389.78L124.37 389.47C124.19 388.64 123.79 387.38 123.42 386.38M126.05 380.21C125.70 381.84 125.01 383.87 124.02 385.31C123.86 384.58 123.46 383.44 123.04 382.56L122.22 382.85C122.43 383.34 122.66 383.94 122.83 384.48L120.30 384.85C121.57 383.31 122.80 381.39 123.81 379.50L122.90 378.93C122.54 379.70 122.13 380.46 121.71 381.17L120.05 381.31C120.91 380.10 121.76 378.53 122.43 377.01L121.44 376.58C120.82 378.32 119.74 380.16 119.39 380.62C119.07 381.12 118.82 381.44 118.56 381.50C118.67 381.79 118.85 382.32 118.90 382.54C119.10 382.45 119.44 382.37 121.10 382.16C120.54 383.06 120.03 383.74 119.79 384.03C119.33 384.62 118.98 385.04 118.66 385.12C118.78 385.41 118.94 385.94 118.99 386.16C119.28 386 119.76 385.89 123.07 385.34L123.17 385.78L123.92 385.47L123.73 385.73C123.94 385.92 124.22 386.30 124.37 386.53C124.66 386.18 124.91 385.79 125.17 385.38L125.17 391.26L126.18 391.26L126.18 383.33C126.58 382.37 126.88 381.38 127.12 380.46M127.44 383.54L127.44 391.26L128.48 391.26L128.48 390.51L131.78 390.51L131.78 391.18L132.85 391.18L132.85 383.54L130.26 383.54L130.70 381.92L133.15 381.92L133.15 380.93L127.10 380.93L127.10 381.92L129.49 381.92C129.41 382.45 129.28 383.04 129.17 383.54M127.62 376.91C127.86 377.26 128.08 377.71 128.26 378.11L124.21 378.11L124.21 380.75L125.31 380.75L125.31 379.12L131.97 379.12L131.97 380.53L133.09 380.53L133.09 378.11L129.47 378.11C129.28 377.62 128.93 376.98 128.56 376.48M128.48 387.44L131.78 387.44L131.78 389.54L128.48 389.54M128.48 386.46L128.48 384.53L131.78 384.53L131.78 386.46M141.12 377.26L141.12 378.37L149.18 378.37L149.18 377.26M142.08 386.06C142.54 387.10 143.01 388.50 143.17 389.39L144.24 389.10C144.08 388.21 143.58 386.83 143.07 385.79M142.75 381.17L147.39 381.17L147.39 384.06L142.75 384.06M141.63 380.08L141.63 385.15L148.56 385.15L148.56 380.08M146.91 385.68C146.59 386.90 145.98 388.54 145.46 389.66L140.45 389.66L140.45 390.78L149.34 390.78L149.34 389.66L146.61 389.66C147.12 388.61 147.66 387.17 148.13 385.95M136.11 376.58C135.86 378.50 135.39 380.42 134.62 381.66C134.90 381.81 135.38 382.13 135.57 382.30C135.97 381.62 136.30 380.75 136.58 379.81L137.46 379.81L137.46 382.29L137.44 382.93L134.69 382.93L134.69 384.02L137.39 384.02C137.20 386.10 136.58 388.43 134.59 390.19C134.82 390.35 135.26 390.77 135.42 391.01C136.82 389.76 137.62 388.16 138.06 386.56C138.69 387.46 139.52 388.70 139.89 389.36L140.69 388.37C140.35 387.89 138.93 385.95 138.35 385.25C138.42 384.83 138.46 384.42 138.50 384.02L140.77 384.02L140.77 382.93L138.56 382.93L138.58 382.30L138.58 379.81L140.56 379.81L140.56 378.72L136.86 378.72C137.01 378.08 137.12 377.42 137.22 376.77M152.83 378.26L152.83 383.14C152.83 385.42 152.62 388.42 150.58 390.50C150.83 390.66 151.31 391.10 151.49 391.33C152.90 389.92 153.55 388.02 153.84 386.18L162.21 386.18L162.21 387.04L163.41 387.04L163.41 380.72L154.05 380.72L154.05 379.14C157.15 378.75 160.58 378.21 162.93 377.50L161.94 376.59C159.84 377.28 156.08 377.89 152.83 378.26M162.21 385.06L153.97 385.06C154.03 384.38 154.05 383.73 154.05 383.14L154.05 381.84L162.21 381.84M169.92 380.14L172.99 380.14C172.72 381.78 172.34 383.22 171.81 384.46C171.09 383.66 170.05 382.72 169.17 381.97C169.44 381.39 169.70 380.78 169.92 380.14M169.70 376.54C169.12 379.36 168.10 382 166.62 383.66C166.91 383.84 167.42 384.22 167.65 384.43C168 383.98 168.34 383.49 168.64 382.96C169.60 383.81 170.64 384.86 171.25 385.63C170.11 387.76 168.54 389.26 166.66 390.24C166.98 390.45 167.47 390.93 167.66 391.23C171.09 389.33 173.57 385.55 174.40 379.22L173.57 378.96L173.33 379.01L170.30 379.01C170.53 378.29 170.72 377.54 170.90 376.77M175.78 376.56L175.78 391.26L177.02 391.26L177.02 382.53C178.30 383.60 179.74 384.96 180.46 385.87L181.46 385.02C180.59 384.02 178.83 382.48 177.46 381.41L177.02 381.74L177.02 376.56M188.69 386.99C190.37 386.40 191.46 385.09 191.46 383.36C191.46 382.24 190.98 381.52 190.10 381.52C189.44 381.52 188.88 381.92 188.88 382.67C188.88 383.42 189.42 383.81 190.08 383.81L190.35 383.78C190.27 384.88 189.57 385.63 188.34 386.14M207.63 380.64L210.93 380.64C210.59 382.74 210.08 384.51 209.30 385.98C208.51 384.48 207.95 382.72 207.57 380.82M199.22 377.68L199.22 378.86L203.71 378.86L203.71 382.26L199.42 382.26L199.42 388.35C199.42 388.94 199.17 389.15 198.93 389.26C199.14 389.57 199.33 390.16 199.41 390.51C199.78 390.21 200.37 389.90 205.02 388.13C204.98 387.86 204.90 387.34 204.88 386.99L200.64 388.51L200.64 383.44L204.86 383.44L204.78 383.54C205.04 383.73 205.52 384.19 205.71 384.40C206.13 383.84 206.51 383.20 206.85 382.50C207.30 384.21 207.86 385.78 208.59 387.10C207.63 388.45 206.35 389.49 204.66 390.26C204.90 390.51 205.25 391.06 205.38 391.34C207.01 390.53 208.29 389.50 209.30 388.22C210.18 389.49 211.28 390.51 212.64 391.20C212.83 390.88 213.20 390.43 213.49 390.19C212.06 389.54 210.93 388.50 210.02 387.17C211.07 385.42 211.74 383.28 212.18 380.64L213.23 380.64L213.23 379.52L208.02 379.52C208.29 378.64 208.53 377.71 208.72 376.77L207.54 376.56C207.04 379.18 206.16 381.73 204.90 383.39L204.90 377.68M216.38 386.54L216.38 387.60L221.38 387.60L221.38 389.74L214.94 389.74L214.94 390.83L229.12 390.83L229.12 389.74L222.61 389.74L222.61 387.60L227.70 387.60L227.70 386.54L222.61 386.54L222.61 384.86L221.38 384.86L221.38 386.54M217.04 385.15C217.54 384.96 218.29 384.90 225.94 384.30C226.30 384.67 226.62 385.04 226.85 385.33L227.78 384.67C227.12 383.84 225.74 382.61 224.62 381.74L223.74 382.34C224.16 382.67 224.61 383.04 225.04 383.44L218.85 383.87C219.76 383.20 220.67 382.40 221.52 381.55L227.36 381.55L227.36 380.51L216.77 380.51L216.77 381.55L219.97 381.55C219.07 382.46 218.13 383.23 217.78 383.47C217.36 383.79 216.99 384 216.69 384.05C216.82 384.35 216.98 384.91 217.04 385.15M220.96 376.74C221.18 377.10 221.41 377.57 221.58 377.98L215.12 377.98L215.12 380.82L216.29 380.82L216.29 379.07L227.68 379.07L227.68 380.82L228.90 380.82L228.90 377.98L222.93 377.98C222.75 377.50 222.42 376.88 222.11 376.40M234.56 377.28L234.56 378.35L237.44 378.35C237.49 378.98 237.55 379.57 237.63 380.14L231.76 380.14L231.76 391.28L232.96 391.28L232.96 381.33L237.14 381.33C236.58 383.86 235.28 385.57 233.10 386.64C233.36 386.85 233.76 387.31 233.92 387.58C236.06 386.48 237.38 384.70 238.06 382.26C238.75 384.66 240 386.45 242.10 387.50C242.29 387.18 242.69 386.70 242.96 386.46C240.85 385.55 239.65 383.79 239.02 381.33L243.14 381.33L243.14 389.71C243.14 389.95 243.06 390.05 242.77 390.05C242.46 390.06 241.44 390.08 240.38 390.03C240.58 390.38 240.77 390.93 240.82 391.26C242.16 391.26 243.09 391.26 243.65 391.06C244.18 390.86 244.34 390.48 244.34 389.71L244.34 380.14L238.77 380.14C238.62 379.26 238.53 378.30 238.48 377.28M250.90 380.64L250.90 381.81L254.78 381.81C253.78 384.43 252.06 387.02 250.32 388.38C250.61 388.61 251.01 389.02 251.22 389.33C252.82 387.94 254.34 385.66 255.41 383.15L255.41 391.28L256.59 391.28L256.59 382.77C257.65 385.33 259.18 387.81 260.75 389.23C260.96 388.91 261.38 388.50 261.66 388.29C260 386.93 258.32 384.35 257.31 381.81L261.25 381.81L261.25 380.64L256.59 380.64L256.59 376.78L255.41 376.78L255.41 380.64M250.70 376.66C249.73 379.18 248.08 381.58 246.32 383.12C246.54 383.41 246.91 384.05 247.06 384.34C247.71 383.73 248.34 383.01 248.94 382.22L248.94 391.25L250.13 391.25L250.13 380.50C250.82 379.39 251.41 378.22 251.89 377.02M266.26 381.20L273.68 381.20L273.68 382.48L266.26 382.48M266.26 383.41L273.68 383.41L273.68 384.70L266.26 384.70M266.26 379.01L273.68 379.01L273.68 380.29L266.26 380.29M266.19 386.77L266.19 389.38C266.19 390.66 266.69 390.99 268.54 390.99C268.93 390.99 271.82 390.99 272.22 390.99C273.78 390.99 274.18 390.51 274.34 388.46C274 388.40 273.49 388.22 273.22 388.03C273.14 389.66 273.01 389.89 272.14 389.89C271.50 389.89 269.09 389.89 268.61 389.89C267.58 389.89 267.39 389.81 267.39 389.36L267.39 386.77M274.21 386.93C274.94 387.94 275.71 389.31 275.98 390.19L277.12 389.68C276.82 388.80 276.03 387.46 275.28 386.48M264.37 386.74C263.98 387.74 263.36 389.12 262.72 390L263.82 390.53C264.42 389.60 264.99 388.19 265.39 387.18M268.70 386.16C269.52 386.91 270.45 387.98 270.85 388.70L271.82 388.10C271.39 387.41 270.48 386.38 269.65 385.66L274.88 385.66L274.88 378.05L270.10 378.05C270.34 377.63 270.61 377.14 270.85 376.64L269.44 376.40C269.31 376.86 269.06 377.52 268.85 378.05L265.10 378.05L265.10 385.66L269.57 385.66M286 381.30C286.64 381.30 287.22 380.83 287.22 380.10C287.22 379.36 286.64 378.90 286 378.90C285.36 378.90 284.78 379.36 284.78 380.10C284.78 380.83 285.36 381.30 286 381.30M284.70 391.65C286.42 390.99 287.47 389.65 287.47 387.79C287.47 386.59 286.98 385.84 286.10 385.84C285.46 385.84 284.88 386.24 284.88 386.99C284.88 387.76 285.42 388.14 286.08 388.14L286.37 388.11C286.32 389.36 285.63 390.21 284.34 390.80M299.17 377.71L299.17 378.82L301.06 378.82C300.99 382.91 300.74 387.89 297.95 390.51C298.27 390.70 298.67 391.04 298.90 391.33C301.84 388.43 302.18 383.23 302.27 378.82L305.46 378.82C305.17 380.42 304.78 382.22 304.46 383.42L307.52 383.42C307.31 387.74 307.06 389.42 306.62 389.86C306.46 390.02 306.27 390.06 305.97 390.06C305.60 390.06 304.67 390.05 303.68 389.95C303.90 390.29 304.03 390.78 304.06 391.14C305.02 391.18 305.94 391.20 306.45 391.15C306.99 391.10 307.33 390.99 307.65 390.59C308.21 389.97 308.46 388.05 308.72 382.88C308.74 382.70 308.75 382.30 308.75 382.30L305.87 382.30C306.19 380.91 306.54 379.15 306.80 377.71M297.66 376.64C296.93 379.02 295.73 381.42 294.38 382.98C294.59 383.28 294.93 383.92 295.04 384.21C295.50 383.65 295.95 383.01 296.37 382.30L296.37 391.28L297.52 391.28L297.52 380.14C298 379.12 298.43 378.02 298.78 376.94M310.90 377.70L310.90 378.90L321.95 378.90L321.95 389.54C321.95 389.87 321.84 389.97 321.49 390C321.10 390 319.79 390.02 318.51 389.95C318.70 390.30 318.93 390.90 319.01 391.25C320.59 391.25 321.71 391.25 322.35 391.04C322.98 390.83 323.20 390.42 323.20 389.55L323.20 378.90L325.17 378.90L325.17 377.70M313.70 382.40L317.90 382.40L317.90 386.08L313.70 386.08M312.53 381.25L312.53 388.51L313.70 388.51L313.70 387.23L319.09 387.23L319.09 381.25M333.23 378.38L339.18 378.38L339.18 381.33L333.23 381.33M333.36 386.21C332.69 387.46 331.70 388.85 330.77 389.81C331.06 389.97 331.50 390.30 331.71 390.48C332.61 389.47 333.68 387.90 334.45 386.54M337.66 386.70C338.69 387.84 339.84 389.41 340.38 390.42L341.36 389.81C340.80 388.83 339.62 387.33 338.58 386.19M332.08 377.31L332.08 382.42L335.57 382.42L335.57 384.32L330.90 384.32L330.90 385.42L335.57 385.42L335.57 391.28L336.77 391.28L336.77 385.42L341.31 385.42L341.31 384.32L336.77 384.32L336.77 382.42L340.38 382.42L340.38 377.31M330.43 376.61C329.50 379.02 327.97 381.41 326.37 382.94C326.58 383.22 326.93 383.86 327.04 384.13C327.62 383.55 328.18 382.88 328.70 382.14L328.70 391.23L329.87 391.23L329.87 380.37C330.51 379.28 331.09 378.13 331.55 376.96M345.90 388.06L349.46 388.06L349.46 389.70L345.90 389.70M345.90 387.12L345.90 385.55L349.46 385.55L349.46 387.12M354.22 388.06L354.22 389.70L350.59 389.70L350.59 388.06M354.22 387.12L350.59 387.12L350.59 385.55L354.22 385.55M344.70 384.56L344.70 391.28L345.90 391.28L345.90 390.69L354.22 390.69L354.22 391.22L355.47 391.22L355.47 384.56M350.02 377.44L350.02 378.51L351.89 378.51C351.66 380.67 351.07 382.32 348.96 383.25C349.22 383.44 349.54 383.84 349.66 384.10C352.05 382.98 352.75 381.06 353.02 378.51L355.49 378.51C355.38 381.20 355.22 382.22 354.98 382.51C354.86 382.66 354.72 382.67 354.48 382.67C354.24 382.67 353.58 382.67 352.90 382.61C353.06 382.90 353.18 383.33 353.20 383.66C353.92 383.70 354.62 383.70 355.01 383.66C355.44 383.63 355.73 383.52 355.97 383.22C356.35 382.77 356.51 381.47 356.67 377.95C356.67 377.79 356.69 377.44 356.69 377.44M343.89 383.73C344.19 383.52 344.70 383.33 348.29 382.35C348.45 382.69 348.58 383.01 348.66 383.28L349.71 382.83C349.41 381.89 348.61 380.45 347.86 379.38L346.88 379.78C347.22 380.27 347.54 380.83 347.84 381.39L345.01 382.10L345.01 378.66C346.48 378.34 348.06 377.92 349.22 377.46L348.40 376.58C347.31 377.07 345.46 377.58 343.84 377.94L343.84 381.44C343.84 382.18 343.49 382.61 343.25 382.80C343.44 382.99 343.76 383.46 343.89 383.71M367.47 382.69L371.33 382.69L371.33 384.30L367.47 384.30M360.34 383.76L363.71 383.76L363.71 385.02L360.34 385.02M360.34 381.63L363.71 381.63L363.71 382.85L360.34 382.85M371.02 380.11L368.70 380.11L368.90 378.80L371.02 378.80M368 376.56L367.87 377.86L366.02 377.86L366.02 378.80L367.78 378.80L367.60 380.11L365.18 380.11L365.18 381.09L373.33 381.09L373.33 380.11L372.10 380.11L372.10 377.86L369.01 377.86L369.12 376.66M365.70 386.06L365.70 387.02L366.77 387.02C366.58 387.89 366.35 388.86 366.14 389.54L369.34 389.54L369.34 391.26L370.46 391.26L370.46 389.54L373.33 389.54L373.33 388.58L370.46 388.58L370.46 387.02L372.98 387.02L372.98 386.06L370.46 386.06L370.46 385.14L372.48 385.14L372.48 381.82L366.34 381.82L366.34 385.14L369.34 385.14L369.34 386.06M369.34 387.02L369.34 388.58L367.49 388.58L367.82 387.02M358.67 387.33L358.67 388.42L361.42 388.42L361.42 391.26L362.59 391.26L362.59 388.42L365.28 388.42L365.28 387.33L362.59 387.33L362.59 385.97L364.82 385.97L364.82 380.66L362.59 380.66L362.59 379.31L365.14 379.31L365.14 378.24L362.59 378.24L362.59 376.53L361.42 376.53L361.42 378.24L358.83 378.24L358.83 379.31L361.42 379.31L361.42 380.66L359.26 380.66L359.26 385.97L361.42 385.97L361.42 387.33M375.73 377.15L375.73 382.90C375.73 385.26 375.63 388.48 374.54 390.74C374.83 390.83 375.31 391.10 375.52 391.30C376.26 389.78 376.58 387.76 376.72 385.86L379.26 385.86L379.26 389.82C379.26 390.06 379.17 390.13 378.96 390.13C378.75 390.14 378.08 390.14 377.34 390.13C377.50 390.45 377.65 390.98 377.68 391.28C378.77 391.28 379.41 391.26 379.82 391.06C380.24 390.86 380.38 390.50 380.38 389.84L380.38 377.15M376.82 378.27L379.26 378.27L379.26 380.90L376.82 380.90M376.82 382.02L379.26 382.02L379.26 384.72L376.78 384.72C376.80 384.08 376.82 383.46 376.82 382.90M387.73 383.74C387.38 385.09 386.82 386.30 386.13 387.34C385.38 386.27 384.80 385.06 384.37 383.74M381.79 377.20L381.79 391.28L382.93 391.28L382.93 383.74L383.33 383.74C383.84 385.41 384.54 386.94 385.46 388.24C384.72 389.14 383.87 389.82 382.99 390.30C383.25 390.51 383.57 390.91 383.70 391.18C384.58 390.67 385.41 389.98 386.14 389.14C386.90 390.03 387.76 390.77 388.74 391.30C388.93 391.01 389.26 390.59 389.52 390.37C388.51 389.89 387.62 389.15 386.83 388.26C387.84 386.83 388.62 385.02 389.06 382.85L388.35 382.59L388.14 382.64L382.93 382.64L382.93 378.32L387.42 378.32L387.42 380.29C387.42 380.48 387.38 380.53 387.12 380.54C386.86 380.56 386.02 380.56 385.04 380.53C385.20 380.82 385.38 381.23 385.42 381.55C386.64 381.55 387.46 381.55 387.95 381.39C388.46 381.22 388.59 380.90 388.59 380.30L388.59 377.20M398.27 376.51C396.64 378.99 393.68 381.14 390.64 382.34C390.98 382.61 391.31 383.07 391.50 383.39C392.34 383.02 393.17 382.59 393.97 382.10L393.97 382.90L402.05 382.90L402.05 381.82C402.88 382.35 403.74 382.82 404.66 383.25C404.83 382.86 405.20 382.43 405.50 382.16C402.96 381.09 400.69 379.76 398.82 377.78L399.33 377.06M394.43 381.79C395.79 380.90 397.06 379.82 398.10 378.64C399.31 379.92 400.59 380.93 401.98 381.79M393.14 384.82L393.14 391.25L394.35 391.25L394.35 390.35L401.81 390.35L401.81 391.18L403.07 391.18L403.07 384.82M394.35 389.23L394.35 385.90L401.81 385.90L401.81 389.23M414.45 383.49L419.14 383.49L419.14 385.92L414.45 385.92M413.33 382.48L413.33 386.93L420.32 386.93L420.32 382.48M411.44 388C411.63 389.06 411.76 390.40 411.78 391.22L412.94 391.04C412.93 390.24 412.75 388.91 412.54 387.89M414.86 387.95C415.28 388.99 415.68 390.37 415.84 391.18L417.02 390.93C416.86 390.08 416.42 388.75 415.98 387.74M418.13 387.87C418.90 388.93 419.78 390.40 420.16 391.31L421.30 390.80C420.90 389.89 419.98 388.46 419.22 387.42M408.78 387.54C408.26 388.72 407.41 390.05 406.69 390.85L407.84 391.36C408.58 390.45 409.38 389.06 409.94 387.87M408.62 378.32L411.02 378.32L411.02 381.14L408.62 381.14M408.62 385.33L408.62 382.19L411.02 382.19L411.02 385.33M407.49 377.25L407.49 387.23L408.62 387.23L408.62 386.42L412.14 386.42L412.14 377.25M412.85 377.22L412.85 378.29L415.52 378.29C415.20 379.78 414.45 380.80 412.34 381.38C412.58 381.57 412.88 382 413.01 382.27C415.44 381.52 416.35 380.22 416.70 378.29L419.57 378.29C419.46 379.81 419.34 380.43 419.14 380.64C419.02 380.75 418.88 380.77 418.66 380.77C418.40 380.77 417.74 380.77 417.04 380.70C417.22 380.98 417.33 381.39 417.34 381.70C418.08 381.74 418.80 381.73 419.17 381.71C419.58 381.68 419.86 381.58 420.11 381.33C420.45 380.96 420.61 380.02 420.75 377.68C420.77 377.52 420.78 377.22 420.78 377.22M428.78 385.55L435.36 385.55L435.36 386.48L428.78 386.48M428.78 387.23L435.36 387.23L435.36 388.16L428.78 388.16M428.78 383.90L435.36 383.90L435.36 384.80L428.78 384.80M427.66 383.14L427.66 388.93L436.53 388.93L436.53 383.14M432.86 389.73C434.24 390.21 435.65 390.83 436.48 391.33L437.50 390.62C436.58 390.13 435.02 389.52 433.65 389.06M430.22 389.02C429.39 389.58 427.84 390.16 426.45 390.50C426.67 390.69 426.96 391.06 427.10 391.30C428.53 390.94 430.11 390.34 431.09 389.65M427.33 379.23L427.33 382.37L436.72 382.37L436.72 379.23L433.86 379.23L433.86 378.29L437.22 378.29L437.22 377.36L426.94 377.36L426.94 378.29L430.10 378.29L430.10 379.23M431.07 378.29L432.85 378.29L432.85 379.23L431.07 379.23M428.38 380.03L430.10 380.03L430.10 381.57L428.38 381.57M431.07 380.03L432.85 380.03L432.85 381.57L431.07 381.57M433.86 380.03L435.62 380.03L435.62 381.57L433.86 381.57M425.73 376.64C424.96 379.12 423.68 381.58 422.29 383.18C422.50 383.49 422.80 384.11 422.91 384.40C423.44 383.78 423.95 383.06 424.43 382.26L424.43 391.28L425.58 391.28L425.58 380.10C426.06 379.09 426.50 378.02 426.83 376.94M447.58 376.56C447.54 377.04 447.46 377.62 447.38 378.19L443.26 378.19L443.26 379.26L447.18 379.26C447.09 379.81 446.99 380.32 446.88 380.75L444.11 380.75L444.11 389.78L442.58 389.78L442.58 390.82L453.33 390.82L453.33 389.78L451.90 389.78L451.90 380.75L447.97 380.75C448.10 380.32 448.22 379.81 448.34 379.26L452.85 379.26L452.85 378.19L448.58 378.19L448.86 376.64M445.20 389.78L445.20 388.45L450.78 388.45L450.78 389.78M445.20 383.94L450.78 383.94L450.78 385.31L445.20 385.31M445.20 383.04L445.20 381.70L450.78 381.70L450.78 383.04M445.20 386.18L450.78 386.18L450.78 387.57L445.20 387.57M442.22 376.58C441.38 379.01 439.98 381.39 438.51 382.96C438.72 383.25 439.06 383.87 439.18 384.14C439.65 383.63 440.11 383.04 440.54 382.40L440.54 391.28L441.66 391.28L441.66 380.58C442.30 379.42 442.86 378.18 443.33 376.93M462.05 381.50C460.72 381.50 459.62 382.59 459.62 383.94C459.62 385.28 460.72 386.37 462.05 386.37C463.39 386.37 464.48 385.28 464.48 383.94C464.48 382.59 463.39 381.50 462.05 381.50M462.05 385.55C461.17 385.55 460.43 384.83 460.43 383.94C460.43 383.04 461.17 382.32 462.05 382.32C462.94 382.32 463.66 383.04 463.66 383.94C463.66 384.83 462.94 385.55 462.05 385.55" fill="#6a5d4a" aria-label="雨天：縮短戶外，改室內休息；仍可保留韓服合照價值。"/></svg>